<svg width="193" height="123" viewBox="0 0 193 123" fill="none" xmlns="http://www.w3.org/2000/svg">
<path d="M181.149 69.8223L181.146 69.8238L166.333 78.6074L155.371 85.1042L155.37 85.1044L138.376 95.1946L127.165 101.849L127.165 101.849L99.899 118.023C99.8985 118.023 99.898 118.024 99.8976 118.024C98.7159 118.716 97.1076 119.066 95.4969 119.019L95.4898 119.019H95.4826C94.8656 119.019 94.2288 118.929 93.6279 118.79L93.6249 118.789C93.0704 118.665 92.5438 118.485 92.0539 118.242L91.9335 118.175L91.8941 118.153L91.8514 118.138C91.8019 118.122 91.7352 118.087 91.6511 118.033L91.6438 118.028L91.6364 118.024L89.2188 116.596L89.2188 116.596L82.7838 112.797L82.7834 112.797L9.87702 69.8353L9.87693 69.8352C8.73646 69.1635 8.27744 68.349 8.28626 67.6469H8.2863V67.6406V54.792C8.2863 54.077 8.73485 53.262 9.84504 52.5953L9.84538 52.5951L10.5067 52.1972L10.509 52.1958L17.9368 47.7815L17.9372 47.7812L91.0802 4.4083L91.081 4.40782C92.1945 3.74473 93.6886 3.39844 95.2115 3.39844C96.7343 3.39844 98.2318 3.74469 99.3517 4.40837L99.3528 4.40897L178.54 51.0851L178.541 51.0853L181.112 52.5975C182.248 53.2664 182.703 54.0819 182.703 54.792L182.702 67.6406L182.703 67.6532C182.72 68.354 182.273 69.1649 181.149 69.8223Z" fill="#080E24"/>
<path d="M181.149 69.8223L181.146 69.8238L166.333 78.6074L155.371 85.1042L155.37 85.1044L138.376 95.1946L127.165 101.849L127.165 101.849L99.899 118.023C99.8985 118.023 99.898 118.024 99.8976 118.024C98.7159 118.716 97.1076 119.066 95.4969 119.019L95.4898 119.019H95.4826C94.8656 119.019 94.2288 118.929 93.6279 118.79L93.6249 118.789C93.0704 118.665 92.5438 118.485 92.0539 118.242L91.9335 118.175L91.8941 118.153L91.8514 118.138C91.8019 118.122 91.7352 118.087 91.6511 118.033L91.6438 118.028L91.6364 118.024L89.2188 116.596L89.2188 116.596L82.7838 112.797L82.7834 112.797L9.87702 69.8353L9.87693 69.8352C8.73646 69.1635 8.27744 68.349 8.28626 67.6469H8.2863V67.6406V54.792C8.2863 54.077 8.73485 53.262 9.84504 52.5953L9.84538 52.5951L10.5067 52.1972L10.509 52.1958L17.9368 47.7815L17.9372 47.7812L91.0802 4.4083L91.081 4.40782C92.1945 3.74473 93.6886 3.39844 95.2115 3.39844C96.7343 3.39844 98.2318 3.74469 99.3517 4.40837L99.3528 4.40897L178.54 51.0851L178.541 51.0853L181.112 52.5975C182.248 53.2664 182.703 54.0819 182.703 54.792L182.702 67.6406L182.703 67.6532C182.72 68.354 182.273 69.1649 181.149 69.8223Z" stroke="#E0F1FF"/>
<path d="M181.149 69.8223L181.146 69.8238L166.333 78.6074L155.371 85.1042L155.37 85.1044L138.376 95.1946L127.165 101.849L127.165 101.849L99.899 118.023C99.8985 118.023 99.898 118.024 99.8976 118.024C98.7159 118.716 97.1076 119.066 95.4969 119.019L95.4898 119.019H95.4826C94.8656 119.019 94.2288 118.929 93.6279 118.79L93.6249 118.789C93.0704 118.665 92.5438 118.485 92.0539 118.242L91.9335 118.175L91.8941 118.153L91.8514 118.138C91.8019 118.122 91.7352 118.087 91.6511 118.033L91.6438 118.028L91.6364 118.024L89.2188 116.596L89.2188 116.596L82.7838 112.797L82.7834 112.797L9.87702 69.8353L9.87693 69.8352C8.73646 69.1635 8.27744 68.349 8.28626 67.6469H8.2863V67.6406V54.792C8.2863 54.077 8.73485 53.262 9.84504 52.5953L9.84538 52.5951L10.5067 52.1972L10.509 52.1958L17.9368 47.7815L17.9372 47.7812L91.0802 4.4083L91.081 4.40782C92.1945 3.74473 93.6886 3.39844 95.2115 3.39844C96.7343 3.39844 98.2318 3.74469 99.3517 4.40837L99.3528 4.40897L178.54 51.0851L178.541 51.0853L181.112 52.5975C182.248 53.2664 182.703 54.0819 182.703 54.792L182.702 67.6406L182.703 67.6532C182.72 68.354 182.273 69.1649 181.149 69.8223Z" stroke="url(#paint0_linear_423_467)"/>
<path d="M95.9326 106.344V119.519" stroke="#E0F1FF" stroke-miterlimit="10"/>
<path d="M95.9326 106.344V119.519" stroke="url(#paint1_linear_423_467)" stroke-miterlimit="10"/>
<path d="M21.2368 51.4183L27.0628 47.9589L9.87267 37.8198L4.04663 41.2791L21.2368 51.4183Z" fill="#080E24"/>
<path d="M21.2368 51.4183L27.0628 47.9589L9.87267 37.8198L4.04663 41.2791L21.2368 51.4183Z" stroke="#E0F1FF" stroke-width="0.5"/>
<path d="M21.2368 51.4183L27.0628 47.9589L9.87267 37.8198L4.04663 41.2791L21.2368 51.4183Z" stroke="url(#paint2_linear_423_467)" stroke-width="0.5"/>
<path d="M27.3145 48.3501L21.4861 51.8378V55.0291L27.3145 51.5303V48.3501Z" fill="#080E24" stroke="url(#paint3_linear_423_467)" stroke-width="0.5"/>
<path d="M3.80487 44.9112L20.9863 55.0453V51.839L3.80487 41.7167V44.9112Z" fill="#080E24"/>
<path d="M3.80487 44.9112L20.9863 55.0453V51.839L3.80487 41.7167V44.9112Z" stroke="#E0F1FF" stroke-width="0.5"/>
<path d="M3.80487 44.9112L20.9863 55.0453V51.839L3.80487 41.7167V44.9112Z" stroke="url(#paint4_linear_423_467)" stroke-width="0.5"/>
<path d="M43.5483 38.0853L49.3744 34.6259L32.1842 24.4868L26.3582 27.9461L43.5483 38.0853Z" fill="#080E24"/>
<path d="M43.5483 38.0853L49.3744 34.6259L32.1842 24.4868L26.3582 27.9461L43.5483 38.0853Z" stroke="#E0F1FF" stroke-width="0.5"/>
<path d="M43.5483 38.0853L49.3744 34.6259L32.1842 24.4868L26.3582 27.9461L43.5483 38.0853Z" stroke="url(#paint5_linear_423_467)" stroke-width="0.5"/>
<path d="M49.627 35.0181L43.7986 38.5057V41.6971L49.627 38.1983V35.0181Z" fill="#080E24" stroke="url(#paint6_linear_423_467)" stroke-width="0.5"/>
<path d="M26.1174 31.5782L43.2988 41.7122V38.506L26.1174 28.3837V31.5782Z" fill="#080E24"/>
<path d="M26.1174 31.5782L43.2988 41.7122V38.506L26.1174 28.3837V31.5782Z" stroke="#E0F1FF" stroke-width="0.5"/>
<path d="M26.1174 31.5782L43.2988 41.7122V38.506L26.1174 28.3837V31.5782Z" stroke="url(#paint7_linear_423_467)" stroke-width="0.5"/>
<path d="M63.6948 25.9856L69.5208 22.5263L52.3307 12.3872L46.5046 15.8465L63.6948 25.9856Z" fill="#080E24"/>
<path d="M63.6948 25.9856L69.5208 22.5263L52.3307 12.3872L46.5046 15.8465L63.6948 25.9856Z" stroke="#E0F1FF" stroke-width="0.5"/>
<path d="M63.6948 25.9856L69.5208 22.5263L52.3307 12.3872L46.5046 15.8465L63.6948 25.9856Z" stroke="url(#paint8_linear_423_467)" stroke-width="0.5"/>
<path d="M69.7734 22.9185L63.9451 26.4061V29.5975L69.7734 26.0987V22.9185Z" fill="#080E24" stroke="url(#paint9_linear_423_467)" stroke-width="0.5"/>
<path d="M46.2639 19.4786L63.4453 29.6126V26.4064L46.2639 16.2841V19.4786Z" fill="#080E24"/>
<path d="M46.2639 19.4786L63.4453 29.6126V26.4064L46.2639 16.2841V19.4786Z" stroke="#E0F1FF" stroke-width="0.5"/>
<path d="M46.2639 19.4786L63.4453 29.6126V26.4064L46.2639 16.2841V19.4786Z" stroke="url(#paint10_linear_423_467)" stroke-width="0.5"/>
<path d="M83.8413 13.889L89.6673 10.4296L72.4772 0.290497L66.6511 3.74983L83.8413 13.889Z" fill="#080E24"/>
<path d="M83.8413 13.889L89.6673 10.4296L72.4772 0.290497L66.6511 3.74983L83.8413 13.889Z" stroke="#E0F1FF" stroke-width="0.5"/>
<path d="M83.8413 13.889L89.6673 10.4296L72.4772 0.290497L66.6511 3.74983L83.8413 13.889Z" stroke="url(#paint11_linear_423_467)" stroke-width="0.5"/>
<path d="M89.9199 10.8208L84.0916 14.3085V17.4998L89.9199 14.001V10.8208Z" fill="#080E24" stroke="url(#paint12_linear_423_467)" stroke-width="0.5"/>
<path d="M66.4103 7.38194L83.5918 17.516V14.3097L66.4103 4.18744V7.38194Z" fill="#080E24"/>
<path d="M66.4103 7.38194L83.5918 17.516V14.3097L66.4103 4.18744V7.38194Z" stroke="#E0F1FF" stroke-width="0.5"/>
<path d="M66.4103 7.38194L83.5918 17.516V14.3097L66.4103 4.18744V7.38194Z" stroke="url(#paint13_linear_423_467)" stroke-width="0.5"/>
<path d="M68.9351 117.96L63.109 114.501L80.2992 104.362L86.1252 107.821L68.9351 117.96Z" fill="#080E24"/>
<path d="M68.9351 117.96L63.109 114.501L80.2992 104.362L86.1252 107.821L68.9351 117.96Z" stroke="#E0F1FF" stroke-width="0.5"/>
<path d="M68.9351 117.96L63.109 114.501L80.2992 104.362L86.1252 107.821L68.9351 117.96Z" stroke="url(#paint14_linear_423_467)" stroke-width="0.5"/>
<path d="M62.8564 114.892L68.6848 118.38V121.571L62.8564 118.072V114.892Z" fill="#080E24" stroke="url(#paint15_linear_423_467)" stroke-width="0.5"/>
<path d="M86.366 111.453L69.1846 121.587V118.381L86.366 108.259V111.453Z" fill="#080E24"/>
<path d="M86.366 111.453L69.1846 121.587V118.381L86.366 108.259V111.453Z" stroke="#E0F1FF" stroke-width="0.5"/>
<path d="M86.366 111.453L69.1846 121.587V118.381L86.366 108.259V111.453Z" stroke="url(#paint16_linear_423_467)" stroke-width="0.5"/>
<path d="M46.6216 104.627L40.7956 101.168L57.9857 91.0288L63.8118 94.4881L46.6216 104.627Z" fill="#080E24"/>
<path d="M46.6216 104.627L40.7956 101.168L57.9857 91.0288L63.8118 94.4881L46.6216 104.627Z" stroke="#E0F1FF" stroke-width="0.5"/>
<path d="M46.6216 104.627L40.7956 101.168L57.9857 91.0288L63.8118 94.4881L46.6216 104.627Z" stroke="url(#paint17_linear_423_467)" stroke-width="0.5"/>
<path d="M40.543 101.56L46.3713 105.048V108.239L40.543 104.74V101.56Z" fill="#080E24" stroke="url(#paint18_linear_423_467)" stroke-width="0.5"/>
<path d="M64.0526 98.1202L46.8711 108.254V105.048L64.0526 94.9257V98.1202Z" fill="#080E24"/>
<path d="M64.0526 98.1202L46.8711 108.254V105.048L64.0526 94.9257V98.1202Z" stroke="#E0F1FF" stroke-width="0.5"/>
<path d="M64.0526 98.1202L46.8711 108.254V105.048L64.0526 94.9257V98.1202Z" stroke="url(#paint19_linear_423_467)" stroke-width="0.5"/>
<path d="M26.4751 92.5276L20.6491 89.0683L37.8392 78.9292L43.6653 82.3885L26.4751 92.5276Z" fill="#080E24"/>
<path d="M26.4751 92.5276L20.6491 89.0683L37.8392 78.9292L43.6653 82.3885L26.4751 92.5276Z" stroke="#E0F1FF" stroke-width="0.5"/>
<path d="M26.4751 92.5276L20.6491 89.0683L37.8392 78.9292L43.6653 82.3885L26.4751 92.5276Z" stroke="url(#paint20_linear_423_467)" stroke-width="0.5"/>
<path d="M20.3965 89.4605L26.2248 92.9481V96.1394L20.3965 92.6407V89.4605Z" fill="#080E24" stroke="url(#paint21_linear_423_467)" stroke-width="0.5"/>
<path d="M43.9061 86.0206L26.7246 96.1546V92.9484L43.9061 82.8261V86.0206Z" fill="#080E24"/>
<path d="M43.9061 86.0206L26.7246 96.1546V92.9484L43.9061 82.8261V86.0206Z" stroke="#E0F1FF" stroke-width="0.5"/>
<path d="M43.9061 86.0206L26.7246 96.1546V92.9484L43.9061 82.8261V86.0206Z" stroke="url(#paint22_linear_423_467)" stroke-width="0.5"/>
<path d="M6.32864 80.431L0.502594 76.9716L17.6928 66.8325L23.5188 70.2918L6.32864 80.431Z" fill="#080E24"/>
<path d="M6.32864 80.431L0.502594 76.9716L17.6928 66.8325L23.5188 70.2918L6.32864 80.431Z" stroke="#E0F1FF" stroke-width="0.5"/>
<path d="M6.32864 80.431L0.502594 76.9716L17.6928 66.8325L23.5188 70.2918L6.32864 80.431Z" stroke="url(#paint23_linear_423_467)" stroke-width="0.5"/>
<path d="M0.25 77.3628L6.07835 80.8505V84.0418L0.25 80.543V77.3628Z" fill="#080E24" stroke="url(#paint24_linear_423_467)" stroke-width="0.5"/>
<path d="M23.7596 73.9239L6.57812 84.058V80.8517L23.7596 70.7294V73.9239Z" fill="#080E24"/>
<path d="M23.7596 73.9239L6.57812 84.058V80.8517L23.7596 70.7294V73.9239Z" stroke="#E0F1FF" stroke-width="0.5"/>
<path d="M23.7596 73.9239L6.57812 84.058V80.8517L23.7596 70.7294V73.9239Z" stroke="url(#paint25_linear_423_467)" stroke-width="0.5"/>
<path d="M123.153 116.749L128.979 113.29L111.789 103.151L105.963 106.61L123.153 116.749Z" fill="#080E24"/>
<path d="M123.153 116.749L128.979 113.29L111.789 103.151L105.963 106.61L123.153 116.749Z" stroke="#E0F1FF" stroke-width="0.5"/>
<path d="M123.153 116.749L128.979 113.29L111.789 103.151L105.963 106.61L123.153 116.749Z" stroke="url(#paint26_linear_423_467)" stroke-width="0.5"/>
<path d="M129.231 113.682L123.403 117.17V120.361L129.231 116.862V113.682Z" fill="#080E24" stroke="url(#paint27_linear_423_467)" stroke-width="0.5"/>
<path d="M105.722 110.242L122.903 120.376V117.17L105.722 107.048V110.242Z" fill="#080E24"/>
<path d="M105.722 110.242L122.903 120.376V117.17L105.722 107.048V110.242Z" stroke="#E0F1FF" stroke-width="0.5"/>
<path d="M105.722 110.242L122.903 120.376V117.17L105.722 107.048V110.242Z" stroke="url(#paint28_linear_423_467)" stroke-width="0.5"/>
<path d="M145.466 103.417L151.292 99.958L134.102 89.8188L128.276 93.2782L145.466 103.417Z" fill="#080E24"/>
<path d="M145.466 103.417L151.292 99.958L134.102 89.8188L128.276 93.2782L145.466 103.417Z" stroke="#E0F1FF" stroke-width="0.5"/>
<path d="M145.466 103.417L151.292 99.958L134.102 89.8188L128.276 93.2782L145.466 103.417Z" stroke="url(#paint29_linear_423_467)" stroke-width="0.5"/>
<path d="M151.545 100.349L145.717 103.837V107.028L151.545 103.529V100.349Z" fill="#080E24" stroke="url(#paint30_linear_423_467)" stroke-width="0.5"/>
<path d="M128.035 96.9103L145.217 107.044V103.838L128.035 93.7158V96.9103Z" fill="#080E24"/>
<path d="M128.035 96.9103L145.217 107.044V103.838L128.035 93.7158V96.9103Z" stroke="#E0F1FF" stroke-width="0.5"/>
<path d="M128.035 96.9103L145.217 107.044V103.838L128.035 93.7158V96.9103Z" stroke="url(#paint31_linear_423_467)" stroke-width="0.5"/>
<path d="M165.613 91.3187L171.439 87.8593L154.249 77.7202L148.423 81.1795L165.613 91.3187Z" fill="#080E24"/>
<path d="M165.613 91.3187L171.439 87.8593L154.249 77.7202L148.423 81.1795L165.613 91.3187Z" stroke="#E0F1FF" stroke-width="0.5"/>
<path d="M165.613 91.3187L171.439 87.8593L154.249 77.7202L148.423 81.1795L165.613 91.3187Z" stroke="url(#paint32_linear_423_467)" stroke-width="0.5"/>
<path d="M171.691 88.2515L165.863 91.7391V94.9305L171.691 91.4317V88.2515Z" fill="#080E24" stroke="url(#paint33_linear_423_467)" stroke-width="0.5"/>
<path d="M148.182 84.8116L165.363 94.9456V91.7394L148.182 81.6171V84.8116Z" fill="#080E24"/>
<path d="M148.182 84.8116L165.363 94.9456V91.7394L148.182 81.6171V84.8116Z" stroke="#E0F1FF" stroke-width="0.5"/>
<path d="M148.182 84.8116L165.363 94.9456V91.7394L148.182 81.6171V84.8116Z" stroke="url(#paint34_linear_423_467)" stroke-width="0.5"/>
<path d="M185.759 79.22L191.585 75.7607L174.395 65.6216L168.569 69.0809L185.759 79.22Z" fill="#080E24"/>
<path d="M185.759 79.22L191.585 75.7607L174.395 65.6216L168.569 69.0809L185.759 79.22Z" stroke="#E0F1FF" stroke-width="0.5"/>
<path d="M185.759 79.22L191.585 75.7607L174.395 65.6216L168.569 69.0809L185.759 79.22Z" stroke="url(#paint35_linear_423_467)" stroke-width="0.5"/>
<path d="M191.838 76.1529L186.01 79.6405V82.8318L191.838 79.333V76.1529Z" fill="#080E24" stroke="url(#paint36_linear_423_467)" stroke-width="0.5"/>
<path d="M168.328 72.713L185.51 82.847V79.6408L168.328 69.5185V72.713Z" fill="#080E24"/>
<path d="M168.328 72.713L185.51 82.847V79.6408L168.328 69.5185V72.713Z" stroke="#E0F1FF" stroke-width="0.5"/>
<path d="M168.328 72.713L185.51 82.847V79.6408L168.328 69.5185V72.713Z" stroke="url(#paint37_linear_423_467)" stroke-width="0.5"/>
<path d="M172.037 51.4183L166.211 47.9589L183.401 37.8198L189.227 41.2791L172.037 51.4183Z" fill="#080E24"/>
<path d="M172.037 51.4183L166.211 47.9589L183.401 37.8198L189.227 41.2791L172.037 51.4183Z" stroke="#E0F1FF" stroke-width="0.5"/>
<path d="M172.037 51.4183L166.211 47.9589L183.401 37.8198L189.227 41.2791L172.037 51.4183Z" stroke="url(#paint38_linear_423_467)" stroke-width="0.5"/>
<path d="M165.958 48.3501L171.786 51.8378V55.0291L165.958 51.5303V48.3501Z" fill="#080E24" stroke="url(#paint39_linear_423_467)" stroke-width="0.5"/>
<path d="M189.468 44.9112L172.286 55.0453V51.839L189.468 41.7167V44.9112Z" fill="#080E24"/>
<path d="M189.468 44.9112L172.286 55.0453V51.839L189.468 41.7167V44.9112Z" stroke="#E0F1FF" stroke-width="0.5"/>
<path d="M189.468 44.9112L172.286 55.0453V51.839L189.468 41.7167V44.9112Z" stroke="url(#paint40_linear_423_467)" stroke-width="0.5"/>
<path d="M149.723 38.0853L143.897 34.6259L161.087 24.4868L166.913 27.9461L149.723 38.0853Z" fill="#080E24"/>
<path d="M149.723 38.0853L143.897 34.6259L161.087 24.4868L166.913 27.9461L149.723 38.0853Z" stroke="#E0F1FF" stroke-width="0.5"/>
<path d="M149.723 38.0853L143.897 34.6259L161.087 24.4868L166.913 27.9461L149.723 38.0853Z" stroke="url(#paint41_linear_423_467)" stroke-width="0.5"/>
<path d="M143.645 35.0181L149.473 38.5057V41.6971L143.645 38.1983V35.0181Z" fill="#080E24" stroke="url(#paint42_linear_423_467)" stroke-width="0.5"/>
<path d="M167.154 31.5782L149.973 41.7122V38.506L167.154 28.3837V31.5782Z" fill="#080E24"/>
<path d="M167.154 31.5782L149.973 41.7122V38.506L167.154 28.3837V31.5782Z" stroke="#E0F1FF" stroke-width="0.5"/>
<path d="M167.154 31.5782L149.973 41.7122V38.506L167.154 28.3837V31.5782Z" stroke="url(#paint43_linear_423_467)" stroke-width="0.5"/>
<path d="M129.576 25.9856L123.75 22.5263L140.94 12.3872L146.766 15.8465L129.576 25.9856Z" fill="#080E24"/>
<path d="M129.576 25.9856L123.75 22.5263L140.94 12.3872L146.766 15.8465L129.576 25.9856Z" stroke="#E0F1FF" stroke-width="0.5"/>
<path d="M129.576 25.9856L123.75 22.5263L140.94 12.3872L146.766 15.8465L129.576 25.9856Z" stroke="url(#paint44_linear_423_467)" stroke-width="0.5"/>
<path d="M123.498 22.9185L129.326 26.4061V29.5975L123.498 26.0987V22.9185Z" fill="#080E24" stroke="url(#paint45_linear_423_467)" stroke-width="0.5"/>
<path d="M147.008 19.4786L129.826 29.6126V26.4064L147.008 16.2841V19.4786Z" fill="#080E24"/>
<path d="M147.008 19.4786L129.826 29.6126V26.4064L147.008 16.2841V19.4786Z" stroke="#E0F1FF" stroke-width="0.5"/>
<path d="M147.008 19.4786L129.826 29.6126V26.4064L147.008 16.2841V19.4786Z" stroke="url(#paint46_linear_423_467)" stroke-width="0.5"/>
<path d="M109.43 13.889L103.604 10.4296L120.794 0.290497L126.62 3.74983L109.43 13.889Z" fill="#080E24"/>
<path d="M109.43 13.889L103.604 10.4296L120.794 0.290497L126.62 3.74983L109.43 13.889Z" stroke="#E0F1FF" stroke-width="0.5"/>
<path d="M109.43 13.889L103.604 10.4296L120.794 0.290497L126.62 3.74983L109.43 13.889Z" stroke="url(#paint47_linear_423_467)" stroke-width="0.5"/>
<path d="M103.352 10.8208L109.18 14.3085V17.4998L103.352 14.001V10.8208Z" fill="#080E24" stroke="url(#paint48_linear_423_467)" stroke-width="0.5"/>
<path d="M126.861 7.38194L109.68 17.516V14.3097L126.861 4.18744V7.38194Z" fill="#080E24"/>
<path d="M126.861 7.38194L109.68 17.516V14.3097L126.861 4.18744V7.38194Z" stroke="#E0F1FF" stroke-width="0.5"/>
<path d="M126.861 7.38194L109.68 17.516V14.3097L126.861 4.18744V7.38194Z" stroke="url(#paint49_linear_423_467)" stroke-width="0.5"/>
<path d="M181.4 57.0669L100.162 105.255C97.7445 106.695 93.81 106.695 91.3806 105.255L9.6216 57.0669C7.19218 55.6271 7.16848 53.3042 9.58605 51.8645L47.5325 29.3612L90.8236 3.68819C93.2412 2.24847 97.1638 2.24847 99.6051 3.68819L147.293 31.8052L181.364 51.8766C183.793 53.3163 183.817 55.6392 181.4 57.079V57.0669Z" fill="#080E24"/>
<path d="M181.4 57.0669L100.162 105.255C97.7445 106.695 93.81 106.695 91.3806 105.255L9.6216 57.0669C7.19218 55.6271 7.16848 53.3042 9.58605 51.8645L47.5325 29.3612L90.8236 3.68819C93.2412 2.24847 97.1638 2.24847 99.6051 3.68819L147.293 31.8052L181.364 51.8766C183.793 53.3163 183.817 55.6392 181.4 57.079V57.0669Z" stroke="#E0F1FF" stroke-miterlimit="10"/>
<path d="M181.4 57.0669L100.162 105.255C97.7445 106.695 93.81 106.695 91.3806 105.255L9.6216 57.0669C7.19218 55.6271 7.16848 53.3042 9.58605 51.8645L47.5325 29.3612L90.8236 3.68819C93.2412 2.24847 97.1638 2.24847 99.6051 3.68819L147.293 31.8052L181.364 51.8766C183.793 53.3163 183.817 55.6392 181.4 57.079V57.0669Z" stroke="url(#paint50_linear_423_467)" stroke-miterlimit="10"/>
<path d="M167.831 52.2883C169.881 53.4982 169.893 55.4582 167.854 56.6559L99.4276 97.2585C97.3893 98.4684 94.0829 98.4684 92.0327 97.2585L23.1437 56.668C21.0935 55.4582 21.0817 53.4982 23.12 52.2883L91.5586 11.6857C93.597 10.4759 96.9034 10.4759 98.9536 11.6857L167.831 52.2883Z" fill="#080E24"/>
<path d="M167.831 52.2883C169.881 53.4982 169.893 55.4582 167.854 56.6559L99.4276 97.2585C97.3893 98.4684 94.0829 98.4684 92.0327 97.2585L23.1437 56.668C21.0935 55.4582 21.0817 53.4982 23.12 52.2883L91.5586 11.6857C93.597 10.4759 96.9034 10.4759 98.9536 11.6857L167.831 52.2883Z" stroke="#E0F1FF" stroke-miterlimit="10"/>
<path d="M167.831 52.2883C169.881 53.4982 169.893 55.4582 167.854 56.6559L99.4276 97.2585C97.3893 98.4684 94.0829 98.4684 92.0327 97.2585L23.1437 56.668C21.0935 55.4582 21.0817 53.4982 23.12 52.2883L91.5586 11.6857C93.597 10.4759 96.9034 10.4759 98.9536 11.6857L167.831 52.2883Z" stroke="url(#paint51_linear_423_467)" stroke-miterlimit="10"/>
<mask id="path-53-inside-1_423_467" fill="white">
<path d="M71.1043 41.7269L116.481 55.3136L106.384 61.2661L98.3376 58.4713L87.2215 65.0045L91.8433 69.8076L81.6871 75.7722L58.7676 48.9619L71.1043 41.7148V41.7269ZM81.616 59.4271L88.8806 55.1442L81.8412 52.7003C80.2532 52.168 78.2504 51.4542 75.7854 50.571C73.3323 49.6999 71.602 49.0586 70.5947 48.6352C71.2347 49.1917 72.2538 50.1233 73.6404 51.4421C75.0388 52.7608 77.6934 55.4225 81.6042 59.415"/>
</mask>
<path d="M71.1043 41.7269L116.481 55.3136L106.384 61.2661L98.3376 58.4713L87.2215 65.0045L91.8433 69.8076L81.6871 75.7722L58.7676 48.9619L71.1043 41.7148V41.7269ZM81.616 59.4271L88.8806 55.1442L81.8412 52.7003C80.2532 52.168 78.2504 51.4542 75.7854 50.571C73.3323 49.6999 71.602 49.0586 70.5947 48.6352C71.2347 49.1917 72.2538 50.1233 73.6404 51.4421C75.0388 52.7608 77.6934 55.4225 81.6042 59.415" fill="#080E24"/>
<path d="M71.1043 41.7269H70.1043V42.4714L70.8175 42.6849L71.1043 41.7269ZM116.481 55.3136L116.989 56.175L118.961 55.0123L116.768 54.3556L116.481 55.3136ZM106.384 61.2661L106.056 62.2107L106.493 62.3626L106.892 62.1275L106.384 61.2661ZM98.3376 58.4713L98.6656 57.5267L98.2292 57.3751L97.8309 57.6092L98.3376 58.4713ZM87.2215 65.0045L86.7148 64.1424L85.6221 64.7846L86.5009 65.6979L87.2215 65.0045ZM91.8433 69.8076L92.3497 70.6699L93.443 70.0278L92.5639 69.1142L91.8433 69.8076ZM81.6871 75.7722L80.927 76.422L81.4713 77.0586L82.1935 76.6345L81.6871 75.7722ZM58.7676 48.9619L58.2611 48.0996L57.2318 48.7043L58.0075 49.6117L58.7676 48.9619ZM71.1043 41.7148H72.1043V39.9676L70.5978 40.8526L71.1043 41.7148ZM88.8806 55.1442L89.3884 56.0056L91.2499 54.9082L89.2085 54.1995L88.8806 55.1442ZM81.8412 52.7003L82.1692 51.7556L82.159 51.7522L81.8412 52.7003ZM75.7854 50.571L76.1227 49.6296L76.12 49.6286L75.7854 50.571ZM70.5947 48.6352L70.9822 47.7133L69.9385 49.3898L70.5947 48.6352ZM73.6404 51.4421L72.9512 52.1667L72.9543 52.1696L73.6404 51.4421ZM70.8175 42.6849L116.194 56.2716L116.768 54.3556L71.3911 40.769L70.8175 42.6849ZM115.973 54.4521L105.876 60.4046L106.892 62.1275L116.989 56.175L115.973 54.4521ZM106.712 60.3214L98.6656 57.5267L98.0095 59.4159L106.056 62.2107L106.712 60.3214ZM97.8309 57.6092L86.7148 64.1424L87.7281 65.8666L98.8442 59.3334L97.8309 57.6092ZM86.5009 65.6979L91.1227 70.501L92.5639 69.1142L87.942 64.3111L86.5009 65.6979ZM91.3369 68.9453L81.1807 74.9099L82.1935 76.6345L92.3497 70.6699L91.3369 68.9453ZM82.4472 75.1224L59.5277 48.3121L58.0075 49.6117L80.927 76.422L82.4472 75.1224ZM59.2741 49.8241L71.6108 42.5771L70.5978 40.8526L58.2611 48.0996L59.2741 49.8241ZM70.1043 41.7148V41.7269H72.1043V41.7148H70.1043ZM82.1239 60.2885L89.3884 56.0056L88.3727 54.2828L81.1081 58.5656L82.1239 60.2885ZM89.2085 54.1995L82.1691 51.7556L81.5132 53.645L88.5526 56.0889L89.2085 54.1995ZM82.159 51.7522C80.5826 51.2237 78.5898 50.5135 76.1227 49.6296L75.4481 51.5124C77.9109 52.3948 79.9238 53.1122 81.5233 53.6484L82.159 51.7522ZM76.12 49.6286C73.6644 48.7566 71.9597 48.1242 70.9822 47.7133L70.2072 49.5571C71.2444 49.9931 73.0001 50.6431 75.4508 51.5133L76.12 49.6286ZM69.9385 49.3898C70.5624 49.9323 71.5694 50.8524 72.9512 52.1667L74.3296 50.7175C72.9383 49.3942 71.907 48.4511 71.2509 47.8806L69.9385 49.3898ZM72.9543 52.1696C74.3357 53.4723 76.9762 56.1194 80.8898 60.1147L82.3185 58.7152C78.4105 54.7256 75.7419 52.0493 74.3265 50.7145L72.9543 52.1696Z" fill="#E0F1FF" mask="url(#path-53-inside-1_423_467)"/>
<path d="M71.1043 41.7269H70.1043V42.4714L70.8175 42.6849L71.1043 41.7269ZM116.481 55.3136L116.989 56.175L118.961 55.0123L116.768 54.3556L116.481 55.3136ZM106.384 61.2661L106.056 62.2107L106.493 62.3626L106.892 62.1275L106.384 61.2661ZM98.3376 58.4713L98.6656 57.5267L98.2292 57.3751L97.8309 57.6092L98.3376 58.4713ZM87.2215 65.0045L86.7148 64.1424L85.6221 64.7846L86.5009 65.6979L87.2215 65.0045ZM91.8433 69.8076L92.3497 70.6699L93.443 70.0278L92.5639 69.1142L91.8433 69.8076ZM81.6871 75.7722L80.927 76.422L81.4713 77.0586L82.1935 76.6345L81.6871 75.7722ZM58.7676 48.9619L58.2611 48.0996L57.2318 48.7043L58.0075 49.6117L58.7676 48.9619ZM71.1043 41.7148H72.1043V39.9676L70.5978 40.8526L71.1043 41.7148ZM88.8806 55.1442L89.3884 56.0056L91.2499 54.9082L89.2085 54.1995L88.8806 55.1442ZM81.8412 52.7003L82.1692 51.7556L82.159 51.7522L81.8412 52.7003ZM75.7854 50.571L76.1227 49.6296L76.12 49.6286L75.7854 50.571ZM70.5947 48.6352L70.9822 47.7133L69.9385 49.3898L70.5947 48.6352ZM73.6404 51.4421L72.9512 52.1667L72.9543 52.1696L73.6404 51.4421ZM70.8175 42.6849L116.194 56.2716L116.768 54.3556L71.3911 40.769L70.8175 42.6849ZM115.973 54.4521L105.876 60.4046L106.892 62.1275L116.989 56.175L115.973 54.4521ZM106.712 60.3214L98.6656 57.5267L98.0095 59.4159L106.056 62.2107L106.712 60.3214ZM97.8309 57.6092L86.7148 64.1424L87.7281 65.8666L98.8442 59.3334L97.8309 57.6092ZM86.5009 65.6979L91.1227 70.501L92.5639 69.1142L87.942 64.3111L86.5009 65.6979ZM91.3369 68.9453L81.1807 74.9099L82.1935 76.6345L92.3497 70.6699L91.3369 68.9453ZM82.4472 75.1224L59.5277 48.3121L58.0075 49.6117L80.927 76.422L82.4472 75.1224ZM59.2741 49.8241L71.6108 42.5771L70.5978 40.8526L58.2611 48.0996L59.2741 49.8241ZM70.1043 41.7148V41.7269H72.1043V41.7148H70.1043ZM82.1239 60.2885L89.3884 56.0056L88.3727 54.2828L81.1081 58.5656L82.1239 60.2885ZM89.2085 54.1995L82.1691 51.7556L81.5132 53.645L88.5526 56.0889L89.2085 54.1995ZM82.159 51.7522C80.5826 51.2237 78.5898 50.5135 76.1227 49.6296L75.4481 51.5124C77.9109 52.3948 79.9238 53.1122 81.5233 53.6484L82.159 51.7522ZM76.12 49.6286C73.6644 48.7566 71.9597 48.1242 70.9822 47.7133L70.2072 49.5571C71.2444 49.9931 73.0001 50.6431 75.4508 51.5133L76.12 49.6286ZM69.9385 49.3898C70.5624 49.9323 71.5694 50.8524 72.9512 52.1667L74.3296 50.7175C72.9383 49.3942 71.907 48.4511 71.2509 47.8806L69.9385 49.3898ZM72.9543 52.1696C74.3357 53.4723 76.9762 56.1194 80.8898 60.1147L82.3185 58.7152C78.4105 54.7256 75.7419 52.0493 74.3265 50.7145L72.9543 52.1696Z" fill="url(#paint52_linear_423_467)" mask="url(#path-53-inside-1_423_467)"/>
<path d="M120.168 52.5663L87.2207 32.9818L95.5386 28.1031L128.486 47.6763L120.168 52.5663Z" fill="#080E24"/>
<path d="M120.168 52.5663L87.2207 32.9818L95.5386 28.1031L128.486 47.6763L120.168 52.5663Z" stroke="#E0F1FF"/>
<path d="M120.168 52.5663L87.2207 32.9818L95.5386 28.1031L128.486 47.6763L120.168 52.5663Z" stroke="url(#paint53_linear_423_467)"/>
<defs>
<linearGradient id="paint0_linear_423_467" x1="95.4947" y1="2.89844" x2="95.4947" y2="119.523" gradientUnits="userSpaceOnUse">
<stop stop-color="#1480FF"/>
<stop offset="1" stop-color="#4F7ECC"/>
</linearGradient>
<linearGradient id="paint1_linear_423_467" x1="96.4326" y1="106.344" x2="96.4326" y2="119.519" gradientUnits="userSpaceOnUse">
<stop stop-color="#1480FF"/>
<stop offset="1" stop-color="#4F7ECC"/>
</linearGradient>
<linearGradient id="paint2_linear_423_467" x1="15.5547" y1="37.5293" x2="15.5547" y2="51.7088" gradientUnits="userSpaceOnUse">
<stop stop-color="#1480FF"/>
<stop offset="1" stop-color="#4F7ECC"/>
</linearGradient>
<linearGradient id="paint3_linear_423_467" x1="24.4003" y1="47.9092" x2="24.4003" y2="55.4708" gradientUnits="userSpaceOnUse">
<stop stop-color="#1480FF"/>
<stop offset="1" stop-color="#4F7ECC"/>
</linearGradient>
<linearGradient id="paint4_linear_423_467" x1="12.3956" y1="41.2793" x2="12.3956" y2="55.483" gradientUnits="userSpaceOnUse">
<stop stop-color="#1480FF"/>
<stop offset="1" stop-color="#4F7ECC"/>
</linearGradient>
<linearGradient id="paint5_linear_423_467" x1="37.8663" y1="24.1963" x2="37.8663" y2="38.3758" gradientUnits="userSpaceOnUse">
<stop stop-color="#1480FF"/>
<stop offset="1" stop-color="#4F7ECC"/>
</linearGradient>
<linearGradient id="paint6_linear_423_467" x1="46.7128" y1="34.5771" x2="46.7128" y2="42.1387" gradientUnits="userSpaceOnUse">
<stop stop-color="#1480FF"/>
<stop offset="1" stop-color="#4F7ECC"/>
</linearGradient>
<linearGradient id="paint7_linear_423_467" x1="34.7081" y1="27.9463" x2="34.7081" y2="42.1499" gradientUnits="userSpaceOnUse">
<stop stop-color="#1480FF"/>
<stop offset="1" stop-color="#4F7ECC"/>
</linearGradient>
<linearGradient id="paint8_linear_423_467" x1="58.0127" y1="12.0967" x2="58.0127" y2="26.2761" gradientUnits="userSpaceOnUse">
<stop stop-color="#1480FF"/>
<stop offset="1" stop-color="#4F7ECC"/>
</linearGradient>
<linearGradient id="paint9_linear_423_467" x1="66.8593" y1="22.4775" x2="66.8593" y2="30.0391" gradientUnits="userSpaceOnUse">
<stop stop-color="#1480FF"/>
<stop offset="1" stop-color="#4F7ECC"/>
</linearGradient>
<linearGradient id="paint10_linear_423_467" x1="54.8546" y1="15.8467" x2="54.8546" y2="30.0503" gradientUnits="userSpaceOnUse">
<stop stop-color="#1480FF"/>
<stop offset="1" stop-color="#4F7ECC"/>
</linearGradient>
<linearGradient id="paint11_linear_423_467" x1="78.1592" y1="0" x2="78.1592" y2="14.1795" gradientUnits="userSpaceOnUse">
<stop stop-color="#1480FF"/>
<stop offset="1" stop-color="#4F7ECC"/>
</linearGradient>
<linearGradient id="paint12_linear_423_467" x1="87.0057" y1="10.3799" x2="87.0057" y2="17.9415" gradientUnits="userSpaceOnUse">
<stop stop-color="#1480FF"/>
<stop offset="1" stop-color="#4F7ECC"/>
</linearGradient>
<linearGradient id="paint13_linear_423_467" x1="75.0011" y1="3.75" x2="75.0011" y2="17.9537" gradientUnits="userSpaceOnUse">
<stop stop-color="#1480FF"/>
<stop offset="1" stop-color="#4F7ECC"/>
</linearGradient>
<linearGradient id="paint14_linear_423_467" x1="74.6171" y1="104.071" x2="74.6171" y2="118.251" gradientUnits="userSpaceOnUse">
<stop stop-color="#1480FF"/>
<stop offset="1" stop-color="#4F7ECC"/>
</linearGradient>
<linearGradient id="paint15_linear_423_467" x1="65.7706" y1="114.451" x2="65.7706" y2="122.013" gradientUnits="userSpaceOnUse">
<stop stop-color="#1480FF"/>
<stop offset="1" stop-color="#4F7ECC"/>
</linearGradient>
<linearGradient id="paint16_linear_423_467" x1="77.7753" y1="107.821" x2="77.7753" y2="122.025" gradientUnits="userSpaceOnUse">
<stop stop-color="#1480FF"/>
<stop offset="1" stop-color="#4F7ECC"/>
</linearGradient>
<linearGradient id="paint17_linear_423_467" x1="52.3037" y1="90.7383" x2="52.3037" y2="104.918" gradientUnits="userSpaceOnUse">
<stop stop-color="#1480FF"/>
<stop offset="1" stop-color="#4F7ECC"/>
</linearGradient>
<linearGradient id="paint18_linear_423_467" x1="43.4571" y1="101.119" x2="43.4571" y2="108.681" gradientUnits="userSpaceOnUse">
<stop stop-color="#1480FF"/>
<stop offset="1" stop-color="#4F7ECC"/>
</linearGradient>
<linearGradient id="paint19_linear_423_467" x1="55.4618" y1="94.4883" x2="55.4618" y2="108.692" gradientUnits="userSpaceOnUse">
<stop stop-color="#1480FF"/>
<stop offset="1" stop-color="#4F7ECC"/>
</linearGradient>
<linearGradient id="paint20_linear_423_467" x1="32.1572" y1="78.6387" x2="32.1572" y2="92.8181" gradientUnits="userSpaceOnUse">
<stop stop-color="#1480FF"/>
<stop offset="1" stop-color="#4F7ECC"/>
</linearGradient>
<linearGradient id="paint21_linear_423_467" x1="23.3107" y1="89.0195" x2="23.3107" y2="96.5811" gradientUnits="userSpaceOnUse">
<stop stop-color="#1480FF"/>
<stop offset="1" stop-color="#4F7ECC"/>
</linearGradient>
<linearGradient id="paint22_linear_423_467" x1="35.3153" y1="82.3887" x2="35.3153" y2="96.5923" gradientUnits="userSpaceOnUse">
<stop stop-color="#1480FF"/>
<stop offset="1" stop-color="#4F7ECC"/>
</linearGradient>
<linearGradient id="paint23_linear_423_467" x1="12.0107" y1="66.542" x2="12.0107" y2="80.7215" gradientUnits="userSpaceOnUse">
<stop stop-color="#1480FF"/>
<stop offset="1" stop-color="#4F7ECC"/>
</linearGradient>
<linearGradient id="paint24_linear_423_467" x1="3.16417" y1="76.9219" x2="3.16417" y2="84.4834" gradientUnits="userSpaceOnUse">
<stop stop-color="#1480FF"/>
<stop offset="1" stop-color="#4F7ECC"/>
</linearGradient>
<linearGradient id="paint25_linear_423_467" x1="15.1689" y1="70.292" x2="15.1689" y2="84.4957" gradientUnits="userSpaceOnUse">
<stop stop-color="#1480FF"/>
<stop offset="1" stop-color="#4F7ECC"/>
</linearGradient>
<linearGradient id="paint26_linear_423_467" x1="117.471" y1="102.86" x2="117.471" y2="117.04" gradientUnits="userSpaceOnUse">
<stop stop-color="#1480FF"/>
<stop offset="1" stop-color="#4F7ECC"/>
</linearGradient>
<linearGradient id="paint27_linear_423_467" x1="126.317" y1="113.241" x2="126.317" y2="120.803" gradientUnits="userSpaceOnUse">
<stop stop-color="#1480FF"/>
<stop offset="1" stop-color="#4F7ECC"/>
</linearGradient>
<linearGradient id="paint28_linear_423_467" x1="114.313" y1="106.61" x2="114.313" y2="120.814" gradientUnits="userSpaceOnUse">
<stop stop-color="#1480FF"/>
<stop offset="1" stop-color="#4F7ECC"/>
</linearGradient>
<linearGradient id="paint29_linear_423_467" x1="139.784" y1="89.5283" x2="139.784" y2="103.708" gradientUnits="userSpaceOnUse">
<stop stop-color="#1480FF"/>
<stop offset="1" stop-color="#4F7ECC"/>
</linearGradient>
<linearGradient id="paint30_linear_423_467" x1="148.631" y1="99.9082" x2="148.631" y2="107.47" gradientUnits="userSpaceOnUse">
<stop stop-color="#1480FF"/>
<stop offset="1" stop-color="#4F7ECC"/>
</linearGradient>
<linearGradient id="paint31_linear_423_467" x1="136.626" y1="93.2783" x2="136.626" y2="107.482" gradientUnits="userSpaceOnUse">
<stop stop-color="#1480FF"/>
<stop offset="1" stop-color="#4F7ECC"/>
</linearGradient>
<linearGradient id="paint32_linear_423_467" x1="159.931" y1="77.4297" x2="159.931" y2="91.6092" gradientUnits="userSpaceOnUse">
<stop stop-color="#1480FF"/>
<stop offset="1" stop-color="#4F7ECC"/>
</linearGradient>
<linearGradient id="paint33_linear_423_467" x1="168.777" y1="87.8105" x2="168.777" y2="95.3721" gradientUnits="userSpaceOnUse">
<stop stop-color="#1480FF"/>
<stop offset="1" stop-color="#4F7ECC"/>
</linearGradient>
<linearGradient id="paint34_linear_423_467" x1="156.773" y1="81.1797" x2="156.773" y2="95.3833" gradientUnits="userSpaceOnUse">
<stop stop-color="#1480FF"/>
<stop offset="1" stop-color="#4F7ECC"/>
</linearGradient>
<linearGradient id="paint35_linear_423_467" x1="180.077" y1="65.3311" x2="180.077" y2="79.5105" gradientUnits="userSpaceOnUse">
<stop stop-color="#1480FF"/>
<stop offset="1" stop-color="#4F7ECC"/>
</linearGradient>
<linearGradient id="paint36_linear_423_467" x1="188.924" y1="75.7119" x2="188.924" y2="83.2735" gradientUnits="userSpaceOnUse">
<stop stop-color="#1480FF"/>
<stop offset="1" stop-color="#4F7ECC"/>
</linearGradient>
<linearGradient id="paint37_linear_423_467" x1="176.919" y1="69.0811" x2="176.919" y2="83.2847" gradientUnits="userSpaceOnUse">
<stop stop-color="#1480FF"/>
<stop offset="1" stop-color="#4F7ECC"/>
</linearGradient>
<linearGradient id="paint38_linear_423_467" x1="177.719" y1="37.5293" x2="177.719" y2="51.7088" gradientUnits="userSpaceOnUse">
<stop stop-color="#1480FF"/>
<stop offset="1" stop-color="#4F7ECC"/>
</linearGradient>
<linearGradient id="paint39_linear_423_467" x1="168.872" y1="47.9092" x2="168.872" y2="55.4708" gradientUnits="userSpaceOnUse">
<stop stop-color="#1480FF"/>
<stop offset="1" stop-color="#4F7ECC"/>
</linearGradient>
<linearGradient id="paint40_linear_423_467" x1="180.877" y1="41.2793" x2="180.877" y2="55.483" gradientUnits="userSpaceOnUse">
<stop stop-color="#1480FF"/>
<stop offset="1" stop-color="#4F7ECC"/>
</linearGradient>
<linearGradient id="paint41_linear_423_467" x1="155.405" y1="24.1963" x2="155.405" y2="38.3758" gradientUnits="userSpaceOnUse">
<stop stop-color="#1480FF"/>
<stop offset="1" stop-color="#4F7ECC"/>
</linearGradient>
<linearGradient id="paint42_linear_423_467" x1="146.559" y1="34.5771" x2="146.559" y2="42.1387" gradientUnits="userSpaceOnUse">
<stop stop-color="#1480FF"/>
<stop offset="1" stop-color="#4F7ECC"/>
</linearGradient>
<linearGradient id="paint43_linear_423_467" x1="158.563" y1="27.9463" x2="158.563" y2="42.1499" gradientUnits="userSpaceOnUse">
<stop stop-color="#1480FF"/>
<stop offset="1" stop-color="#4F7ECC"/>
</linearGradient>
<linearGradient id="paint44_linear_423_467" x1="135.258" y1="12.0967" x2="135.258" y2="26.2761" gradientUnits="userSpaceOnUse">
<stop stop-color="#1480FF"/>
<stop offset="1" stop-color="#4F7ECC"/>
</linearGradient>
<linearGradient id="paint45_linear_423_467" x1="126.412" y1="22.4775" x2="126.412" y2="30.0391" gradientUnits="userSpaceOnUse">
<stop stop-color="#1480FF"/>
<stop offset="1" stop-color="#4F7ECC"/>
</linearGradient>
<linearGradient id="paint46_linear_423_467" x1="138.417" y1="15.8467" x2="138.417" y2="30.0503" gradientUnits="userSpaceOnUse">
<stop stop-color="#1480FF"/>
<stop offset="1" stop-color="#4F7ECC"/>
</linearGradient>
<linearGradient id="paint47_linear_423_467" x1="115.112" y1="0" x2="115.112" y2="14.1795" gradientUnits="userSpaceOnUse">
<stop stop-color="#1480FF"/>
<stop offset="1" stop-color="#4F7ECC"/>
</linearGradient>
<linearGradient id="paint48_linear_423_467" x1="106.266" y1="10.3799" x2="106.266" y2="17.9415" gradientUnits="userSpaceOnUse">
<stop stop-color="#1480FF"/>
<stop offset="1" stop-color="#4F7ECC"/>
</linearGradient>
<linearGradient id="paint49_linear_423_467" x1="118.27" y1="3.75" x2="118.27" y2="17.9537" gradientUnits="userSpaceOnUse">
<stop stop-color="#1480FF"/>
<stop offset="1" stop-color="#4F7ECC"/>
</linearGradient>
<linearGradient id="paint50_linear_423_467" x1="95.4928" y1="2.6084" x2="95.4928" y2="106.335" gradientUnits="userSpaceOnUse">
<stop stop-color="#1480FF"/>
<stop offset="1" stop-color="#4F7ECC"/>
</linearGradient>
<linearGradient id="paint51_linear_423_467" x1="95.4872" y1="10.7783" x2="95.4872" y2="98.1659" gradientUnits="userSpaceOnUse">
<stop stop-color="#1480FF"/>
<stop offset="1" stop-color="#4F7ECC"/>
</linearGradient>
<linearGradient id="paint52_linear_423_467" x1="87.6244" y1="41.7148" x2="87.6244" y2="75.7722" gradientUnits="userSpaceOnUse">
<stop stop-color="#1480FF"/>
<stop offset="1" stop-color="#4F7ECC"/>
</linearGradient>
<linearGradient id="paint53_linear_423_467" x1="107.853" y1="27.5225" x2="107.853" y2="53.1471" gradientUnits="userSpaceOnUse">
<stop stop-color="#1480FF"/>
<stop offset="1" stop-color="#4F7ECC"/>
</linearGradient>
</defs>
</svg>
