<svg width="198" height="131" viewBox="0 0 198 131" fill="none" xmlns="http://www.w3.org/2000/svg">
<path d="M34.0345 84.7132C34.0071 84.7132 33.9797 84.7076 33.9524 84.6908L1.08111 65.3159C1.00448 65.2712 0.977108 65.1706 1.0209 65.0868C1.06469 65.0085 1.16322 64.9806 1.24533 65.0253L34.0345 84.3499L111.842 38.4917C111.891 38.4637 111.957 38.4637 112.006 38.4917L163.85 69.0489L198.051 48.8916C198.128 48.8469 198.227 48.8749 198.276 48.9531C198.32 49.0314 198.292 49.1319 198.216 49.1822L163.932 69.3898C163.883 69.4178 163.817 69.4178 163.768 69.3898L111.924 38.8326L34.1166 84.6908C34.1166 84.6908 34.0619 84.7132 34.0345 84.7132Z" stroke="url(#paint0_linear_423_193)" stroke-width="0.5"/>
<path d="M232.631 108.184C232.603 108.184 232.576 108.179 232.548 108.162L187.842 81.8126L166.165 94.5262C166.116 94.5541 166.056 94.5541 166.001 94.5262L57.2989 30.4498C57.2496 30.4218 57.2168 30.3659 57.2168 30.3045C57.2168 30.243 57.2496 30.1927 57.2989 30.1592L106.849 1.02134C106.926 0.976629 107.025 1.00457 107.074 1.08281C107.118 1.16105 107.09 1.26164 107.014 1.31193L57.7095 30.3101L166.094 94.1965L187.771 81.4829C187.821 81.4549 187.881 81.4549 187.935 81.4829L232.724 107.882C232.8 107.927 232.828 108.028 232.784 108.112C232.756 108.162 232.702 108.195 232.641 108.195L232.631 108.184Z" stroke="url(#paint1_linear_423_193)" stroke-width="0.5"/>
<path d="M131.921 130.241C131.893 130.241 131.866 130.236 131.839 130.219L98.6554 110.66C98.6061 110.632 98.5732 110.576 98.5732 110.514C98.5732 110.453 98.6061 110.403 98.6554 110.369L139.929 86.0428C140.006 85.9981 140.104 86.0261 140.154 86.1043C140.197 86.1825 140.17 86.2831 140.093 86.3334L99.0659 110.514L132.003 129.928C132.079 129.973 132.107 130.074 132.063 130.158C132.036 130.208 131.981 130.241 131.921 130.241Z" stroke="url(#paint2_linear_423_193)" stroke-width="0.5"/>
<path d="M143.569 118.277C143.542 118.277 143.514 118.271 143.487 118.254L1.08697 34.3168C1.01034 34.2721 0.982967 34.1715 1.02676 34.0877C1.07055 34.0095 1.16908 33.9815 1.25119 34.0262L143.657 117.964C143.733 118.008 143.761 118.109 143.717 118.193C143.69 118.243 143.635 118.277 143.575 118.277H143.569Z" stroke="url(#paint3_linear_423_193)" stroke-width="0.5"/>
<path d="M72.1063 94.9842C72.0789 94.9842 72.0515 94.9786 72.0242 94.9618L24.9698 67.2267C24.9205 67.1988 24.8877 67.1429 24.8877 67.0814C24.8877 67.0199 24.9205 66.9696 24.9698 66.9361L66.2436 42.6099C66.3203 42.5652 66.4188 42.5931 66.4681 42.6713C66.5119 42.7496 66.4845 42.8502 66.4078 42.9005L25.3804 67.087L72.1117 94.6321L184.202 28.5663C184.279 28.5216 184.378 28.5495 184.427 28.6277C184.471 28.706 184.443 28.8066 184.367 28.8569L72.1993 94.973C72.1993 94.973 72.1446 94.9954 72.1172 94.9954L72.1063 94.9842Z" stroke="url(#paint4_linear_423_193)" stroke-width="0.5"/>
<path d="M85.0086 15.0436C87.3186 16.4071 89.5027 18.3239 91.446 20.5872C94.1446 11.7408 102.372 8.99692 112.11 14.7362C120.168 19.4863 127.186 28.8245 130.902 38.7159C132.134 38.7551 133.503 39.1686 134.959 40.0236C140.214 43.1196 144.478 50.6583 144.478 56.8558C144.478 56.99 144.467 57.1129 144.461 57.2414C145.961 57.3476 147.62 57.8897 149.361 58.918C156.083 62.8801 161.535 72.5201 161.535 80.4444C161.535 88.3687 156.083 91.5821 149.361 87.6199L85.014 49.6915C76.8961 44.9079 70.3164 33.2729 70.3164 23.7056C70.3164 14.1382 76.8961 10.2599 85.014 15.0436H85.0086Z" fill="#080E24"/>
<path d="M85.0086 15.0436C87.3186 16.4071 89.5027 18.3239 91.446 20.5872C94.1446 11.7408 102.372 8.99692 112.11 14.7362C120.168 19.4863 127.186 28.8245 130.902 38.7159C132.134 38.7551 133.503 39.1686 134.959 40.0236C140.214 43.1196 144.478 50.6583 144.478 56.8558C144.478 56.99 144.467 57.1129 144.461 57.2414C145.961 57.3476 147.62 57.8897 149.361 58.918C156.083 62.8801 161.535 72.5201 161.535 80.4444C161.535 88.3687 156.083 91.5821 149.361 87.6199L85.014 49.6915C76.8961 44.9079 70.3164 33.2729 70.3164 23.7056C70.3164 14.1382 76.8961 10.2599 85.014 15.0436H85.0086Z" stroke="black"/>
<path d="M85.0086 15.0436C87.3186 16.4071 89.5027 18.3239 91.446 20.5872C94.1446 11.7408 102.372 8.99692 112.11 14.7362C120.168 19.4863 127.186 28.8245 130.902 38.7159C132.134 38.7551 133.503 39.1686 134.959 40.0236C140.214 43.1196 144.478 50.6583 144.478 56.8558C144.478 56.99 144.467 57.1129 144.461 57.2414C145.961 57.3476 147.62 57.8897 149.361 58.918C156.083 62.8801 161.535 72.5201 161.535 80.4444C161.535 88.3687 156.083 91.5821 149.361 87.6199L85.014 49.6915C76.8961 44.9079 70.3164 33.2729 70.3164 23.7056C70.3164 14.1382 76.8961 10.2599 85.014 15.0436H85.0086Z" stroke="url(#paint5_linear_423_193)"/>
<path d="M85.0086 15.0436C86.3497 15.8315 87.6416 16.8151 88.8732 17.9383L96.066 13.6968C100.018 10.8635 105.744 10.9864 112.11 14.7362C120.168 19.4863 127.186 28.8245 130.902 38.716C132.134 38.7551 133.503 39.1686 134.959 40.0236C140.214 43.1196 144.478 50.6583 144.478 56.8559C144.478 56.99 144.467 57.1129 144.461 57.2415C145.961 57.3476 147.62 57.8897 149.361 58.918C156.083 62.8801 161.535 72.5201 161.535 80.4444C161.535 84.3731 160.194 87.1393 158.026 88.4526H158.031L157.977 88.4861C157.977 88.4861 157.971 88.4861 157.966 88.4917L140.34 98.9364L136.491 80.0309L85.014 49.6915C76.8961 44.9079 70.3164 33.2729 70.3164 23.7056C70.3164 14.1382 76.8961 10.2599 85.014 15.0436H85.0086Z" fill="#080E24"/>
<path d="M85.0086 15.0436C86.3497 15.8315 87.6416 16.8151 88.8732 17.9383L96.066 13.6968C100.018 10.8635 105.744 10.9864 112.11 14.7362C120.168 19.4863 127.186 28.8245 130.902 38.716C132.134 38.7551 133.503 39.1686 134.959 40.0236C140.214 43.1196 144.478 50.6583 144.478 56.8559C144.478 56.99 144.467 57.1129 144.461 57.2415C145.961 57.3476 147.62 57.8897 149.361 58.918C156.083 62.8801 161.535 72.5201 161.535 80.4444C161.535 84.3731 160.194 87.1393 158.026 88.4526H158.031L157.977 88.4861C157.977 88.4861 157.971 88.4861 157.966 88.4917L140.34 98.9364L136.491 80.0309L85.014 49.6915C76.8961 44.9079 70.3164 33.2729 70.3164 23.7056C70.3164 14.1382 76.8961 10.2599 85.014 15.0436H85.0086Z" stroke="black"/>
<path d="M85.0086 15.0436C86.3497 15.8315 87.6416 16.8151 88.8732 17.9383L96.066 13.6968C100.018 10.8635 105.744 10.9864 112.11 14.7362C120.168 19.4863 127.186 28.8245 130.902 38.716C132.134 38.7551 133.503 39.1686 134.959 40.0236C140.214 43.1196 144.478 50.6583 144.478 56.8559C144.478 56.99 144.467 57.1129 144.461 57.2415C145.961 57.3476 147.62 57.8897 149.361 58.918C156.083 62.8801 161.535 72.5201 161.535 80.4444C161.535 84.3731 160.194 87.1393 158.026 88.4526H158.031L157.977 88.4861C157.977 88.4861 157.971 88.4861 157.966 88.4917L140.34 98.9364L136.491 80.0309L85.014 49.6915C76.8961 44.9079 70.3164 33.2729 70.3164 23.7056C70.3164 14.1382 76.8961 10.2599 85.014 15.0436H85.0086Z" stroke="url(#paint6_linear_423_193)"/>
<path d="M56.6807 24.6325L74.5368 14.0425C77.2026 12.4275 80.9085 12.6287 85.0085 15.0484C86.3496 15.8364 87.6415 16.82 88.8731 17.9432L96.066 13.7016C100.018 10.8683 105.744 10.9913 112.11 14.7411C120.168 19.4912 127.186 28.8294 130.902 38.7208C132.134 38.76 133.503 39.1735 134.959 40.0285C140.214 43.1245 144.478 50.6632 144.478 56.8607C144.478 56.9949 144.467 57.1178 144.461 57.2463C145.961 57.3525 147.62 57.8946 149.361 58.9229C156.083 62.885 161.535 72.525 161.535 80.4493C161.535 84.3779 160.194 87.1442 158.026 88.4575H158.031L157.977 88.491C157.977 88.491 157.971 88.491 157.966 88.4966L140.34 98.9413L136.491 80.0358L85.014 49.6964C78.4343 45.8181 72.8672 37.4411 70.9951 29.31L56.6861 24.6437L56.6807 24.6325Z" fill="#080E24"/>
<path d="M56.6807 24.6325L74.5368 14.0425C77.2026 12.4275 80.9085 12.6287 85.0085 15.0484C86.3496 15.8364 87.6415 16.82 88.8731 17.9432L96.066 13.7016C100.018 10.8683 105.744 10.9913 112.11 14.7411C120.168 19.4912 127.186 28.8294 130.902 38.7208C132.134 38.76 133.503 39.1735 134.959 40.0285C140.214 43.1245 144.478 50.6632 144.478 56.8607C144.478 56.9949 144.467 57.1178 144.461 57.2463C145.961 57.3525 147.62 57.8946 149.361 58.9229C156.083 62.885 161.535 72.525 161.535 80.4493C161.535 84.3779 160.194 87.1442 158.026 88.4575H158.031L157.977 88.491C157.977 88.491 157.971 88.491 157.966 88.4966L140.34 98.9413L136.491 80.0358L85.014 49.6964C78.4343 45.8181 72.8672 37.4411 70.9951 29.31L56.6861 24.6437L56.6807 24.6325Z" stroke="black"/>
<path d="M56.6807 24.6325L74.5368 14.0425C77.2026 12.4275 80.9085 12.6287 85.0085 15.0484C86.3496 15.8364 87.6415 16.82 88.8731 17.9432L96.066 13.7016C100.018 10.8683 105.744 10.9913 112.11 14.7411C120.168 19.4912 127.186 28.8294 130.902 38.7208C132.134 38.76 133.503 39.1735 134.959 40.0285C140.214 43.1245 144.478 50.6632 144.478 56.8607C144.478 56.9949 144.467 57.1178 144.461 57.2463C145.961 57.3525 147.62 57.8946 149.361 58.9229C156.083 62.885 161.535 72.525 161.535 80.4493C161.535 84.3779 160.194 87.1442 158.026 88.4575H158.031L157.977 88.491C157.977 88.491 157.971 88.491 157.966 88.4966L140.34 98.9413L136.491 80.0358L85.014 49.6964C78.4343 45.8181 72.8672 37.4411 70.9951 29.31L56.6861 24.6437L56.6807 24.6325Z" stroke="url(#paint7_linear_423_193)"/>
<path d="M67.3279 25.5221C69.6379 26.8856 71.8221 28.8025 73.7653 31.0657C76.464 22.2193 84.6914 19.4754 94.4296 25.2147C102.487 29.9648 109.505 39.303 113.222 49.1945C114.453 49.2336 115.822 49.6471 117.278 50.5021C122.533 53.5981 126.797 61.1368 126.797 67.3344C126.797 67.4685 126.786 67.5914 126.781 67.72C128.281 67.8261 129.939 68.3682 131.68 69.3965C138.402 73.3586 143.854 82.9986 143.854 90.9229C143.854 98.8473 138.402 102.061 131.68 98.0984L67.3334 60.1701C59.2155 55.3864 52.6357 43.7514 52.6357 34.1841C52.6357 24.6168 59.2155 20.7384 67.3334 25.5221H67.3279Z" fill="#080E24"/>
<path d="M67.3279 25.5221C69.6379 26.8856 71.8221 28.8025 73.7653 31.0657C76.464 22.2193 84.6914 19.4754 94.4296 25.2147C102.487 29.9648 109.505 39.303 113.222 49.1945C114.453 49.2336 115.822 49.6471 117.278 50.5021C122.533 53.5981 126.797 61.1368 126.797 67.3344C126.797 67.4685 126.786 67.5914 126.781 67.72C128.281 67.8261 129.939 68.3682 131.68 69.3965C138.402 73.3586 143.854 82.9986 143.854 90.9229C143.854 98.8473 138.402 102.061 131.68 98.0984L67.3334 60.1701C59.2155 55.3864 52.6357 43.7514 52.6357 34.1841C52.6357 24.6168 59.2155 20.7384 67.3334 25.5221H67.3279Z" stroke="black"/>
<path d="M67.3279 25.5221C69.6379 26.8856 71.8221 28.8025 73.7653 31.0657C76.464 22.2193 84.6914 19.4754 94.4296 25.2147C102.487 29.9648 109.505 39.303 113.222 49.1945C114.453 49.2336 115.822 49.6471 117.278 50.5021C122.533 53.5981 126.797 61.1368 126.797 67.3344C126.797 67.4685 126.786 67.5914 126.781 67.72C128.281 67.8261 129.939 68.3682 131.68 69.3965C138.402 73.3586 143.854 82.9986 143.854 90.9229C143.854 98.8473 138.402 102.061 131.68 98.0984L67.3334 60.1701C59.2155 55.3864 52.6357 43.7514 52.6357 34.1841C52.6357 24.6168 59.2155 20.7384 67.3334 25.5221H67.3279Z" stroke="url(#paint8_linear_423_193)"/>
<defs>
<linearGradient id="paint0_linear_423_193" x1="99.6484" y1="38.4707" x2="99.6484" y2="84.7132" gradientUnits="userSpaceOnUse">
<stop stop-color="#1480FF"/>
<stop offset="1" stop-color="#4F7ECC"/>
</linearGradient>
<linearGradient id="paint1_linear_423_193" x1="145.011" y1="1" x2="145.011" y2="108.195" gradientUnits="userSpaceOnUse">
<stop stop-color="#1480FF"/>
<stop offset="1" stop-color="#4F7ECC"/>
</linearGradient>
<linearGradient id="paint2_linear_423_193" x1="119.374" y1="86.0215" x2="119.374" y2="130.241" gradientUnits="userSpaceOnUse">
<stop stop-color="#1480FF"/>
<stop offset="1" stop-color="#4F7ECC"/>
</linearGradient>
<linearGradient id="paint3_linear_423_193" x1="72.3719" y1="34.0049" x2="72.3719" y2="118.277" gradientUnits="userSpaceOnUse">
<stop stop-color="#1480FF"/>
<stop offset="1" stop-color="#4F7ECC"/>
</linearGradient>
<linearGradient id="paint4_linear_423_193" x1="104.668" y1="28.5449" x2="104.668" y2="94.9954" gradientUnits="userSpaceOnUse">
<stop stop-color="#1480FF"/>
<stop offset="1" stop-color="#4F7ECC"/>
</linearGradient>
<linearGradient id="paint5_linear_423_193" x1="115.926" y1="11.7246" x2="115.926" y2="89.3167" gradientUnits="userSpaceOnUse">
<stop stop-color="#1480FF"/>
<stop offset="1" stop-color="#4F7ECC"/>
</linearGradient>
<linearGradient id="paint6_linear_423_193" x1="115.926" y1="11.7285" x2="115.926" y2="98.9364" gradientUnits="userSpaceOnUse">
<stop stop-color="#1480FF"/>
<stop offset="1" stop-color="#4F7ECC"/>
</linearGradient>
<linearGradient id="paint7_linear_423_193" x1="109.108" y1="11.7334" x2="109.108" y2="98.9413" gradientUnits="userSpaceOnUse">
<stop stop-color="#1480FF"/>
<stop offset="1" stop-color="#4F7ECC"/>
</linearGradient>
<linearGradient id="paint8_linear_423_193" x1="98.245" y1="22.2031" x2="98.245" y2="99.7952" gradientUnits="userSpaceOnUse">
<stop stop-color="#1480FF"/>
<stop offset="1" stop-color="#4F7ECC"/>
</linearGradient>
</defs>
</svg>
