<svg width="198" height="121" viewBox="0 0 198 121" fill="none" xmlns="http://www.w3.org/2000/svg">
<path d="M125.197 57.017L125.198 57.0182C124.426 57.4608 123.288 57.4507 121.907 56.6394L121.906 56.6389C120.509 55.822 119.214 54.391 118.265 52.7209C117.316 51.0515 116.74 49.191 116.733 47.5451C116.734 45.8886 117.298 44.8617 118.061 44.3984L118.062 44.3985L118.073 44.391L185.189 1.05943L185.189 1.05953L185.198 1.05337C186.356 0.269256 188.098 0.242676 190.182 1.4706L190.183 1.4712C192.176 2.63868 194.011 4.66705 195.348 7.02142C196.686 9.37541 197.499 12.0079 197.499 14.3539C197.499 16.8214 196.619 18.3587 195.363 18.9996L195.363 18.9995L195.352 19.0054L125.197 57.017Z" fill="#080E24" stroke="url(#paint0_linear_423_599)"/>
<path d="M121.372 44.7878L121.373 44.7887C122.77 45.6056 124.065 47.0365 125.015 48.7067C125.963 50.376 126.539 52.2366 126.546 53.8825C126.546 55.541 125.981 56.5706 125.214 57.0246C124.451 57.4761 123.308 57.4653 121.908 56.6398L121.906 56.6389C120.509 55.822 119.214 54.3911 118.265 52.7209C117.316 51.0516 116.74 49.191 116.733 47.5452C116.734 45.8866 117.299 44.857 118.066 44.403C118.828 43.9515 119.972 43.9623 121.372 44.7878Z" fill="#080E24" stroke="url(#paint1_linear_423_599)"/>
<path d="M108.544 62.0444C107.735 61.5705 106.976 60.7366 106.416 59.7499C105.856 58.7641 105.521 57.6719 105.515 56.7113C105.515 55.759 105.839 55.2176 106.225 54.982L119.554 47.0618C119.933 46.8417 120.543 46.8175 121.359 47.2914C122.168 47.7653 122.927 48.5993 123.488 49.586C124.047 50.5717 124.382 51.6639 124.389 52.6245C124.389 53.5768 124.065 54.1183 123.679 54.3539C123.678 54.3543 123.677 54.3547 123.677 54.3551L110.351 62.2731C110.35 62.2734 110.35 62.2737 110.349 62.274C109.971 62.4942 109.36 62.5184 108.544 62.0444Z" fill="#080E24" stroke="url(#paint2_linear_423_599)"/>
<path d="M108.544 62.0444C107.735 61.5705 106.976 60.7366 106.416 59.7499C105.856 58.7641 105.521 57.6719 105.515 56.7113C105.515 55.759 105.839 55.2176 106.225 54.982L119.554 47.0618C119.933 46.8417 120.543 46.8175 121.359 47.2914C122.168 47.7653 122.927 48.5993 123.488 49.586C124.047 50.5717 124.382 51.6639 124.389 52.6245C124.389 53.5768 124.065 54.1183 123.679 54.3539C123.678 54.3543 123.677 54.3547 123.677 54.3551L110.351 62.2731C110.35 62.2734 110.35 62.2737 110.349 62.274C109.971 62.4942 109.36 62.5184 108.544 62.0444Z" fill="#080E24" stroke="url(#paint3_linear_423_599)"/>
<path d="M122.878 73.3103L122.879 73.3265L122.88 73.3426C122.905 73.5683 122.905 73.8121 122.905 74.0894V74.0903V74.0912V74.0921V74.0931V74.094V74.0949V74.0959V74.0968V74.0977V74.0986V74.0996V74.1005V74.1015V74.1024V74.1033V74.1043V74.1052V74.1062V74.1071V74.1081V74.109V74.11V74.1109V74.1119V74.1128V74.1138V74.1147V74.1157V74.1166V74.1176V74.1186V74.1195V74.1205V74.1215V74.1224V74.1234V74.1244V74.1253V74.1263V74.1273V74.1283V74.1292V74.1302V74.1312V74.1322V74.1332V74.1341V74.1351V74.1361V74.1371V74.1381V74.1391V74.1401V74.1411V74.1421V74.1431V74.1441V74.1451V74.146V74.1471V74.1481V74.1491V74.1501V74.1511V74.1521V74.1531V74.1541V74.1551V74.1561V74.1571V74.1581V74.1592V74.1602V74.1612V74.1622V74.1632V74.1643V74.1653V74.1663V74.1674V74.1684V74.1694V74.1704V74.1715V74.1725V74.1735V74.1746V74.1756V74.1767V74.1777V74.1787V74.1798V74.1808V74.1819V74.1829V74.184V74.185V74.1861V74.1871V74.1882V74.1893V74.1903V74.1914V74.1924V74.1935V74.1946V74.1956V74.1967V74.1978V74.1988V74.1999V74.201V74.202V74.2031V74.2042V74.2053V74.2063V74.2074V74.2085V74.2096V74.2107V74.2118V74.2128V74.2139V74.215V74.2161V74.2172V74.2183V74.2194V74.2205V74.2216V74.2227V74.2238V74.2249V74.226V74.2271V74.2282V74.2293V74.2304V74.2315V74.2326V74.2338V74.2349V74.236V74.2371V74.2382V74.2393V74.2405V74.2416V74.2427V74.2438V74.245V74.2461V74.2472V74.2484V74.2495V74.2506V74.2518V74.2529V74.254V74.2552V74.2563V74.2575V74.2586V74.2598V74.2609V74.2621V74.2632V74.2644V74.2655V74.2667V74.2678V74.269V74.2701V74.2713V74.2725V74.2736V74.2748V74.2759V74.2771V74.2783V74.2794V74.2806V74.2818V74.283V74.2841V74.2853V74.2865V74.2877V74.2889V74.29V74.2912V74.2924V74.2936V74.2948V74.296V74.2972V74.2984V74.2996V74.3008V74.3019V74.3031V74.3043V74.3055V74.3068V74.308V74.3092V74.3104V74.3116V74.3128V74.314V74.3152V74.3164V74.3176V74.3189V74.3201V74.3213V74.3225V74.3237V74.325V74.3262V74.3274V74.3287V74.3299V74.3311V74.3323V74.3336V74.3348V74.3361V74.3373V74.3385V74.3398V74.341V74.3423V74.3435V74.3448V74.346V74.3473V74.3485V74.3498V74.351V74.3523V74.3535V74.3548V74.3561V74.3573V74.3586V74.3598V74.3611V74.3624V74.3637V74.3649V74.3662V74.3675V74.3687V74.37V74.3713V74.3726V74.3739V74.3751V74.3764V74.3777V74.379V74.3803V74.3816V74.3829V74.3842V74.3855V74.3868V74.3881V74.3894V74.3907V74.392V74.3933V74.3946V74.3959V74.3972V74.3985V74.3998V74.4011V74.4024V74.4037V74.4051V74.4064V74.4077V74.409V74.4103V74.4117V74.413V74.4143V74.4157V74.417V74.4183V74.4196V74.421V74.4223V74.4237V74.425V74.4263V74.4277V74.429V74.4304V74.4317V74.4331V74.4344V74.4358V74.4371V74.4385V74.4398V74.4412V74.4426V74.4439V74.4453V74.4466V74.448V74.4494V74.4507V74.4521V74.4535V74.4548V74.4562V74.4576V74.459V74.4604V74.4617V74.4631V74.4645V74.4659V74.4673V74.4687V74.47V74.4714V74.4728V74.4742V74.4756V74.477V74.4784V74.4798V74.4812V74.4826V74.484V74.4854V74.4868V74.4882V74.4897V74.4911V74.4925V74.4939V74.4953V74.4967V74.4982V74.4996V74.501V74.5024V74.5038V74.5053V74.5067V74.5081V74.5096V74.511V74.5124V74.5139V74.5153V74.5168V74.5182V74.5196V74.5211V74.5225V74.524V74.5254V74.5269V74.5283V74.5298V74.5312V74.5327V74.5342V74.5356V74.5371V74.5385V74.54V74.5415V74.5429V74.5431L122.889 74.56L122.891 74.7677C122.906 75.9108 122.898 78.0219 122.891 79.9468C122.884 81.759 122.878 83.4061 122.891 83.925C123.04 93.0505 117.215 102.317 105.14 109.425L105.14 109.425C93.1897 116.47 77.4947 120.006 61.7728 120.006C46.051 120.006 30.3562 116.47 18.4059 109.425C6.36952 102.315 0.472796 93.0879 0.500097 83.987V83.9855C0.500097 82.7088 0.500123 75.78 0.528025 74.2558H0.528108V74.2467C0.528108 73.8577 0.54172 73.4542 0.568989 73.0505L0.570126 73.0337V73.0168C0.570126 72.9452 0.57556 72.8671 0.582821 72.767L0.583358 72.7596C0.589547 72.6743 0.597011 72.5715 0.598022 72.468C0.749694 70.7547 1.10524 69.0278 1.67799 67.343L1.67803 67.343L1.67991 67.3372C1.76241 67.0845 1.84245 66.8535 1.93442 66.6254L1.94076 66.6097L1.94602 66.5936C2.03585 66.3184 2.14469 66.0641 2.26635 65.7799C2.28491 65.7365 2.30377 65.6925 2.3229 65.6475L2.32786 65.6359L2.33222 65.624C2.40733 65.4195 2.51048 65.1946 2.62005 64.9708L2.62015 64.9709L2.62457 64.9613C2.87202 64.4279 3.13332 63.9083 3.42254 63.3739C3.683 62.898 3.95824 62.4341 4.25083 61.9504C4.45985 61.609 4.67524 61.2659 4.90098 60.9541L4.90805 60.9443L4.91463 60.9342C5.07597 60.6871 5.25173 60.4385 5.42839 60.2027L5.42841 60.2027L5.43116 60.1989C6.42322 58.8483 7.56869 57.5233 8.85462 56.2385C9.35206 55.7447 9.87734 55.2507 10.4165 54.7708C12.189 53.2014 14.1845 51.6872 16.4313 50.2569L16.4313 50.2569L16.4346 50.2548C17.0036 49.8864 17.5722 49.5324 18.1683 49.1785C30.048 42.1703 45.7074 38.6514 61.4296 38.6514C77.1518 38.6514 92.8828 42.1703 104.904 49.1802L104.904 49.1803C107.168 50.4989 109.221 51.9016 111.051 53.3453L111.052 53.3464C112.893 54.7881 114.524 56.3125 115.917 57.876L115.921 57.8808C117.094 59.1626 118.126 60.4982 118.992 61.8588L118.992 61.8589C119.171 62.1402 119.337 62.4078 119.504 62.6782C119.668 62.958 119.818 63.2228 119.968 63.5008L119.972 63.5089L119.977 63.5169C120.136 63.7879 120.27 64.0473 120.407 64.3273L120.554 64.6276L120.701 64.9279C120.81 65.1488 120.904 65.3557 120.999 65.5771L121.002 65.5835C121.274 66.1949 121.52 66.8211 121.738 67.4483C121.774 67.5717 121.813 67.6938 121.849 67.8092L121.85 67.8122C121.889 67.9348 121.926 68.0501 121.958 68.1642L121.959 68.1646C122.208 69.0284 122.427 69.8813 122.577 70.7428L122.579 70.7562L122.582 70.7694C122.634 70.9952 122.673 71.2211 122.699 71.433L122.7 71.4384C122.783 72.0603 122.851 72.6875 122.878 73.3103ZM21.1049 54.4527L21.048 54.4863L21.0339 54.5007C11.7211 60.0092 6.43298 66.9073 6.43298 74.2467C6.43298 81.601 11.8407 88.7126 21.3713 94.3268C32.0673 100.646 46.4177 104.106 61.7658 104.106C77.1142 104.106 91.4646 100.646 102.175 94.3267L102.175 94.3266C111.636 88.7407 116.958 81.7005 116.958 74.4326L116.958 74.4306C116.929 67.1047 111.521 60.0367 101.948 54.4655C91.1685 48.1763 76.735 44.7446 61.4016 44.7446C46.0681 44.7446 31.7454 48.1764 21.1049 54.4527Z" fill="#080E24" stroke="url(#paint4_linear_423_599)"/>
<path d="M122.878 73.3103L122.879 73.3265L122.88 73.3426C122.905 73.5683 122.905 73.8121 122.905 74.0894V74.0903V74.0912V74.0921V74.0931V74.094V74.0949V74.0959V74.0968V74.0977V74.0986V74.0996V74.1005V74.1015V74.1024V74.1033V74.1043V74.1052V74.1062V74.1071V74.1081V74.109V74.11V74.1109V74.1119V74.1128V74.1138V74.1147V74.1157V74.1166V74.1176V74.1186V74.1195V74.1205V74.1215V74.1224V74.1234V74.1244V74.1253V74.1263V74.1273V74.1283V74.1292V74.1302V74.1312V74.1322V74.1332V74.1341V74.1351V74.1361V74.1371V74.1381V74.1391V74.1401V74.1411V74.1421V74.1431V74.1441V74.1451V74.146V74.1471V74.1481V74.1491V74.1501V74.1511V74.1521V74.1531V74.1541V74.1551V74.1561V74.1571V74.1581V74.1592V74.1602V74.1612V74.1622V74.1632V74.1643V74.1653V74.1663V74.1674V74.1684V74.1694V74.1704V74.1715V74.1725V74.1735V74.1746V74.1756V74.1767V74.1777V74.1787V74.1798V74.1808V74.1819V74.1829V74.184V74.185V74.1861V74.1871V74.1882V74.1893V74.1903V74.1914V74.1924V74.1935V74.1946V74.1956V74.1967V74.1978V74.1988V74.1999V74.201V74.202V74.2031V74.2042V74.2053V74.2063V74.2074V74.2085V74.2096V74.2107V74.2118V74.2128V74.2139V74.215V74.2161V74.2172V74.2183V74.2194V74.2205V74.2216V74.2227V74.2238V74.2249V74.226V74.2271V74.2282V74.2293V74.2304V74.2315V74.2326V74.2338V74.2349V74.236V74.2371V74.2382V74.2393V74.2405V74.2416V74.2427V74.2438V74.245V74.2461V74.2472V74.2484V74.2495V74.2506V74.2518V74.2529V74.254V74.2552V74.2563V74.2575V74.2586V74.2598V74.2609V74.2621V74.2632V74.2644V74.2655V74.2667V74.2678V74.269V74.2701V74.2713V74.2725V74.2736V74.2748V74.2759V74.2771V74.2783V74.2794V74.2806V74.2818V74.283V74.2841V74.2853V74.2865V74.2877V74.2889V74.29V74.2912V74.2924V74.2936V74.2948V74.296V74.2972V74.2984V74.2996V74.3008V74.3019V74.3031V74.3043V74.3055V74.3068V74.308V74.3092V74.3104V74.3116V74.3128V74.314V74.3152V74.3164V74.3176V74.3189V74.3201V74.3213V74.3225V74.3237V74.325V74.3262V74.3274V74.3287V74.3299V74.3311V74.3323V74.3336V74.3348V74.3361V74.3373V74.3385V74.3398V74.341V74.3423V74.3435V74.3448V74.346V74.3473V74.3485V74.3498V74.351V74.3523V74.3535V74.3548V74.3561V74.3573V74.3586V74.3598V74.3611V74.3624V74.3637V74.3649V74.3662V74.3675V74.3687V74.37V74.3713V74.3726V74.3739V74.3751V74.3764V74.3777V74.379V74.3803V74.3816V74.3829V74.3842V74.3855V74.3868V74.3881V74.3894V74.3907V74.392V74.3933V74.3946V74.3959V74.3972V74.3985V74.3998V74.4011V74.4024V74.4037V74.4051V74.4064V74.4077V74.409V74.4103V74.4117V74.413V74.4143V74.4157V74.417V74.4183V74.4196V74.421V74.4223V74.4237V74.425V74.4263V74.4277V74.429V74.4304V74.4317V74.4331V74.4344V74.4358V74.4371V74.4385V74.4398V74.4412V74.4426V74.4439V74.4453V74.4466V74.448V74.4494V74.4507V74.4521V74.4535V74.4548V74.4562V74.4576V74.459V74.4604V74.4617V74.4631V74.4645V74.4659V74.4673V74.4687V74.47V74.4714V74.4728V74.4742V74.4756V74.477V74.4784V74.4798V74.4812V74.4826V74.484V74.4854V74.4868V74.4882V74.4897V74.4911V74.4925V74.4939V74.4953V74.4967V74.4982V74.4996V74.501V74.5024V74.5038V74.5053V74.5067V74.5081V74.5096V74.511V74.5124V74.5139V74.5153V74.5168V74.5182V74.5196V74.5211V74.5225V74.524V74.5254V74.5269V74.5283V74.5298V74.5312V74.5327V74.5342V74.5356V74.5371V74.5385V74.54V74.5415V74.5429V74.5431L122.889 74.56L122.891 74.7677C122.906 75.9108 122.898 78.0219 122.891 79.9468C122.884 81.759 122.878 83.4061 122.891 83.925C123.04 93.0505 117.215 102.317 105.14 109.425L105.14 109.425C93.1897 116.47 77.4947 120.006 61.7728 120.006C46.051 120.006 30.3562 116.47 18.4059 109.425C6.36952 102.315 0.472796 93.0879 0.500097 83.987V83.9855C0.500097 82.7088 0.500123 75.78 0.528025 74.2558H0.528108V74.2467C0.528108 73.8577 0.54172 73.4542 0.568989 73.0505L0.570126 73.0337V73.0168C0.570126 72.9452 0.57556 72.8671 0.582821 72.767L0.583358 72.7596C0.589547 72.6743 0.597011 72.5715 0.598022 72.468C0.749694 70.7547 1.10524 69.0278 1.67799 67.343L1.67803 67.343L1.67991 67.3372C1.76241 67.0845 1.84245 66.8535 1.93442 66.6254L1.94076 66.6097L1.94602 66.5936C2.03585 66.3184 2.14469 66.0641 2.26635 65.7799C2.28491 65.7365 2.30377 65.6925 2.3229 65.6475L2.32786 65.6359L2.33222 65.624C2.40733 65.4195 2.51048 65.1946 2.62005 64.9708L2.62015 64.9709L2.62457 64.9613C2.87202 64.4279 3.13332 63.9083 3.42254 63.3739C3.683 62.898 3.95824 62.4341 4.25083 61.9504C4.45985 61.609 4.67524 61.2659 4.90098 60.9541L4.90805 60.9443L4.91463 60.9342C5.07597 60.6871 5.25173 60.4385 5.42839 60.2027L5.42841 60.2027L5.43116 60.1989C6.42322 58.8483 7.56869 57.5233 8.85462 56.2385C9.35206 55.7447 9.87734 55.2507 10.4165 54.7708C12.189 53.2014 14.1845 51.6872 16.4313 50.2569L16.4313 50.2569L16.4346 50.2548C17.0036 49.8864 17.5722 49.5324 18.1683 49.1785C30.048 42.1703 45.7074 38.6514 61.4296 38.6514C77.1518 38.6514 92.8828 42.1703 104.904 49.1802L104.904 49.1803C107.168 50.4989 109.221 51.9016 111.051 53.3453L111.052 53.3464C112.893 54.7881 114.524 56.3125 115.917 57.876L115.921 57.8808C117.094 59.1626 118.126 60.4982 118.992 61.8588L118.992 61.8589C119.171 62.1402 119.337 62.4078 119.504 62.6782C119.668 62.958 119.818 63.2228 119.968 63.5008L119.972 63.5089L119.977 63.5169C120.136 63.7879 120.27 64.0473 120.407 64.3273L120.554 64.6276L120.701 64.9279C120.81 65.1488 120.904 65.3557 120.999 65.5771L121.002 65.5835C121.274 66.1949 121.52 66.8211 121.738 67.4483C121.774 67.5717 121.813 67.6938 121.849 67.8092L121.85 67.8122C121.889 67.9348 121.926 68.0501 121.958 68.1642L121.959 68.1646C122.208 69.0284 122.427 69.8813 122.577 70.7428L122.579 70.7562L122.582 70.7694C122.634 70.9952 122.673 71.2211 122.699 71.433L122.7 71.4384C122.783 72.0603 122.851 72.6875 122.878 73.3103ZM21.1049 54.4527L21.048 54.4863L21.0339 54.5007C11.7211 60.0092 6.43298 66.9073 6.43298 74.2467C6.43298 81.601 11.8407 88.7126 21.3713 94.3268C32.0673 100.646 46.4177 104.106 61.7658 104.106C77.1142 104.106 91.4646 100.646 102.175 94.3267L102.175 94.3266C111.636 88.7407 116.958 81.7005 116.958 74.4326L116.958 74.4306C116.929 67.1047 111.521 60.0367 101.948 54.4655C91.1685 48.1763 76.735 44.7446 61.4016 44.7446C46.0681 44.7446 31.7454 48.1764 21.1049 54.4527Z" fill="#080E24" stroke="url(#paint5_linear_423_599)"/>
<path d="M18.1519 100.031C6.05092 92.9093 0.000405487 83.5708 0.0284171 74.2467L18.1519 100.031ZM18.1519 100.031C42.242 114.232 81.3042 114.232 105.394 100.031H18.1519ZM122.878 73.3103L122.879 73.3265L122.881 73.3426C122.889 73.4224 122.895 73.5044 122.899 73.5894H122.892V74.0894V74.0903V74.0912V74.0921V74.0931V74.094V74.0949V74.0959V74.0968V74.0977V74.0986V74.0996V74.1005V74.1015V74.1024V74.1033V74.1043V74.1052V74.1062V74.1071V74.1081V74.109V74.11V74.1109V74.1119V74.1128V74.1138V74.1147V74.1157V74.1166V74.1176V74.1186V74.1195V74.1205V74.1215V74.1224V74.1234V74.1244V74.1253V74.1263V74.1273V74.1283V74.1292V74.1302V74.1312V74.1322V74.1332V74.1341V74.1351V74.1361V74.1371V74.1381V74.1391V74.1401V74.1411V74.1421V74.1431V74.1441V74.1451V74.146V74.1471V74.1481V74.1491V74.1501V74.1511V74.1521V74.1531V74.1541V74.1551V74.1561V74.1571V74.1581V74.1592V74.1602V74.1612V74.1622V74.1632V74.1643V74.1653V74.1663V74.1674V74.1684V74.1694V74.1704V74.1715V74.1725V74.1735V74.1746V74.1756V74.1767V74.1777V74.1787V74.1798V74.1808V74.1819V74.1829V74.184V74.185V74.1861V74.1871V74.1882V74.1893V74.1903V74.1914V74.1924V74.1935V74.1946V74.1956V74.1967V74.1978V74.1988V74.1999V74.201V74.202V74.2031V74.2042V74.2053V74.2063V74.2074V74.2085V74.2096V74.2107V74.2118V74.2128V74.2139V74.215V74.2161V74.2172V74.2183V74.2194V74.2205V74.2216V74.2227V74.2238V74.2249V74.226V74.2271V74.2282V74.2293V74.2304V74.2315V74.2326V74.2338V74.2349V74.236V74.2371V74.2382V74.2393V74.2405V74.2416V74.2427V74.2438V74.245V74.2461V74.2472V74.2484V74.2495V74.2506V74.2518V74.2529V74.254V74.2552V74.2563V74.2575V74.2586V74.2598V74.2609V74.2621V74.2632V74.2644V74.2655V74.2667V74.2678V74.269V74.2701V74.2713V74.2725V74.2736V74.2748V74.2759V74.2771V74.2783V74.2794V74.2806V74.2818V74.283V74.2841V74.2853V74.2865V74.2877V74.2889V74.29V74.2912V74.2924V74.2936V74.2948V74.296V74.2972V74.2984V74.2996V74.3008V74.3019V74.3031V74.3043V74.3055V74.3068V74.308V74.3092V74.3104V74.3116V74.3128V74.314V74.3152V74.3164V74.3176V74.3189V74.3201V74.3213V74.3225V74.3237V74.325V74.3262V74.3274V74.3287V74.3299V74.3311V74.3323V74.3336V74.3348V74.3361V74.3373V74.3385V74.3398V74.341V74.3423V74.3435V74.3448V74.346V74.3473V74.3485V74.3498V74.351V74.3523V74.3535V74.3548V74.3561V74.3573V74.3586V74.3598V74.3611V74.3624V74.3637V74.3649V74.3662V74.3675V74.3687V74.37V74.3713V74.3726V74.3739V74.3751V74.3764V74.3777V74.379V74.3803V74.3816V74.3829V74.3842V74.3855V74.3868V74.3881V74.3894V74.3907V74.392V74.3933V74.3946V74.3959V74.3972V74.3985V74.3998V74.4011V74.4024V74.4037V74.4051V74.4064V74.4077V74.409V74.4103V74.4117V74.413V74.4143V74.4157V74.417V74.4183V74.4196V74.421V74.4223V74.4237V74.425V74.4263V74.4277V74.429V74.4304V74.4317V74.4331V74.4344V74.4358V74.4371V74.4385V74.4398V74.4412V74.4426V74.4439V74.4453V74.4466V74.448V74.4494V74.4507V74.4521V74.4535V74.4548V74.4562V74.4576V74.459V74.4604V74.4617V74.4631V74.4645V74.4659V74.4673V74.4687V74.47V74.4714V74.4728V74.4742V74.4756V74.477V74.4784V74.4798V74.4812V74.4826V74.484V74.4854V74.4868V74.4882V74.4897V74.4911V74.4925V74.4939V74.4953V74.4967V74.4982V74.4996V74.501V74.5024V74.5038V74.5053V74.5067V74.5081V74.5096V74.511V74.5124V74.5139V74.5153V74.5168V74.5182V74.5196V74.5211V74.5225V74.524V74.5254V74.5269V74.5283V74.5298V74.5312V74.5327V74.5342V74.5356V74.5371V74.5385V74.54V74.5415V74.5429V74.5444V74.5459V74.5473V74.5488V74.5503V74.5518V74.5533V74.5547V74.5562V74.5577V74.5592V74.5607V74.5622V74.5636V74.5651V74.5666V74.5681V74.5696V74.5711V74.5726V74.5741V74.5756V74.5771V74.5786V74.5801V74.5816V74.5832V74.5847V74.5862V74.5877V74.5892V74.5907V74.5922V74.5938V74.5953V74.5968V74.5983V74.5999V74.6014V74.6029V74.6045V74.606V74.6075V74.6091V74.6106V74.6121V74.6137V74.6152V74.6168V74.6183V74.6199V74.6214V74.623V74.6245V74.6261V74.6276V74.6292V74.6307V74.6323V74.6339V74.6354V74.637V74.6386V74.6401V74.6417V74.6433V74.6448V74.6464V74.648V74.6496V74.6512V74.6527V74.6543V74.6559V74.6575V74.6591V74.6607V74.6623V74.6638V74.6654V74.667V74.6686V74.6702V74.6718V74.6734V74.675V74.6766V74.6783V74.6799V74.6815V74.6831V74.6847V74.6863V74.6879V74.6895V74.6912V74.6928V74.6944V74.696V74.6977V74.6993V74.7009V74.7025V74.7042V74.7058V74.7075V74.7091V74.7107V74.7124V74.714V74.7157V74.7173V74.7189V74.7206V74.7222V74.7239V74.7256V74.7272V74.7289V74.7305V74.7322V74.7338V74.7355V74.7372V74.7388V74.7405V74.7422V74.7439V74.7442C122.781 83.6617 116.924 92.6619 105.141 99.6002L105.14 99.6003C93.19 106.645 77.495 110.182 61.7731 110.182C46.0512 110.182 30.3562 106.645 18.4059 99.6003L18.4056 99.6002C6.39733 92.533 0.501118 83.3343 0.528417 74.2482V74.2467C0.528417 73.8577 0.542029 73.4542 0.569298 73.0505L0.570435 73.0337V73.0168C0.570435 72.9452 0.575868 72.8671 0.58313 72.767L0.583667 72.7596C0.589856 72.6743 0.59732 72.5715 0.598331 72.468C0.750003 70.7547 1.10555 69.0278 1.6783 67.343L1.67834 67.343L1.68022 67.3372C1.76272 67.0845 1.84276 66.8535 1.93473 66.6254L1.94107 66.6097L1.94633 66.5936C2.03616 66.3184 2.14501 66.0641 2.26666 65.7799C2.28522 65.7365 2.30408 65.6925 2.32321 65.6476L2.32817 65.6359L2.33253 65.624C2.40764 65.4195 2.51079 65.1946 2.62036 64.9708L2.62046 64.9709L2.62488 64.9613C2.87233 64.4279 3.13363 63.9083 3.42285 63.3739C3.68331 62.898 3.95855 62.4341 4.25114 61.9504C4.46016 61.609 4.67554 61.2659 4.90129 60.9541L4.90835 60.9443L4.91494 60.9342C5.07628 60.6871 5.25204 60.4385 5.4287 60.2027L5.42872 60.2027L5.43147 60.1989C6.42353 58.8483 7.569 57.5233 8.85493 56.2385C9.35237 55.7447 9.87765 55.2507 10.4168 54.7708C12.1893 53.2014 14.1848 51.6872 16.4316 50.2569L16.4316 50.2569L16.4349 50.2548C17.0039 49.8864 17.5725 49.5324 18.1686 49.1785C30.0483 42.1703 45.7078 38.6514 61.4299 38.6514C77.1521 38.6514 92.8831 42.1703 104.904 49.1802L104.904 49.1803C107.168 50.4989 109.221 51.9016 111.051 53.3453C112.893 54.8021 114.511 56.3131 115.919 57.8778L115.922 57.8808C117.094 59.1626 118.127 60.4982 118.992 61.8588L118.992 61.8589C119.171 62.1401 119.337 62.4075 119.504 62.6779C119.668 62.9578 119.818 63.2227 119.968 63.5008L119.973 63.5089L119.977 63.5169C120.137 63.7879 120.27 64.0473 120.408 64.3273L120.702 64.9279C120.81 65.1489 120.904 65.3557 120.999 65.5771L121.002 65.5835C121.274 66.1949 121.52 66.8211 121.739 67.4483C121.774 67.5717 121.813 67.6938 121.85 67.8092L121.851 67.8122C121.889 67.9348 121.926 68.0501 121.959 68.1642L121.959 68.1646C122.209 69.0284 122.427 69.8813 122.577 70.7428L122.579 70.7562L122.582 70.7694C122.634 70.9952 122.673 71.2211 122.699 71.433L122.7 71.4384C122.783 72.0603 122.851 72.6875 122.878 73.3103ZM102.172 94.3367L102.175 94.3409C111.636 88.755 116.959 81.7148 116.959 74.4469L116.959 74.4449C116.93 67.119 111.521 60.051 101.948 54.4798C91.1688 48.1906 76.7353 44.7589 61.4019 44.7589C46.0684 44.7589 31.7457 48.1907 21.1053 54.467C11.757 59.981 6.44729 66.8924 6.44729 74.2467C6.44729 81.601 11.855 88.7126 21.3856 94.3268C32.0816 100.646 46.432 104.106 61.7801 104.106C77.1203 104.106 91.4637 100.649 102.172 94.3367Z" fill="#080E24" stroke="url(#paint6_linear_423_599)"/>
<path d="M18.1519 100.031C6.05092 92.9093 0.000405487 83.5708 0.0284171 74.2467L18.1519 100.031ZM18.1519 100.031C42.242 114.232 81.3042 114.232 105.394 100.031H18.1519ZM122.878 73.3103L122.879 73.3265L122.881 73.3426C122.889 73.4224 122.895 73.5044 122.899 73.5894H122.892V74.0894V74.0903V74.0912V74.0921V74.0931V74.094V74.0949V74.0959V74.0968V74.0977V74.0986V74.0996V74.1005V74.1015V74.1024V74.1033V74.1043V74.1052V74.1062V74.1071V74.1081V74.109V74.11V74.1109V74.1119V74.1128V74.1138V74.1147V74.1157V74.1166V74.1176V74.1186V74.1195V74.1205V74.1215V74.1224V74.1234V74.1244V74.1253V74.1263V74.1273V74.1283V74.1292V74.1302V74.1312V74.1322V74.1332V74.1341V74.1351V74.1361V74.1371V74.1381V74.1391V74.1401V74.1411V74.1421V74.1431V74.1441V74.1451V74.146V74.1471V74.1481V74.1491V74.1501V74.1511V74.1521V74.1531V74.1541V74.1551V74.1561V74.1571V74.1581V74.1592V74.1602V74.1612V74.1622V74.1632V74.1643V74.1653V74.1663V74.1674V74.1684V74.1694V74.1704V74.1715V74.1725V74.1735V74.1746V74.1756V74.1767V74.1777V74.1787V74.1798V74.1808V74.1819V74.1829V74.184V74.185V74.1861V74.1871V74.1882V74.1893V74.1903V74.1914V74.1924V74.1935V74.1946V74.1956V74.1967V74.1978V74.1988V74.1999V74.201V74.202V74.2031V74.2042V74.2053V74.2063V74.2074V74.2085V74.2096V74.2107V74.2118V74.2128V74.2139V74.215V74.2161V74.2172V74.2183V74.2194V74.2205V74.2216V74.2227V74.2238V74.2249V74.226V74.2271V74.2282V74.2293V74.2304V74.2315V74.2326V74.2338V74.2349V74.236V74.2371V74.2382V74.2393V74.2405V74.2416V74.2427V74.2438V74.245V74.2461V74.2472V74.2484V74.2495V74.2506V74.2518V74.2529V74.254V74.2552V74.2563V74.2575V74.2586V74.2598V74.2609V74.2621V74.2632V74.2644V74.2655V74.2667V74.2678V74.269V74.2701V74.2713V74.2725V74.2736V74.2748V74.2759V74.2771V74.2783V74.2794V74.2806V74.2818V74.283V74.2841V74.2853V74.2865V74.2877V74.2889V74.29V74.2912V74.2924V74.2936V74.2948V74.296V74.2972V74.2984V74.2996V74.3008V74.3019V74.3031V74.3043V74.3055V74.3068V74.308V74.3092V74.3104V74.3116V74.3128V74.314V74.3152V74.3164V74.3176V74.3189V74.3201V74.3213V74.3225V74.3237V74.325V74.3262V74.3274V74.3287V74.3299V74.3311V74.3323V74.3336V74.3348V74.3361V74.3373V74.3385V74.3398V74.341V74.3423V74.3435V74.3448V74.346V74.3473V74.3485V74.3498V74.351V74.3523V74.3535V74.3548V74.3561V74.3573V74.3586V74.3598V74.3611V74.3624V74.3637V74.3649V74.3662V74.3675V74.3687V74.37V74.3713V74.3726V74.3739V74.3751V74.3764V74.3777V74.379V74.3803V74.3816V74.3829V74.3842V74.3855V74.3868V74.3881V74.3894V74.3907V74.392V74.3933V74.3946V74.3959V74.3972V74.3985V74.3998V74.4011V74.4024V74.4037V74.4051V74.4064V74.4077V74.409V74.4103V74.4117V74.413V74.4143V74.4157V74.417V74.4183V74.4196V74.421V74.4223V74.4237V74.425V74.4263V74.4277V74.429V74.4304V74.4317V74.4331V74.4344V74.4358V74.4371V74.4385V74.4398V74.4412V74.4426V74.4439V74.4453V74.4466V74.448V74.4494V74.4507V74.4521V74.4535V74.4548V74.4562V74.4576V74.459V74.4604V74.4617V74.4631V74.4645V74.4659V74.4673V74.4687V74.47V74.4714V74.4728V74.4742V74.4756V74.477V74.4784V74.4798V74.4812V74.4826V74.484V74.4854V74.4868V74.4882V74.4897V74.4911V74.4925V74.4939V74.4953V74.4967V74.4982V74.4996V74.501V74.5024V74.5038V74.5053V74.5067V74.5081V74.5096V74.511V74.5124V74.5139V74.5153V74.5168V74.5182V74.5196V74.5211V74.5225V74.524V74.5254V74.5269V74.5283V74.5298V74.5312V74.5327V74.5342V74.5356V74.5371V74.5385V74.54V74.5415V74.5429V74.5444V74.5459V74.5473V74.5488V74.5503V74.5518V74.5533V74.5547V74.5562V74.5577V74.5592V74.5607V74.5622V74.5636V74.5651V74.5666V74.5681V74.5696V74.5711V74.5726V74.5741V74.5756V74.5771V74.5786V74.5801V74.5816V74.5832V74.5847V74.5862V74.5877V74.5892V74.5907V74.5922V74.5938V74.5953V74.5968V74.5983V74.5999V74.6014V74.6029V74.6045V74.606V74.6075V74.6091V74.6106V74.6121V74.6137V74.6152V74.6168V74.6183V74.6199V74.6214V74.623V74.6245V74.6261V74.6276V74.6292V74.6307V74.6323V74.6339V74.6354V74.637V74.6386V74.6401V74.6417V74.6433V74.6448V74.6464V74.648V74.6496V74.6512V74.6527V74.6543V74.6559V74.6575V74.6591V74.6607V74.6623V74.6638V74.6654V74.667V74.6686V74.6702V74.6718V74.6734V74.675V74.6766V74.6783V74.6799V74.6815V74.6831V74.6847V74.6863V74.6879V74.6895V74.6912V74.6928V74.6944V74.696V74.6977V74.6993V74.7009V74.7025V74.7042V74.7058V74.7075V74.7091V74.7107V74.7124V74.714V74.7157V74.7173V74.7189V74.7206V74.7222V74.7239V74.7256V74.7272V74.7289V74.7305V74.7322V74.7338V74.7355V74.7372V74.7388V74.7405V74.7422V74.7439V74.7442C122.781 83.6617 116.924 92.6619 105.141 99.6002L105.14 99.6003C93.19 106.645 77.495 110.182 61.7731 110.182C46.0512 110.182 30.3562 106.645 18.4059 99.6003L18.4056 99.6002C6.39733 92.533 0.501118 83.3343 0.528417 74.2482V74.2467C0.528417 73.8577 0.542029 73.4542 0.569298 73.0505L0.570435 73.0337V73.0168C0.570435 72.9452 0.575868 72.8671 0.58313 72.767L0.583667 72.7596C0.589856 72.6743 0.59732 72.5715 0.598331 72.468C0.750003 70.7547 1.10555 69.0278 1.6783 67.343L1.67834 67.343L1.68022 67.3372C1.76272 67.0845 1.84276 66.8535 1.93473 66.6254L1.94107 66.6097L1.94633 66.5936C2.03616 66.3184 2.14501 66.0641 2.26666 65.7799C2.28522 65.7365 2.30408 65.6925 2.32321 65.6476L2.32817 65.6359L2.33253 65.624C2.40764 65.4195 2.51079 65.1946 2.62036 64.9708L2.62046 64.9709L2.62488 64.9613C2.87233 64.4279 3.13363 63.9083 3.42285 63.3739C3.68331 62.898 3.95855 62.4341 4.25114 61.9504C4.46016 61.609 4.67554 61.2659 4.90129 60.9541L4.90835 60.9443L4.91494 60.9342C5.07628 60.6871 5.25204 60.4385 5.4287 60.2027L5.42872 60.2027L5.43147 60.1989C6.42353 58.8483 7.569 57.5233 8.85493 56.2385C9.35237 55.7447 9.87765 55.2507 10.4168 54.7708C12.1893 53.2014 14.1848 51.6872 16.4316 50.2569L16.4316 50.2569L16.4349 50.2548C17.0039 49.8864 17.5725 49.5324 18.1686 49.1785C30.0483 42.1703 45.7078 38.6514 61.4299 38.6514C77.1521 38.6514 92.8831 42.1703 104.904 49.1802L104.904 49.1803C107.168 50.4989 109.221 51.9016 111.051 53.3453C112.893 54.8021 114.511 56.3131 115.919 57.8778L115.922 57.8808C117.094 59.1626 118.127 60.4982 118.992 61.8588L118.992 61.8589C119.171 62.1401 119.337 62.4075 119.504 62.6779C119.668 62.9578 119.818 63.2227 119.968 63.5008L119.973 63.5089L119.977 63.5169C120.137 63.7879 120.27 64.0473 120.408 64.3273L120.702 64.9279C120.81 65.1489 120.904 65.3557 120.999 65.5771L121.002 65.5835C121.274 66.1949 121.52 66.8211 121.739 67.4483C121.774 67.5717 121.813 67.6938 121.85 67.8092L121.851 67.8122C121.889 67.9348 121.926 68.0501 121.959 68.1642L121.959 68.1646C122.209 69.0284 122.427 69.8813 122.577 70.7428L122.579 70.7562L122.582 70.7694C122.634 70.9952 122.673 71.2211 122.699 71.433L122.7 71.4384C122.783 72.0603 122.851 72.6875 122.878 73.3103ZM102.172 94.3367L102.175 94.3409C111.636 88.755 116.959 81.7148 116.959 74.4469L116.959 74.4449C116.93 67.119 111.521 60.051 101.948 54.4798C91.1688 48.1906 76.7353 44.7589 61.4019 44.7589C46.0684 44.7589 31.7457 48.1907 21.1053 54.467C11.757 59.981 6.44729 66.8924 6.44729 74.2467C6.44729 81.601 11.855 88.7126 21.3856 94.3268C32.0816 100.646 46.432 104.106 61.7801 104.106C77.1203 104.106 91.4637 100.649 102.172 94.3367Z" fill="#080E24" stroke="url(#paint7_linear_423_599)"/>
<path d="M21.0929 52.9777L20.8256 52.5552L21.0929 52.9777C31.6897 46.2737 46.02 42.5732 61.4258 42.5732C76.8316 42.5732 91.2766 46.2737 102.016 52.9946L102.017 52.9949C111.588 58.9688 116.722 66.3779 116.749 73.8163C116.749 74.3632 116.724 74.9068 116.671 75.4473C114.629 69.7276 109.76 64.3388 102.547 59.845C91.6163 53.0048 77.0064 49.2714 61.4258 49.2714C45.8455 49.2714 31.3483 53.0046 20.5588 59.8304C13.5479 64.2477 8.79519 69.556 6.78924 75.1937C6.73799 74.6635 6.71289 74.1316 6.71289 73.5967C6.71289 66.2193 11.7495 58.8886 21.0929 52.9777Z" fill="#080E24" stroke="url(#paint8_linear_423_599)"/>
<path d="M21.0929 52.9777L20.8256 52.5552L21.0929 52.9777C31.6897 46.2737 46.02 42.5732 61.4258 42.5732C76.8316 42.5732 91.2766 46.2737 102.016 52.9946L102.017 52.9949C111.588 58.9688 116.722 66.3779 116.749 73.8163C116.749 74.3632 116.724 74.9068 116.671 75.4473C114.629 69.7276 109.76 64.3388 102.547 59.845C91.6163 53.0048 77.0064 49.2714 61.4258 49.2714C45.8455 49.2714 31.3483 53.0046 20.5588 59.8304C13.5479 64.2477 8.79519 69.556 6.78924 75.1937C6.73799 74.6635 6.71289 74.1316 6.71289 73.5967C6.71289 66.2193 11.7495 58.8886 21.0929 52.9777Z" fill="#080E24" stroke="url(#paint9_linear_423_599)"/>
<defs>
<linearGradient id="paint0_linear_423_599" x1="157.116" y1="0" x2="157.116" y2="57.8108" gradientUnits="userSpaceOnUse">
<stop stop-color="#1480FF"/>
<stop offset="1" stop-color="#4F7ECC"/>
</linearGradient>
<linearGradient id="paint1_linear_423_599" x1="121.64" y1="43.6045" x2="121.64" y2="57.8231" gradientUnits="userSpaceOnUse">
<stop stop-color="#1480FF"/>
<stop offset="1" stop-color="#4F7ECC"/>
</linearGradient>
<linearGradient id="paint2_linear_423_599" x1="114.952" y1="46.4102" x2="114.952" y2="62.9257" gradientUnits="userSpaceOnUse">
<stop stop-color="#1480FF"/>
<stop offset="1" stop-color="#4F7ECC"/>
</linearGradient>
<linearGradient id="paint3_linear_423_599" x1="114.952" y1="46.4102" x2="114.952" y2="62.9257" gradientUnits="userSpaceOnUse">
<stop stop-color="#1480FF"/>
<stop offset="1" stop-color="#4F7ECC"/>
</linearGradient>
<linearGradient id="paint4_linear_423_599" x1="61.7027" y1="38.1514" x2="61.7027" y2="120.506" gradientUnits="userSpaceOnUse">
<stop stop-color="#1480FF"/>
<stop offset="1" stop-color="#4F7ECC"/>
</linearGradient>
<linearGradient id="paint5_linear_423_599" x1="61.7027" y1="38.1514" x2="61.7027" y2="120.506" gradientUnits="userSpaceOnUse">
<stop stop-color="#1480FF"/>
<stop offset="1" stop-color="#4F7ECC"/>
</linearGradient>
<linearGradient id="paint6_linear_423_599" x1="61.717" y1="38.1514" x2="61.717" y2="110.682" gradientUnits="userSpaceOnUse">
<stop stop-color="#1480FF"/>
<stop offset="1" stop-color="#4F7ECC"/>
</linearGradient>
<linearGradient id="paint7_linear_423_599" x1="61.717" y1="38.1514" x2="61.717" y2="110.682" gradientUnits="userSpaceOnUse">
<stop stop-color="#1480FF"/>
<stop offset="1" stop-color="#4F7ECC"/>
</linearGradient>
<linearGradient id="paint8_linear_423_599" x1="61.7311" y1="42.0732" x2="61.7311" y2="77.6869" gradientUnits="userSpaceOnUse">
<stop stop-color="#1480FF"/>
<stop offset="1" stop-color="#4F7ECC"/>
</linearGradient>
<linearGradient id="paint9_linear_423_599" x1="61.7311" y1="42.0732" x2="61.7311" y2="77.6869" gradientUnits="userSpaceOnUse">
<stop stop-color="#1480FF"/>
<stop offset="1" stop-color="#4F7ECC"/>
</linearGradient>
</defs>
</svg>
