<svg width="196" height="109" viewBox="0 0 196 109" fill="none" xmlns="http://www.w3.org/2000/svg">
<path d="M113.314 34.1009L127.543 25.6594L127.523 33.1016L113.292 41.545L113.314 34.1009Z" fill="#080E24" stroke="url(#paint0_linear_423_803)" stroke-width="0.5"/>
<path d="M42.747 25.6565L57.0795 34.1049L57.0594 41.552L42.725 33.1036L42.747 25.6565Z" fill="#080E24" stroke="url(#paint1_linear_423_803)" stroke-width="0.5"/>
<path d="M99.8355 41.7727C98.7671 42.4063 97.9912 43.1649 97.5284 43.9852L97.5451 37.8041C97.5451 37.8041 97.5451 37.8041 97.5451 37.8041C97.5487 36.5292 98.3699 35.2106 100.112 34.1762C101.863 33.1372 104.181 32.6094 106.515 32.6084C108.795 32.6074 111.066 33.1092 112.812 34.1011L112.792 41.5582C110.991 40.6042 108.735 40.1339 106.493 40.1349C104.093 40.1359 101.681 40.6772 99.8355 41.7727Z" fill="#080E24" stroke="url(#paint2_linear_423_803)" stroke-width="0.5"/>
<mask id="mask0_423_803" style="mask-type:luminance" maskUnits="userSpaceOnUse" x="97" y="32" width="17" height="14">
<path d="M99.8365 41.7717C98.768 42.4053 97.9922 43.1639 97.5294 43.9842L97.5461 37.8031C97.5461 37.8031 97.5461 37.8031 97.5461 37.8031C97.5497 36.5282 98.3709 35.2096 100.113 34.1752C101.864 33.1363 104.182 32.6084 106.516 32.6074C108.796 32.6065 111.067 33.1082 112.813 34.1001L112.793 41.5572C110.992 40.6032 108.736 40.1329 106.494 40.1339C104.094 40.1349 101.682 40.6763 99.8365 41.7717Z" fill="white" stroke="white" stroke-width="0.5"/>
</mask>
<g mask="url(#mask0_423_803)">
<path d="M97.5461 37.8027L97.5461 37.8024C97.5479 36.5298 98.3688 35.2093 100.113 34.1748L100.113 34.1748C102.957 32.4872 107.281 32.157 110.716 33.2102L113.077 34.2984V41.6215L110.874 40.7694L110.866 40.7662L110.858 40.7636C107.308 39.6703 102.825 39.9974 99.8365 41.7713L99.8365 41.7713C98.768 42.4056 97.9921 43.1644 97.5294 43.9855L97.5461 37.8027Z" stroke="url(#paint3_linear_423_803)" stroke-width="0.5"/>
</g>
<path d="M69.6348 42.3975L69.6338 42.398C69.6025 42.412 69.5719 42.4267 69.5381 42.4429C69.5322 42.4457 69.5263 42.4485 69.5203 42.4514C69.4807 42.4704 69.4369 42.4911 69.3909 42.5106M69.6348 42.3975L68.0241 42.7331M69.6348 42.3975C69.8285 42.3097 70.0197 42.2176 70.2065 42.1197L70.1864 49.5808M69.6348 42.3975L70.1864 49.5808M69.3909 42.5106C69.3416 42.5316 69.2756 42.5566 69.2184 42.5783C69.1831 42.5917 69.1511 42.6038 69.1286 42.6129L69.1269 42.6136C69.094 42.6266 69.0599 42.6403 69.0249 42.6545C68.9384 42.6894 68.8465 42.7266 68.7544 42.7594L68.7531 42.7599C68.7145 42.7734 68.6755 42.7855 68.6412 42.7962L68.6395 42.7967C68.6033 42.808 68.572 42.8178 68.5422 42.8282L68.5392 42.8293L68.5392 42.8293C68.5149 42.8374 68.4903 42.8458 68.4654 42.8542C68.3469 42.8943 68.2213 42.9367 68.0935 42.9733M69.3909 42.5106C69.3911 42.5105 69.3912 42.5104 69.3914 42.5104L69.2931 42.2805L69.3906 42.5107C69.3907 42.5107 69.3908 42.5106 69.3909 42.5106ZM68.0935 42.9733C68.0933 42.9734 68.0931 42.9734 68.0929 42.9735L68.0241 42.7331M68.0935 42.9733C68.0937 42.9732 68.0939 42.9732 68.0942 42.9731L68.0241 42.7331M68.0935 42.9733C68.0607 42.9828 68.0282 42.9909 68.0005 42.9978L67.9968 42.9988C67.969 43.0057 67.9455 43.0115 67.9225 43.018L67.922 43.0181L67.9198 43.0187C67.7557 43.0646 67.5862 43.112 67.4119 43.1534L67.4067 43.1546L67.4067 43.1545L67.3483 43.1669L67.2931 43.1785M68.0241 42.7331C67.995 42.7416 67.9653 42.749 67.9353 42.7564C67.9086 42.7631 67.8816 42.7698 67.8547 42.7774C67.6892 42.8236 67.5236 42.8699 67.3542 42.9101C67.3355 42.9141 67.3163 42.9182 67.2971 42.9222C67.2778 42.9262 67.2586 42.9302 67.2399 42.9343M67.2931 43.1785C67.2936 43.1784 67.294 43.1783 67.2944 43.1783L67.2399 42.9343M67.2931 43.1785C67.1045 43.2207 66.91 43.2637 66.7126 43.3007L66.7053 43.302L66.7053 43.3019L66.6669 43.308L66.6306 43.3137M67.2931 43.1785L67.2924 43.1787L67.2399 42.9343M67.2399 42.9343C67.0507 42.9765 66.8596 43.0188 66.6665 43.055L66.5896 43.067M57.3797 41.7031C56.5817 41.2324 55.959 40.6973 55.5097 40.128C55.243 39.7876 55.0381 39.4347 54.8952 39.0751L54.8937 39.6531M57.3797 41.7031L57.2519 41.918C57.2521 41.9181 57.2522 41.9182 57.2523 41.9183M57.3797 41.7031C57.5827 41.8238 57.7974 41.9345 58.0142 42.0411M57.3797 41.7031L57.2527 41.9185C57.2526 41.9184 57.2525 41.9183 57.2523 41.9183M57.2523 41.9183C56.4325 41.4346 55.7849 40.8803 55.3135 40.2829L55.313 40.2822C55.1524 40.0773 55.0125 39.8672 54.8937 39.6531M57.2523 41.9183L58.2112 42.1336M54.8937 39.6531L54.877 45.8357L54.877 45.8358C54.8734 47.1254 55.7071 48.4676 57.4849 49.5142L57.4849 49.5142C57.6824 49.6305 57.8892 49.7381 58.1029 49.8432L58.1034 49.8435C58.1496 49.8664 58.196 49.8877 58.2454 49.9105C58.2615 49.9179 58.2779 49.9255 58.2948 49.9333L58.1896 50.1601M54.8937 39.6531C54.7967 39.4785 54.7138 39.3011 54.6451 39.1218L54.627 45.8351C54.623 47.2432 55.5334 48.6554 57.358 49.7296C57.563 49.8503 57.7758 49.9609 57.9925 50.0676C58.0421 50.0921 58.0929 50.1155 58.143 50.1386C58.1586 50.1458 58.1741 50.1529 58.1896 50.1601M58.895 50.4578C58.8241 50.4317 58.7551 50.4035 58.6862 50.3754L58.6861 50.3753C58.5167 50.3069 58.3511 50.2345 58.1896 50.1601M58.895 50.4578L58.1896 50.1601M58.895 50.4578C59.1117 50.5403 59.3324 50.6187 59.559 50.6892M58.895 50.4578L59.6289 50.4491M58.1896 50.1601L58.2942 49.933C58.4528 50.0061 58.6146 50.0769 58.7797 50.1435L58.7806 50.1439C58.8502 50.1723 58.9152 50.1988 58.9815 50.2232L58.9839 50.2241C59.1959 50.3048 59.4101 50.381 59.6289 50.4491M58.1896 50.1601L59.6289 50.4491M59.6289 50.4491C59.6263 50.4484 59.6236 50.4476 59.6209 50.4469L59.6187 50.4555C59.6146 50.4553 59.6104 50.4552 59.6063 50.4552V50.5039L59.559 50.6892M59.6289 50.4491C59.6388 50.4518 59.6472 50.4546 59.6536 50.4569C59.661 50.4595 59.6678 50.4621 59.6714 50.4635L59.6717 50.4636M59.6289 50.4491C59.6303 50.4495 59.6318 50.45 59.6332 50.4504L59.6313 50.4565C59.6449 50.4578 59.6584 50.4601 59.6717 50.4636M59.559 50.6892L59.6063 50.537M59.559 50.6892C59.5669 50.6912 59.5748 50.6942 59.5827 50.6972C59.5906 50.7002 59.5984 50.7032 59.6063 50.7052M59.6063 50.537L70.436 49.7256C70.1523 49.8925 69.8527 50.0434 69.5453 50.1842C66.6704 51.5039 62.7709 51.6809 59.6162 50.7093M59.6063 50.537V50.7052M59.6063 50.537L59.6717 50.4636M59.6063 50.7052C59.6103 50.7052 59.6122 50.7073 59.6162 50.7093M59.6063 50.7052L59.6682 50.463C59.6736 50.4644 59.677 50.4656 59.6773 50.4657C59.6775 50.4658 59.6773 50.4657 59.6763 50.4654L59.6721 50.4637L59.6717 50.4636M59.6162 50.7093L59.7299 50.4866C59.7338 50.4886 59.7372 50.4905 59.739 50.4915M59.6162 50.7093L59.739 50.4915M70.1864 49.5808C69.9484 49.7149 69.6986 49.839 69.4412 49.9569L69.4411 49.957C66.6323 51.2463 62.8061 51.4248 59.7081 50.476C59.6989 50.4721 59.6879 50.468 59.6752 50.4645L70.1864 49.5808ZM59.739 50.4915C59.7393 50.4917 59.7396 50.4919 59.7398 50.492M59.739 50.4915L59.7394 50.4918L59.7398 50.492M59.7398 50.492C59.7403 50.4923 59.7405 50.4924 59.7404 50.4924L59.7401 50.4922L59.7398 50.492ZM58.0142 42.0411L57.9033 42.2652C57.9034 42.2652 57.9035 42.2652 57.9036 42.2653C57.9037 42.2653 57.9038 42.2654 57.9038 42.2654L58.0142 42.0411ZM58.0142 42.0411C58.0792 42.0733 58.1442 42.1035 58.2112 42.1336M58.2112 42.1336L58.1086 42.3616C58.1082 42.3614 58.1079 42.3613 58.1076 42.3611M58.2112 42.1336C58.3728 42.2081 58.5383 42.2805 58.7078 42.3489M58.2112 42.1336L58.1066 42.3607C58.107 42.3608 58.1073 42.361 58.1076 42.3611M58.2112 42.1336L58.1076 42.3611M58.7078 42.3489C58.7392 42.3608 58.7705 42.3735 58.8021 42.3863C58.8399 42.4016 58.878 42.4171 58.9167 42.4314M58.7078 42.3489L58.7078 42.3489L58.7078 42.3489ZM58.9167 42.4314L58.8278 42.665C58.8281 42.6652 58.8285 42.6653 58.8289 42.6655M58.9167 42.4314L58.8302 42.6659C58.8298 42.6658 58.8294 42.6656 58.8289 42.6655M58.9167 42.4314C59.1334 42.5138 59.3541 42.5923 59.5807 42.6627M58.8289 42.6655C58.7897 42.651 58.7519 42.6357 58.7176 42.6218L58.7084 42.6181C58.6764 42.6051 58.6477 42.5934 58.6192 42.5826L58.6142 42.5808L58.6142 42.5807C58.4407 42.5107 58.2718 42.4368 58.1076 42.3611M58.8289 42.6655C59.0462 42.7481 59.269 42.8274 59.4987 42.899M59.4987 42.899C59.497 42.8983 59.4954 42.8977 59.4939 42.8972C59.493 42.8968 59.4921 42.8965 59.4913 42.8962L59.5807 42.6627M59.4987 42.899C59.5125 42.9043 59.5346 42.9124 59.5589 42.9191M59.4987 42.899C59.5013 42.8998 59.5039 42.9006 59.5065 42.9014L59.5807 42.6627M59.5807 42.6627C59.5965 42.6687 59.6122 42.6748 59.628 42.6788M59.5589 42.9191C59.5573 42.9186 59.5557 42.9181 59.5542 42.9176L59.628 42.6788M59.5589 42.9191C61.5532 43.5348 63.8337 43.6992 65.977 43.4156M59.5589 42.9191C59.5613 42.9198 59.5637 42.9204 59.5662 42.921L59.628 42.6788M59.628 42.6788C61.5866 43.2843 63.833 43.4472 65.9453 43.1676C65.9512 43.1656 65.9591 43.1656 65.967 43.1656H65.967C66.1759 43.1374 66.3828 43.1032 66.5896 43.067M65.977 43.4156H65.9838L66.0004 43.4134C66.2132 43.3847 66.423 43.35 66.6306 43.3137M65.977 43.4156C65.9774 43.4156 65.9777 43.4155 65.9781 43.4155L66.0003 43.4125L66.0025 43.4122L66.0258 43.4043C66.0161 43.4076 66.0073 43.4098 66.0001 43.4114C65.9968 43.4121 65.9939 43.4126 65.9913 43.413C65.9861 43.4139 65.9816 43.4144 65.978 43.4148C65.9758 43.415 65.9739 43.4152 65.9724 43.4153C65.9703 43.4154 65.9684 43.4155 65.967 43.4156C65.964 43.4157 65.9631 43.4156 65.967 43.4156H65.977ZM66.5896 43.067L66.6284 43.314L66.6306 43.3137M66.5896 43.067L66.6327 43.3133C66.632 43.3134 66.6313 43.3135 66.6306 43.3137" fill="#080E24" stroke="url(#paint4_linear_423_803)" stroke-width="0.5"/>
<path d="M85.535 50.5825L99.7713 42.137L99.7512 49.5791L85.5149 58.0266L85.535 50.5825Z" fill="#080E24" stroke="url(#paint5_linear_423_803)" stroke-width="0.5"/>
<path d="M42.9872 25.2213L57.4567 33.7492L57.821 33.964L57.4573 34.1797C55.7064 35.2178 54.8862 36.5471 54.8925 37.8295C54.8988 39.1124 55.7328 40.4443 57.5 41.486L57.5001 41.4861C59.2626 42.5253 61.5865 43.0512 63.9208 43.0502C66.2553 43.0492 68.573 42.5213 70.3235 41.4824L70.4506 41.4069L70.578 41.482L85.2843 50.1496L99.5403 41.6924C97.9122 40.6251 97.0507 39.2503 97.0435 37.8328C97.0357 36.3151 98.0078 34.8447 99.8568 33.7476M42.9872 25.2213L99.9844 33.9626M42.9872 25.2213L85.0073 0.290442L42.9872 25.2213ZM99.8568 33.7476L99.9844 33.9626M99.8568 33.7476C99.8568 33.7476 99.8568 33.7476 99.8568 33.7476L99.9844 33.9626M99.8568 33.7476C101.702 32.6522 104.114 32.1108 106.514 32.1098C108.86 32.1088 111.221 32.6237 113.061 33.6688M99.9844 33.9626C103.58 31.8282 109.443 31.8242 113.062 33.9586M113.061 33.6688L112.935 33.7436L113.062 33.9586M113.061 33.6688C113.104 33.6933 113.147 33.7181 113.189 33.7432L113.062 33.9586M113.061 33.6688L113.062 33.9586M127.794 25.22L127.548 25.3656L127.302 25.2207L127.548 25.0751L127.794 25.22ZM99.7805 41.5499C99.8591 41.5997 99.9395 41.6489 100.022 41.6974L99.7774 41.8424L99.7805 41.5499Z" fill="#080E24" stroke="url(#paint6_linear_423_803)" stroke-width="0.5"/>
<path d="M70.7002 42.1341L85.0346 50.5825L85.0145 58.0295L70.6801 49.5791L70.7002 42.1341Z" fill="#080E24" stroke="url(#paint7_linear_423_803)" stroke-width="0.5"/>
<path d="M110.951 46.8675L125.297 55.3239L125.277 62.7689L110.931 54.3125L110.951 46.8675Z" fill="#080E24" stroke="url(#paint8_linear_423_803)" stroke-width="0.5"/>
<path d="M122.616 68.2524V59.4277L138.872 61.2856V70.8603C132.834 73.8258 125.867 72.8969 122.616 68.2524Z" fill="#080E24"/>
<path d="M122.616 68.2524V59.4277L138.872 61.2856V70.8603C132.834 73.8258 125.867 72.8969 122.616 68.2524Z" stroke="black" stroke-width="0.5"/>
<path d="M122.616 68.2524V59.4277L138.872 61.2856V70.8603C132.834 73.8258 125.867 72.8969 122.616 68.2524Z" stroke="url(#paint9_linear_423_803)" stroke-width="0.5"/>
<path d="M127.898 45.1897C126.224 44.7014 124.973 44.1498 124.135 43.5742C123.239 42.9585 122.863 42.3515 122.866 41.8027L122.866 41.8027L122.909 34.3457C123.99 34.1398 125.206 34.0712 126.165 34.4796C126.666 34.6931 127.099 35.0374 127.412 35.5694C127.726 36.104 127.929 36.8437 127.94 37.8601L127.898 45.1897Z" fill="#080E24" stroke="url(#paint10_linear_423_803)" stroke-width="0.5"/>
<path d="M125.675 54.9662L111.193 46.4302L125.567 37.9033L125.93 37.6876L125.566 37.473C123.794 36.4281 122.921 35.1182 122.895 33.8499C122.869 32.5856 123.683 31.2572 125.518 30.1685C127.272 29.1276 129.59 28.5998 131.924 28.5998C134.258 28.5998 136.582 29.1275 138.349 30.1689L138.476 30.244L138.603 30.1686L153.213 21.5014L195.508 46.4316L153.49 71.3605L138.772 62.6849L138.635 62.6038L138.503 62.6945C138.491 62.7031 138.479 62.7113 138.468 62.7193C138.407 62.7612 138.36 62.7938 138.308 62.8233L138.308 62.8233L138.303 62.8261C136.549 63.8671 134.231 64.3949 131.897 64.3954C129.564 64.3959 127.242 63.8691 125.48 62.8298L125.479 62.8297C123.685 61.7722 122.627 60.5298 122.513 59.304C122.4 58.104 123.186 56.7794 125.431 55.5266L125.431 55.5268L125.439 55.522C125.501 55.4842 125.572 55.4486 125.659 55.4053L126.071 55.1999L125.675 54.9662Z" fill="#080E24" stroke="url(#paint11_linear_423_803)" stroke-width="0.5"/>
<path d="M153.741 71.7932L195.749 46.8704L195.729 54.3125L153.721 79.2354L153.741 71.7932Z" fill="#080E24" stroke="url(#paint12_linear_423_803)" stroke-width="0.5"/>
<path d="M138.894 63.3373L153.24 71.7937L153.22 79.2387L138.873 70.7842L138.894 63.3373Z" fill="#080E24" stroke="url(#paint13_linear_423_803)" stroke-width="0.5"/>
<path d="M70.8377 59.3114L85.0443 50.8841L85.0224 58.3262L70.8176 66.7536L70.8377 59.3114Z" fill="#080E24" stroke="url(#paint14_linear_423_803)" stroke-width="0.5"/>
<mask id="mask1_423_803" style="mask-type:luminance" maskUnits="userSpaceOnUse" x="54" y="57" width="17" height="15">
<path d="M57.6278 59.3843L57.6279 59.3842C59.3824 58.3432 61.7001 57.8154 64.0342 57.8154C66.3142 57.8154 68.5842 58.3191 70.3339 59.3131L70.3137 66.7702C68.5094 65.8142 66.2531 65.3419 64.011 65.3419C61.6105 65.3419 59.1996 65.8833 57.3511 66.9807L57.351 66.9807C56.2856 67.6134 55.5118 68.3704 55.0499 69.1896L55.0666 63.0061C55.0666 63.0061 55.0666 63.0061 55.0666 63.0061C55.0702 61.733 55.8897 60.4145 57.6278 59.3843Z" fill="white" stroke="white" stroke-width="0.5"/>
</mask>
<g mask="url(#mask1_423_803)">
<path d="M70.3151 66.7703C69.7631 66.4778 69.1688 66.2309 68.5464 66.029L68.5667 58.5289C69.1972 58.743 69.7919 59.0046 70.3352 59.3132L70.3151 66.7703Z" fill="#080E24" stroke="url(#paint15_linear_423_803)" stroke-width="0.5"/>
<path d="M68.0474 65.8796C64.5527 64.9001 60.2537 65.2598 57.353 66.9822C56.2875 67.6138 55.5137 68.371 55.0519 69.1905L55.0685 63.0077C55.0685 63.0076 55.0685 63.0076 55.0685 63.0076C55.0722 61.7347 55.8915 60.4181 57.6299 59.3858L68.0474 65.8796ZM68.0474 65.8796L68.0677 58.3729C64.6594 57.3785 60.4311 57.7244 57.63 59.3857L68.0474 65.8796Z" fill="#080E24" stroke="url(#paint16_linear_423_803)" stroke-width="0.5"/>
</g>
<path d="M70.4609 41.9919L84.8041 50.4454L70.5881 58.8795C68.7451 57.8324 66.3838 57.3154 64.0382 57.3154C61.6377 57.3154 59.2268 57.8568 57.3782 58.9543C55.533 60.0494 54.5625 61.5189 54.5716 63.0366C54.58 64.4542 55.4427 65.83 57.0736 66.899L42.8176 75.3562L0.512642 50.4219L42.5012 25.5111L56.8531 33.9698C55.2378 35.0376 54.3917 36.4131 54.4001 37.8307C54.4092 39.3477 55.3965 40.8169 57.2567 41.9135C59.1177 43.0105 61.5346 43.5519 63.9344 43.5524C66.2789 43.5529 68.6326 43.0371 70.4609 41.9919Z" fill="#080E24" stroke="url(#paint17_linear_423_803)" stroke-width="0.5"/>
<path d="M43.0662 75.7895L57.3024 67.3422L57.2805 74.7862L43.0461 83.2317L43.0662 75.7895Z" fill="#080E24" stroke="url(#paint18_linear_423_803)" stroke-width="0.5"/>
<path d="M0.270496 50.8597L42.5658 75.7895L42.5457 83.2345L0.250386 58.3067L0.270496 50.8597Z" fill="#080E24" stroke="url(#paint19_linear_423_803)" stroke-width="0.5"/>
<path d="M99.9086 67.0494C98.6744 67.8091 97.8488 68.7397 97.4654 69.7369L94.9986 57.352C95.003 57.2576 95.0331 57.2362 95.0473 57.227C95.082 57.2048 95.1654 57.1804 95.3327 57.1968C95.6632 57.2292 96.1481 57.4013 96.719 57.6591C97.282 57.9135 97.9004 58.2379 98.4896 58.5538C98.615 58.6211 98.7394 58.6881 98.8616 58.754C99.2498 58.9632 99.6164 59.1608 99.9295 59.3187L99.9086 67.0494Z" fill="#080E24" stroke="url(#paint20_linear_423_803)" stroke-width="0.5"/>
<path d="M85.6251 100.571L43.33 75.6412L57.7035 67.1143L58.0671 66.8986L57.7029 66.6839C55.9355 65.642 55.1001 64.311 55.0924 63.0289C55.0848 61.7474 55.9034 60.4187 57.6543 59.3795C59.4087 58.3385 61.7265 57.8107 64.0605 57.8107C66.3945 57.8107 68.718 58.3385 70.4836 59.3798L70.611 59.4549L70.7381 59.3795L85.3481 50.7123L99.7 59.171C98.081 60.2404 97.2332 61.6169 97.2412 63.035C97.2497 64.5525 98.2376 66.0212 100.098 67.1167C101.955 68.2117 104.37 68.752 106.77 68.7515C109.115 68.751 111.471 68.2343 113.302 67.187L127.646 75.641L85.6251 100.571Z" fill="#080E24" stroke="url(#paint21_linear_423_803)" stroke-width="0.5"/>
<path d="M85.8748 101.005L127.883 76.0823L127.863 83.5265L85.8529 108.449L85.8748 101.005Z" fill="#080E24" stroke="url(#paint22_linear_423_803)" stroke-width="0.5"/>
<path d="M43.0859 76.0794L85.3753 101.005L85.3534 108.452L43.0658 83.5264L43.0859 76.0794Z" fill="#080E24" stroke="url(#paint23_linear_423_803)" stroke-width="0.5"/>
<defs>
<linearGradient id="paint0_linear_423_803" x1="120.417" y1="25.2197" x2="120.417" y2="41.9848" gradientUnits="userSpaceOnUse">
<stop stop-color="#1480FF"/>
<stop offset="1" stop-color="#4F7ECC"/>
</linearGradient>
<linearGradient id="paint1_linear_423_803" x1="49.9023" y1="25.2197" x2="49.9023" y2="41.9888" gradientUnits="userSpaceOnUse">
<stop stop-color="#1480FF"/>
<stop offset="1" stop-color="#4F7ECC"/>
</linearGradient>
<linearGradient id="paint2_linear_423_803" x1="105.168" y1="32.3584" x2="105.168" y2="45.8299" gradientUnits="userSpaceOnUse">
<stop stop-color="#1480FF"/>
<stop offset="1" stop-color="#4F7ECC"/>
</linearGradient>
<linearGradient id="paint3_linear_423_803" x1="104.04" y1="32.3574" x2="104.04" y2="45.8285" gradientUnits="userSpaceOnUse">
<stop stop-color="#1480FF"/>
<stop offset="1" stop-color="#4F7ECC"/>
</linearGradient>
<linearGradient id="paint4_linear_423_803" x1="62.5423" y1="37.8086" x2="62.5423" y2="51.3261" gradientUnits="userSpaceOnUse">
<stop stop-color="#1480FF"/>
<stop offset="1" stop-color="#4F7ECC"/>
</linearGradient>
<linearGradient id="paint5_linear_423_803" x1="92.6431" y1="41.6973" x2="92.6431" y2="58.4663" gradientUnits="userSpaceOnUse">
<stop stop-color="#1480FF"/>
<stop offset="1" stop-color="#4F7ECC"/>
</linearGradient>
<linearGradient id="paint6_linear_423_803" x1="85.1448" y1="0" x2="85.1448" y2="50.44" gradientUnits="userSpaceOnUse">
<stop stop-color="#1480FF"/>
<stop offset="1" stop-color="#4F7ECC"/>
</linearGradient>
<linearGradient id="paint7_linear_423_803" x1="77.8573" y1="41.6973" x2="77.8573" y2="58.4663" gradientUnits="userSpaceOnUse">
<stop stop-color="#1480FF"/>
<stop offset="1" stop-color="#4F7ECC"/>
</linearGradient>
<linearGradient id="paint8_linear_423_803" x1="118.114" y1="46.4307" x2="118.114" y2="63.2058" gradientUnits="userSpaceOnUse">
<stop stop-color="#1480FF"/>
<stop offset="1" stop-color="#4F7ECC"/>
</linearGradient>
<linearGradient id="paint9_linear_423_803" x1="131.209" y1="61.2856" x2="131.209" y2="72.107" gradientUnits="userSpaceOnUse">
<stop stop-color="#1480FF"/>
<stop offset="1" stop-color="#4F7ECC"/>
</linearGradient>
<linearGradient id="paint10_linear_423_803" x1="125.403" y1="34.14" x2="125.403" y2="45.5199" gradientUnits="userSpaceOnUse">
<stop stop-color="#1480FF"/>
<stop offset="1" stop-color="#4F7ECC"/>
</linearGradient>
<linearGradient id="paint11_linear_423_803" x1="153.351" y1="21.2109" x2="153.351" y2="71.6509" gradientUnits="userSpaceOnUse">
<stop stop-color="#1480FF"/>
<stop offset="1" stop-color="#4F7ECC"/>
</linearGradient>
<linearGradient id="paint12_linear_423_803" x1="174.735" y1="46.4307" x2="174.735" y2="79.6751" gradientUnits="userSpaceOnUse">
<stop stop-color="#1480FF"/>
<stop offset="1" stop-color="#4F7ECC"/>
</linearGradient>
<linearGradient id="paint13_linear_423_803" x1="146.057" y1="62.9004" x2="146.057" y2="79.6755" gradientUnits="userSpaceOnUse">
<stop stop-color="#1480FF"/>
<stop offset="1" stop-color="#4F7ECC"/>
</linearGradient>
<linearGradient id="paint14_linear_423_803" x1="77.931" y1="50.4443" x2="77.931" y2="67.1933" gradientUnits="userSpaceOnUse">
<stop stop-color="#1480FF"/>
<stop offset="1" stop-color="#4F7ECC"/>
</linearGradient>
<linearGradient id="paint15_linear_423_803" x1="69.4407" y1="58.1855" x2="69.4407" y2="67.1957" gradientUnits="userSpaceOnUse">
<stop stop-color="#1480FF"/>
<stop offset="1" stop-color="#4F7ECC"/>
</linearGradient>
<linearGradient id="paint16_linear_423_803" x1="61.5575" y1="57.5684" x2="61.5575" y2="71.0334" gradientUnits="userSpaceOnUse">
<stop stop-color="#1480FF"/>
<stop offset="1" stop-color="#4F7ECC"/>
</linearGradient>
<linearGradient id="paint17_linear_423_803" x1="42.6584" y1="25.2207" x2="42.6584" y2="75.6466" gradientUnits="userSpaceOnUse">
<stop stop-color="#1480FF"/>
<stop offset="1" stop-color="#4F7ECC"/>
</linearGradient>
<linearGradient id="paint18_linear_423_803" x1="50.1743" y1="66.9023" x2="50.1743" y2="83.6714" gradientUnits="userSpaceOnUse">
<stop stop-color="#1480FF"/>
<stop offset="1" stop-color="#4F7ECC"/>
</linearGradient>
<linearGradient id="paint19_linear_423_803" x1="21.4081" y1="50.4229" x2="21.4081" y2="83.6713" gradientUnits="userSpaceOnUse">
<stop stop-color="#1480FF"/>
<stop offset="1" stop-color="#4F7ECC"/>
</linearGradient>
<linearGradient id="paint20_linear_423_803" x1="98.8242" y1="59.164" x2="98.8242" y2="71.0327" gradientUnits="userSpaceOnUse">
<stop stop-color="#1480FF"/>
<stop offset="1" stop-color="#4F7ECC"/>
</linearGradient>
<linearGradient id="paint21_linear_423_803" x1="85.4876" y1="50.4219" x2="85.4876" y2="100.862" gradientUnits="userSpaceOnUse">
<stop stop-color="#1480FF"/>
<stop offset="1" stop-color="#4F7ECC"/>
</linearGradient>
<linearGradient id="paint22_linear_423_803" x1="106.868" y1="75.6426" x2="106.868" y2="108.889" gradientUnits="userSpaceOnUse">
<stop stop-color="#1480FF"/>
<stop offset="1" stop-color="#4F7ECC"/>
</linearGradient>
<linearGradient id="paint23_linear_423_803" x1="64.2206" y1="75.6426" x2="64.2206" y2="108.889" gradientUnits="userSpaceOnUse">
<stop stop-color="#1480FF"/>
<stop offset="1" stop-color="#4F7ECC"/>
</linearGradient>
</defs>
</svg>
