<svg width="370" height="297" viewBox="0 0 370 297" fill="none" xmlns="http://www.w3.org/2000/svg">
<path d="M40.7399 221.404L103.975 141.257L92.8567 143.217L29.6214 223.364L40.7399 221.404Z" fill="none"/>
<path d="M51.778 240.522L40.7399 221.404L29.6214 223.364L40.6595 242.483L51.778 240.522Z" fill="none"/>
<path d="M103.975 141.257L40.7399 221.404L51.778 240.522L152.805 225.832L142.047 207.2L69.0552 217.802L114.733 159.889L103.975 141.257Z" fill="none"/>
<path d="M103.975 141.257L40.7399 221.404M103.975 141.257L92.8567 143.217L29.6214 223.364M103.975 141.257L114.733 159.889L69.0552 217.802L142.047 207.2L152.805 225.832L51.778 240.522M40.7399 221.404L29.6214 223.364M40.7399 221.404L51.778 240.522M29.6214 223.364L40.6595 242.483L51.778 240.522" stroke="#1F1F1F" stroke-width="1.5"/>
<path d="M103.975 141.257L40.7399 221.404M103.975 141.257L92.8567 143.217L29.6214 223.364M103.975 141.257L114.733 159.889L69.0552 217.802L142.047 207.2L152.805 225.832L51.778 240.522M40.7399 221.404L29.6214 223.364M40.7399 221.404L51.778 240.522M29.6214 223.364L40.6595 242.483L51.778 240.522" stroke="url(#paint0_linear_380_472)" stroke-width="1.5"/>
<path d="M312.006 76.8827L266.328 134.795L255.21 136.755L300.887 78.8432L312.006 76.8827Z" fill="none"/>
<path d="M266.328 134.795L277.086 153.428L265.967 155.388L255.21 136.755L266.328 134.795Z" fill="none"/>
<path d="M228.256 68.852L239.014 87.4845L227.895 89.445L217.138 70.8125L228.256 68.852Z" fill="none"/>
<path d="M228.256 68.852L329.283 54.1621L340.321 73.2807L277.086 153.428L266.328 134.795L312.006 76.8827L239.014 87.4845L228.256 68.852Z" fill="none"/>
<path d="M266.328 134.795L312.006 76.8827M266.328 134.795L255.21 136.755M266.328 134.795L277.086 153.428M312.006 76.8827L300.887 78.8432L255.21 136.755M312.006 76.8827L239.014 87.4845M255.21 136.755L265.967 155.388L277.086 153.428M277.086 153.428L340.321 73.2807L329.283 54.1621L228.256 68.852M239.014 87.4845L228.256 68.852M239.014 87.4845L227.895 89.445L217.138 70.8125L228.256 68.852" stroke="#1F1F1F" stroke-width="1.5"/>
<path d="M266.328 134.795L312.006 76.8827M266.328 134.795L255.21 136.755M266.328 134.795L277.086 153.428M312.006 76.8827L300.887 78.8432L255.21 136.755M312.006 76.8827L239.014 87.4845M255.21 136.755L265.967 155.388L277.086 153.428M277.086 153.428L340.321 73.2807L329.283 54.1621L228.256 68.852M239.014 87.4845L228.256 68.852M239.014 87.4845L227.895 89.445L217.138 70.8125L228.256 68.852" stroke="url(#paint1_linear_380_472)" stroke-width="1.5"/>
<path d="M169.515 78.6484L188.092 67.9228L176.973 69.8833L158.396 80.6089L169.515 78.6484Z" fill="none"/>
<path d="M194.048 226.139L169.515 78.6484L158.396 80.6089L182.929 228.1L194.048 226.139Z" fill="none"/>
<path d="M169.515 78.6484L194.048 226.139L212.625 215.413L188.092 67.9228L169.515 78.6484Z" fill="none"/>
<path d="M188.092 67.9228L169.515 78.6484M188.092 67.9228L176.973 69.8833L158.396 80.6089M188.092 67.9228L212.625 215.413L194.048 226.139M169.515 78.6484L158.396 80.6089M169.515 78.6484L194.048 226.139M158.396 80.6089L182.929 228.1L194.048 226.139" stroke="#1F1F1F" stroke-width="1.5"/>
<path d="M188.092 67.9228L169.515 78.6484M188.092 67.9228L176.973 69.8833L158.396 80.6089M188.092 67.9228L212.625 215.413L194.048 226.139M169.515 78.6484L158.396 80.6089M169.515 78.6484L194.048 226.139M158.396 80.6089L182.929 228.1L194.048 226.139" stroke="url(#paint2_linear_380_472)" stroke-width="1.5"/>
<path d="M103.975 141.257L40.7399 221.404L51.778 240.522L152.805 225.832L142.047 207.2L69.0552 217.802L114.733 159.889L103.975 141.257Z" fill="none"/>
<path d="M103.975 141.257L40.7399 221.404M103.975 141.257L92.8567 143.217L29.6214 223.364M103.975 141.257L114.733 159.889L69.0552 217.802L142.047 207.2L152.805 225.832L51.778 240.522M40.7399 221.404L29.6214 223.364M40.7399 221.404L51.778 240.522M29.6214 223.364L40.6595 242.483L51.778 240.522" stroke="#1F1F1F" stroke-width="1.5"/>
<path d="M103.975 141.257L40.7399 221.404M103.975 141.257L92.8567 143.217L29.6214 223.364M103.975 141.257L114.733 159.889L69.0552 217.802L142.047 207.2L152.805 225.832L51.778 240.522M40.7399 221.404L29.6214 223.364M40.7399 221.404L51.778 240.522M29.6214 223.364L40.6595 242.483L51.778 240.522" stroke="url(#paint3_linear_380_472)" stroke-width="1.5"/>
<path d="M228.256 68.852L329.283 54.1621L340.321 73.2807L277.086 153.428L266.328 134.795L312.006 76.8827L239.014 87.4845L228.256 68.852Z" fill="none"/>
<path d="M266.328 134.795L312.006 76.8827M266.328 134.795L255.21 136.755M266.328 134.795L277.086 153.428M312.006 76.8827L300.887 78.8432L255.21 136.755M312.006 76.8827L239.014 87.4845M255.21 136.755L265.967 155.388L277.086 153.428M277.086 153.428L340.321 73.2807L329.283 54.1621L228.256 68.852M239.014 87.4845L228.256 68.852M239.014 87.4845L227.895 89.445L217.138 70.8125L228.256 68.852" stroke="#1F1F1F" stroke-width="1.5"/>
<path d="M266.328 134.795L312.006 76.8827M266.328 134.795L255.21 136.755M266.328 134.795L277.086 153.428M312.006 76.8827L300.887 78.8432L255.21 136.755M312.006 76.8827L239.014 87.4845M255.21 136.755L265.967 155.388L277.086 153.428M277.086 153.428L340.321 73.2807L329.283 54.1621L228.256 68.852M239.014 87.4845L228.256 68.852M239.014 87.4845L227.895 89.445L217.138 70.8125L228.256 68.852" stroke="url(#paint4_linear_380_472)" stroke-width="1.5"/>
<path d="M169.515 78.6484L194.048 226.139L212.625 215.413L188.092 67.9228L169.515 78.6484Z" fill="none"/>
<path d="M188.092 67.9228L169.515 78.6484M188.092 67.9228L176.973 69.8833L158.396 80.6089M188.092 67.9228L212.625 215.413L194.048 226.139M169.515 78.6484L158.396 80.6089M169.515 78.6484L194.048 226.139M158.396 80.6089L182.929 228.1L194.048 226.139" stroke="#1F1F1F" stroke-width="1.5"/>
<path d="M188.092 67.9228L169.515 78.6484M188.092 67.9228L176.973 69.8833L158.396 80.6089M188.092 67.9228L212.625 215.413L194.048 226.139M169.515 78.6484L158.396 80.6089M169.515 78.6484L194.048 226.139M158.396 80.6089L182.929 228.1L194.048 226.139" stroke="url(#paint5_linear_380_472)" stroke-width="1.5"/>
<defs>
<linearGradient id="paint0_linear_380_472" x1="56.3851" y1="164.274" x2="107.145" y2="252.194" gradientUnits="userSpaceOnUse">
<stop stop-color="#1480FF"/>
<stop offset="1" stop-color="#1328DE"/>
</linearGradient>
<linearGradient id="paint1_linear_380_472" x1="262.797" y1="44.451" x2="313.558" y2="132.371" gradientUnits="userSpaceOnUse">
<stop stop-color="#1480FF"/>
<stop offset="1" stop-color="#1328DE"/>
</linearGradient>
<linearGradient id="paint2_linear_380_472" x1="149.546" y1="85.7186" x2="221.475" y2="210.304" gradientUnits="userSpaceOnUse">
<stop stop-color="#1480FF"/>
<stop offset="1" stop-color="#1328DE"/>
</linearGradient>
<linearGradient id="paint3_linear_380_472" x1="56.3851" y1="164.274" x2="107.145" y2="252.194" gradientUnits="userSpaceOnUse">
<stop stop-color="#1480FF"/>
<stop offset="1" stop-color="#1328DE"/>
</linearGradient>
<linearGradient id="paint4_linear_380_472" x1="262.797" y1="44.451" x2="313.558" y2="132.371" gradientUnits="userSpaceOnUse">
<stop stop-color="#1480FF"/>
<stop offset="1" stop-color="#1328DE"/>
</linearGradient>
<linearGradient id="paint5_linear_380_472" x1="149.546" y1="85.7186" x2="221.475" y2="210.304" gradientUnits="userSpaceOnUse">
<stop stop-color="#1480FF"/>
<stop offset="1" stop-color="#1328DE"/>
</linearGradient>
</defs>
</svg>
