<svg width="156" height="125" viewBox="0 0 156 125" fill="none" xmlns="http://www.w3.org/2000/svg">
<path d="M17.1077 92.972L43.6619 59.3163L38.9929 60.1395L12.4387 93.7953L17.1077 92.972Z" fill='080E24'/>
<path d="M21.7429 101L17.1077 92.972L12.4387 93.7953L17.0739 101.824L21.7429 101Z" fill='080E24'/>
<path d="M43.6619 59.3163L17.1077 92.972L21.7429 101L64.1667 94.8317L59.6494 87.0074L28.998 91.4594L48.1792 67.1405L43.6619 59.3163Z" fill='080E24'/>
<path d="M43.6619 59.3163L17.1077 92.972M43.6619 59.3163L38.9929 60.1395L12.4387 93.7953M43.6619 59.3163L48.1792 67.1405L28.998 91.4594L59.6494 87.0074L64.1667 94.8317L21.7429 101M17.1077 92.972L12.4387 93.7953M17.1077 92.972L21.7429 101M12.4387 93.7953L17.0739 101.824L21.7429 101" stroke="#1F1F1F"/>
<path d="M43.6619 59.3163L17.1077 92.972M43.6619 59.3163L38.9929 60.1395L12.4387 93.7953M43.6619 59.3163L48.1792 67.1405L28.998 91.4594L59.6494 87.0074L64.1667 94.8317L21.7429 101M17.1077 92.972L12.4387 93.7953M17.1077 92.972L21.7429 101M12.4387 93.7953L17.0739 101.824L21.7429 101" stroke="url(#paint0_linear_802_1703)"/>
<path d="M43.6619 59.3163L17.1077 92.972M43.6619 59.3163L38.9929 60.1395L12.4387 93.7953M43.6619 59.3163L48.1792 67.1405L28.998 91.4594L59.6494 87.0074L64.1667 94.8317L21.7429 101M17.1077 92.972L12.4387 93.7953M17.1077 92.972L21.7429 101M12.4387 93.7953L17.0739 101.824L21.7429 101" stroke="url(#paint1_linear_802_1703)"/>
<path d="M131.019 32.2844L111.838 56.6032L107.169 57.4265L126.35 33.1077L131.019 32.2844Z" fill='080E24'/>
<path d="M111.838 56.6032L116.355 64.4275L111.686 65.2508L107.169 57.4265L111.838 56.6032Z" fill='080E24'/>
<path d="M95.8506 28.9121L100.368 36.7364L95.699 37.5596L91.1816 29.7354L95.8506 28.9121Z" fill='080E24'/>
<path d="M95.8506 28.9121L138.274 22.7434L142.91 30.7718L116.355 64.4275L111.838 56.6032L131.019 32.2844L100.368 36.7364L95.8506 28.9121Z" fill='080E24'/>
<path d="M111.838 56.6032L131.019 32.2844M111.838 56.6032L107.169 57.4265M111.838 56.6032L116.355 64.4275M131.019 32.2844L126.35 33.1077L107.169 57.4265M131.019 32.2844L100.368 36.7364M107.169 57.4265L111.686 65.2508L116.355 64.4275M116.355 64.4275L142.91 30.7718L138.274 22.7434L95.8506 28.9121M100.368 36.7364L95.8506 28.9121M100.368 36.7364L95.699 37.5596L91.1816 29.7354L95.8506 28.9121" stroke="#1F1F1F"/>
<path d="M111.838 56.6032L131.019 32.2844M111.838 56.6032L107.169 57.4265M111.838 56.6032L116.355 64.4275M131.019 32.2844L126.35 33.1077L107.169 57.4265M131.019 32.2844L100.368 36.7364M107.169 57.4265L111.686 65.2508L116.355 64.4275M116.355 64.4275L142.91 30.7718L138.274 22.7434L95.8506 28.9121M100.368 36.7364L95.8506 28.9121M100.368 36.7364L95.699 37.5596L91.1816 29.7354L95.8506 28.9121" stroke="url(#paint2_linear_802_1703)"/>
<path d="M111.838 56.6032L131.019 32.2844M111.838 56.6032L107.169 57.4265M111.838 56.6032L116.355 64.4275M131.019 32.2844L126.35 33.1077L107.169 57.4265M131.019 32.2844L100.368 36.7364M107.169 57.4265L111.686 65.2508L116.355 64.4275M116.355 64.4275L142.91 30.7718L138.274 22.7434L95.8506 28.9121M100.368 36.7364L95.8506 28.9121M100.368 36.7364L95.699 37.5596L91.1816 29.7354L95.8506 28.9121" stroke="url(#paint3_linear_802_1703)"/>
<path d="M71.183 33.025L78.984 28.521L74.3151 29.3443L66.514 33.8483L71.183 33.025Z" fill='080E24'/>
<path d="M81.4851 94.9601L71.183 33.025L66.514 33.8483L76.8161 95.7834L81.4851 94.9601Z" fill='080E24'/>
<path d="M71.183 33.025L81.4851 94.9601L89.2862 90.4562L78.984 28.521L71.183 33.025Z" fill='080E24'/>
<path d="M78.984 28.521L71.183 33.025M78.984 28.521L74.3151 29.3443L66.514 33.8483M78.984 28.521L89.2862 90.4562L81.4851 94.9601M71.183 33.025L66.514 33.8483M71.183 33.025L81.4851 94.9601M66.514 33.8483L76.8161 95.7834L81.4851 94.9601" stroke="#1F1F1F"/>
<path d="M78.984 28.521L71.183 33.025M78.984 28.521L74.3151 29.3443L66.514 33.8483M78.984 28.521L89.2862 90.4562L81.4851 94.9601M71.183 33.025L66.514 33.8483M71.183 33.025L81.4851 94.9601M66.514 33.8483L76.8161 95.7834L81.4851 94.9601" stroke="url(#paint4_linear_802_1703)"/>
<path d="M78.984 28.521L71.183 33.025M78.984 28.521L74.3151 29.3443L66.514 33.8483M78.984 28.521L89.2862 90.4562L81.4851 94.9601M71.183 33.025L66.514 33.8483M71.183 33.025L81.4851 94.9601M66.514 33.8483L76.8161 95.7834L81.4851 94.9601" stroke="url(#paint5_linear_802_1703)"/>
<path d="M43.6619 59.3163L17.1077 92.972L21.7429 101L64.1667 94.8317L59.6494 87.0074L28.998 91.4594L48.1792 67.1405L43.6619 59.3163Z" fill='080E24'/>
<path d="M43.6619 59.3163L17.1077 92.972M43.6619 59.3163L38.9929 60.1395L12.4387 93.7953M43.6619 59.3163L48.1792 67.1405L28.998 91.4594L59.6494 87.0074L64.1667 94.8317L21.7429 101M17.1077 92.972L12.4387 93.7953M17.1077 92.972L21.7429 101M12.4387 93.7953L17.0739 101.824L21.7429 101" stroke="#1F1F1F"/>
<path d="M43.6619 59.3163L17.1077 92.972M43.6619 59.3163L38.9929 60.1395L12.4387 93.7953M43.6619 59.3163L48.1792 67.1405L28.998 91.4594L59.6494 87.0074L64.1667 94.8317L21.7429 101M17.1077 92.972L12.4387 93.7953M17.1077 92.972L21.7429 101M12.4387 93.7953L17.0739 101.824L21.7429 101" stroke="url(#paint6_linear_802_1703)"/>
<path d="M43.6619 59.3163L17.1077 92.972M43.6619 59.3163L38.9929 60.1395L12.4387 93.7953M43.6619 59.3163L48.1792 67.1405L28.998 91.4594L59.6494 87.0074L64.1667 94.8317L21.7429 101M17.1077 92.972L12.4387 93.7953M17.1077 92.972L21.7429 101M12.4387 93.7953L17.0739 101.824L21.7429 101" stroke="url(#paint7_linear_802_1703)"/>
<path d="M95.8506 28.9121L138.274 22.7434L142.91 30.7718L116.355 64.4275L111.838 56.6032L131.019 32.2844L100.368 36.7364L95.8506 28.9121Z" fill='080E24'/>
<path d="M111.838 56.6032L131.019 32.2844M111.838 56.6032L107.169 57.4265M111.838 56.6032L116.355 64.4275M131.019 32.2844L126.35 33.1077L107.169 57.4265M131.019 32.2844L100.368 36.7364M107.169 57.4265L111.686 65.2508L116.355 64.4275M116.355 64.4275L142.91 30.7718L138.274 22.7434L95.8506 28.9121M100.368 36.7364L95.8506 28.9121M100.368 36.7364L95.699 37.5596L91.1816 29.7354L95.8506 28.9121" stroke="#1F1F1F"/>
<path d="M111.838 56.6032L131.019 32.2844M111.838 56.6032L107.169 57.4265M111.838 56.6032L116.355 64.4275M131.019 32.2844L126.35 33.1077L107.169 57.4265M131.019 32.2844L100.368 36.7364M107.169 57.4265L111.686 65.2508L116.355 64.4275M116.355 64.4275L142.91 30.7718L138.274 22.7434L95.8506 28.9121M100.368 36.7364L95.8506 28.9121M100.368 36.7364L95.699 37.5596L91.1816 29.7354L95.8506 28.9121" stroke="url(#paint8_linear_802_1703)"/>
<path d="M111.838 56.6032L131.019 32.2844M111.838 56.6032L107.169 57.4265M111.838 56.6032L116.355 64.4275M131.019 32.2844L126.35 33.1077L107.169 57.4265M131.019 32.2844L100.368 36.7364M107.169 57.4265L111.686 65.2508L116.355 64.4275M116.355 64.4275L142.91 30.7718L138.274 22.7434L95.8506 28.9121M100.368 36.7364L95.8506 28.9121M100.368 36.7364L95.699 37.5596L91.1816 29.7354L95.8506 28.9121" stroke="url(#paint9_linear_802_1703)"/>
<path d="M71.183 33.025L81.4851 94.9601L89.2862 90.4562L78.984 28.521L71.183 33.025Z" fill='080E24'/>
<path d="M78.984 28.521L71.183 33.025M78.984 28.521L74.3151 29.3443L66.514 33.8483M78.984 28.521L89.2862 90.4562L81.4851 94.9601M71.183 33.025L66.514 33.8483M71.183 33.025L81.4851 94.9601M66.514 33.8483L76.8161 95.7834L81.4851 94.9601" stroke="#1F1F1F"/>
<path d="M78.984 28.521L71.183 33.025M78.984 28.521L74.3151 29.3443L66.514 33.8483M78.984 28.521L89.2862 90.4562L81.4851 94.9601M71.183 33.025L66.514 33.8483M71.183 33.025L81.4851 94.9601M66.514 33.8483L76.8161 95.7834L81.4851 94.9601" stroke="url(#paint10_linear_802_1703)"/>
<path d="M78.984 28.521L71.183 33.025M78.984 28.521L74.3151 29.3443L66.514 33.8483M78.984 28.521L89.2862 90.4562L81.4851 94.9601M71.183 33.025L66.514 33.8483M71.183 33.025L81.4851 94.9601M66.514 33.8483L76.8161 95.7834L81.4851 94.9601" stroke="url(#paint11_linear_802_1703)"/>
<defs>
<linearGradient id="paint0_linear_802_1703" x1="23.6775" y1="68.9819" x2="44.9931" y2="105.902" gradientUnits="userSpaceOnUse">
<stop stop-color="#1480FF"/>
<stop offset="1" stop-color="#1328DE"/>
</linearGradient>
<linearGradient id="paint1_linear_802_1703" x1="23.6775" y1="68.9819" x2="44.9931" y2="105.902" gradientUnits="userSpaceOnUse">
<stop stop-color="#1480FF"/>
<stop offset="1" stop-color="#4F7ECC"/>
</linearGradient>
<linearGradient id="paint2_linear_802_1703" x1="110.355" y1="18.6655" x2="131.671" y2="55.5852" gradientUnits="userSpaceOnUse">
<stop stop-color="#1480FF"/>
<stop offset="1" stop-color="#1328DE"/>
</linearGradient>
<linearGradient id="paint3_linear_802_1703" x1="110.355" y1="18.6655" x2="131.671" y2="55.5852" gradientUnits="userSpaceOnUse">
<stop stop-color="#1480FF"/>
<stop offset="1" stop-color="#4F7ECC"/>
</linearGradient>
<linearGradient id="paint4_linear_802_1703" x1="62.7976" y1="35.9939" x2="93.0026" y2="88.3105" gradientUnits="userSpaceOnUse">
<stop stop-color="#1480FF"/>
<stop offset="1" stop-color="#1328DE"/>
</linearGradient>
<linearGradient id="paint5_linear_802_1703" x1="62.7976" y1="35.9939" x2="93.0026" y2="88.3105" gradientUnits="userSpaceOnUse">
<stop stop-color="#1480FF"/>
<stop offset="1" stop-color="#4F7ECC"/>
</linearGradient>
<linearGradient id="paint6_linear_802_1703" x1="23.6775" y1="68.9819" x2="44.9931" y2="105.902" gradientUnits="userSpaceOnUse">
<stop stop-color="#1480FF"/>
<stop offset="1" stop-color="#1328DE"/>
</linearGradient>
<linearGradient id="paint7_linear_802_1703" x1="23.6775" y1="68.9819" x2="44.9931" y2="105.902" gradientUnits="userSpaceOnUse">
<stop stop-color="#1480FF"/>
<stop offset="1" stop-color="#4F7ECC"/>
</linearGradient>
<linearGradient id="paint8_linear_802_1703" x1="110.355" y1="18.6655" x2="131.671" y2="55.5852" gradientUnits="userSpaceOnUse">
<stop stop-color="#1480FF"/>
<stop offset="1" stop-color="#1328DE"/>
</linearGradient>
<linearGradient id="paint9_linear_802_1703" x1="110.355" y1="18.6655" x2="131.671" y2="55.5852" gradientUnits="userSpaceOnUse">
<stop stop-color="#1480FF"/>
<stop offset="1" stop-color="#4F7ECC"/>
</linearGradient>
<linearGradient id="paint10_linear_802_1703" x1="62.7976" y1="35.9939" x2="93.0026" y2="88.3105" gradientUnits="userSpaceOnUse">
<stop stop-color="#1480FF"/>
<stop offset="1" stop-color="#1328DE"/>
</linearGradient>
<linearGradient id="paint11_linear_802_1703" x1="62.7976" y1="35.9939" x2="93.0026" y2="88.3105" gradientUnits="userSpaceOnUse">
<stop stop-color="#1480FF"/>
<stop offset="1" stop-color="#4F7ECC"/>
</linearGradient>
</defs>
</svg>
