<svg width="138" height="87" viewBox="0 0 138 87" fill="none" xmlns="http://www.w3.org/2000/svg">
<path d="M130.802 48.2259H130.801L130.802 48.2384C130.812 48.6683 130.539 49.205 129.765 49.6574L129.762 49.659L119.201 55.9213L119.201 55.9214L111.385 60.5535L111.385 60.5537L99.2684 67.7476L99.2683 67.7477L91.2754 72.4918L91.2753 72.4919L71.8358 84.0234C71.8353 84.0236 71.8349 84.0239 71.8344 84.0242C71.0201 84.5009 69.9016 84.7464 68.7739 84.714L68.7668 84.7138H68.7596C68.3331 84.7138 67.8901 84.6513 67.4696 84.5541L67.4666 84.5534C67.0821 84.4671 66.7187 84.3432 66.3818 84.1761L66.299 84.13L66.2596 84.1081L66.2169 84.0935C66.198 84.0871 66.1619 84.0695 66.1051 84.0332L66.0978 84.0286L66.0903 84.0242L64.3667 83.0063L64.3666 83.0063L59.7786 80.2978L59.7783 80.2976L7.79798 49.6669L7.79789 49.6669C7.01118 49.2035 6.72904 48.6633 6.73446 48.2321H6.73449V48.2259V39.0651C6.73449 38.621 7.01297 38.0803 7.77621 37.622L7.77655 37.6218L8.2474 37.3385L8.24971 37.3371L13.5447 34.1903L13.5451 34.19L65.694 3.26634L65.6948 3.26586C66.4613 2.80939 67.4996 2.56641 68.5663 2.56641C69.6329 2.56641 70.6738 2.80935 71.445 3.26641L71.446 3.26701L127.904 36.5458L127.905 36.5461L129.738 37.6241C130.52 38.0847 130.802 38.6259 130.802 39.0651V48.2259Z" fill="#080E24"/>
<path d="M130.802 48.2259H130.801L130.802 48.2384C130.812 48.6683 130.539 49.205 129.765 49.6574L129.762 49.659L119.201 55.9213L119.201 55.9214L111.385 60.5535L111.385 60.5537L99.2684 67.7476L99.2683 67.7477L91.2754 72.4918L91.2753 72.4919L71.8358 84.0234C71.8353 84.0236 71.8349 84.0239 71.8344 84.0242C71.0201 84.5009 69.9016 84.7464 68.7739 84.714L68.7668 84.7138H68.7596C68.3331 84.7138 67.8901 84.6513 67.4696 84.5541L67.4666 84.5534C67.0821 84.4671 66.7187 84.3432 66.3818 84.1761L66.299 84.13L66.2596 84.1081L66.2169 84.0935C66.198 84.0871 66.1619 84.0695 66.1051 84.0332L66.0978 84.0286L66.0903 84.0242L64.3667 83.0063L64.3666 83.0063L59.7786 80.2978L59.7783 80.2976L7.79798 49.6669L7.79789 49.6669C7.01118 49.2035 6.72904 48.6633 6.73446 48.2321H6.73449V48.2259V39.0651C6.73449 38.621 7.01297 38.0803 7.77621 37.622L7.77655 37.6218L8.2474 37.3385L8.24971 37.3371L13.5447 34.1903L13.5451 34.19L65.694 3.26634L65.6948 3.26586C66.4613 2.80939 67.4996 2.56641 68.5663 2.56641C69.6329 2.56641 70.6738 2.80935 71.445 3.26641L71.446 3.26701L127.904 36.5458L127.905 36.5461L129.738 37.6241C130.52 38.0847 130.802 38.6259 130.802 39.0651V48.2259Z" stroke="#E0F1FF"/>
<path d="M130.802 48.2259H130.801L130.802 48.2384C130.812 48.6683 130.539 49.205 129.765 49.6574L129.762 49.659L119.201 55.9213L119.201 55.9214L111.385 60.5535L111.385 60.5537L99.2684 67.7476L99.2683 67.7477L91.2754 72.4918L91.2753 72.4919L71.8358 84.0234C71.8353 84.0236 71.8349 84.0239 71.8344 84.0242C71.0201 84.5009 69.9016 84.7464 68.7739 84.714L68.7668 84.7138H68.7596C68.3331 84.7138 67.8901 84.6513 67.4696 84.5541L67.4666 84.5534C67.0821 84.4671 66.7187 84.3432 66.3818 84.1761L66.299 84.13L66.2596 84.1081L66.2169 84.0935C66.198 84.0871 66.1619 84.0695 66.1051 84.0332L66.0978 84.0286L66.0903 84.0242L64.3667 83.0063L64.3666 83.0063L59.7786 80.2978L59.7783 80.2976L7.79798 49.6669L7.79789 49.6669C7.01118 49.2035 6.72904 48.6633 6.73446 48.2321H6.73449V48.2259V39.0651C6.73449 38.621 7.01297 38.0803 7.77621 37.622L7.77655 37.6218L8.2474 37.3385L8.24971 37.3371L13.5447 34.1903L13.5451 34.19L65.694 3.26634L65.6948 3.26586C66.4613 2.80939 67.4996 2.56641 68.5663 2.56641C69.6329 2.56641 70.6738 2.80935 71.445 3.26641L71.446 3.26701L127.904 36.5458L127.905 36.5461L129.738 37.6241C130.52 38.0847 130.802 38.6259 130.802 39.0651V48.2259Z" stroke="url(#paint0_linear_802_1710)"/>
<path d="M69.0801 75.8203V85.2139" stroke="#E0F1FF" stroke-miterlimit="10"/>
<path d="M69.0801 75.8203V85.2139" stroke="url(#paint1_linear_802_1710)" stroke-miterlimit="10"/>
<path d="M15.8242 36.5779L19.8372 34.1951L7.72214 27.0493L3.7091 29.4321L15.8242 36.5779Z" fill="#080E24"/>
<path d="M15.8242 36.5779L19.8372 34.1951L7.72214 27.0493L3.7091 29.4321L15.8242 36.5779Z" stroke="#E0F1FF" stroke-width="0.5"/>
<path d="M15.8242 36.5779L19.8372 34.1951L7.72214 27.0493L3.7091 29.4321L15.8242 36.5779Z" stroke="url(#paint2_linear_802_1710)" stroke-width="0.5"/>
<path d="M20.0879 34.6001L16.0759 37.0008V39.1087L20.0879 36.7003V34.6001Z" fill="#080E24" stroke="url(#paint3_linear_802_1710)" stroke-width="0.5"/>
<path d="M3.46977 31.9801L15.5762 39.1208V37.0014L3.46977 29.8691V31.9801Z" fill="#080E24"/>
<path d="M3.46977 31.9801L15.5762 39.1208V37.0014L3.46977 29.8691V31.9801Z" stroke="#E0F1FF" stroke-width="0.5"/>
<path d="M3.46977 31.9801L15.5762 39.1208V37.0014L3.46977 29.8691V31.9801Z" stroke="url(#paint4_linear_802_1710)" stroke-width="0.5"/>
<path d="M31.7324 27.0701L35.7455 24.6872L23.6303 17.5415L19.6173 19.9243L31.7324 27.0701Z" fill="#080E24"/>
<path d="M31.7324 27.0701L35.7455 24.6872L23.6303 17.5415L19.6173 19.9243L31.7324 27.0701Z" stroke="#E0F1FF" stroke-width="0.5"/>
<path d="M31.7324 27.0701L35.7455 24.6872L23.6303 17.5415L19.6173 19.9243L31.7324 27.0701Z" stroke="url(#paint5_linear_802_1710)" stroke-width="0.5"/>
<path d="M35.9941 25.0933L31.9822 27.494V29.6019L35.9941 27.1935V25.0933Z" fill="#080E24" stroke="url(#paint6_linear_802_1710)" stroke-width="0.5"/>
<path d="M19.376 22.4733L31.4824 29.6139V27.4946L19.376 20.3622V22.4733Z" fill="#080E24"/>
<path d="M19.376 22.4733L31.4824 29.6139V27.4946L19.376 20.3622V22.4733Z" stroke="#E0F1FF" stroke-width="0.5"/>
<path d="M19.376 22.4733L31.4824 29.6139V27.4946L19.376 20.3622V22.4733Z" stroke="url(#paint7_linear_802_1710)" stroke-width="0.5"/>
<path d="M46.0957 18.4431L50.1087 16.0603L37.9936 8.91452L33.9806 11.2973L46.0957 18.4431Z" fill="#080E24"/>
<path d="M46.0957 18.4431L50.1087 16.0603L37.9936 8.91452L33.9806 11.2973L46.0957 18.4431Z" stroke="#E0F1FF" stroke-width="0.5"/>
<path d="M46.0957 18.4431L50.1087 16.0603L37.9936 8.91452L33.9806 11.2973L46.0957 18.4431Z" stroke="url(#paint8_linear_802_1710)" stroke-width="0.5"/>
<path d="M50.3574 16.4673L46.3455 18.868V20.9759L50.3574 18.5675V16.4673Z" fill="#080E24" stroke="url(#paint9_linear_802_1710)" stroke-width="0.5"/>
<path d="M33.7393 13.8473L45.8457 20.988V18.8686L33.7393 11.7363V13.8473Z" fill="#080E24"/>
<path d="M33.7393 13.8473L45.8457 20.988V18.8686L33.7393 11.7363V13.8473Z" stroke="#E0F1FF" stroke-width="0.5"/>
<path d="M33.7393 13.8473L45.8457 20.988V18.8686L33.7393 11.7363V13.8473Z" stroke="url(#paint10_linear_802_1710)" stroke-width="0.5"/>
<path d="M60.4629 9.81908L64.4759 7.43626L52.3608 0.290497L48.3478 2.67332L60.4629 9.81908Z" fill="#080E24"/>
<path d="M60.4629 9.81908L64.4759 7.43626L52.3608 0.290497L48.3478 2.67332L60.4629 9.81908Z" stroke="#E0F1FF" stroke-width="0.5"/>
<path d="M60.4629 9.81908L64.4759 7.43626L52.3608 0.290497L48.3478 2.67332L60.4629 9.81908Z" stroke="url(#paint11_linear_802_1710)" stroke-width="0.5"/>
<path d="M64.7227 7.84133L60.7107 10.2421V12.3499L64.7227 9.94154V7.84133Z" fill="#080E24" stroke="url(#paint12_linear_802_1710)" stroke-width="0.5"/>
<path d="M48.1045 5.22232L60.2109 12.363V10.2436L48.1045 3.11127V5.22232Z" fill="#080E24"/>
<path d="M48.1045 5.22232L60.2109 12.363V10.2436L48.1045 3.11127V5.22232Z" stroke="#E0F1FF" stroke-width="0.5"/>
<path d="M48.1045 5.22232L60.2109 12.363V10.2436L48.1045 3.11127V5.22232Z" stroke="url(#paint13_linear_802_1710)" stroke-width="0.5"/>
<path d="M49.834 84.0203L45.821 81.6374L57.9361 74.4917L61.9491 76.8745L49.834 84.0203Z" fill="#080E24"/>
<path d="M49.834 84.0203L45.821 81.6374L57.9361 74.4917L61.9491 76.8745L49.834 84.0203Z" stroke="#E0F1FF" stroke-width="0.5"/>
<path d="M49.834 84.0203L45.821 81.6374L57.9361 74.4917L61.9491 76.8745L49.834 84.0203Z" stroke="url(#paint14_linear_802_1710)" stroke-width="0.5"/>
<path d="M45.5703 82.0425L49.5823 84.4432V86.5511L45.5703 84.1427V82.0425Z" fill="#080E24" stroke="url(#paint15_linear_802_1710)" stroke-width="0.5"/>
<path d="M62.1884 79.4235L50.082 86.5641V84.4448L62.1884 77.3124V79.4235Z" fill="#080E24"/>
<path d="M62.1884 79.4235L50.082 86.5641V84.4448L62.1884 77.3124V79.4235Z" stroke="#E0F1FF" stroke-width="0.5"/>
<path d="M62.1884 79.4235L50.082 86.5641V84.4448L62.1884 77.3124V79.4235Z" stroke="url(#paint16_linear_802_1710)" stroke-width="0.5"/>
<path d="M33.9238 74.5124L29.9108 72.1296L42.0259 64.9839L46.0389 67.3667L33.9238 74.5124Z" fill="#080E24"/>
<path d="M33.9238 74.5124L29.9108 72.1296L42.0259 64.9839L46.0389 67.3667L33.9238 74.5124Z" stroke="#E0F1FF" stroke-width="0.5"/>
<path d="M33.9238 74.5124L29.9108 72.1296L42.0259 64.9839L46.0389 67.3667L33.9238 74.5124Z" stroke="url(#paint17_linear_802_1710)" stroke-width="0.5"/>
<path d="M29.6621 72.5357L33.6741 74.9364V77.0443L29.6621 74.6359V72.5357Z" fill="#080E24" stroke="url(#paint18_linear_802_1710)" stroke-width="0.5"/>
<path d="M46.2802 69.9157L34.1738 77.0563V74.937L46.2802 67.8046V69.9157Z" fill="#080E24"/>
<path d="M46.2802 69.9157L34.1738 77.0563V74.937L46.2802 67.8046V69.9157Z" stroke="#E0F1FF" stroke-width="0.5"/>
<path d="M46.2802 69.9157L34.1738 77.0563V74.937L46.2802 67.8046V69.9157Z" stroke="url(#paint19_linear_802_1710)" stroke-width="0.5"/>
<path d="M19.5625 65.8874L15.5495 63.5046L27.6646 56.3589L31.6776 58.7417L19.5625 65.8874Z" fill="#080E24"/>
<path d="M19.5625 65.8874L15.5495 63.5046L27.6646 56.3589L31.6776 58.7417L19.5625 65.8874Z" stroke="#E0F1FF" stroke-width="0.5"/>
<path d="M19.5625 65.8874L15.5495 63.5046L27.6646 56.3589L31.6776 58.7417L19.5625 65.8874Z" stroke="url(#paint20_linear_802_1710)" stroke-width="0.5"/>
<path d="M15.3008 63.9107L19.3127 66.3114V68.4193L15.3008 66.0109V63.9107Z" fill="#080E24" stroke="url(#paint21_linear_802_1710)" stroke-width="0.5"/>
<path d="M31.9189 61.2907L19.8125 68.4313V66.312L31.9189 59.1796V61.2907Z" fill="#080E24"/>
<path d="M31.9189 61.2907L19.8125 68.4313V66.312L31.9189 59.1796V61.2907Z" stroke="#E0F1FF" stroke-width="0.5"/>
<path d="M31.9189 61.2907L19.8125 68.4313V66.312L31.9189 59.1796V61.2907Z" stroke="url(#paint22_linear_802_1710)" stroke-width="0.5"/>
<path d="M5.19532 57.2634L1.18228 54.8806L13.2974 47.7348L17.3104 50.1177L5.19532 57.2634Z" fill="#080E24"/>
<path d="M5.19532 57.2634L1.18228 54.8806L13.2974 47.7348L17.3104 50.1177L5.19532 57.2634Z" stroke="#E0F1FF" stroke-width="0.5"/>
<path d="M5.19532 57.2634L1.18228 54.8806L13.2974 47.7348L17.3104 50.1177L5.19532 57.2634Z" stroke="url(#paint23_linear_802_1710)" stroke-width="0.5"/>
<path d="M0.935547 55.2857L4.94749 57.6864V59.7943L0.935547 57.3859V55.2857Z" fill="#080E24" stroke="url(#paint24_linear_802_1710)" stroke-width="0.5"/>
<path d="M17.5537 52.6667L5.44727 59.8073V57.688L17.5537 50.5556V52.6667Z" fill="#080E24"/>
<path d="M17.5537 52.6667L5.44727 59.8073V57.688L17.5537 50.5556V52.6667Z" stroke="#E0F1FF" stroke-width="0.5"/>
<path d="M17.5537 52.6667L5.44727 59.8073V57.688L17.5537 50.5556V52.6667Z" stroke="url(#paint25_linear_802_1710)" stroke-width="0.5"/>
<path d="M88.4902 83.155L92.5033 80.7722L80.3882 73.6264L76.3751 76.0093L88.4902 83.155Z" fill="#080E24"/>
<path d="M88.4902 83.155L92.5033 80.7722L80.3882 73.6264L76.3751 76.0093L88.4902 83.155Z" stroke="#E0F1FF" stroke-width="0.5"/>
<path d="M88.4902 83.155L92.5033 80.7722L80.3882 73.6264L76.3751 76.0093L88.4902 83.155Z" stroke="url(#paint26_linear_802_1710)" stroke-width="0.5"/>
<path d="M92.7539 81.1782L88.742 83.579V85.6868L92.7539 83.2785V81.1782Z" fill="#080E24" stroke="url(#paint27_linear_802_1710)" stroke-width="0.5"/>
<path d="M76.1358 78.5583L88.2422 85.6989V83.5796L76.1358 76.4472V78.5583Z" fill="#080E24"/>
<path d="M76.1358 78.5583L88.2422 85.6989V83.5796L76.1358 76.4472V78.5583Z" stroke="#E0F1FF" stroke-width="0.5"/>
<path d="M76.1358 78.5583L88.2422 85.6989V83.5796L76.1358 76.4472V78.5583Z" stroke="url(#paint28_linear_802_1710)" stroke-width="0.5"/>
<path d="M104.395 73.6501L108.408 71.2673L96.2925 64.1216L92.2794 66.5044L104.395 73.6501Z" fill="#080E24"/>
<path d="M104.395 73.6501L108.408 71.2673L96.2925 64.1216L92.2794 66.5044L104.395 73.6501Z" stroke="#E0F1FF" stroke-width="0.5"/>
<path d="M104.395 73.6501L108.408 71.2673L96.2925 64.1216L92.2794 66.5044L104.395 73.6501Z" stroke="url(#paint29_linear_802_1710)" stroke-width="0.5"/>
<path d="M108.658 71.6724L104.646 74.0731V76.181L108.658 73.7726V71.6724Z" fill="#080E24" stroke="url(#paint30_linear_802_1710)" stroke-width="0.5"/>
<path d="M92.0401 69.0534L104.146 76.194V74.0747L92.0401 66.9423V69.0534Z" fill="#080E24"/>
<path d="M92.0401 69.0534L104.146 76.194V74.0747L92.0401 66.9423V69.0534Z" stroke="#E0F1FF" stroke-width="0.5"/>
<path d="M92.0401 69.0534L104.146 76.194V74.0747L92.0401 66.9423V69.0534Z" stroke="url(#paint31_linear_802_1710)" stroke-width="0.5"/>
<path d="M118.762 65.0251L122.775 62.6423L110.66 55.4966L106.647 57.8794L118.762 65.0251Z" fill="#080E24"/>
<path d="M118.762 65.0251L122.775 62.6423L110.66 55.4966L106.647 57.8794L118.762 65.0251Z" stroke="#E0F1FF" stroke-width="0.5"/>
<path d="M118.762 65.0251L122.775 62.6423L110.66 55.4966L106.647 57.8794L118.762 65.0251Z" stroke="url(#paint32_linear_802_1710)" stroke-width="0.5"/>
<path d="M123.023 63.0484L119.011 65.4491V67.557L123.023 65.1486V63.0484Z" fill="#080E24" stroke="url(#paint33_linear_802_1710)" stroke-width="0.5"/>
<path d="M106.405 60.4284L118.512 67.569V65.4497L106.405 58.3173V60.4284Z" fill="#080E24"/>
<path d="M106.405 60.4284L118.512 67.569V65.4497L106.405 58.3173V60.4284Z" stroke="#E0F1FF" stroke-width="0.5"/>
<path d="M106.405 60.4284L118.512 67.569V65.4497L106.405 58.3173V60.4284Z" stroke="url(#paint34_linear_802_1710)" stroke-width="0.5"/>
<path d="M133.127 56.3982L137.14 54.0154L125.025 46.8696L121.012 49.2524L133.127 56.3982Z" fill="#080E24"/>
<path d="M133.127 56.3982L137.14 54.0154L125.025 46.8696L121.012 49.2524L133.127 56.3982Z" stroke="#E0F1FF" stroke-width="0.5"/>
<path d="M133.127 56.3982L137.14 54.0154L125.025 46.8696L121.012 49.2524L133.127 56.3982Z" stroke="url(#paint35_linear_802_1710)" stroke-width="0.5"/>
<path d="M137.389 54.4214L133.377 56.8221V58.93L137.389 56.5216V54.4214Z" fill="#080E24" stroke="url(#paint36_linear_802_1710)" stroke-width="0.5"/>
<path d="M120.771 51.8014L132.877 58.9421V56.8227L120.771 49.6904V51.8014Z" fill="#080E24"/>
<path d="M120.771 51.8014L132.877 58.9421V56.8227L120.771 49.6904V51.8014Z" stroke="#E0F1FF" stroke-width="0.5"/>
<path d="M120.771 51.8014L132.877 58.9421V56.8227L120.771 49.6904V51.8014Z" stroke="url(#paint37_linear_802_1710)" stroke-width="0.5"/>
<path d="M123.336 36.5779L119.323 34.1951L131.438 27.0493L135.451 29.4321L123.336 36.5779Z" fill="#080E24"/>
<path d="M123.336 36.5779L119.323 34.1951L131.438 27.0493L135.451 29.4321L123.336 36.5779Z" stroke="#E0F1FF" stroke-width="0.5"/>
<path d="M123.336 36.5779L119.323 34.1951L131.438 27.0493L135.451 29.4321L123.336 36.5779Z" stroke="url(#paint38_linear_802_1710)" stroke-width="0.5"/>
<path d="M119.076 34.6001L123.088 37.0008V39.1087L119.076 36.7003V34.6001Z" fill="#080E24" stroke="url(#paint39_linear_802_1710)" stroke-width="0.5"/>
<path d="M135.694 31.9801L123.588 39.1208V37.0014L135.694 29.8691V31.9801Z" fill="#080E24"/>
<path d="M135.694 31.9801L123.588 39.1208V37.0014L135.694 29.8691V31.9801Z" stroke="#E0F1FF" stroke-width="0.5"/>
<path d="M135.694 31.9801L123.588 39.1208V37.0014L135.694 29.8691V31.9801Z" stroke="url(#paint40_linear_802_1710)" stroke-width="0.5"/>
<path d="M107.43 27.0701L103.417 24.6872L115.532 17.5415L119.545 19.9243L107.43 27.0701Z" fill="#080E24"/>
<path d="M107.43 27.0701L103.417 24.6872L115.532 17.5415L119.545 19.9243L107.43 27.0701Z" stroke="#E0F1FF" stroke-width="0.5"/>
<path d="M107.43 27.0701L103.417 24.6872L115.532 17.5415L119.545 19.9243L107.43 27.0701Z" stroke="url(#paint41_linear_802_1710)" stroke-width="0.5"/>
<path d="M103.168 25.0933L107.18 27.494V29.6019L103.168 27.1935V25.0933Z" fill="#080E24" stroke="url(#paint42_linear_802_1710)" stroke-width="0.5"/>
<path d="M119.786 22.4733L107.68 29.6139V27.4946L119.786 20.3622V22.4733Z" fill="#080E24"/>
<path d="M119.786 22.4733L107.68 29.6139V27.4946L119.786 20.3622V22.4733Z" stroke="#E0F1FF" stroke-width="0.5"/>
<path d="M119.786 22.4733L107.68 29.6139V27.4946L119.786 20.3622V22.4733Z" stroke="url(#paint43_linear_802_1710)" stroke-width="0.5"/>
<path d="M93.0684 18.4431L89.0553 16.0603L101.17 8.91452L105.183 11.2973L93.0684 18.4431Z" fill="#080E24"/>
<path d="M93.0684 18.4431L89.0553 16.0603L101.17 8.91452L105.183 11.2973L93.0684 18.4431Z" stroke="#E0F1FF" stroke-width="0.5"/>
<path d="M93.0684 18.4431L89.0553 16.0603L101.17 8.91452L105.183 11.2973L93.0684 18.4431Z" stroke="url(#paint44_linear_802_1710)" stroke-width="0.5"/>
<path d="M88.8047 16.4673L92.8166 18.868V20.9759L88.8047 18.5675V16.4673Z" fill="#080E24" stroke="url(#paint45_linear_802_1710)" stroke-width="0.5"/>
<path d="M105.423 13.8473L93.3164 20.988V18.8686L105.423 11.7363V13.8473Z" fill="#080E24"/>
<path d="M105.423 13.8473L93.3164 20.988V18.8686L105.423 11.7363V13.8473Z" stroke="#E0F1FF" stroke-width="0.5"/>
<path d="M105.423 13.8473L93.3164 20.988V18.8686L105.423 11.7363V13.8473Z" stroke="url(#paint46_linear_802_1710)" stroke-width="0.5"/>
<path d="M78.6992 9.81908L74.6862 7.43626L86.8013 0.290497L90.8143 2.67332L78.6992 9.81908Z" fill="#080E24"/>
<path d="M78.6992 9.81908L74.6862 7.43626L86.8013 0.290497L90.8143 2.67332L78.6992 9.81908Z" stroke="#E0F1FF" stroke-width="0.5"/>
<path d="M78.6992 9.81908L74.6862 7.43626L86.8013 0.290497L90.8143 2.67332L78.6992 9.81908Z" stroke="url(#paint47_linear_802_1710)" stroke-width="0.5"/>
<path d="M74.4395 7.84133L78.4514 10.2421V12.3499L74.4395 9.94154V7.84133Z" fill="#080E24" stroke="url(#paint48_linear_802_1710)" stroke-width="0.5"/>
<path d="M91.0576 5.22232L78.9512 12.363V10.2436L91.0576 3.11127V5.22232Z" fill="#080E24"/>
<path d="M91.0576 5.22232L78.9512 12.363V10.2436L91.0576 3.11127V5.22232Z" stroke="#E0F1FF" stroke-width="0.5"/>
<path d="M91.0576 5.22232L78.9512 12.363V10.2436L91.0576 3.11127V5.22232Z" stroke="url(#paint49_linear_802_1710)" stroke-width="0.5"/>
<path d="M130.016 40.6858L72.0959 75.0429C70.3723 76.0693 67.5671 76.0693 65.835 75.0429L7.54301 40.6858C5.8109 39.6593 5.794 38.0032 7.51767 36.9767L34.5724 20.9325L65.4379 2.62826C67.1615 1.60178 69.9583 1.60178 71.6988 2.62826L105.699 22.6749L129.991 36.9853C131.723 38.0118 131.74 39.668 130.016 40.6944V40.6858Z" fill="#080E24"/>
<path d="M130.016 40.6858L72.0959 75.0429C70.3723 76.0693 67.5671 76.0693 65.835 75.0429L7.54301 40.6858C5.8109 39.6593 5.794 38.0032 7.51767 36.9767L34.5724 20.9325L65.4379 2.62826C67.1615 1.60178 69.9583 1.60178 71.6988 2.62826L105.699 22.6749L129.991 36.9853C131.723 38.0118 131.74 39.668 130.016 40.6944V40.6858Z" stroke="#E0F1FF" stroke-miterlimit="10"/>
<path d="M130.016 40.6858L72.0959 75.0429C70.3723 76.0693 67.5671 76.0693 65.835 75.0429L7.54301 40.6858C5.8109 39.6593 5.794 38.0032 7.51767 36.9767L34.5724 20.9325L65.4379 2.62826C67.1615 1.60178 69.9583 1.60178 71.6988 2.62826L105.699 22.6749L129.991 36.9853C131.723 38.0118 131.74 39.668 130.016 40.6944V40.6858Z" stroke="url(#paint50_linear_802_1710)" stroke-miterlimit="10"/>
<path d="M120.344 37.2791C121.805 38.1417 121.814 39.5391 120.36 40.3931L71.574 69.3417C70.1207 70.2043 67.7633 70.2043 66.3016 69.3417L17.1856 40.4017C15.7239 39.5391 15.7154 38.1417 17.1687 37.2791L65.9636 8.33054C67.4169 7.46795 69.7742 7.46795 71.236 8.33054L120.344 37.2791Z" fill="#080E24"/>
<path d="M120.344 37.2791C121.805 38.1417 121.814 39.5391 120.36 40.3931L71.574 69.3417C70.1207 70.2043 67.7633 70.2043 66.3016 69.3417L17.1856 40.4017C15.7239 39.5391 15.7154 38.1417 17.1687 37.2791L65.9636 8.33054C67.4169 7.46795 69.7742 7.46795 71.236 8.33054L120.344 37.2791Z" stroke="#E0F1FF" stroke-miterlimit="10"/>
<path d="M120.344 37.2791C121.805 38.1417 121.814 39.5391 120.36 40.3931L71.574 69.3417C70.1207 70.2043 67.7633 70.2043 66.3016 69.3417L17.1856 40.4017C15.7239 39.5391 15.7154 38.1417 17.1687 37.2791L65.9636 8.33054C67.4169 7.46795 69.7742 7.46795 71.236 8.33054L120.344 37.2791Z" stroke="url(#paint51_linear_802_1710)" stroke-miterlimit="10"/>
<mask id="path-53-inside-1_802_1710" fill="white">
<path d="M51.3778 29.7489L83.7303 39.4358L76.5315 43.6797L70.7944 41.6871L62.8689 46.3451L66.1641 49.7696L58.923 54.0222L42.582 34.9072L51.3778 29.7402V29.7489ZM58.8723 42.3686L64.0518 39.315L59.0329 37.5726C57.9007 37.193 56.4727 36.6841 54.7153 36.0544C52.9663 35.4333 51.7327 34.9762 51.0145 34.6743C51.4707 35.0711 52.1974 35.7352 53.1859 36.6755C54.183 37.6157 56.0756 39.5134 58.8639 42.36"/>
</mask>
<path d="M51.3778 29.7489L83.7303 39.4358L76.5315 43.6797L70.7944 41.6871L62.8689 46.3451L66.1641 49.7696L58.923 54.0222L42.582 34.9072L51.3778 29.7402V29.7489ZM58.8723 42.3686L64.0518 39.315L59.0329 37.5726C57.9007 37.193 56.4727 36.6841 54.7153 36.0544C52.9663 35.4333 51.7327 34.9762 51.0145 34.6743C51.4707 35.0711 52.1974 35.7352 53.1859 36.6755C54.183 37.6157 56.0756 39.5134 58.8639 42.36" fill="#080E24"/>
<path d="M51.3778 29.7489H50.3778V30.4933L51.091 30.7068L51.3778 29.7489ZM83.7303 39.4358L84.2381 40.2972L86.2104 39.1345L84.0171 38.4778L83.7303 39.4358ZM76.5315 43.6797L76.2034 44.6244L76.6406 44.7762L77.0393 44.5412L76.5315 43.6797ZM70.7944 41.6871L71.1225 40.7425L70.686 40.5909L70.2877 40.825L70.7944 41.6871ZM62.8689 46.3451L62.3622 45.483L61.2695 46.1252L62.1483 47.0385L62.8689 46.3451ZM66.1641 49.7696L66.6705 50.6319L67.7638 49.9898L66.8847 49.0762L66.1641 49.7696ZM58.923 54.0222L58.1629 54.672L58.7072 55.3087L59.4295 54.8845L58.923 54.0222ZM42.582 34.9072L42.0755 34.0449L41.0462 34.6496L41.8219 35.557L42.582 34.9072ZM51.3778 29.7402H52.3778V27.993L50.8713 28.878L51.3778 29.7402ZM64.0518 39.315L64.5597 40.1764L66.4211 39.079L64.3798 38.3703L64.0518 39.315ZM59.0329 37.5726L59.3609 36.6278L59.3507 36.6244L59.0329 37.5726ZM54.7153 36.0544L55.0526 35.113L55.0499 35.1121L54.7153 36.0544ZM51.0145 34.6743L51.402 33.7524L50.3582 35.4288L51.0145 34.6743ZM53.1859 36.6755L52.4968 37.4001L52.4999 37.403L53.1859 36.6755ZM51.091 30.7068L83.4435 40.3937L84.0171 38.4778L51.6646 28.7909L51.091 30.7068ZM83.2224 38.5743L76.0236 42.8183L77.0393 44.5412L84.2381 40.2972L83.2224 38.5743ZM76.8595 42.7351L71.1225 40.7425L70.4663 42.6318L76.2034 44.6244L76.8595 42.7351ZM70.2877 40.825L62.3622 45.483L63.3756 47.2073L71.3011 42.5493L70.2877 40.825ZM62.1483 47.0385L65.4435 50.463L66.8847 49.0762L63.5895 45.6518L62.1483 47.0385ZM65.6577 48.9073L58.4166 53.1599L59.4295 54.8845L66.6705 50.6319L65.6577 48.9073ZM59.6831 53.3724L43.3421 34.2574L41.8219 35.557L58.1629 54.672L59.6831 53.3724ZM43.0885 35.7694L51.8843 30.6025L50.8713 28.878L42.0755 34.0449L43.0885 35.7694ZM50.3778 29.7402V29.7489H52.3778V29.7402H50.3778ZM59.3802 43.23L64.5597 40.1764L63.5439 38.4536L58.3645 41.5071L59.3802 43.23ZM64.3798 38.3703L59.3609 36.6279L58.7049 38.5173L63.7238 40.2597L64.3798 38.3703ZM59.3507 36.6244C58.2301 36.2488 56.8122 35.7435 55.0526 35.113L54.378 36.9958C56.1333 37.6247 57.5713 38.1373 58.715 38.5207L59.3507 36.6244ZM55.0499 35.1121C53.2984 34.4901 52.0903 34.0418 51.402 33.7524L50.6269 35.5961C51.375 35.9106 52.6341 36.3766 54.3806 36.9968L55.0499 35.1121ZM50.3582 35.4288C50.7984 35.8116 51.513 36.4644 52.4968 37.4001L53.8751 35.9509C52.8818 35.0061 52.143 34.3305 51.6707 33.9197L50.3582 35.4288ZM52.4999 37.403C53.4799 38.3272 55.3585 40.2103 58.1495 43.0597L59.5783 41.6602C56.7928 38.8165 54.886 36.9042 53.872 35.9479L52.4999 37.403Z" fill="#E0F1FF" mask="url(#path-53-inside-1_802_1710)"/>
<path d="M51.3778 29.7489H50.3778V30.4933L51.091 30.7068L51.3778 29.7489ZM83.7303 39.4358L84.2381 40.2972L86.2104 39.1345L84.0171 38.4778L83.7303 39.4358ZM76.5315 43.6797L76.2034 44.6244L76.6406 44.7762L77.0393 44.5412L76.5315 43.6797ZM70.7944 41.6871L71.1225 40.7425L70.686 40.5909L70.2877 40.825L70.7944 41.6871ZM62.8689 46.3451L62.3622 45.483L61.2695 46.1252L62.1483 47.0385L62.8689 46.3451ZM66.1641 49.7696L66.6705 50.6319L67.7638 49.9898L66.8847 49.0762L66.1641 49.7696ZM58.923 54.0222L58.1629 54.672L58.7072 55.3087L59.4295 54.8845L58.923 54.0222ZM42.582 34.9072L42.0755 34.0449L41.0462 34.6496L41.8219 35.557L42.582 34.9072ZM51.3778 29.7402H52.3778V27.993L50.8713 28.878L51.3778 29.7402ZM64.0518 39.315L64.5597 40.1764L66.4211 39.079L64.3798 38.3703L64.0518 39.315ZM59.0329 37.5726L59.3609 36.6278L59.3507 36.6244L59.0329 37.5726ZM54.7153 36.0544L55.0526 35.113L55.0499 35.1121L54.7153 36.0544ZM51.0145 34.6743L51.402 33.7524L50.3582 35.4288L51.0145 34.6743ZM53.1859 36.6755L52.4968 37.4001L52.4999 37.403L53.1859 36.6755ZM51.091 30.7068L83.4435 40.3937L84.0171 38.4778L51.6646 28.7909L51.091 30.7068ZM83.2224 38.5743L76.0236 42.8183L77.0393 44.5412L84.2381 40.2972L83.2224 38.5743ZM76.8595 42.7351L71.1225 40.7425L70.4663 42.6318L76.2034 44.6244L76.8595 42.7351ZM70.2877 40.825L62.3622 45.483L63.3756 47.2073L71.3011 42.5493L70.2877 40.825ZM62.1483 47.0385L65.4435 50.463L66.8847 49.0762L63.5895 45.6518L62.1483 47.0385ZM65.6577 48.9073L58.4166 53.1599L59.4295 54.8845L66.6705 50.6319L65.6577 48.9073ZM59.6831 53.3724L43.3421 34.2574L41.8219 35.557L58.1629 54.672L59.6831 53.3724ZM43.0885 35.7694L51.8843 30.6025L50.8713 28.878L42.0755 34.0449L43.0885 35.7694ZM50.3778 29.7402V29.7489H52.3778V29.7402H50.3778ZM59.3802 43.23L64.5597 40.1764L63.5439 38.4536L58.3645 41.5071L59.3802 43.23ZM64.3798 38.3703L59.3609 36.6279L58.7049 38.5173L63.7238 40.2597L64.3798 38.3703ZM59.3507 36.6244C58.2301 36.2488 56.8122 35.7435 55.0526 35.113L54.378 36.9958C56.1333 37.6247 57.5713 38.1373 58.715 38.5207L59.3507 36.6244ZM55.0499 35.1121C53.2984 34.4901 52.0903 34.0418 51.402 33.7524L50.6269 35.5961C51.375 35.9106 52.6341 36.3766 54.3806 36.9968L55.0499 35.1121ZM50.3582 35.4288C50.7984 35.8116 51.513 36.4644 52.4968 37.4001L53.8751 35.9509C52.8818 35.0061 52.143 34.3305 51.6707 33.9197L50.3582 35.4288ZM52.4999 37.403C53.4799 38.3272 55.3585 40.2103 58.1495 43.0597L59.5783 41.6602C56.7928 38.8165 54.886 36.9042 53.872 35.9479L52.4999 37.403Z" fill="url(#paint52_linear_802_1710)" mask="url(#path-53-inside-1_802_1710)"/>
<path d="M86.3598 37.31L63.1513 23.5143L68.7991 20.2017L92.0084 33.9896L86.3598 37.31Z" fill="#080E24"/>
<path d="M86.3598 37.31L63.1513 23.5143L68.7991 20.2017L92.0084 33.9896L86.3598 37.31Z" stroke="#E0F1FF"/>
<path d="M86.3598 37.31L63.1513 23.5143L68.7991 20.2017L92.0084 33.9896L86.3598 37.31Z" stroke="url(#paint53_linear_802_1710)"/>
<defs>
<linearGradient id="paint0_linear_802_1710" x1="68.7682" y1="2.06641" x2="68.7682" y2="85.2169" gradientUnits="userSpaceOnUse">
<stop stop-color="#1480FF"/>
<stop offset="1" stop-color="#4F7ECC"/>
</linearGradient>
<linearGradient id="paint1_linear_802_1710" x1="69.5801" y1="75.8203" x2="69.5801" y2="85.2139" gradientUnits="userSpaceOnUse">
<stop stop-color="#1480FF"/>
<stop offset="1" stop-color="#4F7ECC"/>
</linearGradient>
<linearGradient id="paint2_linear_802_1710" x1="11.7732" y1="26.7588" x2="11.7732" y2="36.8684" gradientUnits="userSpaceOnUse">
<stop stop-color="#1480FF"/>
<stop offset="1" stop-color="#4F7ECC"/>
</linearGradient>
<linearGradient id="paint3_linear_802_1710" x1="18.0819" y1="34.1592" x2="18.0819" y2="39.5504" gradientUnits="userSpaceOnUse">
<stop stop-color="#1480FF"/>
<stop offset="1" stop-color="#4F7ECC"/>
</linearGradient>
<linearGradient id="paint4_linear_802_1710" x1="9.52297" y1="29.4316" x2="9.52297" y2="39.5585" gradientUnits="userSpaceOnUse">
<stop stop-color="#1480FF"/>
<stop offset="1" stop-color="#4F7ECC"/>
</linearGradient>
<linearGradient id="paint5_linear_802_1710" x1="27.6814" y1="17.251" x2="27.6814" y2="27.3606" gradientUnits="userSpaceOnUse">
<stop stop-color="#1480FF"/>
<stop offset="1" stop-color="#4F7ECC"/>
</linearGradient>
<linearGradient id="paint6_linear_802_1710" x1="33.9882" y1="24.6523" x2="33.9882" y2="30.0435" gradientUnits="userSpaceOnUse">
<stop stop-color="#1480FF"/>
<stop offset="1" stop-color="#4F7ECC"/>
</linearGradient>
<linearGradient id="paint7_linear_802_1710" x1="25.4292" y1="19.9248" x2="25.4292" y2="30.0516" gradientUnits="userSpaceOnUse">
<stop stop-color="#1480FF"/>
<stop offset="1" stop-color="#4F7ECC"/>
</linearGradient>
<linearGradient id="paint8_linear_802_1710" x1="42.0447" y1="8.62402" x2="42.0447" y2="18.7336" gradientUnits="userSpaceOnUse">
<stop stop-color="#1480FF"/>
<stop offset="1" stop-color="#4F7ECC"/>
</linearGradient>
<linearGradient id="paint9_linear_802_1710" x1="48.3515" y1="16.0264" x2="48.3515" y2="21.4176" gradientUnits="userSpaceOnUse">
<stop stop-color="#1480FF"/>
<stop offset="1" stop-color="#4F7ECC"/>
</linearGradient>
<linearGradient id="paint10_linear_802_1710" x1="39.7925" y1="11.2988" x2="39.7925" y2="21.4257" gradientUnits="userSpaceOnUse">
<stop stop-color="#1480FF"/>
<stop offset="1" stop-color="#4F7ECC"/>
</linearGradient>
<linearGradient id="paint11_linear_802_1710" x1="56.4118" y1="0" x2="56.4118" y2="10.1096" gradientUnits="userSpaceOnUse">
<stop stop-color="#1480FF"/>
<stop offset="1" stop-color="#4F7ECC"/>
</linearGradient>
<linearGradient id="paint12_linear_802_1710" x1="62.7167" y1="7.40039" x2="62.7167" y2="12.7916" gradientUnits="userSpaceOnUse">
<stop stop-color="#1480FF"/>
<stop offset="1" stop-color="#4F7ECC"/>
</linearGradient>
<linearGradient id="paint13_linear_802_1710" x1="54.1577" y1="2.67383" x2="54.1577" y2="12.8007" gradientUnits="userSpaceOnUse">
<stop stop-color="#1480FF"/>
<stop offset="1" stop-color="#4F7ECC"/>
</linearGradient>
<linearGradient id="paint14_linear_802_1710" x1="53.885" y1="74.2012" x2="53.885" y2="84.3108" gradientUnits="userSpaceOnUse">
<stop stop-color="#1480FF"/>
<stop offset="1" stop-color="#4F7ECC"/>
</linearGradient>
<linearGradient id="paint15_linear_802_1710" x1="47.5763" y1="81.6016" x2="47.5763" y2="86.9928" gradientUnits="userSpaceOnUse">
<stop stop-color="#1480FF"/>
<stop offset="1" stop-color="#4F7ECC"/>
</linearGradient>
<linearGradient id="paint16_linear_802_1710" x1="56.1352" y1="76.875" x2="56.1352" y2="87.0018" gradientUnits="userSpaceOnUse">
<stop stop-color="#1480FF"/>
<stop offset="1" stop-color="#4F7ECC"/>
</linearGradient>
<linearGradient id="paint17_linear_802_1710" x1="37.9749" y1="64.6934" x2="37.9749" y2="74.8029" gradientUnits="userSpaceOnUse">
<stop stop-color="#1480FF"/>
<stop offset="1" stop-color="#4F7ECC"/>
</linearGradient>
<linearGradient id="paint18_linear_802_1710" x1="31.6681" y1="72.0947" x2="31.6681" y2="77.4859" gradientUnits="userSpaceOnUse">
<stop stop-color="#1480FF"/>
<stop offset="1" stop-color="#4F7ECC"/>
</linearGradient>
<linearGradient id="paint19_linear_802_1710" x1="40.227" y1="67.3672" x2="40.227" y2="77.494" gradientUnits="userSpaceOnUse">
<stop stop-color="#1480FF"/>
<stop offset="1" stop-color="#4F7ECC"/>
</linearGradient>
<linearGradient id="paint20_linear_802_1710" x1="23.6135" y1="56.0684" x2="23.6135" y2="66.1779" gradientUnits="userSpaceOnUse">
<stop stop-color="#1480FF"/>
<stop offset="1" stop-color="#4F7ECC"/>
</linearGradient>
<linearGradient id="paint21_linear_802_1710" x1="17.3068" y1="63.4697" x2="17.3068" y2="68.8609" gradientUnits="userSpaceOnUse">
<stop stop-color="#1480FF"/>
<stop offset="1" stop-color="#4F7ECC"/>
</linearGradient>
<linearGradient id="paint22_linear_802_1710" x1="25.8657" y1="58.7422" x2="25.8657" y2="68.869" gradientUnits="userSpaceOnUse">
<stop stop-color="#1480FF"/>
<stop offset="1" stop-color="#4F7ECC"/>
</linearGradient>
<linearGradient id="paint23_linear_802_1710" x1="9.24636" y1="47.4443" x2="9.24636" y2="57.5539" gradientUnits="userSpaceOnUse">
<stop stop-color="#1480FF"/>
<stop offset="1" stop-color="#4F7ECC"/>
</linearGradient>
<linearGradient id="paint24_linear_802_1710" x1="2.94152" y1="54.8447" x2="2.94152" y2="60.2359" gradientUnits="userSpaceOnUse">
<stop stop-color="#1480FF"/>
<stop offset="1" stop-color="#4F7ECC"/>
</linearGradient>
<linearGradient id="paint25_linear_802_1710" x1="11.5005" y1="50.1182" x2="11.5005" y2="60.245" gradientUnits="userSpaceOnUse">
<stop stop-color="#1480FF"/>
<stop offset="1" stop-color="#4F7ECC"/>
</linearGradient>
<linearGradient id="paint26_linear_802_1710" x1="84.4392" y1="73.3359" x2="84.4392" y2="83.4455" gradientUnits="userSpaceOnUse">
<stop stop-color="#1480FF"/>
<stop offset="1" stop-color="#4F7ECC"/>
</linearGradient>
<linearGradient id="paint27_linear_802_1710" x1="90.7479" y1="80.7373" x2="90.7479" y2="86.1285" gradientUnits="userSpaceOnUse">
<stop stop-color="#1480FF"/>
<stop offset="1" stop-color="#4F7ECC"/>
</linearGradient>
<linearGradient id="paint28_linear_802_1710" x1="82.189" y1="76.0098" x2="82.189" y2="86.1366" gradientUnits="userSpaceOnUse">
<stop stop-color="#1480FF"/>
<stop offset="1" stop-color="#4F7ECC"/>
</linearGradient>
<linearGradient id="paint29_linear_802_1710" x1="100.343" y1="63.8311" x2="100.343" y2="73.9406" gradientUnits="userSpaceOnUse">
<stop stop-color="#1480FF"/>
<stop offset="1" stop-color="#4F7ECC"/>
</linearGradient>
<linearGradient id="paint30_linear_802_1710" x1="106.652" y1="71.2314" x2="106.652" y2="76.6226" gradientUnits="userSpaceOnUse">
<stop stop-color="#1480FF"/>
<stop offset="1" stop-color="#4F7ECC"/>
</linearGradient>
<linearGradient id="paint31_linear_802_1710" x1="98.0933" y1="66.5049" x2="98.0933" y2="76.6317" gradientUnits="userSpaceOnUse">
<stop stop-color="#1480FF"/>
<stop offset="1" stop-color="#4F7ECC"/>
</linearGradient>
<linearGradient id="paint32_linear_802_1710" x1="114.711" y1="55.2061" x2="114.711" y2="65.3156" gradientUnits="userSpaceOnUse">
<stop stop-color="#1480FF"/>
<stop offset="1" stop-color="#4F7ECC"/>
</linearGradient>
<linearGradient id="paint33_linear_802_1710" x1="121.017" y1="62.6074" x2="121.017" y2="67.9986" gradientUnits="userSpaceOnUse">
<stop stop-color="#1480FF"/>
<stop offset="1" stop-color="#4F7ECC"/>
</linearGradient>
<linearGradient id="paint34_linear_802_1710" x1="112.459" y1="57.8799" x2="112.459" y2="68.0067" gradientUnits="userSpaceOnUse">
<stop stop-color="#1480FF"/>
<stop offset="1" stop-color="#4F7ECC"/>
</linearGradient>
<linearGradient id="paint35_linear_802_1710" x1="129.076" y1="46.5791" x2="129.076" y2="56.6887" gradientUnits="userSpaceOnUse">
<stop stop-color="#1480FF"/>
<stop offset="1" stop-color="#4F7ECC"/>
</linearGradient>
<linearGradient id="paint36_linear_802_1710" x1="135.383" y1="53.9805" x2="135.383" y2="59.3717" gradientUnits="userSpaceOnUse">
<stop stop-color="#1480FF"/>
<stop offset="1" stop-color="#4F7ECC"/>
</linearGradient>
<linearGradient id="paint37_linear_802_1710" x1="126.824" y1="49.2529" x2="126.824" y2="59.3798" gradientUnits="userSpaceOnUse">
<stop stop-color="#1480FF"/>
<stop offset="1" stop-color="#4F7ECC"/>
</linearGradient>
<linearGradient id="paint38_linear_802_1710" x1="127.387" y1="26.7588" x2="127.387" y2="36.8684" gradientUnits="userSpaceOnUse">
<stop stop-color="#1480FF"/>
<stop offset="1" stop-color="#4F7ECC"/>
</linearGradient>
<linearGradient id="paint39_linear_802_1710" x1="121.082" y1="34.1592" x2="121.082" y2="39.5504" gradientUnits="userSpaceOnUse">
<stop stop-color="#1480FF"/>
<stop offset="1" stop-color="#4F7ECC"/>
</linearGradient>
<linearGradient id="paint40_linear_802_1710" x1="129.641" y1="29.4316" x2="129.641" y2="39.5585" gradientUnits="userSpaceOnUse">
<stop stop-color="#1480FF"/>
<stop offset="1" stop-color="#4F7ECC"/>
</linearGradient>
<linearGradient id="paint41_linear_802_1710" x1="111.481" y1="17.251" x2="111.481" y2="27.3606" gradientUnits="userSpaceOnUse">
<stop stop-color="#1480FF"/>
<stop offset="1" stop-color="#4F7ECC"/>
</linearGradient>
<linearGradient id="paint42_linear_802_1710" x1="105.174" y1="24.6523" x2="105.174" y2="30.0435" gradientUnits="userSpaceOnUse">
<stop stop-color="#1480FF"/>
<stop offset="1" stop-color="#4F7ECC"/>
</linearGradient>
<linearGradient id="paint43_linear_802_1710" x1="113.733" y1="19.9248" x2="113.733" y2="30.0516" gradientUnits="userSpaceOnUse">
<stop stop-color="#1480FF"/>
<stop offset="1" stop-color="#4F7ECC"/>
</linearGradient>
<linearGradient id="paint44_linear_802_1710" x1="97.1194" y1="8.62402" x2="97.1194" y2="18.7336" gradientUnits="userSpaceOnUse">
<stop stop-color="#1480FF"/>
<stop offset="1" stop-color="#4F7ECC"/>
</linearGradient>
<linearGradient id="paint45_linear_802_1710" x1="90.8107" y1="16.0264" x2="90.8107" y2="21.4176" gradientUnits="userSpaceOnUse">
<stop stop-color="#1480FF"/>
<stop offset="1" stop-color="#4F7ECC"/>
</linearGradient>
<linearGradient id="paint46_linear_802_1710" x1="99.3696" y1="11.2988" x2="99.3696" y2="21.4257" gradientUnits="userSpaceOnUse">
<stop stop-color="#1480FF"/>
<stop offset="1" stop-color="#4F7ECC"/>
</linearGradient>
<linearGradient id="paint47_linear_802_1710" x1="82.7503" y1="0" x2="82.7503" y2="10.1096" gradientUnits="userSpaceOnUse">
<stop stop-color="#1480FF"/>
<stop offset="1" stop-color="#4F7ECC"/>
</linearGradient>
<linearGradient id="paint48_linear_802_1710" x1="76.4454" y1="7.40039" x2="76.4454" y2="12.7916" gradientUnits="userSpaceOnUse">
<stop stop-color="#1480FF"/>
<stop offset="1" stop-color="#4F7ECC"/>
</linearGradient>
<linearGradient id="paint49_linear_802_1710" x1="85.0044" y1="2.67383" x2="85.0044" y2="12.8007" gradientUnits="userSpaceOnUse">
<stop stop-color="#1480FF"/>
<stop offset="1" stop-color="#4F7ECC"/>
</linearGradient>
<linearGradient id="paint50_linear_802_1710" x1="68.7669" y1="1.8584" x2="68.7669" y2="75.8127" gradientUnits="userSpaceOnUse">
<stop stop-color="#1480FF"/>
<stop offset="1" stop-color="#4F7ECC"/>
</linearGradient>
<linearGradient id="paint51_linear_802_1710" x1="68.7645" y1="7.68359" x2="68.7645" y2="69.9886" gradientUnits="userSpaceOnUse">
<stop stop-color="#1480FF"/>
<stop offset="1" stop-color="#4F7ECC"/>
</linearGradient>
<linearGradient id="paint52_linear_802_1710" x1="63.1562" y1="29.7402" x2="63.1562" y2="54.0222" gradientUnits="userSpaceOnUse">
<stop stop-color="#1480FF"/>
<stop offset="1" stop-color="#4F7ECC"/>
</linearGradient>
<linearGradient id="paint53_linear_802_1710" x1="77.5796" y1="19.6211" x2="77.5796" y2="37.8908" gradientUnits="userSpaceOnUse">
<stop stop-color="#1480FF"/>
<stop offset="1" stop-color="#4F7ECC"/>
</linearGradient>
</defs>
</svg>
