<svg width="134" height="82" viewBox="0 0 134 82" fill="none" xmlns="http://www.w3.org/2000/svg">
<path d="M84.3333 38.3006L84.3338 38.3014C83.8809 38.563 83.1772 38.5788 82.2751 38.0488L82.2742 38.0482C81.3634 37.5155 80.5083 36.5749 79.8784 35.4666C79.2491 34.3592 78.8717 33.1322 78.8672 32.057C78.8674 30.9735 79.2354 30.3472 79.6842 30.0749L79.6843 30.0751L79.6961 30.0675L124.949 0.851157L124.949 0.851258L124.958 0.845091C125.669 0.363782 126.772 0.323228 128.145 1.13189L128.146 1.13249C129.459 1.90167 130.677 3.24524 131.569 4.81466C132.46 6.3837 132.998 8.13109 132.998 9.67812C132.998 11.3071 132.418 12.2714 131.646 12.6655L131.646 12.6653L131.636 12.6712L84.3333 38.3006Z" fill="#080E24" stroke="url(#paint0_linear_802_1592)"/>
<path d="M81.749 30.3385L81.749 30.3385L81.7505 30.3394C82.6614 30.8721 83.5164 31.8128 84.1463 32.921C84.7757 34.0285 85.153 35.2555 85.1575 36.3307C85.1573 37.4162 84.7884 38.0428 84.3392 38.3088C83.8944 38.5721 83.1898 38.5881 82.2758 38.0492L82.2742 38.0483C81.3634 37.5156 80.5083 36.5749 79.8784 35.4667C79.2491 34.3593 78.8717 33.1323 78.8672 32.0571C78.8674 30.9716 79.2363 30.3449 79.6855 30.0789C80.1303 29.8156 80.8349 29.7996 81.749 30.3385Z" fill="#080E24" stroke="url(#paint1_linear_802_1592)"/>
<path d="M73.2645 41.6937C72.7501 41.3921 72.2566 40.854 71.8891 40.2069C71.5222 39.5606 71.3071 38.8516 71.3027 38.238C71.3031 37.6308 71.5083 37.3313 71.7028 37.212L80.6884 31.8728C80.8759 31.7642 81.222 31.7263 81.7412 32.0279C82.2556 32.3294 82.7491 32.8676 83.1166 33.5147C83.4835 34.1609 83.6986 34.87 83.703 35.4836C83.7026 36.0908 83.4975 36.3903 83.3029 36.5096L74.3173 41.8487C74.1298 41.9573 73.7838 41.9953 73.2645 41.6937Z" fill="#080E24" stroke="url(#paint2_linear_802_1592)"/>
<path d="M73.2645 41.6937C72.7501 41.3921 72.2566 40.854 71.8891 40.2069C71.5222 39.5606 71.3071 38.8516 71.3027 38.238C71.3031 37.6308 71.5083 37.3313 71.7028 37.212L80.6884 31.8728C80.8759 31.7642 81.222 31.7263 81.7412 32.0279C82.2556 32.3294 82.7491 32.8676 83.1166 33.5147C83.4835 34.1609 83.6986 34.87 83.703 35.4836C83.7026 36.0908 83.4975 36.3903 83.3029 36.5096L74.3173 41.8487C74.1298 41.9573 73.7838 41.9953 73.2645 41.6937Z" fill="#080E24" stroke="url(#paint3_linear_802_1592)"/>
<path d="M81.8936 44.0837C82.0825 44.5079 82.2525 44.9418 82.4035 45.3757C82.4272 45.4577 82.4531 45.5397 82.4791 45.6216C82.5051 45.7036 82.531 45.7855 82.5546 45.8675L81.8936 44.0837ZM81.8936 44.0837C81.8275 43.9294 81.7614 43.7847 81.6858 43.6305L81.4875 43.2255L81.8936 44.0837ZM82.6878 49.4376L82.6885 49.4538L82.6903 49.47C82.7057 49.6118 82.7062 49.7671 82.7062 49.9559V49.9565V49.9571V49.9577V49.9583V49.959V49.9596V49.9602V49.9609V49.9615V49.9621V49.9627V49.9634V49.964V49.9646V49.9653V49.9659V49.9665V49.9672V49.9678V49.9685V49.9691V49.9697V49.9704V49.971V49.9717V49.9723V49.973V49.9736V49.9743V49.9749V49.9755V49.9762V49.9768V49.9775V49.9781V49.9788V49.9795V49.9801V49.9808V49.9814V49.9821V49.9827V49.9834V49.9841V49.9847V49.9854V49.986V49.9867V49.9874V49.988V49.9887V49.9894V49.99V49.9907V49.9914V49.9921V49.9927V49.9934V49.9941V49.9947V49.9954V49.9961V49.9968V49.9975V49.9981V49.9988V49.9995V50.0002V50.0009V50.0015V50.0022V50.0029V50.0036V50.0043V50.005V50.0057V50.0064V50.007V50.0077V50.0084V50.0091V50.0098V50.0105V50.0112V50.0119V50.0126V50.0133V50.014V50.0147V50.0154V50.0161V50.0168V50.0175V50.0182V50.0189V50.0196V50.0204V50.0211V50.0218V50.0225V50.0232V50.0239V50.0246V50.0253V50.0261V50.0268V50.0275V50.0282V50.0289V50.0297V50.0304V50.0311V50.0318V50.0325V50.0333V50.034V50.0347V50.0355V50.0362V50.0369V50.0376V50.0384V50.0391V50.0398V50.0406V50.0413V50.042V50.0428V50.0435V50.0443V50.045V50.0457V50.0465V50.0472V50.048V50.0487V50.0495V50.0502V50.051V50.0517V50.0525V50.0532V50.054V50.0547V50.0555V50.0562V50.057V50.0577V50.0585V50.0592V50.06V50.0608V50.0615V50.0623V50.0631V50.0638V50.0646V50.0653V50.0661V50.0669V50.0677V50.0684V50.0692V50.07V50.0707V50.0715V50.0723V50.0731V50.0738V50.0746V50.0754V50.0762V50.077V50.0777V50.0785V50.0793V50.0801V50.0809V50.0817V50.0824V50.0832V50.084V50.0848V50.0856V50.0864V50.0872V50.088V50.0888V50.0896V50.0904V50.0912V50.092V50.0928V50.0936V50.0944V50.0952V50.096V50.0968V50.0976V50.0984V50.0992V50.1V50.1008V50.1016V50.1024V50.1032V50.1041V50.1049V50.1057V50.1065V50.1073V50.1081V50.1089V50.1098V50.1106V50.1114V50.1122V50.1131V50.1139V50.1147V50.1155V50.1164V50.1172V50.118V50.1189V50.1197V50.1205V50.1213V50.1222V50.123V50.1239V50.1247V50.1255V50.1264V50.1272V50.1281V50.1289V50.1297V50.1306V50.1314V50.1323V50.1331V50.134V50.1348V50.1357V50.1365V50.1374V50.1382V50.1391V50.1399V50.1408V50.1416V50.1425V50.1434V50.1442V50.1451V50.1459V50.1468V50.1477V50.1485V50.1494V50.1503V50.1511V50.152V50.1529V50.1538V50.1546V50.1555V50.1564V50.1572V50.1581V50.159V50.1599V50.1608V50.1616V50.1625V50.1634V50.1643V50.1652V50.166V50.1669V50.1678V50.1687V50.1696V50.1705V50.1714V50.1723V50.1732V50.1741V50.175V50.1759V50.1768V50.1776V50.1785V50.1794V50.1803V50.1812V50.1822V50.1831V50.184V50.1849V50.1858V50.1867V50.1876V50.1885V50.1894V50.1903V50.1912V50.1922V50.1931V50.194V50.1949V50.1953L82.6943 50.2075L82.6968 50.4152C82.7063 51.1785 82.7011 52.6007 82.6964 53.8998C82.692 55.1253 82.6879 56.2412 82.6969 56.5911C82.7956 62.6653 78.9187 68.8661 70.8083 73.6405L70.8081 73.6407C62.7814 78.3723 52.2294 80.7525 41.6504 80.7525C31.0714 80.7525 20.5193 78.3723 12.4927 73.6407C4.40754 68.8646 0.481889 62.6886 0.500065 56.6299V56.6284C0.500065 55.7662 0.500091 51.0968 0.518868 50.0711L0.518952 50.0711V50.0619C0.518952 49.8034 0.528002 49.535 0.546146 49.2664L0.547283 49.2495V49.2327C0.547283 49.1913 0.550435 49.1447 0.555415 49.076L0.55589 49.0695C0.559876 49.0146 0.565029 48.9437 0.566004 48.8709C0.667457 47.7303 0.904395 46.5809 1.2856 45.4595L1.28563 45.4595L1.28751 45.4538C1.34264 45.2849 1.39531 45.1331 1.45534 44.9842L1.46168 44.9685L1.46694 44.9524C1.5251 44.7742 1.5954 44.6099 1.67761 44.4178C1.69015 44.3885 1.70297 44.3585 1.71607 44.3278L1.72103 44.3161L1.72539 44.3042C1.77313 44.1743 1.83978 44.0285 1.91285 43.8793L1.91295 43.8793L1.91737 43.8698C2.08269 43.5134 2.25729 43.1662 2.45068 42.8088C2.62447 42.4914 2.80848 42.1812 3.00527 41.8558C3.14584 41.6262 3.28824 41.3996 3.43643 41.1949L3.44349 41.1851L3.45007 41.175C3.55667 41.0118 3.67312 40.847 3.79047 40.6904L3.79048 40.6904L3.79323 40.6866C4.45678 39.7833 5.22355 38.8962 6.08515 38.0353C6.41824 37.7047 6.77003 37.3738 7.13114 37.0524C8.31978 35.9999 9.65843 34.9841 11.1663 34.0242L11.1663 34.0242L11.1696 34.0221C11.5515 33.7748 11.933 33.5373 12.3328 33.2999C20.3118 28.5929 30.8397 26.2246 41.419 26.2246C51.9983 26.2246 62.5749 28.5929 70.6496 33.3015L70.6497 33.3016C72.1695 34.187 73.5477 35.1285 74.7752 36.097L74.7766 36.0981C76.011 37.0647 77.1032 38.0859 78.0356 39.1323L78.04 39.1371C78.8248 39.995 79.515 40.8881 80.093 41.7968L80.0931 41.7969C80.2128 41.985 80.3236 42.1641 80.4361 42.346C80.5457 42.5326 80.6456 42.7089 80.7451 42.8937L80.7495 42.9019L80.7543 42.9099C80.8587 43.0877 80.947 43.2586 81.0385 43.4454L81.2368 43.8504C81.3085 43.9968 81.3711 44.1337 81.434 44.2806L81.4368 44.287C81.6178 44.6935 81.7812 45.1101 81.927 45.5277C81.9514 45.6116 81.9776 45.6943 82.0018 45.7704L82.0024 45.7726C82.0288 45.8557 82.0527 45.9313 82.0742 46.0059L82.0743 46.0063C82.2418 46.5859 82.3875 47.1547 82.487 47.7273L82.4893 47.7407L82.4924 47.754C82.5261 47.9005 82.5515 48.0473 82.5683 48.1846L82.569 48.19C82.6247 48.6069 82.6698 49.0245 82.6878 49.4376ZM83.0646 48.1238C83.0457 47.9695 83.0174 47.8056 82.9796 47.6417L83.0646 48.1238ZM14.1473 36.5755L14.0904 36.6091L14.0808 36.6189C7.79252 40.3433 4.17457 45.0334 4.17457 50.0619C4.17457 55.1056 7.88051 59.9439 14.327 63.7413C21.5692 68.0198 31.2751 70.3577 41.6456 70.3577C52.0165 70.3577 61.7225 68.0196 68.9741 63.7412L68.9742 63.7411C75.3737 59.9627 79.0223 55.1726 79.0223 50.1873L79.0223 50.1853C79.0024 45.1606 75.2956 40.352 68.8204 36.5837C61.5221 32.3255 51.7605 30.0072 41.4001 30.0072C31.0396 30.0072 21.3522 32.3256 14.1473 36.5755Z" fill="#080E24" stroke="url(#paint4_linear_802_1592)"/>
<path d="M81.8936 44.0837C82.0825 44.5079 82.2525 44.9418 82.4035 45.3757C82.4272 45.4577 82.4531 45.5397 82.4791 45.6216C82.5051 45.7036 82.531 45.7855 82.5546 45.8675L81.8936 44.0837ZM81.8936 44.0837C81.8275 43.9294 81.7614 43.7847 81.6858 43.6305L81.4875 43.2255L81.8936 44.0837ZM82.6878 49.4376L82.6885 49.4538L82.6903 49.47C82.7057 49.6118 82.7062 49.7671 82.7062 49.9559V49.9565V49.9571V49.9577V49.9583V49.959V49.9596V49.9602V49.9609V49.9615V49.9621V49.9627V49.9634V49.964V49.9646V49.9653V49.9659V49.9665V49.9672V49.9678V49.9685V49.9691V49.9697V49.9704V49.971V49.9717V49.9723V49.973V49.9736V49.9743V49.9749V49.9755V49.9762V49.9768V49.9775V49.9781V49.9788V49.9795V49.9801V49.9808V49.9814V49.9821V49.9827V49.9834V49.9841V49.9847V49.9854V49.986V49.9867V49.9874V49.988V49.9887V49.9894V49.99V49.9907V49.9914V49.9921V49.9927V49.9934V49.9941V49.9947V49.9954V49.9961V49.9968V49.9975V49.9981V49.9988V49.9995V50.0002V50.0009V50.0015V50.0022V50.0029V50.0036V50.0043V50.005V50.0057V50.0064V50.007V50.0077V50.0084V50.0091V50.0098V50.0105V50.0112V50.0119V50.0126V50.0133V50.014V50.0147V50.0154V50.0161V50.0168V50.0175V50.0182V50.0189V50.0196V50.0204V50.0211V50.0218V50.0225V50.0232V50.0239V50.0246V50.0253V50.0261V50.0268V50.0275V50.0282V50.0289V50.0297V50.0304V50.0311V50.0318V50.0325V50.0333V50.034V50.0347V50.0355V50.0362V50.0369V50.0376V50.0384V50.0391V50.0398V50.0406V50.0413V50.042V50.0428V50.0435V50.0443V50.045V50.0457V50.0465V50.0472V50.048V50.0487V50.0495V50.0502V50.051V50.0517V50.0525V50.0532V50.054V50.0547V50.0555V50.0562V50.057V50.0577V50.0585V50.0592V50.06V50.0608V50.0615V50.0623V50.0631V50.0638V50.0646V50.0653V50.0661V50.0669V50.0677V50.0684V50.0692V50.07V50.0707V50.0715V50.0723V50.0731V50.0738V50.0746V50.0754V50.0762V50.077V50.0777V50.0785V50.0793V50.0801V50.0809V50.0817V50.0824V50.0832V50.084V50.0848V50.0856V50.0864V50.0872V50.088V50.0888V50.0896V50.0904V50.0912V50.092V50.0928V50.0936V50.0944V50.0952V50.096V50.0968V50.0976V50.0984V50.0992V50.1V50.1008V50.1016V50.1024V50.1032V50.1041V50.1049V50.1057V50.1065V50.1073V50.1081V50.1089V50.1098V50.1106V50.1114V50.1122V50.1131V50.1139V50.1147V50.1155V50.1164V50.1172V50.118V50.1189V50.1197V50.1205V50.1213V50.1222V50.123V50.1239V50.1247V50.1255V50.1264V50.1272V50.1281V50.1289V50.1297V50.1306V50.1314V50.1323V50.1331V50.134V50.1348V50.1357V50.1365V50.1374V50.1382V50.1391V50.1399V50.1408V50.1416V50.1425V50.1434V50.1442V50.1451V50.1459V50.1468V50.1477V50.1485V50.1494V50.1503V50.1511V50.152V50.1529V50.1538V50.1546V50.1555V50.1564V50.1572V50.1581V50.159V50.1599V50.1608V50.1616V50.1625V50.1634V50.1643V50.1652V50.166V50.1669V50.1678V50.1687V50.1696V50.1705V50.1714V50.1723V50.1732V50.1741V50.175V50.1759V50.1768V50.1776V50.1785V50.1794V50.1803V50.1812V50.1822V50.1831V50.184V50.1849V50.1858V50.1867V50.1876V50.1885V50.1894V50.1903V50.1912V50.1922V50.1931V50.194V50.1949V50.1953L82.6943 50.2075L82.6968 50.4152C82.7063 51.1785 82.7011 52.6007 82.6964 53.8998C82.692 55.1253 82.6879 56.2412 82.6969 56.5911C82.7956 62.6653 78.9187 68.8661 70.8083 73.6405L70.8081 73.6407C62.7814 78.3723 52.2294 80.7525 41.6504 80.7525C31.0714 80.7525 20.5193 78.3723 12.4927 73.6407C4.40754 68.8646 0.481889 62.6886 0.500065 56.6299V56.6284C0.500065 55.7662 0.500091 51.0968 0.518868 50.0711L0.518952 50.0711V50.0619C0.518952 49.8034 0.528002 49.535 0.546146 49.2664L0.547283 49.2495V49.2327C0.547283 49.1913 0.550435 49.1447 0.555415 49.076L0.55589 49.0695C0.559876 49.0146 0.565029 48.9437 0.566004 48.8709C0.667457 47.7303 0.904395 46.5809 1.2856 45.4595L1.28563 45.4595L1.28751 45.4538C1.34264 45.2849 1.39531 45.1331 1.45534 44.9842L1.46168 44.9685L1.46694 44.9524C1.5251 44.7742 1.5954 44.6099 1.67761 44.4178C1.69015 44.3885 1.70297 44.3585 1.71607 44.3278L1.72103 44.3161L1.72539 44.3042C1.77313 44.1743 1.83978 44.0285 1.91285 43.8793L1.91295 43.8793L1.91737 43.8698C2.08269 43.5134 2.25729 43.1662 2.45068 42.8088C2.62447 42.4914 2.80848 42.1812 3.00527 41.8558C3.14584 41.6262 3.28824 41.3996 3.43643 41.1949L3.44349 41.1851L3.45007 41.175C3.55667 41.0118 3.67312 40.847 3.79047 40.6904L3.79048 40.6904L3.79323 40.6866C4.45678 39.7833 5.22355 38.8962 6.08515 38.0353C6.41824 37.7047 6.77003 37.3738 7.13114 37.0524C8.31978 35.9999 9.65843 34.9841 11.1663 34.0242L11.1663 34.0242L11.1696 34.0221C11.5515 33.7748 11.933 33.5373 12.3328 33.2999C20.3118 28.5929 30.8397 26.2246 41.419 26.2246C51.9983 26.2246 62.5749 28.5929 70.6496 33.3015L70.6497 33.3016C72.1695 34.187 73.5477 35.1285 74.7752 36.097L74.7766 36.0981C76.011 37.0647 77.1032 38.0859 78.0356 39.1323L78.04 39.1371C78.8248 39.995 79.515 40.8881 80.093 41.7968L80.0931 41.7969C80.2128 41.985 80.3236 42.1641 80.4361 42.346C80.5457 42.5326 80.6456 42.7089 80.7451 42.8937L80.7495 42.9019L80.7543 42.9099C80.8587 43.0877 80.947 43.2586 81.0385 43.4454L81.2368 43.8504C81.3085 43.9968 81.3711 44.1337 81.434 44.2806L81.4368 44.287C81.6178 44.6935 81.7812 45.1101 81.927 45.5277C81.9514 45.6116 81.9776 45.6943 82.0018 45.7704L82.0024 45.7726C82.0288 45.8557 82.0527 45.9313 82.0742 46.0059L82.0743 46.0063C82.2418 46.5859 82.3875 47.1547 82.487 47.7273L82.4893 47.7407L82.4924 47.754C82.5261 47.9005 82.5515 48.0473 82.5683 48.1846L82.569 48.19C82.6247 48.6069 82.6698 49.0245 82.6878 49.4376ZM83.0646 48.1238C83.0457 47.9695 83.0174 47.8056 82.9796 47.6417L83.0646 48.1238ZM14.1473 36.5755L14.0904 36.6091L14.0808 36.6189C7.79252 40.3433 4.17457 45.0334 4.17457 50.0619C4.17457 55.1056 7.88051 59.9439 14.327 63.7413C21.5692 68.0198 31.2751 70.3577 41.6456 70.3577C52.0165 70.3577 61.7225 68.0196 68.9741 63.7412L68.9742 63.7411C75.3737 59.9627 79.0223 55.1726 79.0223 50.1873L79.0223 50.1853C79.0024 45.1606 75.2956 40.352 68.8204 36.5837C61.5221 32.3255 51.7605 30.0072 41.4001 30.0072C31.0396 30.0072 21.3522 32.3256 14.1473 36.5755Z" fill="#080E24" stroke="url(#paint5_linear_802_1592)"/>
<path d="M82.6865 49.4376L82.6872 49.4538L82.689 49.47C82.6916 49.4935 82.6937 49.5174 82.6955 49.5417V49.9559V49.9565V49.9571V49.9577V49.9583V49.959V49.9596V49.9602V49.9609V49.9615V49.9621V49.9627V49.9634V49.964V49.9646V49.9653V49.9659V49.9665V49.9672V49.9678V49.9685V49.9691V49.9697V49.9704V49.971V49.9717V49.9723V49.973V49.9736V49.9743V49.9749V49.9755V49.9762V49.9768V49.9775V49.9782V49.9788V49.9795V49.9801V49.9808V49.9814V49.9821V49.9827V49.9834V49.9841V49.9847V49.9854V49.986V49.9867V49.9874V49.988V49.9887V49.9894V49.99V49.9907V49.9914V49.9921V49.9927V49.9934V49.9941V49.9948V49.9954V49.9961V49.9968V49.9975V49.9981V49.9988V49.9995V50.0002V50.0009V50.0015V50.0022V50.0029V50.0036V50.0043V50.005V50.0057V50.0064V50.0071V50.0077V50.0084V50.0091V50.0098V50.0105V50.0112V50.0119V50.0126V50.0133V50.014V50.0147V50.0154V50.0161V50.0168V50.0175V50.0182V50.0189V50.0197V50.0204V50.0211V50.0218V50.0225V50.0232V50.0239V50.0246V50.0253V50.0261V50.0268V50.0275V50.0282V50.0289V50.0297V50.0304V50.0311V50.0318V50.0325V50.0333V50.034V50.0347V50.0355V50.0362V50.0369V50.0376V50.0384V50.0391V50.0398V50.0406V50.0413V50.0421V50.0428V50.0435V50.0443V50.045V50.0457V50.0465V50.0472V50.048V50.0487V50.0495V50.0502V50.051V50.0517V50.0525V50.0532V50.054V50.0547V50.0555V50.0562V50.057V50.0577V50.0585V50.0593V50.06V50.0608V50.0615V50.0623V50.0631V50.0638V50.0646V50.0654V50.0661V50.0669V50.0677V50.0684V50.0692V50.07V50.0707V50.0715V50.0723V50.0731V50.0738V50.0746V50.0754V50.0762V50.077V50.0777V50.0785V50.0793V50.0801V50.0809V50.0817V50.0824V50.0832V50.084V50.0848V50.0856V50.0864V50.0872V50.088V50.0888V50.0896V50.0904V50.0912V50.092V50.0928V50.0936V50.0944V50.0952V50.096V50.0968V50.0976V50.0984V50.0992V50.1V50.1008V50.1016V50.1024V50.1032V50.1041V50.1049V50.1057V50.1065V50.1073V50.1081V50.109V50.1098V50.1106V50.1114V50.1122V50.1131V50.1139V50.1147V50.1155V50.1164V50.1172V50.118V50.1189V50.1197V50.1205V50.1214V50.1222V50.123V50.1239V50.1247V50.1255V50.1264V50.1272V50.1281V50.1289V50.1297V50.1306V50.1314V50.1323V50.1331V50.134V50.1348V50.1357V50.1365V50.1374V50.1382V50.1391V50.1399V50.1408V50.1416V50.1425V50.1434V50.1442V50.1451V50.146V50.1468V50.1477V50.1485V50.1494V50.1503V50.1511V50.152V50.1529V50.1538V50.1546V50.1555V50.1564V50.1572V50.1581V50.159V50.1599V50.1608V50.1616V50.1625V50.1634V50.1643V50.1652V50.1661V50.1669V50.1678V50.1687V50.1696V50.1705V50.1714V50.1723V50.1732V50.1741V50.175V50.1759V50.1768V50.1777V50.1786V50.1795V50.1804V50.1813V50.1822V50.1831V50.184V50.1849V50.1858V50.1867V50.1876V50.1885V50.1894V50.1903V50.1912V50.1922V50.1931V50.194V50.1949V50.1958V50.1967V50.1977V50.1986V50.1995V50.2004V50.2014V50.2023V50.2032V50.2041V50.2051V50.206V50.2069V50.2079V50.2088V50.2097V50.2107V50.2116V50.2125V50.2135V50.2144V50.2153V50.2163V50.2172V50.2182V50.2191V50.2201V50.221V50.222V50.2229V50.2239V50.2248V50.2258V50.2267V50.2277V50.2286V50.2296V50.2305V50.2315V50.2324V50.2334V50.2344V50.2353V50.2363V50.2372V50.2382V50.2392V50.2401V50.2411V50.2421V50.2431V50.244V50.245V50.246V50.2469V50.2479V50.2489V50.2499V50.2508V50.2518V50.2528V50.2538V50.2548V50.2558V50.2567V50.2577V50.2587V50.2597V50.2607V50.2617V50.2627V50.2637V50.2647V50.2656V50.2666V50.2676V50.2686V50.2696V50.2706V50.2716V50.2726V50.2736V50.2746V50.2756V50.2766V50.2777V50.2787V50.2797V50.2807V50.2817V50.2827V50.2837V50.2847V50.2857V50.2868V50.2878V50.2888V50.2898V50.2908V50.2919V50.2929V50.2939V50.2949V50.2959V50.297V50.298V50.299V50.3001V50.3011V50.3021V50.3032V50.3042V50.3052V50.3063V50.3073V50.3083V50.3094V50.3104V50.3115V50.3125V50.3135V50.3146V50.3156V50.3167V50.3177V50.3188V50.3198V50.3209V50.3219V50.323V50.324V50.3251V50.3262V50.3272V50.3283V50.3293V50.3304V50.3315V50.3325V50.3336V50.3346V50.3357V50.3368V50.3378V50.3389V50.34V50.3411V50.3421V50.3432V50.3443V50.3454V50.3464V50.3475V50.3486V50.3497V50.3507V50.3518V50.3529V50.354V50.3551V50.3562V50.3573V50.3583V50.3594V50.3605V50.3616V50.3627V50.3638V50.3649V50.366V50.3671V50.3682V50.3693V50.3704V50.3715V50.3726V50.3737V50.3748V50.3759V50.377V50.3781V50.3792V50.3804V50.3815V50.3826V50.3837V50.3848V50.3859V50.387V50.3882V50.3893V50.3904V50.3915V50.3926V50.3938V50.3949V50.396V50.3964C82.6215 56.3325 78.722 62.3559 70.807 67.0162L70.8068 67.0164C62.7801 71.748 52.2281 74.1282 41.6491 74.1282C31.0701 74.1282 20.518 71.748 12.4914 67.0164L12.4911 67.0162C4.42474 62.2689 0.499469 56.1122 0.517643 50.0634V50.0619C0.517643 49.8034 0.526693 49.535 0.544837 49.2664L0.545974 49.2495V49.2327C0.545974 49.1913 0.549126 49.1447 0.554107 49.076L0.554581 49.0695C0.558567 49.0146 0.56372 48.9437 0.564696 48.8709C0.666148 47.7303 0.903086 46.5809 1.28429 45.4595L1.28432 45.4595L1.28621 45.4538C1.34133 45.2849 1.394 45.1331 1.45403 44.9842L1.46037 44.9685L1.46563 44.9524C1.52379 44.7742 1.59409 44.6099 1.6763 44.4178C1.68884 44.3885 1.70167 44.3585 1.71477 44.3278L1.71972 44.3161L1.72408 44.3042C1.77182 44.1743 1.83847 44.0285 1.91154 43.8793L1.91164 43.8793L1.91606 43.8698C2.08138 43.5135 2.25598 43.1662 2.44937 42.8088C2.62316 42.4914 2.80716 42.1812 3.00394 41.8559C3.14452 41.6262 3.28692 41.3996 3.43512 41.1949L3.44218 41.1851L3.44877 41.175C3.55536 41.0118 3.67181 40.847 3.78916 40.6904L3.78918 40.6904L3.79193 40.6866C4.45544 39.7833 5.22216 38.8963 6.08369 38.0355C6.41686 37.7048 6.76874 37.3738 7.12995 37.0523C8.31856 35.9999 9.65717 34.9841 11.165 34.0242L11.165 34.0242L11.1682 34.0221C11.5502 33.7748 11.9317 33.5373 12.3315 33.2999C20.3104 28.5929 30.8384 26.2246 41.4177 26.2246C51.997 26.2246 62.5736 28.5929 70.6483 33.3015L70.6485 33.3016C72.1682 34.187 73.5464 35.1285 74.7739 36.097C76.0094 37.074 77.0933 38.0865 78.036 39.1341L78.0388 39.1371C78.8236 39.995 79.5137 40.8881 80.0917 41.7968L80.0918 41.7969C80.2115 41.985 80.3222 42.164 80.4348 42.3459C80.5444 42.5326 80.6443 42.7088 80.7439 42.8937L80.7483 42.9019L80.753 42.9099C80.8575 43.0877 80.9457 43.2586 81.0372 43.4454L81.2355 43.8504C81.3072 43.9968 81.3698 44.1337 81.4327 44.2806L81.4355 44.287C81.6165 44.6935 81.7799 45.1101 81.9257 45.5277C81.9501 45.6116 81.9763 45.6942 82.0005 45.7704L82.0012 45.7726C82.0275 45.8557 82.0514 45.9313 82.0729 46.0059L82.073 46.0063C82.2405 46.5859 82.3862 47.1547 82.4857 47.7273L82.488 47.7407L82.4911 47.754C82.5249 47.9006 82.5502 48.0473 82.567 48.1846L82.5677 48.19C82.6234 48.6069 82.6686 49.0245 82.6865 49.4376ZM68.9707 63.7479L68.9729 63.7507C75.3725 59.9723 79.021 55.1822 79.021 50.1969L79.021 50.1949C79.0011 45.1703 75.2943 40.3616 68.8191 36.5933C61.5208 32.3352 51.7592 30.0169 41.3988 30.0169C31.0383 30.0169 21.3509 32.3353 14.146 36.5851C7.82255 40.315 4.1827 45.0182 4.1827 50.0619C4.1827 55.1056 7.88865 59.9439 14.3351 63.7413C21.5774 68.0198 31.2833 70.3577 41.6538 70.3577C52.0192 70.3577 61.7204 68.0221 68.9707 63.7479Z" fill="#080E24" stroke="url(#paint6_linear_802_1592)"/>
<path d="M82.6865 49.4376L82.6872 49.4538L82.689 49.47C82.6916 49.4935 82.6937 49.5174 82.6955 49.5417V49.9559V49.9565V49.9571V49.9577V49.9583V49.959V49.9596V49.9602V49.9609V49.9615V49.9621V49.9627V49.9634V49.964V49.9646V49.9653V49.9659V49.9665V49.9672V49.9678V49.9685V49.9691V49.9697V49.9704V49.971V49.9717V49.9723V49.973V49.9736V49.9743V49.9749V49.9755V49.9762V49.9768V49.9775V49.9782V49.9788V49.9795V49.9801V49.9808V49.9814V49.9821V49.9827V49.9834V49.9841V49.9847V49.9854V49.986V49.9867V49.9874V49.988V49.9887V49.9894V49.99V49.9907V49.9914V49.9921V49.9927V49.9934V49.9941V49.9948V49.9954V49.9961V49.9968V49.9975V49.9981V49.9988V49.9995V50.0002V50.0009V50.0015V50.0022V50.0029V50.0036V50.0043V50.005V50.0057V50.0064V50.0071V50.0077V50.0084V50.0091V50.0098V50.0105V50.0112V50.0119V50.0126V50.0133V50.014V50.0147V50.0154V50.0161V50.0168V50.0175V50.0182V50.0189V50.0197V50.0204V50.0211V50.0218V50.0225V50.0232V50.0239V50.0246V50.0253V50.0261V50.0268V50.0275V50.0282V50.0289V50.0297V50.0304V50.0311V50.0318V50.0325V50.0333V50.034V50.0347V50.0355V50.0362V50.0369V50.0376V50.0384V50.0391V50.0398V50.0406V50.0413V50.0421V50.0428V50.0435V50.0443V50.045V50.0457V50.0465V50.0472V50.048V50.0487V50.0495V50.0502V50.051V50.0517V50.0525V50.0532V50.054V50.0547V50.0555V50.0562V50.057V50.0577V50.0585V50.0593V50.06V50.0608V50.0615V50.0623V50.0631V50.0638V50.0646V50.0654V50.0661V50.0669V50.0677V50.0684V50.0692V50.07V50.0707V50.0715V50.0723V50.0731V50.0738V50.0746V50.0754V50.0762V50.077V50.0777V50.0785V50.0793V50.0801V50.0809V50.0817V50.0824V50.0832V50.084V50.0848V50.0856V50.0864V50.0872V50.088V50.0888V50.0896V50.0904V50.0912V50.092V50.0928V50.0936V50.0944V50.0952V50.096V50.0968V50.0976V50.0984V50.0992V50.1V50.1008V50.1016V50.1024V50.1032V50.1041V50.1049V50.1057V50.1065V50.1073V50.1081V50.109V50.1098V50.1106V50.1114V50.1122V50.1131V50.1139V50.1147V50.1155V50.1164V50.1172V50.118V50.1189V50.1197V50.1205V50.1214V50.1222V50.123V50.1239V50.1247V50.1255V50.1264V50.1272V50.1281V50.1289V50.1297V50.1306V50.1314V50.1323V50.1331V50.134V50.1348V50.1357V50.1365V50.1374V50.1382V50.1391V50.1399V50.1408V50.1416V50.1425V50.1434V50.1442V50.1451V50.146V50.1468V50.1477V50.1485V50.1494V50.1503V50.1511V50.152V50.1529V50.1538V50.1546V50.1555V50.1564V50.1572V50.1581V50.159V50.1599V50.1608V50.1616V50.1625V50.1634V50.1643V50.1652V50.1661V50.1669V50.1678V50.1687V50.1696V50.1705V50.1714V50.1723V50.1732V50.1741V50.175V50.1759V50.1768V50.1777V50.1786V50.1795V50.1804V50.1813V50.1822V50.1831V50.184V50.1849V50.1858V50.1867V50.1876V50.1885V50.1894V50.1903V50.1912V50.1922V50.1931V50.194V50.1949V50.1958V50.1967V50.1977V50.1986V50.1995V50.2004V50.2014V50.2023V50.2032V50.2041V50.2051V50.206V50.2069V50.2079V50.2088V50.2097V50.2107V50.2116V50.2125V50.2135V50.2144V50.2153V50.2163V50.2172V50.2182V50.2191V50.2201V50.221V50.222V50.2229V50.2239V50.2248V50.2258V50.2267V50.2277V50.2286V50.2296V50.2305V50.2315V50.2324V50.2334V50.2344V50.2353V50.2363V50.2372V50.2382V50.2392V50.2401V50.2411V50.2421V50.2431V50.244V50.245V50.246V50.2469V50.2479V50.2489V50.2499V50.2508V50.2518V50.2528V50.2538V50.2548V50.2558V50.2567V50.2577V50.2587V50.2597V50.2607V50.2617V50.2627V50.2637V50.2647V50.2656V50.2666V50.2676V50.2686V50.2696V50.2706V50.2716V50.2726V50.2736V50.2746V50.2756V50.2766V50.2777V50.2787V50.2797V50.2807V50.2817V50.2827V50.2837V50.2847V50.2857V50.2868V50.2878V50.2888V50.2898V50.2908V50.2919V50.2929V50.2939V50.2949V50.2959V50.297V50.298V50.299V50.3001V50.3011V50.3021V50.3032V50.3042V50.3052V50.3063V50.3073V50.3083V50.3094V50.3104V50.3115V50.3125V50.3135V50.3146V50.3156V50.3167V50.3177V50.3188V50.3198V50.3209V50.3219V50.323V50.324V50.3251V50.3262V50.3272V50.3283V50.3293V50.3304V50.3315V50.3325V50.3336V50.3346V50.3357V50.3368V50.3378V50.3389V50.34V50.3411V50.3421V50.3432V50.3443V50.3454V50.3464V50.3475V50.3486V50.3497V50.3507V50.3518V50.3529V50.354V50.3551V50.3562V50.3573V50.3583V50.3594V50.3605V50.3616V50.3627V50.3638V50.3649V50.366V50.3671V50.3682V50.3693V50.3704V50.3715V50.3726V50.3737V50.3748V50.3759V50.377V50.3781V50.3792V50.3804V50.3815V50.3826V50.3837V50.3848V50.3859V50.387V50.3882V50.3893V50.3904V50.3915V50.3926V50.3938V50.3949V50.396V50.3964C82.6215 56.3325 78.722 62.3559 70.807 67.0162L70.8068 67.0164C62.7801 71.748 52.2281 74.1282 41.6491 74.1282C31.0701 74.1282 20.518 71.748 12.4914 67.0164L12.4911 67.0162C4.42474 62.2689 0.499469 56.1122 0.517643 50.0634V50.0619C0.517643 49.8034 0.526693 49.535 0.544837 49.2664L0.545974 49.2495V49.2327C0.545974 49.1913 0.549126 49.1447 0.554107 49.076L0.554581 49.0695C0.558567 49.0146 0.56372 48.9437 0.564696 48.8709C0.666148 47.7303 0.903086 46.5809 1.28429 45.4595L1.28432 45.4595L1.28621 45.4538C1.34133 45.2849 1.394 45.1331 1.45403 44.9842L1.46037 44.9685L1.46563 44.9524C1.52379 44.7742 1.59409 44.6099 1.6763 44.4178C1.68884 44.3885 1.70167 44.3585 1.71477 44.3278L1.71972 44.3161L1.72408 44.3042C1.77182 44.1743 1.83847 44.0285 1.91154 43.8793L1.91164 43.8793L1.91606 43.8698C2.08138 43.5135 2.25598 43.1662 2.44937 42.8088C2.62316 42.4914 2.80716 42.1812 3.00394 41.8559C3.14452 41.6262 3.28692 41.3996 3.43512 41.1949L3.44218 41.1851L3.44877 41.175C3.55536 41.0118 3.67181 40.847 3.78916 40.6904L3.78918 40.6904L3.79193 40.6866C4.45544 39.7833 5.22216 38.8963 6.08369 38.0355C6.41686 37.7048 6.76874 37.3738 7.12995 37.0523C8.31856 35.9999 9.65717 34.9841 11.165 34.0242L11.165 34.0242L11.1682 34.0221C11.5502 33.7748 11.9317 33.5373 12.3315 33.2999C20.3104 28.5929 30.8384 26.2246 41.4177 26.2246C51.997 26.2246 62.5736 28.5929 70.6483 33.3015L70.6485 33.3016C72.1682 34.187 73.5464 35.1285 74.7739 36.097C76.0094 37.074 77.0933 38.0865 78.036 39.1341L78.0388 39.1371C78.8236 39.995 79.5137 40.8881 80.0917 41.7968L80.0918 41.7969C80.2115 41.985 80.3222 42.164 80.4348 42.3459C80.5444 42.5326 80.6443 42.7088 80.7439 42.8937L80.7483 42.9019L80.753 42.9099C80.8575 43.0877 80.9457 43.2586 81.0372 43.4454L81.2355 43.8504C81.3072 43.9968 81.3698 44.1337 81.4327 44.2806L81.4355 44.287C81.6165 44.6935 81.7799 45.1101 81.9257 45.5277C81.9501 45.6116 81.9763 45.6942 82.0005 45.7704L82.0012 45.7726C82.0275 45.8557 82.0514 45.9313 82.0729 46.0059L82.073 46.0063C82.2405 46.5859 82.3862 47.1547 82.4857 47.7273L82.488 47.7407L82.4911 47.754C82.5249 47.9006 82.5502 48.0473 82.567 48.1846L82.5677 48.19C82.6234 48.6069 82.6686 49.0245 82.6865 49.4376ZM68.9707 63.7479L68.9729 63.7507C75.3725 59.9723 79.021 55.1822 79.021 50.1969L79.021 50.1949C79.0011 45.1703 75.2943 40.3616 68.8191 36.5933C61.5208 32.3352 51.7592 30.0169 41.3988 30.0169C31.0383 30.0169 21.3509 32.3353 14.146 36.5851C7.82255 40.315 4.1827 45.0182 4.1827 50.0619C4.1827 55.1056 7.88865 59.9439 14.3351 63.7413C21.5774 68.0198 31.2833 70.3577 41.6538 70.3577C52.0192 70.3577 61.7204 68.0221 68.9707 63.7479Z" fill="#080E24" stroke="url(#paint7_linear_802_1592)"/>
<path d="M14.3094 35.8591L14.0421 35.4366L14.3094 35.8591C21.4229 31.3588 31.0533 28.8691 41.4168 28.8691C51.7804 28.8691 61.4884 31.3588 68.6987 35.8709L68.6992 35.8712C75.1291 39.8846 78.5377 44.8367 78.556 49.7725C78.556 49.8896 78.5542 50.0063 78.5506 50.1229C77.0262 46.4811 73.8201 43.0741 69.2292 40.2137C61.8282 35.5822 51.9459 33.0596 41.4168 33.0596C30.888 33.0596 21.0814 35.5822 13.7751 40.2043C9.31742 43.0129 6.1913 46.3643 4.69414 49.9488C4.69101 49.8407 4.68945 49.7324 4.68945 49.6239C4.68945 44.7288 8.03302 39.8298 14.3094 35.8591Z" fill="#080E24" stroke="url(#paint8_linear_802_1592)"/>
<path d="M14.3094 35.8591L14.0421 35.4366L14.3094 35.8591C21.4229 31.3588 31.0533 28.8691 41.4168 28.8691C51.7804 28.8691 61.4884 31.3588 68.6987 35.8709L68.6992 35.8712C75.1291 39.8846 78.5377 44.8367 78.556 49.7725C78.556 49.8896 78.5542 50.0063 78.5506 50.1229C77.0262 46.4811 73.8201 43.0741 69.2292 40.2137C61.8282 35.5822 51.9459 33.0596 41.4168 33.0596C30.888 33.0596 21.0814 35.5822 13.7751 40.2043C9.31742 43.0129 6.1913 46.3643 4.69414 49.9488C4.69101 49.8407 4.68945 49.7324 4.68945 49.6239C4.68945 44.7288 8.03302 39.8298 14.3094 35.8591Z" fill="#080E24" stroke="url(#paint9_linear_802_1592)"/>
<defs>
<linearGradient id="paint0_linear_802_1592" x1="105.933" y1="0" x2="105.933" y2="38.979" gradientUnits="userSpaceOnUse">
<stop stop-color="#1480FF"/>
<stop offset="1" stop-color="#4F7ECC"/>
</linearGradient>
<linearGradient id="paint1_linear_802_1592" x1="82.0124" y1="29.4004" x2="82.0124" y2="38.9873" gradientUnits="userSpaceOnUse">
<stop stop-color="#1480FF"/>
<stop offset="1" stop-color="#4F7ECC"/>
</linearGradient>
<linearGradient id="paint2_linear_802_1592" x1="77.5029" y1="31.293" x2="77.5029" y2="42.4286" gradientUnits="userSpaceOnUse">
<stop stop-color="#1480FF"/>
<stop offset="1" stop-color="#4F7ECC"/>
</linearGradient>
<linearGradient id="paint3_linear_802_1592" x1="77.5029" y1="31.293" x2="77.5029" y2="42.4286" gradientUnits="userSpaceOnUse">
<stop stop-color="#1480FF"/>
<stop offset="1" stop-color="#4F7ECC"/>
</linearGradient>
<linearGradient id="paint4_linear_802_1592" x1="41.6031" y1="25.7246" x2="41.6031" y2="81.2525" gradientUnits="userSpaceOnUse">
<stop stop-color="#1480FF"/>
<stop offset="1" stop-color="#4F7ECC"/>
</linearGradient>
<linearGradient id="paint5_linear_802_1592" x1="41.6031" y1="25.7246" x2="41.6031" y2="81.2525" gradientUnits="userSpaceOnUse">
<stop stop-color="#1480FF"/>
<stop offset="1" stop-color="#4F7ECC"/>
</linearGradient>
<linearGradient id="paint6_linear_802_1592" x1="41.6113" y1="25.7246" x2="41.6113" y2="74.6282" gradientUnits="userSpaceOnUse">
<stop stop-color="#1480FF"/>
<stop offset="1" stop-color="#4F7ECC"/>
</linearGradient>
<linearGradient id="paint7_linear_802_1592" x1="41.6113" y1="25.7246" x2="41.6113" y2="74.6282" gradientUnits="userSpaceOnUse">
<stop stop-color="#1480FF"/>
<stop offset="1" stop-color="#4F7ECC"/>
</linearGradient>
<linearGradient id="paint8_linear_802_1592" x1="41.6227" y1="28.3691" x2="41.6227" y2="52.3817" gradientUnits="userSpaceOnUse">
<stop stop-color="#1480FF"/>
<stop offset="1" stop-color="#4F7ECC"/>
</linearGradient>
<linearGradient id="paint9_linear_802_1592" x1="41.6227" y1="28.3691" x2="41.6227" y2="52.3817" gradientUnits="userSpaceOnUse">
<stop stop-color="#1480FF"/>
<stop offset="1" stop-color="#4F7ECC"/>
</linearGradient>
</defs>
</svg>
