<svg width="155" height="87" viewBox="0 0 155 87" fill="none" xmlns="http://www.w3.org/2000/svg">
<path d="M89.9124 27.1401L100.559 20.8238L100.545 26.005L89.8971 32.3227L89.9124 27.1401Z" fill="#080E24" stroke="url(#paint0_linear_802_1820)"/>
<path d="M34.106 20.8179L44.8368 27.1433L44.8228 32.3318L34.0907 26.0066L34.106 20.8179Z" fill="#080E24" stroke="url(#paint1_linear_802_1820)"/>
<path d="M77.4303 33.8595C77.7952 33.461 78.2537 33.0952 78.7958 32.7737C80.3129 31.8733 82.2764 31.4371 84.2147 31.4363C85.8481 31.4356 87.5022 31.744 88.8953 32.3794L88.9094 27.1453C87.6045 26.4481 85.9292 26.0881 84.2323 26.0889C82.4262 26.0896 80.65 26.4989 79.3232 27.2863L77.4303 33.8595ZM77.4303 33.8595L77.441 29.8963C77.441 29.8962 77.441 29.8962 77.441 29.8962C77.4435 29.0296 78.0017 28.0709 79.3232 27.2863L77.4303 33.8595Z" fill="#080E24" stroke="url(#paint2_linear_802_1820)"/>
<mask id="mask0_802_1820" style="mask-type:luminance" maskUnits="userSpaceOnUse" x="76" y="25" width="14" height="12">
<path d="M77.4283 33.8575C77.7933 33.459 78.2517 33.0933 78.7939 32.7718C80.311 31.8714 82.2744 31.4352 84.2128 31.4343C85.8461 31.4336 87.5002 31.7421 88.8933 32.3774L88.9075 27.1434C87.6026 26.4461 85.9273 26.0862 84.2303 26.0869C82.4243 26.0877 80.648 26.4969 79.3213 27.2844L77.4283 33.8575ZM77.4283 33.8575L77.439 29.8943C77.439 29.8943 77.439 29.8943 77.439 29.8942C77.4415 29.0277 77.9997 28.0689 79.3212 27.2844L77.4283 33.8575Z" fill="white" stroke="white"/>
</mask>
<g mask="url(#mask0_802_1820)">
<path d="M77.439 29.8929L77.439 29.8923C77.4402 29.0279 77.998 28.0677 79.3211 27.2832L79.3212 27.2831C81.4795 26.0021 84.7976 25.7383 87.4438 26.5434L89.1165 27.3144V32.471L87.7857 31.9563L87.7693 31.9499L87.7525 31.9448C84.8783 31.0594 81.2425 31.3172 78.7937 32.7706L78.7937 32.7706C78.2516 33.0924 77.7932 33.4583 77.4283 33.857L77.439 29.8929Z" stroke="url(#paint3_linear_802_1820)"/>
</g>
<path d="M47.2853 39.6198C47.2976 39.6235 47.3091 39.6274 47.3195 39.6314C49.7028 40.358 52.6457 40.2162 54.7902 39.2318L54.7906 39.2316C54.933 39.1664 55.071 39.0993 55.2039 39.0292L55.2181 33.7929C55.2102 33.7965 55.2023 33.8001 55.1945 33.8037L55.1924 33.8046C55.1714 33.814 55.1511 33.8237 55.1242 33.8366C55.1195 33.8389 55.1146 33.8412 55.1094 33.8437C55.0779 33.8588 55.0381 33.8777 54.995 33.8959M47.2853 39.6198L54.1402 33.6824C54.1201 33.6891 54.1 33.6959 54.0799 33.7027C53.9862 33.7344 53.8921 33.7663 53.7958 33.7938C53.7728 33.8005 53.7492 33.8063 53.7255 33.8122C53.7044 33.8175 53.6831 33.8228 53.6618 33.8288L53.6618 33.8288C53.5309 33.8654 53.4 33.9019 53.266 33.9338C53.2512 33.9369 53.236 33.9401 53.2208 33.9433C53.2056 33.9465 53.1904 33.9497 53.1756 33.9528M47.2853 39.6198C47.2825 39.6188 47.2795 39.6177 47.2764 39.6166C47.2683 39.6137 47.257 39.6099 47.2433 39.606C47.0789 39.5547 46.9167 39.4971 46.7542 39.4352L46.7542 39.4352L46.7493 39.4334C46.7026 39.4162 46.656 39.3972 46.6002 39.3744L46.5983 39.3737C46.4731 39.3231 46.3496 39.2691 46.2277 39.213L46.0185 39.6671L46.229 39.2136C46.2138 39.2065 46.1996 39.2 46.1863 39.1938C46.1485 39.1764 46.117 39.1619 46.0845 39.1458L46.0834 39.1453C45.9181 39.064 45.7619 38.9826 45.6147 38.8959L45.6146 38.8958C44.2655 38.1015 43.6987 37.1248 43.7012 36.2482L43.7012 36.2482L43.7119 32.2856M47.2853 39.6198L43.7119 32.2856M54.995 33.8959C54.9948 33.8961 54.9945 33.8962 54.9942 33.8963L54.7993 33.4358L54.9958 33.8956C54.9956 33.8957 54.9953 33.8958 54.995 33.8959ZM54.995 33.8959C54.953 33.9139 54.8676 33.9464 54.8182 33.9652C54.8 33.9722 54.7867 33.9773 54.7823 33.979L54.779 33.9804L54.779 33.9804C54.7572 33.989 54.7329 33.9988 54.7069 34.0093C54.6367 34.0377 54.554 34.0711 54.4748 34.0993L54.4721 34.1003L54.4721 34.1002C54.4366 34.1127 54.4015 34.1236 54.3752 34.1318L54.3725 34.1327C54.3429 34.1419 54.3232 34.1481 54.3054 34.1543L54.2993 34.1565L54.2993 34.1564C54.2814 34.1624 54.2629 34.1687 54.2437 34.1752C54.1502 34.2068 54.0429 34.2431 53.9345 34.2741C53.9024 34.2835 53.8717 34.2911 53.8503 34.2964L53.85 34.2965C53.8254 34.3026 53.811 34.3062 53.7974 34.31L53.7964 34.3103L53.7923 34.3115C53.664 34.3473 53.5251 34.3861 53.3815 34.4202L53.3711 34.4227L53.3711 34.4226L53.3233 34.4327L53.282 34.4414M53.282 34.4414C53.2829 34.4412 53.2838 34.441 53.2846 34.4408L53.1756 33.9528M53.282 34.4414C53.1335 34.4746 52.9756 34.5095 52.8143 34.5397L52.8071 34.5411L52.7997 34.5422L52.7433 34.5511C52.5783 34.58 52.4089 34.608 52.2358 34.6313L52.2025 34.6358H52.1967C50.469 34.8615 48.6307 34.7287 47.0159 34.2308C46.9911 34.2238 46.9691 34.2161 46.9551 34.2108C46.7696 34.1528 46.5907 34.089 46.418 34.0233C46.3826 34.0102 46.3492 33.9967 46.3225 33.9859L46.316 33.9833C46.2897 33.9726 46.2702 33.9647 46.2511 33.9574L46.2412 33.9537L46.2412 33.9536C46.0991 33.8962 45.9614 33.836 45.8284 33.7747C45.773 33.7498 45.7165 33.7235 45.6586 33.6949M53.282 34.4414L53.2807 34.4417L53.1756 33.9528M53.1756 33.9528C53.026 33.9863 52.8749 34.0197 52.7222 34.0483L52.6614 34.0578C52.4978 34.0865 52.3342 34.1135 52.169 34.1358C52.1627 34.1358 52.1565 34.1358 52.1519 34.1374C50.4814 34.3585 48.705 34.2297 47.1561 33.7508C47.1436 33.7476 47.1311 33.7429 47.1187 33.7381C46.9395 33.6824 46.7649 33.6204 46.5935 33.5551C46.5629 33.5439 46.5328 33.5316 46.5029 33.5195C46.478 33.5094 46.4532 33.4993 46.4283 33.4899C46.2943 33.4358 46.1634 33.3786 46.0357 33.3197L43.7119 32.2856M43.7119 32.2856C44.0853 32.6974 44.5578 33.0758 45.1233 33.4095C45.3001 33.5146 45.4831 33.6086 45.6586 33.6949M45.6586 33.6949C45.6584 33.6948 45.6582 33.6947 45.658 33.6946L45.8798 33.2465L45.6591 33.6952C45.659 33.6951 45.6588 33.695 45.6586 33.6949ZM52.169 34.6358H52.1698C52.167 34.6358 52.1663 34.6358 52.169 34.6358Z" fill="#080E24" stroke="url(#paint4_linear_802_1820)"/>
<path d="M67.9441 40.1736L78.5968 33.854L78.5828 39.0353L67.9301 45.3563L67.9441 40.1736Z" fill="#080E24" stroke="url(#paint5_linear_802_1820)"/>
<path d="M45.5919 26.4288L34.5897 19.9444L67.2262 0.580887L100.079 19.9456L89.4055 26.2773C87.9196 25.477 86.0636 25.0897 84.2337 25.0905C82.2952 25.0913 80.3317 25.5276 78.8146 26.428C77.2955 27.3294 76.4349 28.5771 76.4418 29.9201C76.4475 31.0472 77.0635 32.1057 78.1641 32.9482L67.4443 39.3076L55.9684 32.544L55.7136 32.3938L55.4593 32.5448C54.1326 33.3322 52.3563 33.7415 50.5502 33.7422C48.7443 33.743 46.9628 33.3353 45.6263 32.5472L45.6262 32.5472C44.285 31.7566 43.7172 30.787 43.7129 29.9145C43.7087 29.0431 44.2656 28.0768 45.5931 27.2897L46.3206 26.8583L45.5919 26.4288Z" fill="#080E24" stroke="url(#paint6_linear_802_1820)"/>
<path d="M56.2101 33.8483L66.9423 40.1736L66.9283 45.362L56.1961 39.0352L56.2101 33.8483Z" fill="#080E24" stroke="url(#paint7_linear_802_1820)"/>
<path d="M88.0441 37.5915L98.7856 43.9231L98.7716 49.11L88.0301 42.7784L88.0441 37.5915Z" fill="#080E24" stroke="url(#paint8_linear_802_1820)"/>
<path d="M96.9668 53.9737V46.9951L109.822 48.4643V56.0361C105.047 58.3813 99.5379 57.6467 96.9668 53.9737Z" fill="#080E24"/>
<path d="M96.9668 53.9737V46.9951L109.822 48.4643V56.0361C105.047 58.3813 99.5379 57.6467 96.9668 53.9737Z" stroke="black"/>
<path d="M96.9668 53.9737V46.9951L109.822 48.4643V56.0361C105.047 58.3813 99.5379 57.6467 96.9668 53.9737Z" stroke="url(#paint9_linear_802_1820)"/>
<path d="M100.843 35.3292C99.7316 34.9787 98.9024 34.596 98.3391 34.2093C97.6606 33.7433 97.4651 33.3432 97.4668 33.0593L97.4668 33.0592L97.4991 27.4147C98.262 27.2932 99.0453 27.285 99.6547 27.5444C99.9975 27.6904 100.287 27.9216 100.499 28.2814C100.714 28.6465 100.866 29.1753 100.874 29.9404L100.843 35.3292Z" fill="#080E24" stroke="url(#paint10_linear_802_1820)"/>
<path d="M99.5407 43.2071L88.5292 36.7163L99.4562 30.234L100.183 29.8026L99.455 29.3732C98.1031 28.5763 97.5092 27.6208 97.4916 26.7622C97.4741 25.9117 98.0192 24.9468 99.4173 24.1172C100.747 23.3281 102.524 22.9189 104.329 22.9189C106.135 22.9189 107.917 23.328 109.257 24.1179L109.511 24.2681L109.766 24.1172L121.166 17.3543L154.019 36.7191L121.384 56.081L109.899 49.3111L109.623 49.149L109.361 49.3302C109.349 49.3382 109.339 49.3455 109.329 49.352C109.282 49.3849 109.257 49.4017 109.229 49.4177L109.229 49.4176L109.22 49.4232C107.89 50.2123 106.113 50.6215 104.308 50.6219C102.503 50.6222 100.723 50.2138 99.3865 49.4257L99.3865 49.4256C97.9915 48.6033 97.2645 47.6896 97.1877 46.8697C97.1158 46.1013 97.6039 45.1445 99.3419 44.1746L99.3499 44.1702L99.3577 44.1654C99.3943 44.1432 99.4386 44.1208 99.5099 44.0853L100.334 43.6745L99.5407 43.2071Z" fill="#080E24" stroke="url(#paint11_linear_802_1820)"/>
<path d="M121.884 56.9472L154.498 37.5972L154.484 42.7784L121.87 62.1284L121.884 56.9472Z" fill="#080E24" stroke="url(#paint12_linear_802_1820)"/>
<path d="M110.142 50.6159L120.883 56.9475L120.869 62.1345L110.128 55.8043L110.142 50.6159Z" fill="#080E24" stroke="url(#paint13_linear_802_1820)"/>
<path d="M56.3211 47.0753L66.9501 40.7701L66.9349 45.9512L56.3071 52.2565L56.3211 47.0753Z" fill="#080E24" stroke="url(#paint14_linear_802_1820)"/>
<mask id="mask1_802_1820" style="mask-type:luminance" maskUnits="userSpaceOnUse" x="43" y="45" width="13" height="12">
<path d="M55.3196 47.0809L55.3054 52.3148C53.9105 51.6779 52.2561 51.3679 50.6222 51.3679C48.6837 51.3679 46.7205 51.8043 45.2011 52.7063L45.201 52.7063C44.661 53.027 44.2043 53.3916 43.8404 53.7889L43.8511 49.8239C43.8511 49.8239 43.8511 49.8239 43.8511 49.8239C43.8536 48.9585 44.4108 47.9999 45.7284 47.2189L45.7286 47.2188C47.0586 46.4297 48.8349 46.0205 50.6405 46.0205C52.3372 46.0205 54.0125 46.3818 55.3196 47.0809Z" fill="white" stroke="white"/>
</mask>
<g mask="url(#mask1_802_1820)">
<path d="M55.3055 52.3148C55.0485 52.1975 54.7829 52.0915 54.5107 51.9965L54.525 46.7146C54.8025 46.8242 55.0682 46.9464 55.3197 47.0808L55.3055 52.3148Z" fill="#080E24" stroke="url(#paint15_linear_802_1820)"/>
<path d="M43.8404 53.789C44.2043 53.3916 44.6611 53.0271 45.2014 52.7069C47.4715 51.3591 50.7551 51.0387 53.5114 51.7042L53.5258 46.388C50.9375 45.6978 47.8018 45.9901 45.7288 47.2195L43.8404 53.789ZM43.8404 53.789L43.8511 49.8248C43.8511 49.8247 43.8511 49.8247 43.8511 49.8247C43.8536 48.9596 44.4105 48.0025 45.7285 47.2197L43.8404 53.789Z" fill="#080E24" stroke="url(#paint16_linear_802_1820)"/>
</g>
<path d="M55.7175 33.5545L66.4707 39.8922L55.8172 46.2127C54.329 45.4109 52.4729 45.0219 50.6427 45.0219C48.7042 45.0219 46.741 45.4583 45.2216 46.3603C43.7053 47.2602 42.8461 48.5073 42.8541 49.8504C42.8608 50.9776 43.4778 52.0368 44.5804 52.8805L33.8607 59.2398L0.999895 39.8719L33.6115 20.5242L44.4069 26.8868C43.316 27.7303 42.7118 28.79 42.7185 29.9173C42.7265 31.259 43.5992 32.5044 45.1263 33.4046C46.6551 34.3057 48.6225 34.7421 50.5606 34.7425C52.3894 34.7429 54.2398 34.3551 55.7175 33.5545Z" fill="#080E24" stroke="url(#paint17_linear_802_1820)"/>
<path d="M34.3582 60.1058L45.0106 53.7849L44.9953 58.9675L34.3442 65.287L34.3582 60.1058Z" fill="#080E24" stroke="url(#paint18_linear_802_1820)"/>
<path d="M0.514783 40.7468L33.3587 60.1057L33.3447 65.2926L0.500772 45.9352L0.514783 40.7468Z" fill="#080E24" stroke="url(#paint19_linear_802_1820)"/>
<path d="M78.7089 52.858C78.0747 53.2698 77.5693 53.7458 77.2104 54.2646L75.475 45.5517C75.685 45.5948 75.9869 45.7041 76.3639 45.8743C76.7989 46.0708 77.28 46.323 77.7457 46.5728C77.843 46.625 77.9401 46.6773 78.0359 46.7289C78.2779 46.8594 78.5124 46.9857 78.7244 47.0958L78.7089 52.858Z" fill="#080E24" stroke="url(#paint20_linear_802_1820)"/>
<path d="M67.7123 79.1826L34.8593 59.8179L45.7863 53.3355L46.5135 52.9041L45.7851 52.4748C44.4435 51.6839 43.8747 50.7149 43.8695 49.8429C43.8643 48.9724 44.4199 48.0066 45.7475 47.2187C47.0774 46.4296 48.8537 46.0205 50.6593 46.0205C52.4647 46.0205 54.246 46.4296 55.5851 47.2194L55.8399 47.3697L56.0942 47.2188L67.4942 40.4559L78.2894 46.8183C77.1959 47.6629 76.5902 48.7234 76.5966 49.8513C76.6041 51.1935 77.4773 52.4385 79.0043 53.3378C80.5301 54.2375 82.4966 54.673 84.4347 54.6726C86.2639 54.6722 88.1159 54.2835 89.5956 53.4814L100.349 59.8194L67.7123 79.1826Z" fill="#080E24" stroke="url(#paint21_linear_802_1820)"/>
<path d="M68.2132 80.0498L100.828 60.6997L100.814 65.8825L68.1979 85.2324L68.2132 80.0498Z" fill="#080E24" stroke="url(#paint22_linear_802_1820)"/>
<path d="M34.3742 60.694L67.2134 80.0497L67.1981 85.2384L34.3601 65.8825L34.3742 60.694Z" fill="#080E24" stroke="url(#paint23_linear_802_1820)"/>
<defs>
<linearGradient id="paint0_linear_802_1820" x1="95.2279" y1="19.9443" x2="95.2279" y2="33.2023" gradientUnits="userSpaceOnUse">
<stop stop-color="#1480FF"/>
<stop offset="1" stop-color="#4F7ECC"/>
</linearGradient>
<linearGradient id="paint1_linear_802_1820" x1="39.4637" y1="19.9443" x2="39.4637" y2="33.2055" gradientUnits="userSpaceOnUse">
<stop stop-color="#1480FF"/>
<stop offset="1" stop-color="#4F7ECC"/>
</linearGradient>
<linearGradient id="paint2_linear_802_1820" x1="83.167" y1="25.5889" x2="83.167" y2="36.2423" gradientUnits="userSpaceOnUse">
<stop stop-color="#1480FF"/>
<stop offset="1" stop-color="#4F7ECC"/>
</linearGradient>
<linearGradient id="paint3_linear_802_1820" x1="82.2722" y1="25.5859" x2="82.2722" y2="36.239" gradientUnits="userSpaceOnUse">
<stop stop-color="#1480FF"/>
<stop offset="1" stop-color="#4F7ECC"/>
</linearGradient>
<linearGradient id="paint4_linear_802_1820" x1="49.4607" y1="29.8994" x2="49.4607" y2="40.5892" gradientUnits="userSpaceOnUse">
<stop stop-color="#1480FF"/>
<stop offset="1" stop-color="#4F7ECC"/>
</linearGradient>
<linearGradient id="paint5_linear_802_1820" x1="73.2634" y1="32.9746" x2="73.2634" y2="46.2358" gradientUnits="userSpaceOnUse">
<stop stop-color="#1480FF"/>
<stop offset="1" stop-color="#4F7ECC"/>
</linearGradient>
<linearGradient id="paint6_linear_802_1820" x1="67.3345" y1="0" x2="67.3345" y2="39.8885" gradientUnits="userSpaceOnUse">
<stop stop-color="#1480FF"/>
<stop offset="1" stop-color="#4F7ECC"/>
</linearGradient>
<linearGradient id="paint7_linear_802_1820" x1="61.5692" y1="32.9746" x2="61.5692" y2="46.2358" gradientUnits="userSpaceOnUse">
<stop stop-color="#1480FF"/>
<stop offset="1" stop-color="#4F7ECC"/>
</linearGradient>
<linearGradient id="paint8_linear_802_1820" x1="93.4078" y1="36.7178" x2="93.4078" y2="49.9837" gradientUnits="userSpaceOnUse">
<stop stop-color="#1480FF"/>
<stop offset="1" stop-color="#4F7ECC"/>
</linearGradient>
<linearGradient id="paint9_linear_802_1820" x1="103.762" y1="48.4643" x2="103.762" y2="57.022" gradientUnits="userSpaceOnUse">
<stop stop-color="#1480FF"/>
<stop offset="1" stop-color="#4F7ECC"/>
</linearGradient>
<linearGradient id="paint10_linear_802_1820" x1="99.1706" y1="26.9978" x2="99.1706" y2="35.9971" gradientUnits="userSpaceOnUse">
<stop stop-color="#1480FF"/>
<stop offset="1" stop-color="#4F7ECC"/>
</linearGradient>
<linearGradient id="paint11_linear_802_1820" x1="121.274" y1="16.7734" x2="121.274" y2="56.6619" gradientUnits="userSpaceOnUse">
<stop stop-color="#1480FF"/>
<stop offset="1" stop-color="#4F7ECC"/>
</linearGradient>
<linearGradient id="paint12_linear_802_1820" x1="138.184" y1="36.7178" x2="138.184" y2="63.0078" gradientUnits="userSpaceOnUse">
<stop stop-color="#1480FF"/>
<stop offset="1" stop-color="#4F7ECC"/>
</linearGradient>
<linearGradient id="paint13_linear_802_1820" x1="115.506" y1="49.7422" x2="115.506" y2="63.0081" gradientUnits="userSpaceOnUse">
<stop stop-color="#1480FF"/>
<stop offset="1" stop-color="#4F7ECC"/>
</linearGradient>
<linearGradient id="paint14_linear_802_1820" x1="61.6287" y1="39.8906" x2="61.6287" y2="53.1359" gradientUnits="userSpaceOnUse">
<stop stop-color="#1480FF"/>
<stop offset="1" stop-color="#4F7ECC"/>
</linearGradient>
<linearGradient id="paint15_linear_802_1820" x1="54.9151" y1="46.0107" x2="54.9151" y2="53.1361" gradientUnits="userSpaceOnUse">
<stop stop-color="#1480FF"/>
<stop offset="1" stop-color="#4F7ECC"/>
</linearGradient>
<linearGradient id="paint16_linear_802_1820" x1="48.6804" y1="45.5225" x2="48.6804" y2="56.1708" gradientUnits="userSpaceOnUse">
<stop stop-color="#1480FF"/>
<stop offset="1" stop-color="#4F7ECC"/>
</linearGradient>
<linearGradient id="paint17_linear_802_1820" x1="33.7353" y1="19.9434" x2="33.7353" y2="59.8207" gradientUnits="userSpaceOnUse">
<stop stop-color="#1480FF"/>
<stop offset="1" stop-color="#4F7ECC"/>
</linearGradient>
<linearGradient id="paint18_linear_802_1820" x1="39.6775" y1="52.9053" x2="39.6775" y2="66.1664" gradientUnits="userSpaceOnUse">
<stop stop-color="#1480FF"/>
<stop offset="1" stop-color="#4F7ECC"/>
</linearGradient>
<linearGradient id="paint19_linear_802_1820" x1="16.9298" y1="39.873" x2="16.9298" y2="66.1663" gradientUnits="userSpaceOnUse">
<stop stop-color="#1480FF"/>
<stop offset="1" stop-color="#4F7ECC"/>
</linearGradient>
<linearGradient id="paint20_linear_802_1820" x1="78.1532" y1="46.7889" x2="78.1532" y2="56.1748" gradientUnits="userSpaceOnUse">
<stop stop-color="#1480FF"/>
<stop offset="1" stop-color="#4F7ECC"/>
</linearGradient>
<linearGradient id="paint21_linear_802_1820" x1="67.604" y1="39.875" x2="67.604" y2="79.7635" gradientUnits="userSpaceOnUse">
<stop stop-color="#1480FF"/>
<stop offset="1" stop-color="#4F7ECC"/>
</linearGradient>
<linearGradient id="paint22_linear_802_1820" x1="84.5129" y1="59.8203" x2="84.5129" y2="86.112" gradientUnits="userSpaceOnUse">
<stop stop-color="#1480FF"/>
<stop offset="1" stop-color="#4F7ECC"/>
</linearGradient>
<linearGradient id="paint23_linear_802_1820" x1="50.7868" y1="59.8203" x2="50.7868" y2="86.112" gradientUnits="userSpaceOnUse">
<stop stop-color="#1480FF"/>
<stop offset="1" stop-color="#4F7ECC"/>
</linearGradient>
</defs>
</svg>
