<svg width="173" height="103" viewBox="0 0 173 103" fill="none" xmlns="http://www.w3.org/2000/svg">
<path d="M26.9368 66.7269C26.9153 66.7269 26.8938 66.7225 26.8723 66.7094L1.06369 51.4973C1.00352 51.4622 0.982026 51.3832 1.01641 51.3174C1.05079 51.2559 1.12815 51.234 1.19262 51.2691L26.9368 66.4417L88.0266 30.4364C88.0653 30.4144 88.1169 30.4144 88.1556 30.4364L128.861 54.4282L155.714 38.6019C155.774 38.5668 155.851 38.5887 155.89 38.6501C155.924 38.7115 155.903 38.7905 155.843 38.83L128.925 54.6959C128.886 54.7178 128.835 54.7178 128.796 54.6959L88.0911 30.704L27.0013 66.7094C27.0013 66.7094 26.9583 66.7269 26.9368 66.7269Z" stroke="url(#paint0_linear_802_1805)"/>
<path d="M182.864 85.155C182.842 85.155 182.821 85.1506 182.799 85.1374L147.699 64.4495L130.679 74.4315C130.64 74.4534 130.593 74.4534 130.55 74.4315L45.2031 24.1223C45.1645 24.1004 45.1387 24.0565 45.1387 24.0082C45.1387 23.96 45.1645 23.9205 45.2031 23.8941L84.1074 1.01675C84.1676 0.981651 84.2449 1.00359 84.2836 1.06502C84.318 1.12644 84.2965 1.20542 84.2363 1.24491L45.5255 24.0126L130.623 74.1726L147.643 64.1906C147.681 64.1687 147.729 64.1687 147.772 64.1906L182.937 84.918C182.997 84.9531 183.018 85.0321 182.984 85.0979C182.962 85.1374 182.92 85.1638 182.872 85.1638L182.864 85.155Z" stroke="url(#paint1_linear_802_1805)"/>
<path d="M103.79 102.474C103.769 102.474 103.747 102.469 103.726 102.456L77.6719 87.0994C77.6332 87.0774 77.6074 87.0336 77.6074 86.9853C77.6074 86.937 77.6332 86.8976 77.6719 86.8712L110.078 67.7716C110.138 67.7365 110.215 67.7585 110.254 67.8199C110.288 67.8813 110.267 67.9603 110.207 67.9998L77.9942 86.9853L103.854 102.228C103.915 102.263 103.936 102.342 103.902 102.408C103.88 102.448 103.837 102.474 103.79 102.474Z" stroke="url(#paint2_linear_802_1805)"/>
<path d="M112.937 93.0795C112.915 93.0795 112.894 93.0752 112.872 93.062L1.06759 27.159C1.00742 27.1239 0.985932 27.0449 1.02032 26.9791C1.0547 26.9177 1.13206 26.8957 1.19653 26.9308L113.005 92.8338C113.066 92.8689 113.087 92.9479 113.053 93.0137C113.031 93.0532 112.988 93.0795 112.941 93.0795H112.937Z" stroke="url(#paint3_linear_802_1805)"/>
<path d="M56.8292 74.7913C56.8077 74.7913 56.7862 74.7869 56.7647 74.7738L19.8203 52.9977C19.7816 52.9758 19.7559 52.9319 19.7559 52.8836C19.7559 52.8354 19.7816 52.7959 19.8203 52.7695L52.2262 33.67C52.2864 33.6349 52.3637 33.6568 52.4024 33.7182C52.4368 33.7796 52.4153 33.8586 52.3551 33.8981L20.1427 52.888L56.8335 74.5149L144.841 22.6437C144.901 22.6086 144.978 22.6305 145.017 22.692C145.051 22.7534 145.03 22.8324 144.97 22.8719L56.9023 74.7826C56.9023 74.7826 56.8593 74.8001 56.8378 74.8001L56.8292 74.7913Z" stroke="url(#paint4_linear_802_1805)"/>
<path d="M66.9554 12.0258C68.7691 13.0964 70.4839 14.6013 72.0097 16.3784C74.1285 9.43265 80.5882 7.2783 88.2341 11.7844C94.5605 15.514 100.07 22.8458 102.989 30.612C103.956 30.6427 105.03 30.9674 106.173 31.6387C110.299 34.0695 113.647 39.9885 113.647 44.8544C113.647 44.9597 113.639 45.0563 113.634 45.1572C114.812 45.2405 116.114 45.6661 117.481 46.4735C122.759 49.5843 127.039 57.1531 127.039 63.3748C127.039 69.5966 122.759 72.1195 117.481 69.0086L66.9597 39.2294C60.5859 35.4736 55.4199 26.3384 55.4199 18.8267C55.4199 11.315 60.5859 8.26991 66.9597 12.0258H66.9554Z" fill="#080E24"/>
<path d="M66.9554 12.0258C68.7691 13.0964 70.4839 14.6013 72.0097 16.3784C74.1285 9.43265 80.5882 7.2783 88.2341 11.7844C94.5605 15.514 100.07 22.8458 102.989 30.612C103.956 30.6427 105.03 30.9674 106.173 31.6387C110.299 34.0695 113.647 39.9885 113.647 44.8544C113.647 44.9597 113.639 45.0563 113.634 45.1572C114.812 45.2405 116.114 45.6661 117.481 46.4735C122.759 49.5843 127.039 57.1531 127.039 63.3748C127.039 69.5966 122.759 72.1195 117.481 69.0086L66.9597 39.2294C60.5859 35.4736 55.4199 26.3384 55.4199 18.8267C55.4199 11.315 60.5859 8.26991 66.9597 12.0258H66.9554Z" stroke="black"/>
<path d="M66.9554 12.0258C68.7691 13.0964 70.4839 14.6013 72.0097 16.3784C74.1285 9.43265 80.5882 7.2783 88.2341 11.7844C94.5605 15.514 100.07 22.8458 102.989 30.612C103.956 30.6427 105.03 30.9674 106.173 31.6387C110.299 34.0695 113.647 39.9885 113.647 44.8544C113.647 44.9597 113.639 45.0563 113.634 45.1572C114.812 45.2405 116.114 45.6661 117.481 46.4735C122.759 49.5843 127.039 57.1531 127.039 63.3748C127.039 69.5966 122.759 72.1195 117.481 69.0086L66.9597 39.2294C60.5859 35.4736 55.4199 26.3384 55.4199 18.8267C55.4199 11.315 60.5859 8.26991 66.9597 12.0258H66.9554Z" stroke="url(#paint5_linear_802_1805)"/>
<path d="M66.9554 12.0256C68.0084 12.6443 69.0227 13.4165 69.9897 14.2985L75.6371 10.9682C78.7401 8.74365 83.2357 8.84018 88.2341 11.7843C94.5605 15.5139 100.07 22.8457 102.989 30.6119C103.956 30.6426 105.03 30.9673 106.173 31.6386C110.299 34.0694 113.647 39.9883 113.647 44.8543C113.647 44.9596 113.639 45.0561 113.634 45.157C114.812 45.2404 116.114 45.666 117.481 46.4733C122.759 49.5842 127.039 57.153 127.039 63.3747C127.039 66.4593 125.987 68.6312 124.285 69.6623H124.289L124.246 69.6886C124.246 69.6886 124.242 69.6886 124.237 69.693L110.398 77.8936L107.377 63.05L66.9597 39.2293C60.5859 35.4734 55.4199 26.3383 55.4199 18.8266C55.4199 11.3148 60.5859 8.26978 66.9597 12.0256H66.9554Z" fill="#080E24"/>
<path d="M66.9554 12.0256C68.0084 12.6443 69.0227 13.4165 69.9897 14.2985L75.6371 10.9682C78.7401 8.74365 83.2357 8.84018 88.2341 11.7843C94.5605 15.5139 100.07 22.8457 102.989 30.6119C103.956 30.6426 105.03 30.9673 106.173 31.6386C110.299 34.0694 113.647 39.9883 113.647 44.8543C113.647 44.9596 113.639 45.0561 113.634 45.157C114.812 45.2404 116.114 45.666 117.481 46.4733C122.759 49.5842 127.039 57.153 127.039 63.3747C127.039 66.4593 125.987 68.6312 124.285 69.6623H124.289L124.246 69.6886C124.246 69.6886 124.242 69.6886 124.237 69.693L110.398 77.8936L107.377 63.05L66.9597 39.2293C60.5859 35.4734 55.4199 26.3383 55.4199 18.8266C55.4199 11.3148 60.5859 8.26978 66.9597 12.0256H66.9554Z" stroke="black"/>
<path d="M66.9554 12.0256C68.0084 12.6443 69.0227 13.4165 69.9897 14.2985L75.6371 10.9682C78.7401 8.74365 83.2357 8.84018 88.2341 11.7843C94.5605 15.5139 100.07 22.8457 102.989 30.6119C103.956 30.6426 105.03 30.9673 106.173 31.6386C110.299 34.0694 113.647 39.9883 113.647 44.8543C113.647 44.9596 113.639 45.0561 113.634 45.157C114.812 45.2404 116.114 45.666 117.481 46.4733C122.759 49.5842 127.039 57.153 127.039 63.3747C127.039 66.4593 125.987 68.6312 124.285 69.6623H124.289L124.246 69.6886C124.246 69.6886 124.242 69.6886 124.237 69.693L110.398 77.8936L107.377 63.05L66.9597 39.2293C60.5859 35.4734 55.4199 26.3383 55.4199 18.8266C55.4199 11.3148 60.5859 8.26978 66.9597 12.0256H66.9554Z" stroke="url(#paint6_linear_802_1805)"/>
<path d="M44.7148 19.5544L58.7345 11.2398C60.8275 9.97172 63.7372 10.1297 66.9563 12.0295C68.0093 12.6482 69.0235 13.4204 69.9906 14.3024L75.638 10.9721C78.741 8.74756 83.2366 8.84409 88.235 11.7882C94.5614 15.5178 100.071 22.8496 102.99 30.6158C103.957 30.6465 105.031 30.9712 106.174 31.6425C110.3 34.0733 113.648 39.9923 113.648 44.8582C113.648 44.9635 113.64 45.06 113.635 45.161C114.813 45.2443 116.115 45.6699 117.482 46.4773C122.76 49.5881 127.04 57.1569 127.04 63.3786C127.04 66.4632 125.987 68.6351 124.285 69.6662H124.29L124.247 69.6925C124.247 69.6925 124.242 69.6925 124.238 69.6969L110.399 77.8975L107.378 63.0539L66.9606 39.2332C61.7945 36.1881 57.4236 29.611 55.9538 23.2269L44.7191 19.5632L44.7148 19.5544Z" fill="#080E24"/>
<path d="M44.7148 19.5544L58.7345 11.2398C60.8275 9.97172 63.7372 10.1297 66.9563 12.0295C68.0093 12.6482 69.0235 13.4204 69.9906 14.3024L75.638 10.9721C78.741 8.74756 83.2366 8.84409 88.235 11.7882C94.5614 15.5178 100.071 22.8496 102.99 30.6158C103.957 30.6465 105.031 30.9712 106.174 31.6425C110.3 34.0733 113.648 39.9923 113.648 44.8582C113.648 44.9635 113.64 45.06 113.635 45.161C114.813 45.2443 116.115 45.6699 117.482 46.4773C122.76 49.5881 127.04 57.1569 127.04 63.3786C127.04 66.4632 125.987 68.6351 124.285 69.6662H124.29L124.247 69.6925C124.247 69.6925 124.242 69.6925 124.238 69.6969L110.399 77.8975L107.378 63.0539L66.9606 39.2332C61.7945 36.1881 57.4236 29.611 55.9538 23.2269L44.7191 19.5632L44.7148 19.5544Z" stroke="black"/>
<path d="M44.7148 19.5544L58.7345 11.2398C60.8275 9.97172 63.7372 10.1297 66.9563 12.0295C68.0093 12.6482 69.0235 13.4204 69.9906 14.3024L75.638 10.9721C78.741 8.74756 83.2366 8.84409 88.235 11.7882C94.5614 15.5178 100.071 22.8496 102.99 30.6158C103.957 30.6465 105.031 30.9712 106.174 31.6425C110.3 34.0733 113.648 39.9923 113.648 44.8582C113.648 44.9635 113.64 45.06 113.635 45.161C114.813 45.2443 116.115 45.6699 117.482 46.4773C122.76 49.5881 127.04 57.1569 127.04 63.3786C127.04 66.4632 125.987 68.6351 124.285 69.6662H124.29L124.247 69.6925C124.247 69.6925 124.242 69.6925 124.238 69.6969L110.399 77.8975L107.378 63.0539L66.9606 39.2332C61.7945 36.1881 57.4236 29.611 55.9538 23.2269L44.7191 19.5632L44.7148 19.5544Z" stroke="url(#paint7_linear_802_1805)"/>
<path d="M53.0745 20.2523C54.8882 21.3229 56.6031 22.8279 58.1288 24.6049C60.2477 17.6592 66.7073 15.5049 74.3532 20.011C80.6797 23.7405 86.1896 31.0724 89.1078 38.8386C90.0748 38.8693 91.1493 39.194 92.2925 39.8653C96.4185 42.2961 99.7665 48.215 99.7665 53.081C99.7665 53.1863 99.7579 53.2828 99.7536 53.3837C100.931 53.4671 102.233 53.8927 103.6 54.7C108.878 57.8109 113.159 65.3797 113.159 71.6014C113.159 77.8231 108.878 80.3461 103.6 77.2352L53.0788 47.456C46.7051 43.7001 41.5391 34.565 41.5391 27.0532C41.5391 19.5415 46.7051 16.4965 53.0788 20.2523H53.0745Z" fill="#080E24"/>
<path d="M53.0745 20.2523C54.8882 21.3229 56.6031 22.8279 58.1288 24.6049C60.2477 17.6592 66.7073 15.5049 74.3532 20.011C80.6797 23.7405 86.1896 31.0724 89.1078 38.8386C90.0748 38.8693 91.1493 39.194 92.2925 39.8653C96.4185 42.2961 99.7665 48.215 99.7665 53.081C99.7665 53.1863 99.7579 53.2828 99.7536 53.3837C100.931 53.4671 102.233 53.8927 103.6 54.7C108.878 57.8109 113.159 65.3797 113.159 71.6014C113.159 77.8231 108.878 80.3461 103.6 77.2352L53.0788 47.456C46.7051 43.7001 41.5391 34.565 41.5391 27.0532C41.5391 19.5415 46.7051 16.4965 53.0788 20.2523H53.0745Z" stroke="black"/>
<path d="M53.0745 20.2523C54.8882 21.3229 56.6031 22.8279 58.1288 24.6049C60.2477 17.6592 66.7073 15.5049 74.3532 20.011C80.6797 23.7405 86.1896 31.0724 89.1078 38.8386C90.0748 38.8693 91.1493 39.194 92.2925 39.8653C96.4185 42.2961 99.7665 48.215 99.7665 53.081C99.7665 53.1863 99.7579 53.2828 99.7536 53.3837C100.931 53.4671 102.233 53.8927 103.6 54.7C108.878 57.8109 113.159 65.3797 113.159 71.6014C113.159 77.8231 108.878 80.3461 103.6 77.2352L53.0788 47.456C46.7051 43.7001 41.5391 34.565 41.5391 27.0532C41.5391 19.5415 46.7051 16.4965 53.0788 20.2523H53.0745Z" stroke="url(#paint8_linear_802_1805)"/>
<defs>
<linearGradient id="paint0_linear_802_1805" x1="78.4531" y1="30.4199" x2="78.4531" y2="66.7269" gradientUnits="userSpaceOnUse">
<stop stop-color="#1480FF"/>
<stop offset="1" stop-color="#4F7ECC"/>
</linearGradient>
<linearGradient id="paint1_linear_802_1805" x1="114.07" y1="1" x2="114.07" y2="85.1638" gradientUnits="userSpaceOnUse">
<stop stop-color="#1480FF"/>
<stop offset="1" stop-color="#4F7ECC"/>
</linearGradient>
<linearGradient id="paint2_linear_802_1805" x1="93.9389" y1="67.7549" x2="93.9389" y2="102.474" gradientUnits="userSpaceOnUse">
<stop stop-color="#1480FF"/>
<stop offset="1" stop-color="#4F7ECC"/>
</linearGradient>
<linearGradient id="paint3_linear_802_1805" x1="57.0365" y1="26.9141" x2="57.0365" y2="93.0795" gradientUnits="userSpaceOnUse">
<stop stop-color="#1480FF"/>
<stop offset="1" stop-color="#4F7ECC"/>
</linearGradient>
<linearGradient id="paint4_linear_802_1805" x1="82.3947" y1="22.627" x2="82.3947" y2="74.8001" gradientUnits="userSpaceOnUse">
<stop stop-color="#1480FF"/>
<stop offset="1" stop-color="#4F7ECC"/>
</linearGradient>
<linearGradient id="paint5_linear_802_1805" x1="91.2297" y1="9.41992" x2="91.2297" y2="70.3409" gradientUnits="userSpaceOnUse">
<stop stop-color="#1480FF"/>
<stop offset="1" stop-color="#4F7ECC"/>
</linearGradient>
<linearGradient id="paint6_linear_802_1805" x1="91.2297" y1="9.42285" x2="91.2297" y2="77.8936" gradientUnits="userSpaceOnUse">
<stop stop-color="#1480FF"/>
<stop offset="1" stop-color="#4F7ECC"/>
</linearGradient>
<linearGradient id="paint7_linear_802_1805" x1="85.8776" y1="9.42676" x2="85.8776" y2="77.8975" gradientUnits="userSpaceOnUse">
<stop stop-color="#1480FF"/>
<stop offset="1" stop-color="#4F7ECC"/>
</linearGradient>
<linearGradient id="paint8_linear_802_1805" x1="77.3489" y1="17.6465" x2="77.3489" y2="78.5674" gradientUnits="userSpaceOnUse">
<stop stop-color="#1480FF"/>
<stop offset="1" stop-color="#4F7ECC"/>
</linearGradient>
</defs>
</svg>
