<svg width="32" height="32" viewBox="0 0 32 32" fill="none" xmlns="http://www.w3.org/2000/svg">
<path d="M28.3337 24.6265L26.1337 25.1465C25.6403 25.2665 25.2537 25.6398 25.147 26.1332L24.6803 28.0932C24.427 29.1598 23.067 29.4932 22.3603 28.6532L18.3737 24.0665C18.0537 23.6932 18.227 23.1065 18.707 22.9865C21.067 22.4132 23.187 21.0932 24.747 19.2132C25.0003 18.9065 25.4537 18.8665 25.7337 19.1465L28.6937 22.1065C29.707 23.1198 29.347 24.3865 28.3337 24.6265Z" fill="white"/>
<path d="M28.3337 24.6265L26.1337 25.1465C25.6403 25.2665 25.2537 25.6398 25.147 26.1332L24.6803 28.0932C24.427 29.1598 23.067 29.4932 22.3603 28.6532L18.3737 24.0665C18.0537 23.6932 18.227 23.1065 18.707 22.9865C21.067 22.4132 23.187 21.0932 24.747 19.2132C25.0003 18.9065 25.4537 18.8665 25.7337 19.1465L28.6937 22.1065C29.707 23.1198 29.347 24.3865 28.3337 24.6265Z" fill="url(#paint0_linear_807_64)"/>
<path d="M28.3337 24.6265L26.1337 25.1465C25.6403 25.2665 25.2537 25.6398 25.147 26.1332L24.6803 28.0932C24.427 29.1598 23.067 29.4932 22.3603 28.6532L18.3737 24.0665C18.0537 23.6932 18.227 23.1065 18.707 22.9865C21.067 22.4132 23.187 21.0932 24.747 19.2132C25.0003 18.9065 25.4537 18.8665 25.7337 19.1465L28.6937 22.1065C29.707 23.1198 29.347 24.3865 28.3337 24.6265Z" fill="#B7D4FA"/>
<path d="M3.60022 24.6265L5.80022 25.1465C6.29355 25.2665 6.68022 25.6398 6.78688 26.1332L7.25355 28.0932C7.50688 29.1598 8.86688 29.4932 9.57355 28.6532L13.5602 24.0665C13.8802 23.6932 13.7069 23.1065 13.2269 22.9865C10.8669 22.4132 8.74688 21.0932 7.18688 19.2132C6.93355 18.9065 6.48022 18.8665 6.20022 19.1465L3.24022 22.1065C2.22688 23.1198 2.58688 24.3865 3.60022 24.6265Z" fill="white"/>
<path d="M3.60022 24.6265L5.80022 25.1465C6.29355 25.2665 6.68022 25.6398 6.78688 26.1332L7.25355 28.0932C7.50688 29.1598 8.86688 29.4932 9.57355 28.6532L13.5602 24.0665C13.8802 23.6932 13.7069 23.1065 13.2269 22.9865C10.8669 22.4132 8.74688 21.0932 7.18688 19.2132C6.93355 18.9065 6.48022 18.8665 6.20022 19.1465L3.24022 22.1065C2.22688 23.1198 2.58688 24.3865 3.60022 24.6265Z" fill="url(#paint1_linear_807_64)"/>
<path d="M3.60022 24.6265L5.80022 25.1465C6.29355 25.2665 6.68022 25.6398 6.78688 26.1332L7.25355 28.0932C7.50688 29.1598 8.86688 29.4932 9.57355 28.6532L13.5602 24.0665C13.8802 23.6932 13.7069 23.1065 13.2269 22.9865C10.8669 22.4132 8.74688 21.0932 7.18688 19.2132C6.93355 18.9065 6.48022 18.8665 6.20022 19.1465L3.24022 22.1065C2.22688 23.1198 2.58688 24.3865 3.60022 24.6265Z" fill="#B7D4FA"/>
<path d="M16.0003 2.66699C10.8403 2.66699 6.66699 6.84033 6.66699 12.0003C6.66699 13.9337 7.24033 15.707 8.22699 17.187C9.66699 19.3203 11.947 20.827 14.6003 21.2137C15.0537 21.2937 15.5203 21.3337 16.0003 21.3337C16.4803 21.3337 16.947 21.2937 17.4003 21.2137C20.0537 20.827 22.3337 19.3203 23.7737 17.187C24.7603 15.707 25.3337 13.9337 25.3337 12.0003C25.3337 6.84033 21.1603 2.66699 16.0003 2.66699ZM20.0803 11.707L18.9737 12.8137C18.787 13.0003 18.6803 13.3603 18.747 13.627L19.067 15.0003C19.3203 16.0803 18.747 16.507 17.787 15.9337L16.4537 15.147C16.2137 15.0003 15.8137 15.0003 15.5737 15.147L14.2403 15.9337C13.2803 16.4937 12.707 16.0803 12.9603 15.0003L13.2803 13.627C13.3337 13.3737 13.2403 13.0003 13.0537 12.8137L11.9203 11.707C11.267 11.0537 11.4803 10.4003 12.387 10.2537L13.8137 10.0137C14.0537 9.97366 14.3337 9.76033 14.4403 9.54699L15.227 7.97366C15.6537 7.12033 16.347 7.12033 16.7737 7.97366L17.5603 9.54699C17.667 9.76033 17.947 9.97366 18.2003 10.0137L19.627 10.2537C20.5203 10.4003 20.7337 11.0537 20.0803 11.707Z" fill="white"/>
<path d="M16.0003 2.66699C10.8403 2.66699 6.66699 6.84033 6.66699 12.0003C6.66699 13.9337 7.24033 15.707 8.22699 17.187C9.66699 19.3203 11.947 20.827 14.6003 21.2137C15.0537 21.2937 15.5203 21.3337 16.0003 21.3337C16.4803 21.3337 16.947 21.2937 17.4003 21.2137C20.0537 20.827 22.3337 19.3203 23.7737 17.187C24.7603 15.707 25.3337 13.9337 25.3337 12.0003C25.3337 6.84033 21.1603 2.66699 16.0003 2.66699ZM20.0803 11.707L18.9737 12.8137C18.787 13.0003 18.6803 13.3603 18.747 13.627L19.067 15.0003C19.3203 16.0803 18.747 16.507 17.787 15.9337L16.4537 15.147C16.2137 15.0003 15.8137 15.0003 15.5737 15.147L14.2403 15.9337C13.2803 16.4937 12.707 16.0803 12.9603 15.0003L13.2803 13.627C13.3337 13.3737 13.2403 13.0003 13.0537 12.8137L11.9203 11.707C11.267 11.0537 11.4803 10.4003 12.387 10.2537L13.8137 10.0137C14.0537 9.97366 14.3337 9.76033 14.4403 9.54699L15.227 7.97366C15.6537 7.12033 16.347 7.12033 16.7737 7.97366L17.5603 9.54699C17.667 9.76033 17.947 9.97366 18.2003 10.0137L19.627 10.2537C20.5203 10.4003 20.7337 11.0537 20.0803 11.707Z" fill="url(#paint2_linear_807_64)"/>
<path d="M16.0003 2.66699C10.8403 2.66699 6.66699 6.84033 6.66699 12.0003C6.66699 13.9337 7.24033 15.707 8.22699 17.187C9.66699 19.3203 11.947 20.827 14.6003 21.2137C15.0537 21.2937 15.5203 21.3337 16.0003 21.3337C16.4803 21.3337 16.947 21.2937 17.4003 21.2137C20.0537 20.827 22.3337 19.3203 23.7737 17.187C24.7603 15.707 25.3337 13.9337 25.3337 12.0003C25.3337 6.84033 21.1603 2.66699 16.0003 2.66699ZM20.0803 11.707L18.9737 12.8137C18.787 13.0003 18.6803 13.3603 18.747 13.627L19.067 15.0003C19.3203 16.0803 18.747 16.507 17.787 15.9337L16.4537 15.147C16.2137 15.0003 15.8137 15.0003 15.5737 15.147L14.2403 15.9337C13.2803 16.4937 12.707 16.0803 12.9603 15.0003L13.2803 13.627C13.3337 13.3737 13.2403 13.0003 13.0537 12.8137L11.9203 11.707C11.267 11.0537 11.4803 10.4003 12.387 10.2537L13.8137 10.0137C14.0537 9.97366 14.3337 9.76033 14.4403 9.54699L15.227 7.97366C15.6537 7.12033 16.347 7.12033 16.7737 7.97366L17.5603 9.54699C17.667 9.76033 17.947 9.97366 18.2003 10.0137L19.627 10.2537C20.5203 10.4003 20.7337 11.0537 20.0803 11.707Z" fill="#B7D4FA"/>
<defs>
<linearGradient id="paint0_linear_807_64" x1="23.754" y1="18.958" x2="23.754" y2="29.1267" gradientUnits="userSpaceOnUse">
<stop stop-color="#A7C8FF"/>
<stop offset="1" stop-color="#A6C7FF" stop-opacity="0"/>
</linearGradient>
<linearGradient id="paint1_linear_807_64" x1="8.17982" y1="18.958" x2="8.17982" y2="29.1267" gradientUnits="userSpaceOnUse">
<stop stop-color="#A7C8FF"/>
<stop offset="1" stop-color="#A6C7FF" stop-opacity="0"/>
</linearGradient>
<linearGradient id="paint2_linear_807_64" x1="16.0003" y1="2.66699" x2="16.0003" y2="21.3337" gradientUnits="userSpaceOnUse">
<stop stop-color="#A7C8FF"/>
<stop offset="1" stop-color="#A6C7FF" stop-opacity="0"/>
</linearGradient>
</defs>
</svg>
