<svg width="32" height="32" viewBox="0 0 32 32" fill="none" xmlns="http://www.w3.org/2000/svg">
<path d="M8.89366 18.667H5.33366C3.86699 18.667 2.66699 19.867 2.66699 21.3337V28.0003C2.66699 28.7337 3.26699 29.3337 4.00033 29.3337H8.89366C9.62699 29.3337 10.227 28.7337 10.227 28.0003V20.0003C10.227 19.267 9.62699 18.667 8.89366 18.667Z" fill="#B7D4FA"/>
<path d="M17.7735 13.333H14.2135C12.7469 13.333 11.5469 14.533 11.5469 15.9997V27.9997C11.5469 28.733 12.1469 29.333 12.8802 29.333H19.1069C19.8402 29.333 20.4402 28.733 20.4402 27.9997V15.9997C20.4402 14.533 19.2535 13.333 17.7735 13.333Z" fill="#B7D4FA"/>
<path d="M26.6668 22.667H23.1068C22.3734 22.667 21.7734 23.267 21.7734 24.0003V28.0003C21.7734 28.7337 22.3734 29.3337 23.1068 29.3337H28.0001C28.7334 29.3337 29.3334 28.7337 29.3334 28.0003V25.3337C29.3334 23.867 28.1334 22.667 26.6668 22.667Z" fill="#B7D4FA"/>
<path d="M20.0136 6.46697C20.4269 6.05363 20.5869 5.5603 20.4536 5.13363C20.3202 4.70697 19.9069 4.4003 19.3202 4.30697L18.0402 4.09363C17.9869 4.09363 17.8669 4.0003 17.8402 3.94697L17.1336 2.53363C16.6002 1.45363 15.3869 1.45363 14.8536 2.53363L14.1469 3.94697C14.1336 4.0003 14.0136 4.09363 13.9602 4.09363L12.6802 4.30697C12.0936 4.4003 11.6936 4.70697 11.5469 5.13363C11.4136 5.5603 11.5736 6.05363 11.9869 6.46697L12.9736 7.46697C13.0269 7.50697 13.0669 7.66697 13.0536 7.7203L12.7736 8.94697C12.5602 9.86697 12.9069 10.2803 13.1336 10.4403C13.3602 10.6003 13.8536 10.8136 14.6669 10.3336L15.8669 9.62697C15.9202 9.58697 16.0936 9.58697 16.1469 9.62697L17.3336 10.3336C17.7069 10.5603 18.0136 10.627 18.2536 10.627C18.5336 10.627 18.7336 10.5203 18.8536 10.4403C19.0802 10.2803 19.4269 9.86697 19.2136 8.94697L18.9336 7.7203C18.9202 7.65363 18.9602 7.50697 19.0136 7.46697L20.0136 6.46697Z" fill="#B7D4FA"/>
</svg>
