<svg width="32" height="32" viewBox="0 0 32 32" fill="none" xmlns="http://www.w3.org/2000/svg">
<path d="M21.587 2.66699H10.4137C5.56033 2.66699 2.66699 5.56033 2.66699 10.4137V21.587C2.66699 26.4403 5.56033 29.3337 10.4137 29.3337H21.587C26.4403 29.3337 29.3337 26.4403 29.3337 21.587V10.4137C29.3337 5.56033 26.4403 2.66699 21.587 2.66699ZM13.2937 19.867L10.2937 22.867C10.0937 23.067 9.84033 23.1603 9.58699 23.1603C9.33366 23.1603 9.06699 23.067 8.88033 22.867L7.88033 21.867C7.48033 21.4803 7.48033 20.8403 7.88033 20.4537C8.26699 20.067 8.89366 20.067 9.29366 20.4537L9.58699 20.747L11.8803 18.4537C12.267 18.067 12.8937 18.067 13.2937 18.4537C13.6803 18.8403 13.6803 19.4803 13.2937 19.867ZM13.2937 10.5337L10.2937 13.5337C10.0937 13.7337 9.84033 13.827 9.58699 13.827C9.33366 13.827 9.06699 13.7337 8.88033 13.5337L7.88033 12.5337C7.48033 12.147 7.48033 11.507 7.88033 11.1203C8.26699 10.7337 8.89366 10.7337 9.29366 11.1203L9.58699 11.4137L11.8803 9.12033C12.267 8.73366 12.8937 8.73366 13.2937 9.12033C13.6803 9.50699 13.6803 10.147 13.2937 10.5337ZM23.4137 22.1603H16.4137C15.867 22.1603 15.4137 21.707 15.4137 21.1603C15.4137 20.6137 15.867 20.1603 16.4137 20.1603H23.4137C23.9737 20.1603 24.4137 20.6137 24.4137 21.1603C24.4137 21.707 23.9737 22.1603 23.4137 22.1603ZM23.4137 12.827H16.4137C15.867 12.827 15.4137 12.3737 15.4137 11.827C15.4137 11.2803 15.867 10.827 16.4137 10.827H23.4137C23.9737 10.827 24.4137 11.2803 24.4137 11.827C24.4137 12.3737 23.9737 12.827 23.4137 12.827Z" fill="#B7D4FA"/>
</svg>
