<svg width="32" height="32" viewBox="0 0 32 32" fill="none" xmlns="http://www.w3.org/2000/svg">
<path d="M23.2667 23.0669C21.0267 23.0669 18.96 22.0136 17.6133 20.1602C17.2933 19.7202 17.3867 19.0936 17.8267 18.7602C18.2667 18.4269 18.8933 18.5336 19.2267 18.9736C20.2 20.2936 21.6667 21.0536 23.2667 21.0536C26.0533 21.0536 28.3333 18.7869 28.3333 15.9869C28.3333 13.1869 26.0667 10.9202 23.2667 10.9202C21.3733 10.9202 19.5867 11.9336 18.6133 13.5469L15.08 19.4269C13.7467 21.6536 11.3067 23.0269 8.71999 23.0269C4.82665 23.0269 1.65332 19.8536 1.65332 15.9602C1.65332 12.0669 4.82665 8.89355 8.71999 8.89355C10.96 8.89355 13.0267 9.94689 14.3733 11.8002C14.6933 12.2402 14.6 12.8669 14.16 13.2002C13.7067 13.5336 13.0933 13.4269 12.76 12.9869C11.8 11.6936 10.3333 10.9336 8.73332 10.9336C5.94665 10.9336 3.66665 13.2002 3.66665 16.0002C3.66665 18.8002 5.93332 21.0669 8.73332 21.0669C10.6267 21.0669 12.4133 20.0536 13.3867 18.4402L16.92 12.5602C18.2533 10.3336 20.6933 8.96022 23.28 8.96022C27.1733 8.96022 30.3467 12.1336 30.3467 16.0269C30.3467 19.9202 27.16 23.0669 23.2667 23.0669Z" fill="#B7D4FA"/>
<path d="M8.66667 18.6663C10.1394 18.6663 11.3333 17.4724 11.3333 15.9997C11.3333 14.5269 10.1394 13.333 8.66667 13.333C7.19391 13.333 6 14.5269 6 15.9997C6 17.4724 7.19391 18.6663 8.66667 18.6663Z" fill="#B7D4FA"/>
<path d="M23.3337 18.6663C24.8064 18.6663 26.0003 17.4724 26.0003 15.9997C26.0003 14.5269 24.8064 13.333 23.3337 13.333C21.8609 13.333 20.667 14.5269 20.667 15.9997C20.667 17.4724 21.8609 18.6663 23.3337 18.6663Z" fill="#B7D4FA"/>
</svg>
