<svg width="120" height="76" viewBox="0 0 120 76" fill="none" xmlns="http://www.w3.org/2000/svg">
<path d="M113.604 42.1279H113.604V34.1254C113.604 33.7713 113.377 33.3164 112.706 32.9213L113.604 42.1279ZM113.604 42.1279L113.604 42.1405C113.613 42.4853 113.393 42.9358 112.729 43.3239L112.727 43.3255L103.501 48.796M113.604 42.1279L103.501 48.796M103.501 48.796L103.501 48.7961L96.6732 52.8425L96.6729 52.8427L86.0885 59.1271M103.501 48.796L86.0885 59.1271M86.0885 59.1271L86.0884 59.1271L79.1062 63.2714M86.0885 59.1271L79.1062 63.2714M79.1062 63.2714L79.106 63.2715L62.1247 73.3448C62.1243 73.345 62.1239 73.3452 62.1236 73.3454C61.4246 73.7547 60.4598 73.9675 59.4837 73.9395L59.4766 73.9393H59.4694C59.1027 73.9393 58.7206 73.8855 58.3567 73.8014L58.3537 73.8007C58.0227 73.7263 57.7105 73.6199 57.4216 73.4768L57.3507 73.4373L57.3113 73.4153L57.2685 73.4008C57.2592 73.3976 57.2328 73.3855 57.1845 73.3546L57.1772 73.35L57.1698 73.3456L55.664 72.4565L55.664 72.4564L51.6561 70.0903L51.6557 70.0901L6.24762 43.3323L6.24752 43.3323C5.57192 42.9343 5.34533 42.4803 5.34967 42.1342H5.34971V42.1279V34.1254C5.34971 33.7663 5.57478 33.3118 6.22905 32.9189L6.22938 32.9187L6.64041 32.6714L6.64272 32.6701L11.2679 29.9213L11.2683 29.9211L56.8236 2.90728L56.8245 2.9068C57.482 2.51522 58.3771 2.30469 59.3005 2.30469C60.2238 2.30469 61.1213 2.51518 61.7831 2.90735L61.7841 2.90795L111.104 31.9791L111.105 31.9794L112.706 32.9211L79.1062 63.2714Z" fill="#080E24"/>
<path d="M113.604 42.1279H113.604V34.1254C113.604 33.7713 113.377 33.3164 112.706 32.9213L113.604 42.1279ZM113.604 42.1279L113.604 42.1405C113.613 42.4853 113.393 42.9358 112.729 43.3239L112.727 43.3255L103.501 48.796M113.604 42.1279L103.501 48.796M103.501 48.796L103.501 48.7961L96.6732 52.8425L96.6729 52.8427L86.0885 59.1271M103.501 48.796L86.0885 59.1271M86.0885 59.1271L86.0884 59.1271L79.1062 63.2714M86.0885 59.1271L79.1062 63.2714M79.1062 63.2714L79.106 63.2715L62.1247 73.3448C62.1243 73.345 62.1239 73.3452 62.1236 73.3454C61.4246 73.7547 60.4598 73.9675 59.4837 73.9395L59.4766 73.9393H59.4694C59.1027 73.9393 58.7206 73.8855 58.3567 73.8014L58.3537 73.8007C58.0227 73.7263 57.7105 73.6199 57.4216 73.4768L57.3507 73.4373L57.3113 73.4153L57.2685 73.4008C57.2592 73.3976 57.2328 73.3855 57.1845 73.3546L57.1772 73.35L57.1698 73.3456L55.664 72.4565L55.664 72.4564L51.6561 70.0903L51.6557 70.0901L6.24762 43.3323L6.24752 43.3323C5.57192 42.9343 5.34533 42.4803 5.34967 42.1342H5.34971V42.1279V34.1254C5.34971 33.7663 5.57478 33.3118 6.22905 32.9189L6.22938 32.9187L6.64041 32.6714L6.64272 32.6701L11.2679 29.9213L11.2683 29.9211L56.8236 2.90728L56.8245 2.9068C57.482 2.51522 58.3771 2.30469 59.3005 2.30469C60.2238 2.30469 61.1213 2.51518 61.7831 2.90735L61.7841 2.90795L111.104 31.9791L111.105 31.9794L112.706 32.9211L79.1062 63.2714Z" stroke="#E0F1FF"/>
<path d="M113.604 42.1279H113.604V34.1254C113.604 33.7713 113.377 33.3164 112.706 32.9213L113.604 42.1279ZM113.604 42.1279L113.604 42.1405C113.613 42.4853 113.393 42.9358 112.729 43.3239L112.727 43.3255L103.501 48.796M113.604 42.1279L103.501 48.796M103.501 48.796L103.501 48.7961L96.6732 52.8425L96.6729 52.8427L86.0885 59.1271M103.501 48.796L86.0885 59.1271M86.0885 59.1271L86.0884 59.1271L79.1062 63.2714M86.0885 59.1271L79.1062 63.2714M79.1062 63.2714L79.106 63.2715L62.1247 73.3448C62.1243 73.345 62.1239 73.3452 62.1236 73.3454C61.4246 73.7547 60.4598 73.9675 59.4837 73.9395L59.4766 73.9393H59.4694C59.1027 73.9393 58.7206 73.8855 58.3567 73.8014L58.3537 73.8007C58.0227 73.7263 57.7105 73.6199 57.4216 73.4768L57.3507 73.4373L57.3113 73.4153L57.2685 73.4008C57.2592 73.3976 57.2328 73.3855 57.1845 73.3546L57.1772 73.35L57.1698 73.3456L55.664 72.4565L55.664 72.4564L51.6561 70.0903L51.6557 70.0901L6.24762 43.3323L6.24752 43.3323C5.57192 42.9343 5.34533 42.4803 5.34967 42.1342H5.34971V42.1279V34.1254C5.34971 33.7663 5.57478 33.3118 6.22905 32.9189L6.22938 32.9187L6.64041 32.6714L6.64272 32.6701L11.2679 29.9213L11.2683 29.9211L56.8236 2.90728L56.8245 2.9068C57.482 2.51522 58.3771 2.30469 59.3005 2.30469C60.2238 2.30469 61.1213 2.51518 61.7831 2.90735L61.7841 2.90795L111.104 31.9791L111.105 31.9794L112.706 32.9211L79.1062 63.2714Z" stroke="url(#paint0_linear_789_1069)"/>
<path d="M59.75 66.2334V74.4393" stroke="#E0F1FF" stroke-miterlimit="10"/>
<path d="M59.75 66.2334V74.4393" stroke="url(#paint1_linear_789_1069)" stroke-miterlimit="10"/>
<path d="M13.2256 31.9159L16.6693 29.8711L6.14808 23.6655L2.70444 25.7102L13.2256 31.9159Z" fill="#080E24"/>
<path d="M13.2256 31.9159L16.6693 29.8711L6.14808 23.6655L2.70444 25.7102L13.2256 31.9159Z" stroke="#E0F1FF" stroke-width="0.5"/>
<path d="M13.2256 31.9159L16.6693 29.8711L6.14808 23.6655L2.70444 25.7102L13.2256 31.9159Z" stroke="url(#paint2_linear_789_1069)" stroke-width="0.5"/>
<path d="M16.918 30.2808L13.4765 32.3401V34.1077L16.918 32.0418V30.2808Z" fill="#080E24" stroke="url(#paint3_linear_789_1069)" stroke-width="0.5"/>
<path d="M2.46406 27.9182L12.9766 34.1187V32.3407L2.46406 26.1474V27.9182Z" fill="#080E24"/>
<path d="M2.46406 27.9182L12.9766 34.1187V32.3407L2.46406 26.1474V27.9182Z" stroke="#E0F1FF" stroke-width="0.5"/>
<path d="M2.46406 27.9182L12.9766 34.1187V32.3407L2.46406 26.1474V27.9182Z" stroke="url(#paint4_linear_789_1069)" stroke-width="0.5"/>
<path d="M27.1241 23.6102L30.5677 21.5655L20.0465 15.3598L16.6029 17.4046L27.1241 23.6102Z" fill="#080E24"/>
<path d="M27.1241 23.6102L30.5677 21.5655L20.0465 15.3598L16.6029 17.4046L27.1241 23.6102Z" stroke="#E0F1FF" stroke-width="0.5"/>
<path d="M27.1241 23.6102L30.5677 21.5655L20.0465 15.3598L16.6029 17.4046L27.1241 23.6102Z" stroke="url(#paint5_linear_789_1069)" stroke-width="0.5"/>
<path d="M30.8145 21.9761L27.373 24.0354V25.8031L30.8145 23.7371V21.9761Z" fill="#080E24" stroke="url(#paint6_linear_789_1069)" stroke-width="0.5"/>
<path d="M16.3605 19.6135L26.873 25.814V24.036L16.3605 17.8427V19.6135Z" fill="#080E24"/>
<path d="M16.3605 19.6135L26.873 25.814V24.036L16.3605 17.8427V19.6135Z" stroke="#E0F1FF" stroke-width="0.5"/>
<path d="M16.3605 19.6135L26.873 25.814V24.036L16.3605 17.8427V19.6135Z" stroke="url(#paint7_linear_789_1069)" stroke-width="0.5"/>
<path d="M39.669 16.075L43.1126 14.0303L32.5914 7.82468L29.1478 9.86941L39.669 16.075Z" fill="#080E24"/>
<path d="M39.669 16.075L43.1126 14.0303L32.5914 7.82468L29.1478 9.86941L39.669 16.075Z" stroke="#E0F1FF" stroke-width="0.5"/>
<path d="M39.669 16.075L43.1126 14.0303L32.5914 7.82468L29.1478 9.86941L39.669 16.075Z" stroke="url(#paint8_linear_789_1069)" stroke-width="0.5"/>
<path d="M43.3613 14.4409L39.9199 16.5003V18.2679L43.3613 16.202V14.4409Z" fill="#080E24" stroke="url(#paint9_linear_789_1069)" stroke-width="0.5"/>
<path d="M28.9074 12.0783L39.4199 18.2788V16.5009L28.9074 10.3076V12.0783Z" fill="#080E24"/>
<path d="M28.9074 12.0783L39.4199 18.2788V16.5009L28.9074 10.3076V12.0783Z" stroke="#E0F1FF" stroke-width="0.5"/>
<path d="M28.9074 12.0783L39.4199 18.2788V16.5009L28.9074 10.3076V12.0783Z" stroke="url(#paint10_linear_789_1069)" stroke-width="0.5"/>
<path d="M52.2198 8.54087L55.6634 6.49614L45.1422 0.290497L41.6986 2.33523L52.2198 8.54087Z" fill="#080E24"/>
<path d="M52.2198 8.54087L55.6634 6.49614L45.1422 0.290497L41.6986 2.33523L52.2198 8.54087Z" stroke="#E0F1FF" stroke-width="0.5"/>
<path d="M52.2198 8.54087L55.6634 6.49614L45.1422 0.290497L41.6986 2.33523L52.2198 8.54087Z" stroke="url(#paint11_linear_789_1069)" stroke-width="0.5"/>
<path d="M55.9102 6.90578L52.4687 8.96514V10.7327L55.9102 8.66681V6.90578Z" fill="#080E24" stroke="url(#paint12_linear_789_1069)" stroke-width="0.5"/>
<path d="M41.4562 4.54415L51.9688 10.7447V8.9667L41.4562 2.77338V4.54415Z" fill="#080E24"/>
<path d="M41.4562 4.54415L51.9688 10.7447V8.9667L41.4562 2.77338V4.54415Z" stroke="#E0F1FF" stroke-width="0.5"/>
<path d="M41.4562 4.54415L51.9688 10.7447V8.9667L41.4562 2.77338V4.54415Z" stroke="url(#paint13_linear_789_1069)" stroke-width="0.5"/>
<path d="M42.9345 73.3602L39.4909 71.3155L50.0121 65.1098L53.4557 67.1546L42.9345 73.3602Z" fill="#080E24"/>
<path d="M42.9345 73.3602L39.4909 71.3155L50.0121 65.1098L53.4557 67.1546L42.9345 73.3602Z" stroke="#E0F1FF" stroke-width="0.5"/>
<path d="M42.9345 73.3602L39.4909 71.3155L50.0121 65.1098L53.4557 67.1546L42.9345 73.3602Z" stroke="url(#paint14_linear_789_1069)" stroke-width="0.5"/>
<path d="M39.2422 71.7251L42.6837 73.7845V75.5521L39.2422 73.4861V71.7251Z" fill="#080E24" stroke="url(#paint15_linear_789_1069)" stroke-width="0.5"/>
<path d="M53.6961 69.3635L43.1836 75.564V73.786L53.6961 67.5927V69.3635Z" fill="#080E24"/>
<path d="M53.6961 69.3635L43.1836 75.564V73.786L53.6961 67.5927V69.3635Z" stroke="#E0F1FF" stroke-width="0.5"/>
<path d="M53.6961 69.3635L43.1836 75.564V73.786L53.6961 67.5927V69.3635Z" stroke="url(#paint16_linear_789_1069)" stroke-width="0.5"/>
<path d="M29.0361 65.0545L25.5924 63.0098L36.1136 56.8042L39.5573 58.8489L29.0361 65.0545Z" fill="#080E24"/>
<path d="M29.0361 65.0545L25.5924 63.0098L36.1136 56.8042L39.5573 58.8489L29.0361 65.0545Z" stroke="#E0F1FF" stroke-width="0.5"/>
<path d="M29.0361 65.0545L25.5924 63.0098L36.1136 56.8042L39.5573 58.8489L29.0361 65.0545Z" stroke="url(#paint17_linear_789_1069)" stroke-width="0.5"/>
<path d="M25.3457 63.4204L28.7872 65.4798V67.2474L25.3457 65.1815V63.4204Z" fill="#080E24" stroke="url(#paint18_linear_789_1069)" stroke-width="0.5"/>
<path d="M39.7996 61.0578L29.2871 67.2583V65.4804L39.7996 59.2871V61.0578Z" fill="#080E24"/>
<path d="M39.7996 61.0578L29.2871 67.2583V65.4804L39.7996 59.2871V61.0578Z" stroke="#E0F1FF" stroke-width="0.5"/>
<path d="M39.7996 61.0578L29.2871 67.2583V65.4804L39.7996 59.2871V61.0578Z" stroke="url(#paint19_linear_789_1069)" stroke-width="0.5"/>
<path d="M16.4912 57.5194L13.0475 55.4747L23.5687 49.269L27.0124 51.3137L16.4912 57.5194Z" fill="#080E24"/>
<path d="M16.4912 57.5194L13.0475 55.4747L23.5687 49.269L27.0124 51.3137L16.4912 57.5194Z" stroke="#E0F1FF" stroke-width="0.5"/>
<path d="M16.4912 57.5194L13.0475 55.4747L23.5687 49.269L27.0124 51.3137L16.4912 57.5194Z" stroke="url(#paint20_linear_789_1069)" stroke-width="0.5"/>
<path d="M12.7988 55.8853L16.2403 57.9446V59.7122L12.7988 57.6463V55.8853Z" fill="#080E24" stroke="url(#paint21_linear_789_1069)" stroke-width="0.5"/>
<path d="M27.2527 53.5227L16.7402 59.7232V57.9452L27.2527 51.7519V53.5227Z" fill="#080E24"/>
<path d="M27.2527 53.5227L16.7402 59.7232V57.9452L27.2527 51.7519V53.5227Z" stroke="#E0F1FF" stroke-width="0.5"/>
<path d="M27.2527 53.5227L16.7402 59.7232V57.9452L27.2527 51.7519V53.5227Z" stroke="url(#paint22_linear_789_1069)" stroke-width="0.5"/>
<path d="M3.94037 49.9852L0.496735 47.9405L11.0179 41.7348L14.4616 43.7796L3.94037 49.9852Z" fill="#080E24"/>
<path d="M3.94037 49.9852L0.496735 47.9405L11.0179 41.7348L14.4616 43.7796L3.94037 49.9852Z" stroke="#E0F1FF" stroke-width="0.5"/>
<path d="M3.94037 49.9852L0.496735 47.9405L11.0179 41.7348L14.4616 43.7796L3.94037 49.9852Z" stroke="url(#paint23_linear_789_1069)" stroke-width="0.5"/>
<path d="M0.25 48.3501L3.69147 50.4095V52.1771L0.25 50.1111V48.3501Z" fill="#080E24" stroke="url(#paint24_linear_789_1069)" stroke-width="0.5"/>
<path d="M14.7039 45.9885L4.19141 52.189V50.411L14.7039 44.2177V45.9885Z" fill="#080E24"/>
<path d="M14.7039 45.9885L4.19141 52.189V50.411L14.7039 44.2177V45.9885Z" stroke="#E0F1FF" stroke-width="0.5"/>
<path d="M14.7039 45.9885L4.19141 52.189V50.411L14.7039 44.2177V45.9885Z" stroke="url(#paint25_linear_789_1069)" stroke-width="0.5"/>
<path d="M76.7042 72.6043L80.1478 70.5596L69.6266 64.354L66.183 66.3987L76.7042 72.6043Z" fill="#080E24"/>
<path d="M76.7042 72.6043L80.1478 70.5596L69.6266 64.354L66.183 66.3987L76.7042 72.6043Z" stroke="#E0F1FF" stroke-width="0.5"/>
<path d="M76.7042 72.6043L80.1478 70.5596L69.6266 64.354L66.183 66.3987L76.7042 72.6043Z" stroke="url(#paint26_linear_789_1069)" stroke-width="0.5"/>
<path d="M80.3965 70.9702L76.955 73.0296V74.7972L80.3965 72.7313V70.9702Z" fill="#080E24" stroke="url(#paint27_linear_789_1069)" stroke-width="0.5"/>
<path d="M65.9426 68.6076L76.4551 74.8081V73.0302L65.9426 66.8369V68.6076Z" fill="#080E24"/>
<path d="M65.9426 68.6076L76.4551 74.8081V73.0302L65.9426 66.8369V68.6076Z" stroke="#E0F1FF" stroke-width="0.5"/>
<path d="M65.9426 68.6076L76.4551 74.8081V73.0302L65.9426 66.8369V68.6076Z" stroke="url(#paint28_linear_789_1069)" stroke-width="0.5"/>
<path d="M90.5987 64.3006L94.0423 62.2559L83.5211 56.0503L80.0775 58.095L90.5987 64.3006Z" fill="#080E24"/>
<path d="M90.5987 64.3006L94.0423 62.2559L83.5211 56.0503L80.0775 58.095L90.5987 64.3006Z" stroke="#E0F1FF" stroke-width="0.5"/>
<path d="M90.5987 64.3006L94.0423 62.2559L83.5211 56.0503L80.0775 58.095L90.5987 64.3006Z" stroke="url(#paint29_linear_789_1069)" stroke-width="0.5"/>
<path d="M94.291 62.6655L90.8495 64.7249V66.4925L94.291 64.4266V62.6655Z" fill="#080E24" stroke="url(#paint30_linear_789_1069)" stroke-width="0.5"/>
<path d="M79.8371 60.3039L90.3496 66.5044V64.7265L79.8371 58.5331V60.3039Z" fill="#080E24"/>
<path d="M79.8371 60.3039L90.3496 66.5044V64.7265L79.8371 58.5331V60.3039Z" stroke="#E0F1FF" stroke-width="0.5"/>
<path d="M79.8371 60.3039L90.3496 66.5044V64.7265L79.8371 58.5331V60.3039Z" stroke="url(#paint31_linear_789_1069)" stroke-width="0.5"/>
<path d="M103.149 56.7655L106.593 54.7208L96.0719 48.5151L92.6283 50.5598L103.149 56.7655Z" fill="#080E24"/>
<path d="M103.149 56.7655L106.593 54.7208L96.0719 48.5151L92.6283 50.5598L103.149 56.7655Z" stroke="#E0F1FF" stroke-width="0.5"/>
<path d="M103.149 56.7655L106.593 54.7208L96.0719 48.5151L92.6283 50.5598L103.149 56.7655Z" stroke="url(#paint32_linear_789_1069)" stroke-width="0.5"/>
<path d="M106.84 55.1314L103.398 57.1907V58.9583L106.84 56.8924V55.1314Z" fill="#080E24" stroke="url(#paint33_linear_789_1069)" stroke-width="0.5"/>
<path d="M92.3859 52.7688L102.898 58.9693V57.1913L92.3859 50.998V52.7688Z" fill="#080E24"/>
<path d="M92.3859 52.7688L102.898 58.9693V57.1913L92.3859 50.998V52.7688Z" stroke="#E0F1FF" stroke-width="0.5"/>
<path d="M92.3859 52.7688L102.898 58.9693V57.1913L92.3859 50.998V52.7688Z" stroke="url(#paint34_linear_789_1069)" stroke-width="0.5"/>
<path d="M115.696 49.2293L119.14 47.1846L108.619 40.979L105.175 43.0237L115.696 49.2293Z" fill="#080E24"/>
<path d="M115.696 49.2293L119.14 47.1846L108.619 40.979L105.175 43.0237L115.696 49.2293Z" stroke="#E0F1FF" stroke-width="0.5"/>
<path d="M115.696 49.2293L119.14 47.1846L108.619 40.979L105.175 43.0237L115.696 49.2293Z" stroke="url(#paint35_linear_789_1069)" stroke-width="0.5"/>
<path d="M119.389 47.5952L115.947 49.6546V51.4222L119.389 49.3563V47.5952Z" fill="#080E24" stroke="url(#paint36_linear_789_1069)" stroke-width="0.5"/>
<path d="M104.935 45.2326L115.447 51.4331V49.6552L104.935 43.4619V45.2326Z" fill="#080E24"/>
<path d="M104.935 45.2326L115.447 51.4331V49.6552L104.935 43.4619V45.2326Z" stroke="#E0F1FF" stroke-width="0.5"/>
<path d="M104.935 45.2326L115.447 51.4331V49.6552L104.935 43.4619V45.2326Z" stroke="url(#paint37_linear_789_1069)" stroke-width="0.5"/>
<path d="M107.145 31.9159L103.702 29.8711L114.223 23.6655L117.667 25.7102L107.145 31.9159Z" fill="#080E24"/>
<path d="M107.145 31.9159L103.702 29.8711L114.223 23.6655L117.667 25.7102L107.145 31.9159Z" stroke="#E0F1FF" stroke-width="0.5"/>
<path d="M107.145 31.9159L103.702 29.8711L114.223 23.6655L117.667 25.7102L107.145 31.9159Z" stroke="url(#paint38_linear_789_1069)" stroke-width="0.5"/>
<path d="M103.455 30.2808L106.897 32.3401V34.1077L103.455 32.0418V30.2808Z" fill="#080E24" stroke="url(#paint39_linear_789_1069)" stroke-width="0.5"/>
<path d="M117.909 27.9182L107.396 34.1187V32.3407L117.909 26.1474V27.9182Z" fill="#080E24"/>
<path d="M117.909 27.9182L107.396 34.1187V32.3407L117.909 26.1474V27.9182Z" stroke="#E0F1FF" stroke-width="0.5"/>
<path d="M117.909 27.9182L107.396 34.1187V32.3407L117.909 26.1474V27.9182Z" stroke="url(#paint40_linear_789_1069)" stroke-width="0.5"/>
<path d="M93.2509 23.6102L89.8073 21.5655L100.328 15.3598L103.772 17.4046L93.2509 23.6102Z" fill="#080E24"/>
<path d="M93.2509 23.6102L89.8073 21.5655L100.328 15.3598L103.772 17.4046L93.2509 23.6102Z" stroke="#E0F1FF" stroke-width="0.5"/>
<path d="M93.2509 23.6102L89.8073 21.5655L100.328 15.3598L103.772 17.4046L93.2509 23.6102Z" stroke="url(#paint41_linear_789_1069)" stroke-width="0.5"/>
<path d="M89.5586 21.9761L93.0001 24.0354V25.8031L89.5586 23.7371V21.9761Z" fill="#080E24" stroke="url(#paint42_linear_789_1069)" stroke-width="0.5"/>
<path d="M104.013 19.6135L93.5 25.814V24.036L104.013 17.8427V19.6135Z" fill="#080E24"/>
<path d="M104.013 19.6135L93.5 25.814V24.036L104.013 17.8427V19.6135Z" stroke="#E0F1FF" stroke-width="0.5"/>
<path d="M104.013 19.6135L93.5 25.814V24.036L104.013 17.8427V19.6135Z" stroke="url(#paint43_linear_789_1069)" stroke-width="0.5"/>
<path d="M80.704 16.075L77.2604 14.0303L87.7816 7.82468L91.2252 9.86941L80.704 16.075Z" fill="#080E24"/>
<path d="M80.704 16.075L77.2604 14.0303L87.7816 7.82468L91.2252 9.86941L80.704 16.075Z" stroke="#E0F1FF" stroke-width="0.5"/>
<path d="M80.704 16.075L77.2604 14.0303L87.7816 7.82468L91.2252 9.86941L80.704 16.075Z" stroke="url(#paint44_linear_789_1069)" stroke-width="0.5"/>
<path d="M77.0117 14.4409L80.4532 16.5003V18.2679L77.0117 16.202V14.4409Z" fill="#080E24" stroke="url(#paint45_linear_789_1069)" stroke-width="0.5"/>
<path d="M91.4656 12.0783L80.9531 18.2788V16.5009L91.4656 10.3076V12.0783Z" fill="#080E24"/>
<path d="M91.4656 12.0783L80.9531 18.2788V16.5009L91.4656 10.3076V12.0783Z" stroke="#E0F1FF" stroke-width="0.5"/>
<path d="M91.4656 12.0783L80.9531 18.2788V16.5009L91.4656 10.3076V12.0783Z" stroke="url(#paint46_linear_789_1069)" stroke-width="0.5"/>
<path d="M68.1533 8.54087L64.7096 6.49614L75.2308 0.290497L78.6745 2.33523L68.1533 8.54087Z" fill="#080E24"/>
<path d="M68.1533 8.54087L64.7096 6.49614L75.2308 0.290497L78.6745 2.33523L68.1533 8.54087Z" stroke="#E0F1FF" stroke-width="0.5"/>
<path d="M68.1533 8.54087L64.7096 6.49614L75.2308 0.290497L78.6745 2.33523L68.1533 8.54087Z" stroke="url(#paint47_linear_789_1069)" stroke-width="0.5"/>
<path d="M64.4629 6.90578L67.9044 8.96514V10.7327L64.4629 8.66681V6.90578Z" fill="#080E24" stroke="url(#paint48_linear_789_1069)" stroke-width="0.5"/>
<path d="M78.9168 4.54415L68.4043 10.7447V8.9667L78.9168 2.77338V4.54415Z" fill="#080E24"/>
<path d="M78.9168 4.54415L68.4043 10.7447V8.9667L78.9168 2.77338V4.54415Z" stroke="#E0F1FF" stroke-width="0.5"/>
<path d="M78.9168 4.54415L68.4043 10.7447V8.9667L78.9168 2.77338V4.54415Z" stroke="url(#paint49_linear_789_1069)" stroke-width="0.5"/>
<path d="M112.981 35.5423L62.3839 65.5553C60.8782 66.452 58.4277 66.452 56.9145 65.5553L5.99279 35.5423C4.47968 34.6456 4.46492 33.1988 5.97065 32.3021L29.6047 18.2864L56.5676 2.29655C58.0734 1.39985 60.5165 1.39985 62.037 2.29655L91.7383 19.8086L112.959 32.3096C114.472 33.2063 114.487 34.6531 112.981 35.5498V35.5423Z" fill="#080E24"/>
<path d="M112.981 35.5423L62.3839 65.5553C60.8782 66.452 58.4277 66.452 56.9145 65.5553L5.99279 35.5423C4.47968 34.6456 4.46492 33.1988 5.97065 32.3021L29.6047 18.2864L56.5676 2.29655C58.0734 1.39985 60.5165 1.39985 62.037 2.29655L91.7383 19.8086L112.959 32.3096C114.472 33.2063 114.487 34.6531 112.981 35.5498V35.5423Z" stroke="#E0F1FF" stroke-miterlimit="10"/>
<path d="M112.981 35.5423L62.3839 65.5553C60.8782 66.452 58.4277 66.452 56.9145 65.5553L5.99279 35.5423C4.47968 34.6456 4.46492 33.1988 5.97065 32.3021L29.6047 18.2864L56.5676 2.29655C58.0734 1.39985 60.5165 1.39985 62.037 2.29655L91.7383 19.8086L112.959 32.3096C114.472 33.2063 114.487 34.6531 112.981 35.5498V35.5423Z" stroke="url(#paint50_linear_789_1069)" stroke-miterlimit="10"/>
<path d="M104.53 32.5665C105.807 33.32 105.815 34.5407 104.545 35.2867L61.9272 60.5752C60.6576 61.3287 58.5983 61.3287 57.3214 60.5752L14.4154 35.2943C13.1385 34.5407 13.1311 33.32 14.4007 32.5665L57.0262 7.27804C58.2957 6.52451 60.355 6.52451 61.6319 7.27804L104.53 32.5665Z" fill="#080E24"/>
<path d="M104.53 32.5665C105.807 33.32 105.815 34.5407 104.545 35.2867L61.9272 60.5752C60.6576 61.3287 58.5983 61.3287 57.3214 60.5752L14.4154 35.2943C13.1385 34.5407 13.1311 33.32 14.4007 32.5665L57.0262 7.27804C58.2957 6.52451 60.355 6.52451 61.6319 7.27804L104.53 32.5665Z" stroke="#E0F1FF" stroke-miterlimit="10"/>
<path d="M104.53 32.5665C105.807 33.32 105.815 34.5407 104.545 35.2867L61.9272 60.5752C60.6576 61.3287 58.5983 61.3287 57.3214 60.5752L14.4154 35.2943C13.1385 34.5407 13.1311 33.32 14.4007 32.5665L57.0262 7.27804C58.2957 6.52451 60.355 6.52451 61.6319 7.27804L104.53 32.5665Z" stroke="url(#paint51_linear_789_1069)" stroke-miterlimit="10"/>
<mask id="path-53-inside-1_789_1069" fill="white">
<path d="M44.2852 25.989L72.5472 34.4511L66.2586 38.1585L61.2468 36.4178L54.3234 40.4869L57.202 43.4784L50.8765 47.1933L36.6016 30.4951L44.2852 25.9814V25.989ZM50.8322 37.0131L55.3568 34.3456L50.9724 32.8235C49.9834 32.4919 48.736 32.0474 47.2007 31.4973C45.6728 30.9547 44.5952 30.5554 43.9678 30.2916C44.3664 30.6383 45.0012 31.2185 45.8648 32.0398C46.7357 32.8612 48.3891 34.5189 50.8248 37.0056"/>
</mask>
<path d="M44.2852 25.989L72.5472 34.4511L66.2586 38.1585L61.2468 36.4178L54.3234 40.4869L57.202 43.4784L50.8765 47.1933L36.6016 30.4951L44.2852 25.9814V25.989ZM50.8322 37.0131L55.3568 34.3456L50.9724 32.8235C49.9834 32.4919 48.736 32.0474 47.2007 31.4973C45.6728 30.9547 44.5952 30.5554 43.9678 30.2916C44.3664 30.6383 45.0012 31.2185 45.8648 32.0398C46.7357 32.8612 48.3891 34.5189 50.8248 37.0056" fill="#080E24"/>
<path d="M44.2852 25.989H43.2852V26.7334L43.9984 26.947L44.2852 25.989ZM72.5472 34.4511L73.055 35.3126L75.0273 34.1498L72.834 33.4931L72.5472 34.4511ZM66.2586 38.1585L65.9305 39.1031L66.3677 39.255L66.7664 39.0199L66.2586 38.1585ZM61.2468 36.4178L61.5749 35.4732L61.1385 35.3216L60.7401 35.5557L61.2468 36.4178ZM54.3234 40.4869L53.8167 39.6248L52.724 40.267L53.6028 41.1803L54.3234 40.4869ZM57.202 43.4784L57.7084 44.3407L58.8017 43.6986L57.9226 42.785L57.202 43.4784ZM50.8765 47.1933L50.1164 47.8431L50.6606 48.4798L51.3829 48.0556L50.8765 47.1933ZM36.6016 30.4951L36.0951 29.6329L35.0658 30.2375L35.8415 31.1449L36.6016 30.4951ZM44.2852 25.9814H45.2852V24.2342L43.7787 25.1192L44.2852 25.9814ZM55.3568 34.3456L55.8646 35.2071L57.7261 34.1096L55.6847 33.4009L55.3568 34.3456ZM50.9724 32.8235L51.3004 31.8788L51.2903 31.8753L50.9724 32.8235ZM47.2007 31.4973L47.538 30.5559L47.5353 30.5549L47.2007 31.4973ZM43.9678 30.2916L44.3554 29.3698L43.3116 31.0462L43.9678 30.2916ZM45.8648 32.0398L45.1756 32.7644L45.1787 32.7673L45.8648 32.0398ZM43.9984 26.947L72.2604 35.4091L72.834 33.4931L44.5721 25.031L43.9984 26.947ZM72.0393 33.5897L65.7507 37.297L66.7664 39.0199L73.055 35.3126L72.0393 33.5897ZM66.5866 37.2138L61.5749 35.4732L60.9187 37.3625L65.9305 39.1031L66.5866 37.2138ZM60.7401 35.5557L53.8167 39.6248L54.8301 41.349L61.7535 37.28L60.7401 35.5557ZM53.6028 41.1803L56.4815 44.1718L57.9226 42.785L55.044 39.7935L53.6028 41.1803ZM56.6956 42.6161L50.3701 46.331L51.3829 48.0556L57.7084 44.3407L56.6956 42.6161ZM51.6366 46.5435L37.3617 29.8453L35.8415 31.1449L50.1164 47.8431L51.6366 46.5435ZM37.1081 31.3573L44.7917 26.8437L43.7787 25.1192L36.0951 29.6329L37.1081 31.3573ZM43.2852 25.9814V25.989H45.2852V25.9814H43.2852ZM51.3401 37.8745L55.8646 35.2071L54.8489 33.4842L50.3243 36.1517L51.3401 37.8745ZM55.6847 33.4009L51.3004 31.8788L50.6445 33.7682L55.0288 35.2903L55.6847 33.4009ZM51.2903 31.8753C50.3128 31.5477 49.0754 31.1067 47.538 30.5559L46.8634 32.4387C48.3965 32.988 49.654 33.4362 50.6546 33.7716L51.2903 31.8753ZM47.5353 30.5549C46.005 30.0115 44.9529 29.621 44.3554 29.3698L43.5803 31.2135C44.2375 31.4898 45.3407 31.898 46.8661 32.4396L47.5353 30.5549ZM43.3116 31.0462C43.6941 31.3788 44.3168 31.9476 45.1756 32.7644L46.5539 31.3152C45.6856 30.4893 45.0387 29.8977 44.6241 29.5371L43.3116 31.0462ZM45.1787 32.7673C46.0326 33.5727 47.6719 35.2158 50.1104 37.7053L51.5392 36.3058C49.1062 33.822 47.4388 32.1497 46.5508 31.3123L45.1787 32.7673Z" fill="#E0F1FF" mask="url(#path-53-inside-1_789_1069)"/>
<path d="M44.2852 25.989H43.2852V26.7334L43.9984 26.947L44.2852 25.989ZM72.5472 34.4511L73.055 35.3126L75.0273 34.1498L72.834 33.4931L72.5472 34.4511ZM66.2586 38.1585L65.9305 39.1031L66.3677 39.255L66.7664 39.0199L66.2586 38.1585ZM61.2468 36.4178L61.5749 35.4732L61.1385 35.3216L60.7401 35.5557L61.2468 36.4178ZM54.3234 40.4869L53.8167 39.6248L52.724 40.267L53.6028 41.1803L54.3234 40.4869ZM57.202 43.4784L57.7084 44.3407L58.8017 43.6986L57.9226 42.785L57.202 43.4784ZM50.8765 47.1933L50.1164 47.8431L50.6606 48.4798L51.3829 48.0556L50.8765 47.1933ZM36.6016 30.4951L36.0951 29.6329L35.0658 30.2375L35.8415 31.1449L36.6016 30.4951ZM44.2852 25.9814H45.2852V24.2342L43.7787 25.1192L44.2852 25.9814ZM55.3568 34.3456L55.8646 35.2071L57.7261 34.1096L55.6847 33.4009L55.3568 34.3456ZM50.9724 32.8235L51.3004 31.8788L51.2903 31.8753L50.9724 32.8235ZM47.2007 31.4973L47.538 30.5559L47.5353 30.5549L47.2007 31.4973ZM43.9678 30.2916L44.3554 29.3698L43.3116 31.0462L43.9678 30.2916ZM45.8648 32.0398L45.1756 32.7644L45.1787 32.7673L45.8648 32.0398ZM43.9984 26.947L72.2604 35.4091L72.834 33.4931L44.5721 25.031L43.9984 26.947ZM72.0393 33.5897L65.7507 37.297L66.7664 39.0199L73.055 35.3126L72.0393 33.5897ZM66.5866 37.2138L61.5749 35.4732L60.9187 37.3625L65.9305 39.1031L66.5866 37.2138ZM60.7401 35.5557L53.8167 39.6248L54.8301 41.349L61.7535 37.28L60.7401 35.5557ZM53.6028 41.1803L56.4815 44.1718L57.9226 42.785L55.044 39.7935L53.6028 41.1803ZM56.6956 42.6161L50.3701 46.331L51.3829 48.0556L57.7084 44.3407L56.6956 42.6161ZM51.6366 46.5435L37.3617 29.8453L35.8415 31.1449L50.1164 47.8431L51.6366 46.5435ZM37.1081 31.3573L44.7917 26.8437L43.7787 25.1192L36.0951 29.6329L37.1081 31.3573ZM43.2852 25.9814V25.989H45.2852V25.9814H43.2852ZM51.3401 37.8745L55.8646 35.2071L54.8489 33.4842L50.3243 36.1517L51.3401 37.8745ZM55.6847 33.4009L51.3004 31.8788L50.6445 33.7682L55.0288 35.2903L55.6847 33.4009ZM51.2903 31.8753C50.3128 31.5477 49.0754 31.1067 47.538 30.5559L46.8634 32.4387C48.3965 32.988 49.654 33.4362 50.6546 33.7716L51.2903 31.8753ZM47.5353 30.5549C46.005 30.0115 44.9529 29.621 44.3554 29.3698L43.5803 31.2135C44.2375 31.4898 45.3407 31.898 46.8661 32.4396L47.5353 30.5549ZM43.3116 31.0462C43.6941 31.3788 44.3168 31.9476 45.1756 32.7644L46.5539 31.3152C45.6856 30.4893 45.0387 29.8977 44.6241 29.5371L43.3116 31.0462ZM45.1787 32.7673C46.0326 33.5727 47.6719 35.2158 50.1104 37.7053L51.5392 36.3058C49.1062 33.822 47.4388 32.1497 46.5508 31.3123L45.1787 32.7673Z" fill="url(#paint52_linear_789_1069)" mask="url(#path-53-inside-1_789_1069)"/>
<path d="M74.8443 32.5205L54.6943 20.5429L59.5034 17.7222L79.6542 29.6931L74.8443 32.5205Z" fill="#080E24"/>
<path d="M74.8443 32.5205L54.6943 20.5429L59.5034 17.7222L79.6542 29.6931L74.8443 32.5205Z" stroke="#E0F1FF"/>
<path d="M74.8443 32.5205L54.6943 20.5429L59.5034 17.7222L79.6542 29.6931L74.8443 32.5205Z" stroke="url(#paint53_linear_789_1069)"/>
<defs>
<linearGradient id="paint0_linear_789_1069" x1="59.4769" y1="1.80469" x2="59.4769" y2="74.4419" gradientUnits="userSpaceOnUse">
<stop stop-color="#1480FF"/>
<stop offset="1" stop-color="#4F7ECC"/>
</linearGradient>
<linearGradient id="paint1_linear_789_1069" x1="60.25" y1="66.2334" x2="60.25" y2="74.4393" gradientUnits="userSpaceOnUse">
<stop stop-color="#1480FF"/>
<stop offset="1" stop-color="#4F7ECC"/>
</linearGradient>
<linearGradient id="paint2_linear_789_1069" x1="9.68686" y1="23.375" x2="9.68686" y2="32.2064" gradientUnits="userSpaceOnUse">
<stop stop-color="#1480FF"/>
<stop offset="1" stop-color="#4F7ECC"/>
</linearGradient>
<linearGradient id="paint3_linear_789_1069" x1="15.1972" y1="29.8398" x2="15.1972" y2="34.5494" gradientUnits="userSpaceOnUse">
<stop stop-color="#1480FF"/>
<stop offset="1" stop-color="#4F7ECC"/>
</linearGradient>
<linearGradient id="paint4_linear_789_1069" x1="7.72031" y1="25.71" x2="7.72031" y2="34.5564" gradientUnits="userSpaceOnUse">
<stop stop-color="#1480FF"/>
<stop offset="1" stop-color="#4F7ECC"/>
</linearGradient>
<linearGradient id="paint5_linear_789_1069" x1="23.5853" y1="15.0693" x2="23.5853" y2="23.9007" gradientUnits="userSpaceOnUse">
<stop stop-color="#1480FF"/>
<stop offset="1" stop-color="#4F7ECC"/>
</linearGradient>
<linearGradient id="paint6_linear_789_1069" x1="29.0937" y1="21.5352" x2="29.0937" y2="26.2447" gradientUnits="userSpaceOnUse">
<stop stop-color="#1480FF"/>
<stop offset="1" stop-color="#4F7ECC"/>
</linearGradient>
<linearGradient id="paint7_linear_789_1069" x1="21.6168" y1="17.4053" x2="21.6168" y2="26.2517" gradientUnits="userSpaceOnUse">
<stop stop-color="#1480FF"/>
<stop offset="1" stop-color="#4F7ECC"/>
</linearGradient>
<linearGradient id="paint8_linear_789_1069" x1="36.1302" y1="7.53418" x2="36.1302" y2="16.3655" gradientUnits="userSpaceOnUse">
<stop stop-color="#1480FF"/>
<stop offset="1" stop-color="#4F7ECC"/>
</linearGradient>
<linearGradient id="paint9_linear_789_1069" x1="41.6406" y1="14" x2="41.6406" y2="18.7096" gradientUnits="userSpaceOnUse">
<stop stop-color="#1480FF"/>
<stop offset="1" stop-color="#4F7ECC"/>
</linearGradient>
<linearGradient id="paint10_linear_789_1069" x1="34.1637" y1="9.87012" x2="34.1637" y2="18.7165" gradientUnits="userSpaceOnUse">
<stop stop-color="#1480FF"/>
<stop offset="1" stop-color="#4F7ECC"/>
</linearGradient>
<linearGradient id="paint11_linear_789_1069" x1="48.681" y1="0" x2="48.681" y2="8.83136" gradientUnits="userSpaceOnUse">
<stop stop-color="#1480FF"/>
<stop offset="1" stop-color="#4F7ECC"/>
</linearGradient>
<linearGradient id="paint12_linear_789_1069" x1="54.1894" y1="6.46484" x2="54.1894" y2="11.1744" gradientUnits="userSpaceOnUse">
<stop stop-color="#1480FF"/>
<stop offset="1" stop-color="#4F7ECC"/>
</linearGradient>
<linearGradient id="paint13_linear_789_1069" x1="46.7125" y1="2.33594" x2="46.7125" y2="11.1824" gradientUnits="userSpaceOnUse">
<stop stop-color="#1480FF"/>
<stop offset="1" stop-color="#4F7ECC"/>
</linearGradient>
<linearGradient id="paint14_linear_789_1069" x1="46.4733" y1="64.8193" x2="46.4733" y2="73.6507" gradientUnits="userSpaceOnUse">
<stop stop-color="#1480FF"/>
<stop offset="1" stop-color="#4F7ECC"/>
</linearGradient>
<linearGradient id="paint15_linear_789_1069" x1="40.9629" y1="71.2842" x2="40.9629" y2="75.9937" gradientUnits="userSpaceOnUse">
<stop stop-color="#1480FF"/>
<stop offset="1" stop-color="#4F7ECC"/>
</linearGradient>
<linearGradient id="paint16_linear_789_1069" x1="48.4398" y1="67.1553" x2="48.4398" y2="76.0017" gradientUnits="userSpaceOnUse">
<stop stop-color="#1480FF"/>
<stop offset="1" stop-color="#4F7ECC"/>
</linearGradient>
<linearGradient id="paint17_linear_789_1069" x1="32.5749" y1="56.5137" x2="32.5749" y2="65.345" gradientUnits="userSpaceOnUse">
<stop stop-color="#1480FF"/>
<stop offset="1" stop-color="#4F7ECC"/>
</linearGradient>
<linearGradient id="paint18_linear_789_1069" x1="27.0664" y1="62.9795" x2="27.0664" y2="67.689" gradientUnits="userSpaceOnUse">
<stop stop-color="#1480FF"/>
<stop offset="1" stop-color="#4F7ECC"/>
</linearGradient>
<linearGradient id="paint19_linear_789_1069" x1="34.5434" y1="58.8496" x2="34.5434" y2="67.696" gradientUnits="userSpaceOnUse">
<stop stop-color="#1480FF"/>
<stop offset="1" stop-color="#4F7ECC"/>
</linearGradient>
<linearGradient id="paint20_linear_789_1069" x1="20.0299" y1="48.9785" x2="20.0299" y2="57.8099" gradientUnits="userSpaceOnUse">
<stop stop-color="#1480FF"/>
<stop offset="1" stop-color="#4F7ECC"/>
</linearGradient>
<linearGradient id="paint21_linear_789_1069" x1="14.5196" y1="55.4443" x2="14.5196" y2="60.1539" gradientUnits="userSpaceOnUse">
<stop stop-color="#1480FF"/>
<stop offset="1" stop-color="#4F7ECC"/>
</linearGradient>
<linearGradient id="paint22_linear_789_1069" x1="21.9965" y1="51.3145" x2="21.9965" y2="60.1609" gradientUnits="userSpaceOnUse">
<stop stop-color="#1480FF"/>
<stop offset="1" stop-color="#4F7ECC"/>
</linearGradient>
<linearGradient id="paint23_linear_789_1069" x1="7.47915" y1="41.4443" x2="7.47915" y2="50.2757" gradientUnits="userSpaceOnUse">
<stop stop-color="#1480FF"/>
<stop offset="1" stop-color="#4F7ECC"/>
</linearGradient>
<linearGradient id="paint24_linear_789_1069" x1="1.97073" y1="47.9092" x2="1.97073" y2="52.6187" gradientUnits="userSpaceOnUse">
<stop stop-color="#1480FF"/>
<stop offset="1" stop-color="#4F7ECC"/>
</linearGradient>
<linearGradient id="paint25_linear_789_1069" x1="9.44766" y1="43.7803" x2="9.44766" y2="52.6267" gradientUnits="userSpaceOnUse">
<stop stop-color="#1480FF"/>
<stop offset="1" stop-color="#4F7ECC"/>
</linearGradient>
<linearGradient id="paint26_linear_789_1069" x1="73.1654" y1="64.0635" x2="73.1654" y2="72.8948" gradientUnits="userSpaceOnUse">
<stop stop-color="#1480FF"/>
<stop offset="1" stop-color="#4F7ECC"/>
</linearGradient>
<linearGradient id="paint27_linear_789_1069" x1="78.6757" y1="70.5293" x2="78.6757" y2="75.2389" gradientUnits="userSpaceOnUse">
<stop stop-color="#1480FF"/>
<stop offset="1" stop-color="#4F7ECC"/>
</linearGradient>
<linearGradient id="paint28_linear_789_1069" x1="71.1988" y1="66.3994" x2="71.1988" y2="75.2458" gradientUnits="userSpaceOnUse">
<stop stop-color="#1480FF"/>
<stop offset="1" stop-color="#4F7ECC"/>
</linearGradient>
<linearGradient id="paint29_linear_789_1069" x1="87.0599" y1="55.7598" x2="87.0599" y2="64.5911" gradientUnits="userSpaceOnUse">
<stop stop-color="#1480FF"/>
<stop offset="1" stop-color="#4F7ECC"/>
</linearGradient>
<linearGradient id="paint30_linear_789_1069" x1="92.5703" y1="62.2246" x2="92.5703" y2="66.9342" gradientUnits="userSpaceOnUse">
<stop stop-color="#1480FF"/>
<stop offset="1" stop-color="#4F7ECC"/>
</linearGradient>
<linearGradient id="paint31_linear_789_1069" x1="85.0934" y1="58.0957" x2="85.0934" y2="66.9421" gradientUnits="userSpaceOnUse">
<stop stop-color="#1480FF"/>
<stop offset="1" stop-color="#4F7ECC"/>
</linearGradient>
<linearGradient id="paint32_linear_789_1069" x1="99.6107" y1="48.2246" x2="99.6107" y2="57.056" gradientUnits="userSpaceOnUse">
<stop stop-color="#1480FF"/>
<stop offset="1" stop-color="#4F7ECC"/>
</linearGradient>
<linearGradient id="paint33_linear_789_1069" x1="105.119" y1="54.6904" x2="105.119" y2="59.4" gradientUnits="userSpaceOnUse">
<stop stop-color="#1480FF"/>
<stop offset="1" stop-color="#4F7ECC"/>
</linearGradient>
<linearGradient id="paint34_linear_789_1069" x1="97.6422" y1="50.5605" x2="97.6422" y2="59.407" gradientUnits="userSpaceOnUse">
<stop stop-color="#1480FF"/>
<stop offset="1" stop-color="#4F7ECC"/>
</linearGradient>
<linearGradient id="paint35_linear_789_1069" x1="112.158" y1="40.6885" x2="112.158" y2="49.5198" gradientUnits="userSpaceOnUse">
<stop stop-color="#1480FF"/>
<stop offset="1" stop-color="#4F7ECC"/>
</linearGradient>
<linearGradient id="paint36_linear_789_1069" x1="117.668" y1="47.1543" x2="117.668" y2="51.8639" gradientUnits="userSpaceOnUse">
<stop stop-color="#1480FF"/>
<stop offset="1" stop-color="#4F7ECC"/>
</linearGradient>
<linearGradient id="paint37_linear_789_1069" x1="110.191" y1="43.0244" x2="110.191" y2="51.8708" gradientUnits="userSpaceOnUse">
<stop stop-color="#1480FF"/>
<stop offset="1" stop-color="#4F7ECC"/>
</linearGradient>
<linearGradient id="paint38_linear_789_1069" x1="110.684" y1="23.375" x2="110.684" y2="32.2064" gradientUnits="userSpaceOnUse">
<stop stop-color="#1480FF"/>
<stop offset="1" stop-color="#4F7ECC"/>
</linearGradient>
<linearGradient id="paint39_linear_789_1069" x1="105.176" y1="29.8398" x2="105.176" y2="34.5494" gradientUnits="userSpaceOnUse">
<stop stop-color="#1480FF"/>
<stop offset="1" stop-color="#4F7ECC"/>
</linearGradient>
<linearGradient id="paint40_linear_789_1069" x1="112.653" y1="25.71" x2="112.653" y2="34.5564" gradientUnits="userSpaceOnUse">
<stop stop-color="#1480FF"/>
<stop offset="1" stop-color="#4F7ECC"/>
</linearGradient>
<linearGradient id="paint41_linear_789_1069" x1="96.7897" y1="15.0693" x2="96.7897" y2="23.9007" gradientUnits="userSpaceOnUse">
<stop stop-color="#1480FF"/>
<stop offset="1" stop-color="#4F7ECC"/>
</linearGradient>
<linearGradient id="paint42_linear_789_1069" x1="91.2793" y1="21.5352" x2="91.2793" y2="26.2447" gradientUnits="userSpaceOnUse">
<stop stop-color="#1480FF"/>
<stop offset="1" stop-color="#4F7ECC"/>
</linearGradient>
<linearGradient id="paint43_linear_789_1069" x1="98.7563" y1="17.4053" x2="98.7563" y2="26.2517" gradientUnits="userSpaceOnUse">
<stop stop-color="#1480FF"/>
<stop offset="1" stop-color="#4F7ECC"/>
</linearGradient>
<linearGradient id="paint44_linear_789_1069" x1="84.2428" y1="7.53418" x2="84.2428" y2="16.3655" gradientUnits="userSpaceOnUse">
<stop stop-color="#1480FF"/>
<stop offset="1" stop-color="#4F7ECC"/>
</linearGradient>
<linearGradient id="paint45_linear_789_1069" x1="78.7325" y1="14" x2="78.7325" y2="18.7096" gradientUnits="userSpaceOnUse">
<stop stop-color="#1480FF"/>
<stop offset="1" stop-color="#4F7ECC"/>
</linearGradient>
<linearGradient id="paint46_linear_789_1069" x1="86.2094" y1="9.87012" x2="86.2094" y2="18.7165" gradientUnits="userSpaceOnUse">
<stop stop-color="#1480FF"/>
<stop offset="1" stop-color="#4F7ECC"/>
</linearGradient>
<linearGradient id="paint47_linear_789_1069" x1="71.692" y1="0" x2="71.692" y2="8.83136" gradientUnits="userSpaceOnUse">
<stop stop-color="#1480FF"/>
<stop offset="1" stop-color="#4F7ECC"/>
</linearGradient>
<linearGradient id="paint48_linear_789_1069" x1="66.1836" y1="6.46484" x2="66.1836" y2="11.1744" gradientUnits="userSpaceOnUse">
<stop stop-color="#1480FF"/>
<stop offset="1" stop-color="#4F7ECC"/>
</linearGradient>
<linearGradient id="paint49_linear_789_1069" x1="73.6605" y1="2.33594" x2="73.6605" y2="11.1824" gradientUnits="userSpaceOnUse">
<stop stop-color="#1480FF"/>
<stop offset="1" stop-color="#4F7ECC"/>
</linearGradient>
<linearGradient id="paint50_linear_789_1069" x1="59.4758" y1="1.62402" x2="59.4758" y2="66.2279" gradientUnits="userSpaceOnUse">
<stop stop-color="#1480FF"/>
<stop offset="1" stop-color="#4F7ECC"/>
</linearGradient>
<linearGradient id="paint51_linear_789_1069" x1="59.473" y1="6.71289" x2="59.473" y2="61.1403" gradientUnits="userSpaceOnUse">
<stop stop-color="#1480FF"/>
<stop offset="1" stop-color="#4F7ECC"/>
</linearGradient>
<linearGradient id="paint52_linear_789_1069" x1="54.5744" y1="25.9814" x2="54.5744" y2="47.1933" gradientUnits="userSpaceOnUse">
<stop stop-color="#1480FF"/>
<stop offset="1" stop-color="#4F7ECC"/>
</linearGradient>
<linearGradient id="paint53_linear_789_1069" x1="67.1739" y1="17.1416" x2="67.1739" y2="33.1014" gradientUnits="userSpaceOnUse">
<stop stop-color="#1480FF"/>
<stop offset="1" stop-color="#4F7ECC"/>
</linearGradient>
</defs>
</svg>
