<svg width="139" height="77" viewBox="0 0 139 77" fill="none" xmlns="http://www.w3.org/2000/svg">
<path d="M80.2038 24.156L90.1187 18.2737L90.105 23.3658L80.1888 29.2495L80.2038 24.156Z" fill="#080E24" stroke="url(#paint0_linear_789_1012)" stroke-width="0.5"/>
<path d="M30.3025 18.2708L40.2916 24.1589L40.2778 29.2553L30.2875 23.3673L30.3025 18.2708Z" fill="#080E24" stroke="url(#paint1_linear_789_1012)" stroke-width="0.5"/>
<path d="M69.0413 30.845C69.3832 30.3378 69.8945 29.8717 70.5615 29.4761C71.8806 28.6932 73.5995 28.3084 75.3067 28.3077C76.8571 28.307 78.4202 28.6231 79.6882 29.2671L79.702 24.1569C78.4853 23.477 76.9091 23.1312 75.3223 23.1318C73.6812 23.1325 72.0559 23.5038 70.832 24.2302L69.0413 30.845ZM69.0413 30.845L69.0524 26.733C69.0524 26.7329 69.0524 26.7329 69.0524 26.7329C69.0549 25.8657 69.6135 24.9536 70.832 24.2302L69.0413 30.845Z" fill="#080E24" stroke="url(#paint2_linear_789_1012)" stroke-width="0.5"/>
<mask id="mask0_789_1012" style="mask-type:luminance" maskUnits="userSpaceOnUse" x="68" y="22" width="12" height="11">
<path d="M69.0394 30.843C69.3813 30.3359 69.8925 29.8697 70.5595 29.4742C71.8786 28.6913 73.5975 28.3065 75.3048 28.3057C76.8551 28.3051 78.4182 28.6211 79.6863 29.2652L79.7001 24.1549C78.4834 23.475 76.9071 23.1292 75.3203 23.1299C73.6792 23.1306 72.054 23.5019 70.8301 24.2283L69.0394 30.843ZM69.0394 30.843L69.0505 26.731C69.0505 26.731 69.0505 26.731 69.0505 26.731C69.053 25.8637 69.6116 24.9516 70.8301 24.2283L69.0394 30.843Z" fill="white" stroke="white" stroke-width="0.5"/>
</mask>
<g mask="url(#mask0_789_1012)">
<path d="M69.0505 26.7297L69.0505 26.7294C69.0517 25.8638 69.6101 24.9504 70.83 24.227L70.8301 24.227C72.8189 23.0466 75.852 22.8125 78.2642 23.5505L79.8867 24.2983V29.3231L78.4285 28.7591L78.4203 28.7559L78.4119 28.7533C75.8857 27.9751 72.6937 28.2063 70.5596 29.4729L70.5595 29.4729C69.8925 29.8689 69.3812 30.3352 69.0394 30.8428L69.0505 26.7297Z" stroke="url(#paint3_linear_789_1012)" stroke-width="0.5"/>
</g>
<path d="M49.2738 30.048L49.2728 30.0485C49.2516 30.058 49.2309 30.0679 49.207 30.0794C49.2028 30.0814 49.1985 30.0834 49.1942 30.0855C49.1661 30.0989 49.1339 30.1142 49.0998 30.1287M49.2738 30.048L41.1655 29.7948M49.2738 30.048C49.3749 30.0022 49.4753 29.9546 49.5743 29.9049L49.5605 35.0179M49.2738 30.048L49.5605 35.0179M49.0998 30.1287C49.0646 30.1437 49.012 30.1637 48.9697 30.1797C48.9459 30.1888 48.9253 30.1966 48.913 30.2016L48.9113 30.2022C48.8891 30.211 48.8656 30.2205 48.8413 30.2303C48.7796 30.2552 48.7122 30.2824 48.6456 30.3062L48.6442 30.3067C48.6158 30.3166 48.5872 30.3256 48.5632 30.333L48.5615 30.3336C48.5357 30.3416 48.5148 30.3482 48.4951 30.355L48.4921 30.3561L48.4921 30.3561C48.4753 30.3617 48.4581 30.3676 48.4406 30.3735C48.3568 30.4018 48.2661 30.4325 48.174 30.4589M49.0998 30.1287C49.0999 30.1286 49.1001 30.1285 49.1002 30.1285L49.002 29.8986L49.0994 30.1288C49.0995 30.1288 49.0997 30.1287 49.0998 30.1287ZM48.174 30.4589C48.1492 30.4661 48.125 30.4721 48.1055 30.4769L48.1034 30.4774C48.0833 30.4824 48.0677 30.4863 48.0525 30.4906L48.0521 30.4907L48.0499 30.4913C47.9343 30.5237 47.8132 30.5575 47.6886 30.5871L47.6834 30.5883L47.6834 30.5883L47.6417 30.5971L47.6032 30.6052C47.47 30.6349 47.3315 30.6656 47.1906 30.692L47.1834 30.6933L47.1833 30.6932L47.1562 30.6975L47.1311 30.7014C46.9842 30.7271 46.835 30.7518 46.6833 30.7723L46.6667 30.7745H46.6618C45.1383 30.9754 43.5172 30.8585 42.0979 30.4205C42.0791 30.4152 42.0622 30.4091 42.0519 30.4052C41.8886 30.3542 41.7304 30.2979 41.5766 30.2394M48.174 30.4589C48.1742 30.4588 48.1744 30.4587 48.1746 30.4587L48.1046 30.2187L48.1733 30.459C48.1735 30.459 48.1737 30.4589 48.174 30.4589ZM41.5766 30.2394C41.5478 30.2287 41.5202 30.2176 41.496 30.2078L41.4897 30.2052C41.4668 30.196 41.4473 30.1881 41.428 30.1807L41.423 30.1788L41.423 30.1788C41.2992 30.1288 41.1787 30.0761 41.0618 30.0223M41.5766 30.2394C41.577 30.2395 41.5774 30.2397 41.5778 30.2399L41.6643 30.0053L41.5754 30.2389C41.5758 30.2391 41.5762 30.2392 41.5766 30.2394ZM41.0618 30.0223C41.0615 30.0221 41.0612 30.022 41.0609 30.0218L41.1655 29.7948M41.0618 30.0223C41.0622 30.0224 41.0625 30.0226 41.0628 30.0227L41.1655 29.7948M41.0618 30.0223C41.0133 30.0004 40.9647 29.9779 40.9155 29.9535C40.7602 29.8771 40.6017 29.7956 40.4501 29.7054M41.1655 29.7948C41.1181 29.7734 41.0721 29.7521 41.0261 29.7293C40.8729 29.6539 40.721 29.5757 40.5775 29.4903M40.4501 29.7054C40.4502 29.7055 40.4503 29.7056 40.4504 29.7057L40.5775 29.4903M40.4501 29.7054C40.4499 29.7054 40.4498 29.7053 40.4497 29.7052L40.5775 29.4903M40.4501 29.7054C39.8639 29.3597 39.3987 28.962 39.0589 28.5314L39.0583 28.5307L39.0583 28.5307C38.999 28.455 38.9435 28.3782 38.892 28.3005M40.5775 29.4903C40.0131 29.1575 39.5728 28.7791 39.2551 28.3765C39.1078 28.1886 38.9872 27.9952 38.8933 27.7984L38.892 28.3005M38.892 28.3005L38.8809 32.4129L38.8809 32.4129C38.8784 33.2902 39.4456 34.2188 40.689 34.9508L40.689 34.9508C40.8265 35.0318 40.9709 35.107 41.1211 35.1809L41.1217 35.1811C41.1534 35.1968 41.1849 35.2113 41.2196 35.2273C41.2311 35.2326 41.243 35.2381 41.2554 35.2438L41.1501 35.4706M38.892 28.3005C38.7951 28.1545 38.7121 28.0052 38.6432 27.8534L38.6309 32.4122C38.6281 33.408 39.2718 34.4066 40.5621 35.1662C40.707 35.2515 40.8575 35.3298 41.0108 35.4052M41.0108 35.4052C41.0459 35.4225 41.0818 35.4391 41.1172 35.4554C41.1283 35.4605 41.1392 35.4656 41.1501 35.4706M41.0108 35.4052L49.8101 35.1634C49.6095 35.2814 49.3977 35.3881 49.1803 35.4877C47.1473 36.4209 44.3898 36.546 42.159 35.859C42.1582 35.8586 42.1576 35.8582 42.157 35.8579C42.1553 35.8569 42.154 35.8561 42.152 35.8561M41.0108 35.4052L49.5605 35.0179M41.1501 35.4706C41.2644 35.5232 41.3814 35.5745 41.5013 35.6228C41.55 35.6427 41.5988 35.6627 41.649 35.6811C41.8022 35.7395 41.9583 35.795 42.1186 35.8447M41.1501 35.4706L41.2547 35.2435C41.3661 35.2948 41.4794 35.3444 41.5948 35.391L41.5958 35.3914C41.6452 35.4115 41.69 35.4298 41.7355 35.4466L41.7379 35.4475C41.8865 35.504 42.0362 35.5572 42.1888 35.6048C42.1973 35.6072 42.2044 35.6096 42.2097 35.6114C42.2139 35.6129 42.218 35.6144 42.2209 35.6155C42.2314 35.6184 42.2407 35.6217 42.2487 35.625C44.4232 36.29 47.1085 36.1636 49.076 35.2605L49.0762 35.2604C49.2434 35.1838 49.4056 35.1036 49.5605 35.0179M42.1186 35.8447C42.1241 35.8462 42.1297 35.8483 42.1353 35.8504C42.1408 35.8526 42.1464 35.8547 42.152 35.8561M42.1186 35.8447L42.152 35.7137V35.8561M42.1186 35.8447L42.152 35.7371V35.8561" fill="#080E24" stroke="url(#paint4_linear_789_1012)" stroke-width="0.5"/>
<path d="M60.5599 35.8112L70.4803 29.926L70.4666 35.0182L60.5461 40.9047L60.5599 35.8112Z" fill="#080E24" stroke="url(#paint5_linear_789_1012)" stroke-width="0.5"/>
<path d="M40.6692 23.8025L30.5439 17.8349L60.1144 0.290444L89.8791 17.8349L79.9512 23.7241C78.6424 22.9915 76.9754 22.6324 75.3228 22.6331C73.6156 22.6338 71.8967 23.0186 70.5776 23.8014C69.2563 24.5854 68.5467 25.6458 68.5524 26.7536C68.5575 27.759 69.1514 28.7242 70.254 29.4787L60.31 35.3779L49.9479 29.2707L49.8205 29.1956L49.6933 29.2711C48.4694 29.9975 46.8442 30.3687 45.2031 30.3694C43.5621 30.3701 41.9324 30.0003 40.6999 29.2735L40.6999 29.2735C39.4638 28.5449 38.8963 27.6233 38.892 26.7505C38.8877 25.8783 39.4455 24.9588 40.6698 24.2329L41.0335 24.0172L40.6692 23.8025Z" fill="#080E24" stroke="url(#paint6_linear_789_1012)" stroke-width="0.5"/>
<path d="M50.0688 29.9232L60.0592 35.8112L60.0454 40.9076L50.0551 35.0182L50.0688 29.9232Z" fill="#080E24" stroke="url(#paint7_linear_789_1012)" stroke-width="0.5"/>
<path d="M78.5317 33.2699L88.5304 39.1636L88.5166 44.2586L78.518 38.3648L78.5317 33.2699Z" fill="#080E24" stroke="url(#paint8_linear_789_1012)" stroke-width="0.5"/>
<path d="M86.707 48.2637V42.0234L98.2023 43.3372V50.1079C93.9326 52.205 89.0061 51.5481 86.707 48.2637Z" fill="#080E24"/>
<path d="M86.707 48.2637V42.0234L98.2023 43.3372V50.1079C93.9326 52.205 89.0061 51.5481 86.707 48.2637Z" stroke="black" stroke-width="0.5"/>
<path d="M86.707 48.2637V42.0234L98.2023 43.3372V50.1079C93.9326 52.205 89.0061 51.5481 86.707 48.2637Z" stroke="url(#paint9_linear_789_1012)" stroke-width="0.5"/>
<path d="M90.3692 31.8575C89.2364 31.5202 88.391 31.1428 87.8226 30.7525C87.1959 30.3221 86.955 29.9123 86.957 29.5606L86.957 29.5605L86.9869 24.3478C87.7316 24.212 88.5468 24.1761 89.1878 24.449C89.5294 24.5944 89.8227 24.8279 90.0353 25.1894C90.2494 25.5534 90.3906 26.0629 90.3983 26.7723L90.3692 31.8575Z" fill="#080E24" stroke="url(#paint10_linear_789_1012)" stroke-width="0.5"/>
<path d="M88.908 38.8058L78.7744 32.8325L88.832 26.8659L89.1956 26.6502L88.8314 26.4355C87.59 25.7038 86.9964 24.7969 86.9787 23.9351C86.9611 23.0772 87.5125 22.1586 88.7972 21.3963C90.0239 20.6684 91.6492 20.2972 93.2901 20.2972C94.931 20.2972 96.5608 20.6684 97.7962 21.3967L97.9236 21.4717L98.0508 21.3963L108.345 15.2895L138.11 32.8339L108.541 50.3769L98.17 44.264L98.0325 44.183L97.9011 44.2736C97.8918 44.28 97.8831 44.286 97.8749 44.2917C97.8322 44.3213 97.8022 44.3421 97.7683 44.3612L97.7683 44.3612L97.7636 44.364C96.5369 45.0918 94.9116 45.4631 93.2713 45.4634C91.631 45.4638 90.0027 45.0932 88.7701 44.3664L88.7701 44.3664C87.5072 43.622 86.7856 42.7601 86.7078 41.9295C86.6325 41.1246 87.1559 40.2099 88.7343 39.3291L88.7344 39.3292L88.7422 39.3245C88.7832 39.2996 88.8306 39.2758 88.8926 39.2449L89.3046 39.0395L88.908 38.8058Z" fill="#080E24" stroke="url(#paint11_linear_789_1012)" stroke-width="0.5"/>
<path d="M108.79 50.8098L138.349 33.2727L138.336 38.3649L108.777 55.9019L108.79 50.8098Z" fill="#080E24" stroke="url(#paint12_linear_789_1012)" stroke-width="0.5"/>
<path d="M98.2915 44.9164L108.29 50.8101L108.276 55.9051L98.2777 50.0127L98.2915 44.9164Z" fill="#080E24" stroke="url(#paint13_linear_789_1012)" stroke-width="0.5"/>
<path d="M50.1653 41.983L60.0648 36.1106L60.0498 41.2027L50.1516 47.0751L50.1653 41.983Z" fill="#080E24" stroke="url(#paint14_linear_789_1012)" stroke-width="0.5"/>
<mask id="mask1_789_1012" style="mask-type:luminance" maskUnits="userSpaceOnUse" x="38" y="40" width="12" height="11">
<path d="M49.663 41.9846L49.6492 47.0949C48.379 46.4494 46.8157 46.1319 45.2652 46.1319C43.5579 46.1319 41.8394 46.5167 40.5182 47.3011L40.5182 47.3011C39.8532 47.6959 39.3434 48.161 39.0023 48.6673L39.0134 44.5536C39.0134 44.5536 39.0134 44.5536 39.0134 44.5536C39.0158 43.6876 39.5733 42.7756 40.7887 42.0552L40.7888 42.0552C42.0155 41.3273 43.6408 40.9561 45.2815 40.9561C46.8681 40.9561 48.4442 41.3032 49.663 41.9846Z" fill="white" stroke="white" stroke-width="0.5"/>
</mask>
<g mask="url(#mask1_789_1012)">
<path d="M49.6499 47.0949C49.3014 46.9178 48.9309 46.7657 48.5454 46.638L48.5593 41.4901C48.9512 41.6286 49.3219 41.7936 49.6637 41.9846L49.6499 47.0949Z" fill="#080E24" stroke="url(#paint15_linear_789_1012)" stroke-width="0.5"/>
<path d="M40.5184 47.3019C39.8533 47.6961 39.3434 48.1613 39.0023 48.6677L39.0134 44.5546C39.0134 44.5546 39.0134 44.5546 39.0134 44.5545C39.0158 43.6887 39.5731 42.778 40.7887 42.0561C42.7349 40.9018 45.6744 40.6524 48.0591 41.332L48.0451 46.4893C45.5748 45.8241 42.5639 46.0874 40.5184 47.3019Z" fill="#080E24" stroke="url(#paint16_linear_789_1012)" stroke-width="0.5"/>
</g>
<path d="M49.8257 29.7782L59.8253 35.6717L49.9155 41.551C48.6043 40.817 46.9372 40.4564 45.2846 40.4564C43.5774 40.4564 41.8588 40.8412 40.5377 41.6255C39.2191 42.4081 38.5105 43.4679 38.5172 44.5757C38.5232 45.5812 39.1179 46.5471 40.2225 47.3028L30.2785 53.2019L0.506783 35.6546L30.055 18.1244L40.0667 24.0251C38.973 24.7801 38.3899 25.746 38.3959 26.7515C38.4026 27.8587 39.123 28.9178 40.452 29.7012C41.7818 30.4851 43.5045 30.87 45.2112 30.8703C46.8629 30.8707 48.5247 30.511 49.8257 29.7782Z" fill="#080E24" stroke="url(#paint17_linear_789_1012)" stroke-width="0.5"/>
<path d="M30.5267 53.6349L40.447 47.7484L40.432 52.8418L30.5129 58.727L30.5267 53.6349Z" fill="#080E24" stroke="url(#paint18_linear_789_1012)" stroke-width="0.5"/>
<path d="M0.264149 36.0921L30.0268 53.6349L30.0131 58.7299L0.250386 41.1885L0.264149 36.0921Z" fill="#080E24" stroke="url(#paint19_linear_789_1012)" stroke-width="0.5"/>
<path d="M70.5781 47.3736C69.8034 47.8576 69.2527 48.4401 68.9494 49.0704L67.2528 40.5523C67.2539 40.5401 67.2557 40.5324 67.257 40.5283C67.2695 40.523 67.3118 40.5106 67.4082 40.5201C67.6289 40.5417 67.9621 40.6586 68.3655 40.8409C68.7612 41.0196 69.1966 41.2479 69.6131 41.4713C69.7014 41.5187 69.789 41.5659 69.8753 41.6124C70.1334 41.7515 70.3792 41.8839 70.5926 41.9926L70.5781 47.3736Z" fill="#080E24" stroke="url(#paint20_linear_789_1012)" stroke-width="0.5"/>
<path d="M60.5489 71.0341L30.7841 53.4897L40.8418 47.5231L41.2054 47.3074L40.8412 47.0928C39.6049 46.364 39.0364 45.443 39.0312 44.5708C39.026 43.6992 39.5827 42.7802 40.807 42.0535C42.0337 41.3257 43.659 40.9544 45.2997 40.9544C46.9404 40.9544 48.5699 41.3256 49.8046 42.0539L49.9319 42.129L50.0591 42.0535L60.3532 35.9467L70.3649 41.8473C69.2686 42.6035 68.6843 43.5701 68.69 44.576C68.6962 45.6835 69.4171 46.7423 70.7461 47.525C72.0732 48.3075 73.7949 48.6915 75.5018 48.6912C77.1536 48.6908 78.8168 48.3304 80.1198 47.5962L90.1199 53.49L60.5489 71.0341Z" fill="#080E24" stroke="url(#paint21_linear_789_1012)" stroke-width="0.5"/>
<path d="M60.7995 71.468L90.3586 53.9309L90.3448 59.0245L60.7845 76.5615L60.7995 71.468Z" fill="#080E24" stroke="url(#paint22_linear_789_1012)" stroke-width="0.5"/>
<path d="M30.5415 53.9281L60.3 71.468L60.2849 76.5644L30.5277 59.0245L30.5415 53.9281Z" fill="#080E24" stroke="url(#paint23_linear_789_1012)" stroke-width="0.5"/>
<defs>
<linearGradient id="paint0_linear_789_1012" x1="85.1537" y1="17.834" x2="85.1537" y2="29.6893" gradientUnits="userSpaceOnUse">
<stop stop-color="#1480FF"/>
<stop offset="1" stop-color="#4F7ECC"/>
</linearGradient>
<linearGradient id="paint1_linear_789_1012" x1="35.2895" y1="17.834" x2="35.2895" y2="29.6921" gradientUnits="userSpaceOnUse">
<stop stop-color="#1480FF"/>
<stop offset="1" stop-color="#4F7ECC"/>
</linearGradient>
<linearGradient id="paint2_linear_789_1012" x1="74.3698" y1="22.8818" x2="74.3698" y2="32.4081" gradientUnits="userSpaceOnUse">
<stop stop-color="#1480FF"/>
<stop offset="1" stop-color="#4F7ECC"/>
</linearGradient>
<linearGradient id="paint3_linear_789_1012" x1="73.5694" y1="22.8789" x2="73.5694" y2="32.4049" gradientUnits="userSpaceOnUse">
<stop stop-color="#1480FF"/>
<stop offset="1" stop-color="#4F7ECC"/>
</linearGradient>
<linearGradient id="paint4_linear_789_1012" x1="44.2282" y1="26.7363" x2="44.2282" y2="36.2952" gradientUnits="userSpaceOnUse">
<stop stop-color="#1480FF"/>
<stop offset="1" stop-color="#4F7ECC"/>
</linearGradient>
<linearGradient id="paint5_linear_789_1012" x1="65.5132" y1="29.4863" x2="65.5132" y2="41.3445" gradientUnits="userSpaceOnUse">
<stop stop-color="#1480FF"/>
<stop offset="1" stop-color="#4F7ECC"/>
</linearGradient>
<linearGradient id="paint6_linear_789_1012" x1="60.2115" y1="0" x2="60.2115" y2="35.6683" gradientUnits="userSpaceOnUse">
<stop stop-color="#1480FF"/>
<stop offset="1" stop-color="#4F7ECC"/>
</linearGradient>
<linearGradient id="paint7_linear_789_1012" x1="55.0571" y1="29.4863" x2="55.0571" y2="41.3445" gradientUnits="userSpaceOnUse">
<stop stop-color="#1480FF"/>
<stop offset="1" stop-color="#4F7ECC"/>
</linearGradient>
<linearGradient id="paint8_linear_789_1012" x1="83.5242" y1="32.833" x2="83.5242" y2="44.6954" gradientUnits="userSpaceOnUse">
<stop stop-color="#1480FF"/>
<stop offset="1" stop-color="#4F7ECC"/>
</linearGradient>
<linearGradient id="paint9_linear_789_1012" x1="92.7831" y1="43.3372" x2="92.7831" y2="50.9895" gradientUnits="userSpaceOnUse">
<stop stop-color="#1480FF"/>
<stop offset="1" stop-color="#4F7ECC"/>
</linearGradient>
<linearGradient id="paint10_linear_789_1012" x1="88.6777" y1="24.1415" x2="88.6777" y2="32.1887" gradientUnits="userSpaceOnUse">
<stop stop-color="#1480FF"/>
<stop offset="1" stop-color="#4F7ECC"/>
</linearGradient>
<linearGradient id="paint11_linear_789_1012" x1="108.442" y1="14.999" x2="108.442" y2="50.6674" gradientUnits="userSpaceOnUse">
<stop stop-color="#1480FF"/>
<stop offset="1" stop-color="#4F7ECC"/>
</linearGradient>
<linearGradient id="paint12_linear_789_1012" x1="123.563" y1="32.833" x2="123.563" y2="56.3416" gradientUnits="userSpaceOnUse">
<stop stop-color="#1480FF"/>
<stop offset="1" stop-color="#4F7ECC"/>
</linearGradient>
<linearGradient id="paint13_linear_789_1012" x1="103.284" y1="44.4795" x2="103.284" y2="56.3419" gradientUnits="userSpaceOnUse">
<stop stop-color="#1480FF"/>
<stop offset="1" stop-color="#4F7ECC"/>
</linearGradient>
<linearGradient id="paint14_linear_789_1012" x1="55.1082" y1="35.6709" x2="55.1082" y2="47.5148" gradientUnits="userSpaceOnUse">
<stop stop-color="#1480FF"/>
<stop offset="1" stop-color="#4F7ECC"/>
</linearGradient>
<linearGradient id="paint15_linear_789_1012" x1="49.1045" y1="41.1445" x2="49.1045" y2="47.516" gradientUnits="userSpaceOnUse">
<stop stop-color="#1480FF"/>
<stop offset="1" stop-color="#4F7ECC"/>
</linearGradient>
<linearGradient id="paint16_linear_789_1012" x1="43.5288" y1="40.708" x2="43.5288" y2="50.2297" gradientUnits="userSpaceOnUse">
<stop stop-color="#1480FF"/>
<stop offset="1" stop-color="#4F7ECC"/>
</linearGradient>
<linearGradient id="paint17_linear_789_1012" x1="30.166" y1="17.834" x2="30.166" y2="53.4924" gradientUnits="userSpaceOnUse">
<stop stop-color="#1480FF"/>
<stop offset="1" stop-color="#4F7ECC"/>
</linearGradient>
<linearGradient id="paint18_linear_789_1012" x1="35.48" y1="47.3086" x2="35.48" y2="59.1667" gradientUnits="userSpaceOnUse">
<stop stop-color="#1480FF"/>
<stop offset="1" stop-color="#4F7ECC"/>
</linearGradient>
<linearGradient id="paint19_linear_789_1012" x1="15.1386" y1="35.6553" x2="15.1386" y2="59.1667" gradientUnits="userSpaceOnUse">
<stop stop-color="#1480FF"/>
<stop offset="1" stop-color="#4F7ECC"/>
</linearGradient>
<linearGradient id="paint20_linear_789_1012" x1="69.8844" y1="41.8383" x2="69.8844" y2="50.2312" gradientUnits="userSpaceOnUse">
<stop stop-color="#1480FF"/>
<stop offset="1" stop-color="#4F7ECC"/>
</linearGradient>
<linearGradient id="paint21_linear_789_1012" x1="60.4517" y1="35.6562" x2="60.4517" y2="71.3246" gradientUnits="userSpaceOnUse">
<stop stop-color="#1480FF"/>
<stop offset="1" stop-color="#4F7ECC"/>
</linearGradient>
<linearGradient id="paint22_linear_789_1012" x1="75.5715" y1="53.4912" x2="75.5715" y2="77.0012" gradientUnits="userSpaceOnUse">
<stop stop-color="#1480FF"/>
<stop offset="1" stop-color="#4F7ECC"/>
</linearGradient>
<linearGradient id="paint23_linear_789_1012" x1="45.4139" y1="53.4912" x2="45.4139" y2="77.0012" gradientUnits="userSpaceOnUse">
<stop stop-color="#1480FF"/>
<stop offset="1" stop-color="#4F7ECC"/>
</linearGradient>
</defs>
</svg>
