<svg width="169" height="97" viewBox="0 0 169 97" fill="none" xmlns="http://www.w3.org/2000/svg">
<path d="M25.2823 62.5339C25.2621 62.5339 25.242 62.5298 25.2219 62.5174L1.05962 48.2757C1.00329 48.2429 0.983173 48.1689 1.01536 48.1073C1.04755 48.0498 1.11998 48.0293 1.18033 48.0621L25.2823 62.2669L82.475 28.5584C82.5112 28.5378 82.5595 28.5378 82.5957 28.5584L120.704 51.0197L145.844 36.203C145.9 36.1701 145.973 36.1906 146.009 36.2481C146.041 36.3057 146.021 36.3796 145.965 36.4166L120.764 51.2703C120.728 51.2909 120.68 51.2909 120.644 51.2703L82.5354 28.8089L25.3426 62.5174C25.3426 62.5174 25.3024 62.5339 25.2823 62.5339Z" stroke="url(#paint0_linear_789_997)" stroke-width="0.5"/>
<path d="M171.262 79.7866C171.241 79.7866 171.221 79.7825 171.201 79.7701L138.34 60.4019L122.406 69.7471C122.37 69.7677 122.325 69.7677 122.285 69.7471L42.3826 22.6473C42.3464 22.6267 42.3223 22.5857 42.3223 22.5405C42.3223 22.4953 42.3464 22.4583 42.3826 22.4337L78.8051 1.01568C78.8614 0.982821 78.9338 1.00336 78.9701 1.06087C79.0022 1.11838 78.9821 1.19232 78.9258 1.22929L42.6844 22.5446L122.354 69.5048L138.287 60.1596C138.324 60.139 138.368 60.139 138.408 60.1596L171.33 79.5647C171.386 79.5976 171.406 79.6715 171.374 79.7332C171.354 79.7701 171.314 79.7948 171.27 79.7948L171.262 79.7866Z" stroke="url(#paint1_linear_789_997)" stroke-width="0.5"/>
<path d="M97.233 96.0003C97.2129 96.0003 97.1928 95.9961 97.1727 95.9838L72.7811 81.6066C72.7448 81.586 72.7207 81.545 72.7207 81.4998C72.7207 81.4546 72.7448 81.4176 72.7811 81.393L103.12 63.5118C103.176 63.4789 103.248 63.4995 103.285 63.557C103.317 63.6145 103.297 63.6884 103.24 63.7254L73.0828 81.4998L97.2934 95.7702C97.3497 95.8031 97.3698 95.877 97.3377 95.9386C97.3175 95.9756 97.2773 96.0003 97.233 96.0003Z" stroke="url(#paint2_linear_789_997)" stroke-width="0.5"/>
<path d="M105.796 87.2054C105.776 87.2054 105.756 87.2013 105.736 87.189L1.06353 25.49C1.0072 25.4572 0.987079 25.3832 1.01927 25.3216C1.05146 25.2641 1.12388 25.2436 1.18424 25.2764L105.861 86.9754C105.917 87.0082 105.937 87.0822 105.905 87.1438C105.885 87.1808 105.845 87.2054 105.8 87.2054H105.796Z" stroke="url(#paint3_linear_789_997)" stroke-width="0.5"/>
<path d="M53.267 70.0838C53.2469 70.0838 53.2267 70.0797 53.2066 70.0673L18.6189 49.6804C18.5827 49.6599 18.5586 49.6188 18.5586 49.5736C18.5586 49.5284 18.5827 49.4914 18.6189 49.4668L48.9576 31.5856C49.0139 31.5528 49.0864 31.5733 49.1226 31.6308C49.1548 31.6883 49.1346 31.7623 49.0783 31.7992L18.9207 49.5777L53.271 69.825L135.664 21.2628C135.72 21.2299 135.793 21.2504 135.829 21.3079C135.861 21.3654 135.841 21.4394 135.785 21.4764L53.3354 70.0756C53.3354 70.0756 53.2951 70.092 53.275 70.092L53.267 70.0838Z" stroke="url(#paint4_linear_789_997)" stroke-width="0.5"/>
<path d="M62.7488 11.3234C64.4468 12.3257 66.0523 13.7347 67.4807 15.3983C69.4643 8.8957 75.512 6.87878 82.6701 11.0975C88.593 14.5891 93.7514 21.4532 96.4835 28.724C97.3888 28.7527 98.3947 29.0567 99.465 29.6852C103.328 31.9609 106.462 37.5023 106.462 42.0578C106.462 42.1564 106.454 42.2468 106.45 42.3413C107.553 42.4193 108.772 42.8178 110.051 43.5736C114.992 46.486 119 53.572 119 59.3968C119 65.2217 114.992 67.5836 110.051 64.6712L62.7528 36.7917C56.7857 33.2754 51.9492 24.723 51.9492 17.6905C51.9492 10.6579 56.7857 7.80714 62.7528 11.3234H62.7488Z" fill="#080E24"/>
<path d="M62.7488 11.3234C64.4468 12.3257 66.0523 13.7347 67.4807 15.3983C69.4643 8.8957 75.512 6.87878 82.6701 11.0975C88.593 14.5891 93.7514 21.4532 96.4835 28.724C97.3888 28.7527 98.3947 29.0567 99.465 29.6852C103.328 31.9609 106.462 37.5023 106.462 42.0578C106.462 42.1564 106.454 42.2468 106.45 42.3413C107.553 42.4193 108.772 42.8178 110.051 43.5736C114.992 46.486 119 53.572 119 59.3968C119 65.2217 114.992 67.5836 110.051 64.6712L62.7528 36.7917C56.7857 33.2754 51.9492 24.723 51.9492 17.6905C51.9492 10.6579 56.7857 7.80714 62.7528 11.3234H62.7488Z" stroke="black"/>
<path d="M62.7488 11.3234C64.4468 12.3257 66.0523 13.7347 67.4807 15.3983C69.4643 8.8957 75.512 6.87878 82.6701 11.0975C88.593 14.5891 93.7514 21.4532 96.4835 28.724C97.3888 28.7527 98.3947 29.0567 99.465 29.6852C103.328 31.9609 106.462 37.5023 106.462 42.0578C106.462 42.1564 106.454 42.2468 106.45 42.3413C107.553 42.4193 108.772 42.8178 110.051 43.5736C114.992 46.486 119 53.572 119 59.3968C119 65.2217 114.992 67.5836 110.051 64.6712L62.7528 36.7917C56.7857 33.2754 51.9492 24.723 51.9492 17.6905C51.9492 10.6579 56.7857 7.80714 62.7528 11.3234H62.7488Z" stroke="url(#paint5_linear_789_997)"/>
<path d="M62.7488 11.3235C63.7346 11.9027 64.6842 12.6256 65.5895 13.4513L70.8767 10.3335C73.7818 8.25085 77.9906 8.34122 82.6701 11.0975C88.593 14.5892 93.7514 21.4533 96.4835 28.724C97.3888 28.7528 98.3947 29.0568 99.465 29.6853C103.328 31.961 106.462 37.5024 106.462 42.0579C106.462 42.1565 106.454 42.2469 106.45 42.3414C107.553 42.4194 108.772 42.8179 110.051 43.5737C114.992 46.4861 119 53.572 119 59.3969C119 62.2847 118.014 64.318 116.421 65.2833H116.425L116.385 65.308C116.385 65.308 116.381 65.308 116.377 65.3121L103.42 72.9895L100.592 59.0929L62.7528 36.7917C56.7857 33.2755 51.9492 24.7231 51.9492 17.6905C51.9492 10.658 56.7857 7.80721 62.7528 11.3235H62.7488Z" fill="#080E24"/>
<path d="M62.7488 11.3235C63.7346 11.9027 64.6842 12.6256 65.5895 13.4513L70.8767 10.3335C73.7818 8.25085 77.9906 8.34122 82.6701 11.0975C88.593 14.5892 93.7514 21.4533 96.4835 28.724C97.3888 28.7528 98.3947 29.0568 99.465 29.6853C103.328 31.961 106.462 37.5024 106.462 42.0579C106.462 42.1565 106.454 42.2469 106.45 42.3414C107.553 42.4194 108.772 42.8179 110.051 43.5737C114.992 46.4861 119 53.572 119 59.3969C119 62.2847 118.014 64.318 116.421 65.2833H116.425L116.385 65.308C116.385 65.308 116.381 65.308 116.377 65.3121L103.42 72.9895L100.592 59.0929L62.7528 36.7917C56.7857 33.2755 51.9492 24.7231 51.9492 17.6905C51.9492 10.658 56.7857 7.80721 62.7528 11.3235H62.7488Z" stroke="black"/>
<path d="M62.7488 11.3235C63.7346 11.9027 64.6842 12.6256 65.5895 13.4513L70.8767 10.3335C73.7818 8.25085 77.9906 8.34122 82.6701 11.0975C88.593 14.5892 93.7514 21.4533 96.4835 28.724C97.3888 28.7528 98.3947 29.0568 99.465 29.6853C103.328 31.961 106.462 37.5024 106.462 42.0579C106.462 42.1565 106.454 42.2469 106.45 42.3414C107.553 42.4194 108.772 42.8179 110.051 43.5737C114.992 46.4861 119 53.572 119 59.3969C119 62.2847 118.014 64.318 116.421 65.2833H116.425L116.385 65.308C116.385 65.308 116.381 65.308 116.377 65.3121L103.42 72.9895L100.592 59.0929L62.7528 36.7917C56.7857 33.2755 51.9492 24.7231 51.9492 17.6905C51.9492 10.658 56.7857 7.80721 62.7528 11.3235H62.7488Z" stroke="url(#paint6_linear_789_997)"/>
<path d="M41.9258 18.3722L55.0511 10.588C57.0106 9.40083 59.7346 9.54871 62.7484 11.3274C63.7342 11.9066 64.6838 12.6295 65.5891 13.4552L70.8762 10.3374C73.7814 8.25475 77.9901 8.34513 82.6697 11.1014C88.5926 14.5931 93.7509 21.4572 96.483 28.728C97.3884 28.7567 98.3943 29.0607 99.4646 29.6892C103.327 31.9649 106.462 37.5063 106.462 42.0618C106.462 42.1604 106.454 42.2508 106.45 42.3453C107.552 42.4233 108.771 42.8218 110.051 43.5776C114.992 46.49 119 53.576 119 59.4008C119 62.2886 118.014 64.3219 116.42 65.2872H116.424L116.384 65.3119C116.384 65.3119 116.38 65.3119 116.376 65.316L103.42 72.9934L100.591 59.0968L62.7524 36.7956C57.9159 33.9448 53.8238 27.7873 52.4477 21.8104L41.9298 18.3804L41.9258 18.3722Z" fill="#080E24"/>
<path d="M41.9258 18.3722L55.0511 10.588C57.0106 9.40083 59.7346 9.54871 62.7484 11.3274C63.7342 11.9066 64.6838 12.6295 65.5891 13.4552L70.8762 10.3374C73.7814 8.25475 77.9901 8.34513 82.6697 11.1014C88.5926 14.5931 93.7509 21.4572 96.483 28.728C97.3884 28.7567 98.3943 29.0607 99.4646 29.6892C103.327 31.9649 106.462 37.5063 106.462 42.0618C106.462 42.1604 106.454 42.2508 106.45 42.3453C107.552 42.4233 108.771 42.8218 110.051 43.5776C114.992 46.49 119 53.576 119 59.4008C119 62.2886 118.014 64.3219 116.42 65.2872H116.424L116.384 65.3119C116.384 65.3119 116.38 65.3119 116.376 65.316L103.42 72.9934L100.591 59.0968L62.7524 36.7956C57.9159 33.9448 53.8238 27.7873 52.4477 21.8104L41.9298 18.3804L41.9258 18.3722Z" stroke="black"/>
<path d="M41.9258 18.3722L55.0511 10.588C57.0106 9.40083 59.7346 9.54871 62.7484 11.3274C63.7342 11.9066 64.6838 12.6295 65.5891 13.4552L70.8762 10.3374C73.7814 8.25475 77.9901 8.34513 82.6697 11.1014C88.5926 14.5931 93.7509 21.4572 96.483 28.728C97.3884 28.7567 98.3943 29.0607 99.4646 29.6892C103.327 31.9649 106.462 37.5063 106.462 42.0618C106.462 42.1604 106.454 42.2508 106.45 42.3453C107.552 42.4233 108.771 42.8218 110.051 43.5776C114.992 46.49 119 53.576 119 59.4008C119 62.2886 118.014 64.3219 116.42 65.2872H116.424L116.384 65.3119C116.384 65.3119 116.38 65.3119 116.376 65.316L103.42 72.9934L100.591 59.0968L62.7524 36.7956C57.9159 33.9448 53.8238 27.7873 52.4477 21.8104L41.9298 18.3804L41.9258 18.3722Z" stroke="url(#paint7_linear_789_997)"/>
<path d="M49.7527 19.0256C51.4507 20.0279 53.0562 21.4368 54.4846 23.1005C56.4683 16.5979 62.5159 14.5809 69.674 18.7996C75.5969 22.2912 80.7553 29.1553 83.4874 36.4261C84.3927 36.4549 85.3986 36.7589 86.4689 37.3874C90.3317 39.6631 93.4661 45.2045 93.4661 49.76C93.4661 49.8586 93.4581 49.949 93.454 50.0434C94.5565 50.1215 95.7757 50.5199 97.0552 51.2758C101.996 54.1882 106.004 61.2741 106.004 67.099C106.004 72.9238 101.996 75.2858 97.0552 72.3734L49.7567 44.4938C43.7896 40.9776 38.9531 32.4251 38.9531 25.3926C38.9531 18.3601 43.7896 15.5093 49.7567 19.0256H49.7527Z" fill="#080E24"/>
<path d="M49.7527 19.0256C51.4507 20.0279 53.0562 21.4368 54.4846 23.1005C56.4683 16.5979 62.5159 14.5809 69.674 18.7996C75.5969 22.2912 80.7553 29.1553 83.4874 36.4261C84.3927 36.4549 85.3986 36.7589 86.4689 37.3874C90.3317 39.6631 93.4661 45.2045 93.4661 49.76C93.4661 49.8586 93.4581 49.949 93.454 50.0434C94.5565 50.1215 95.7757 50.5199 97.0552 51.2758C101.996 54.1882 106.004 61.2741 106.004 67.099C106.004 72.9238 101.996 75.2858 97.0552 72.3734L49.7567 44.4938C43.7896 40.9776 38.9531 32.4251 38.9531 25.3926C38.9531 18.3601 43.7896 15.5093 49.7567 19.0256H49.7527Z" stroke="black"/>
<path d="M49.7527 19.0256C51.4507 20.0279 53.0562 21.4368 54.4846 23.1005C56.4683 16.5979 62.5159 14.5809 69.674 18.7996C75.5969 22.2912 80.7553 29.1553 83.4874 36.4261C84.3927 36.4549 85.3986 36.7589 86.4689 37.3874C90.3317 39.6631 93.4661 45.2045 93.4661 49.76C93.4661 49.8586 93.4581 49.949 93.454 50.0434C94.5565 50.1215 95.7757 50.5199 97.0552 51.2758C101.996 54.1882 106.004 61.2741 106.004 67.099C106.004 72.9238 101.996 75.2858 97.0552 72.3734L49.7567 44.4938C43.7896 40.9776 38.9531 32.4251 38.9531 25.3926C38.9531 18.3601 43.7896 15.5093 49.7567 19.0256H49.7527Z" stroke="url(#paint8_linear_789_997)"/>
<defs>
<linearGradient id="paint0_linear_789_997" x1="73.5122" y1="28.543" x2="73.5122" y2="62.5339" gradientUnits="userSpaceOnUse">
<stop stop-color="#1480FF"/>
<stop offset="1" stop-color="#4F7ECC"/>
</linearGradient>
<linearGradient id="paint1_linear_789_997" x1="106.856" y1="1" x2="106.856" y2="79.7948" gradientUnits="userSpaceOnUse">
<stop stop-color="#1480FF"/>
<stop offset="1" stop-color="#4F7ECC"/>
</linearGradient>
<linearGradient id="paint2_linear_789_997" x1="88.0104" y1="63.4961" x2="88.0104" y2="96.0003" gradientUnits="userSpaceOnUse">
<stop stop-color="#1480FF"/>
<stop offset="1" stop-color="#4F7ECC"/>
</linearGradient>
<linearGradient id="paint3_linear_789_997" x1="53.4621" y1="25.2607" x2="53.4621" y2="87.2054" gradientUnits="userSpaceOnUse">
<stop stop-color="#1480FF"/>
<stop offset="1" stop-color="#4F7ECC"/>
</linearGradient>
<linearGradient id="paint4_linear_789_997" x1="77.2015" y1="21.2471" x2="77.2015" y2="70.092" gradientUnits="userSpaceOnUse">
<stop stop-color="#1480FF"/>
<stop offset="1" stop-color="#4F7ECC"/>
</linearGradient>
<linearGradient id="paint5_linear_789_997" x1="85.4746" y1="8.88379" x2="85.4746" y2="65.9185" gradientUnits="userSpaceOnUse">
<stop stop-color="#1480FF"/>
<stop offset="1" stop-color="#4F7ECC"/>
</linearGradient>
<linearGradient id="paint6_linear_789_997" x1="85.4746" y1="8.88672" x2="85.4746" y2="72.9895" gradientUnits="userSpaceOnUse">
<stop stop-color="#1480FF"/>
<stop offset="1" stop-color="#4F7ECC"/>
</linearGradient>
<linearGradient id="paint7_linear_789_997" x1="80.4627" y1="8.89062" x2="80.4627" y2="72.9934" gradientUnits="userSpaceOnUse">
<stop stop-color="#1480FF"/>
<stop offset="1" stop-color="#4F7ECC"/>
</linearGradient>
<linearGradient id="paint8_linear_789_997" x1="72.4785" y1="16.5859" x2="72.4785" y2="73.6206" gradientUnits="userSpaceOnUse">
<stop stop-color="#1480FF"/>
<stop offset="1" stop-color="#4F7ECC"/>
</linearGradient>
</defs>
</svg>
