<svg width="244" height="196" viewBox="0 0 244 196" fill="none" xmlns="http://www.w3.org/2000/svg">
<path d="M26.8033 145.662L68.4064 92.9331L61.0914 94.2229L19.4883 146.952L26.8033 145.662Z" fill='080E24'/>
<path d="M34.0654 158.241L26.8033 145.662L19.4883 146.952L26.7504 159.531L34.0654 158.241Z" fill='080E24'/>
<path d="M68.4064 92.9331L26.8033 145.662L34.0654 158.241L100.532 148.576L93.4545 136.318L45.4322 143.293L75.4839 105.192L68.4064 92.9331Z" fill='080E24'/>
<path d="M68.4064 92.9331L26.8033 145.662M68.4064 92.9331L61.0914 94.2229L19.4883 146.952M68.4064 92.9331L75.4839 105.192L45.4322 143.293L93.4545 136.318L100.532 148.576L34.0654 158.241M26.8033 145.662L19.4883 146.952M26.8033 145.662L34.0654 158.241M19.4883 146.952L26.7504 159.531L34.0654 158.241" stroke="#1F1F1F" stroke-width="1.5"/>
<path d="M68.4064 92.9331L26.8033 145.662M68.4064 92.9331L61.0914 94.2229L19.4883 146.952M68.4064 92.9331L75.4839 105.192L45.4322 143.293L93.4545 136.318L100.532 148.576L34.0654 158.241M26.8033 145.662L19.4883 146.952M26.8033 145.662L34.0654 158.241M19.4883 146.952L26.7504 159.531L34.0654 158.241" stroke="url(#paint0_linear_773_990)" stroke-width="1.5"/>
<path d="M205.27 50.5815L175.218 88.6825L167.903 89.9723L197.955 51.8714L205.27 50.5815Z" fill='080E24'/>
<path d="M175.218 88.6825L182.296 100.941L174.981 102.231L167.903 89.9723L175.218 88.6825Z" fill='080E24'/>
<path d="M150.17 45.2981L157.248 57.5566L149.933 58.8464L142.855 46.5879L150.17 45.2981Z" fill='080E24'/>
<path d="M150.17 45.2981L216.637 35.6334L223.899 48.2117L182.296 100.941L175.218 88.6825L205.27 50.5815L157.248 57.5566L150.17 45.2981Z" fill='080E24'/>
<path d="M175.219 88.6825L205.27 50.5815M175.219 88.6825L167.903 89.9723M175.219 88.6825L182.296 100.941M205.27 50.5815L197.955 51.8714L167.903 89.9723M205.27 50.5815L157.248 57.5566M167.903 89.9723L174.981 102.231L182.296 100.941M182.296 100.941L223.899 48.2117L216.637 35.6334L150.17 45.2981M157.248 57.5566L150.17 45.2981M157.248 57.5566L149.933 58.8464L142.855 46.5879L150.17 45.2981" stroke="#1F1F1F" stroke-width="1.5"/>
<path d="M175.219 88.6825L205.27 50.5815M175.219 88.6825L167.903 89.9723M175.219 88.6825L182.296 100.941M205.27 50.5815L197.955 51.8714L167.903 89.9723M205.27 50.5815L157.248 57.5566M167.903 89.9723L174.981 102.231L182.296 100.941M182.296 100.941L223.899 48.2117L216.637 35.6334L150.17 45.2981M157.248 57.5566L150.17 45.2981M157.248 57.5566L149.933 58.8464L142.855 46.5879L150.17 45.2981" stroke="url(#paint1_linear_773_990)" stroke-width="1.5"/>
<path d="M111.526 51.7422L123.748 44.6857L116.433 45.9755L104.211 53.032L111.526 51.7422Z" fill='080E24'/>
<path d="M127.667 148.778L111.526 51.7422L104.211 53.032L120.352 150.067L127.667 148.778Z" fill='080E24'/>
<path d="M111.526 51.7422L127.667 148.778L139.889 141.721L123.748 44.6857L111.526 51.7422Z" fill='080E24'/>
<path d="M123.748 44.6857L111.526 51.7422M123.748 44.6857L116.433 45.9755L104.211 53.032M123.748 44.6857L139.889 141.721L127.667 148.778M111.526 51.7422L104.211 53.032M111.526 51.7422L127.667 148.778M104.211 53.032L120.352 150.067L127.667 148.778" stroke="#1F1F1F" stroke-width="1.5"/>
<path d="M123.748 44.6857L111.526 51.7422M123.748 44.6857L116.433 45.9755L104.211 53.032M123.748 44.6857L139.889 141.721L127.667 148.778M111.526 51.7422L104.211 53.032M111.526 51.7422L127.667 148.778M104.211 53.032L120.352 150.067L127.667 148.778" stroke="url(#paint2_linear_773_990)" stroke-width="1.5"/>
<path d="M68.4064 92.9331L26.8033 145.662L34.0654 158.241L100.532 148.576L93.4545 136.318L45.4322 143.293L75.4839 105.192L68.4064 92.9331Z" fill='080E24'/>
<path d="M68.4064 92.9331L26.8033 145.662M68.4064 92.9331L61.0914 94.2229L19.4883 146.952M68.4064 92.9331L75.4839 105.192L45.4322 143.293L93.4545 136.318L100.532 148.576L34.0654 158.241M26.8033 145.662L19.4883 146.952M26.8033 145.662L34.0654 158.241M19.4883 146.952L26.7504 159.531L34.0654 158.241" stroke="#1F1F1F" stroke-width="1.5"/>
<path d="M68.4064 92.9331L26.8033 145.662M68.4064 92.9331L61.0914 94.2229L19.4883 146.952M68.4064 92.9331L75.4839 105.192L45.4322 143.293L93.4545 136.318L100.532 148.576L34.0654 158.241M26.8033 145.662L19.4883 146.952M26.8033 145.662L34.0654 158.241M19.4883 146.952L26.7504 159.531L34.0654 158.241" stroke="url(#paint3_linear_773_990)" stroke-width="1.5"/>
<path d="M150.17 45.2981L216.637 35.6334L223.899 48.2117L182.296 100.941L175.218 88.6825L205.27 50.5815L157.248 57.5566L150.17 45.2981Z" fill='080E24'/>
<path d="M175.219 88.6825L205.27 50.5815M175.219 88.6825L167.903 89.9723M175.219 88.6825L182.296 100.941M205.27 50.5815L197.955 51.8714L167.903 89.9723M205.27 50.5815L157.248 57.5566M167.903 89.9723L174.981 102.231L182.296 100.941M182.296 100.941L223.899 48.2117L216.637 35.6334L150.17 45.2981M157.248 57.5566L150.17 45.2981M157.248 57.5566L149.933 58.8464L142.855 46.5879L150.17 45.2981" stroke="#1F1F1F" stroke-width="1.5"/>
<path d="M175.219 88.6825L205.27 50.5815M175.219 88.6825L167.903 89.9723M175.219 88.6825L182.296 100.941M205.27 50.5815L197.955 51.8714L167.903 89.9723M205.27 50.5815L157.248 57.5566M167.903 89.9723L174.981 102.231L182.296 100.941M182.296 100.941L223.899 48.2117L216.637 35.6334L150.17 45.2981M157.248 57.5566L150.17 45.2981M157.248 57.5566L149.933 58.8464L142.855 46.5879L150.17 45.2981" stroke="url(#paint4_linear_773_990)" stroke-width="1.5"/>
<path d="M111.526 51.7422L127.667 148.778L139.889 141.721L123.748 44.6857L111.526 51.7422Z" fill='080E24'/>
<path d="M123.748 44.6857L111.526 51.7422M123.748 44.6857L116.433 45.9755L104.211 53.032M123.748 44.6857L139.889 141.721L127.667 148.778M111.526 51.7422L104.211 53.032M111.526 51.7422L127.667 148.778M104.211 53.032L120.352 150.067L127.667 148.778" stroke="#1F1F1F" stroke-width="1.5"/>
<path d="M123.748 44.6857L111.526 51.7422M123.748 44.6857L116.433 45.9755L104.211 53.032M123.748 44.6857L139.889 141.721L127.667 148.778M111.526 51.7422L104.211 53.032M111.526 51.7422L127.667 148.778M104.211 53.032L120.352 150.067L127.667 148.778" stroke="url(#paint5_linear_773_990)" stroke-width="1.5"/>
<defs>
<linearGradient id="paint0_linear_773_990" x1="37.0964" y1="108.076" x2="70.4921" y2="165.919" gradientUnits="userSpaceOnUse">
<stop stop-color="#1480FF"/>
<stop offset="1" stop-color="#1328DE"/>
</linearGradient>
<linearGradient id="paint1_linear_773_990" x1="172.895" y1="29.2444" x2="206.291" y2="87.0875" gradientUnits="userSpaceOnUse">
<stop stop-color="#1480FF"/>
<stop offset="1" stop-color="#1328DE"/>
</linearGradient>
<linearGradient id="paint2_linear_773_990" x1="98.3883" y1="56.3937" x2="145.711" y2="138.359" gradientUnits="userSpaceOnUse">
<stop stop-color="#1480FF"/>
<stop offset="1" stop-color="#1328DE"/>
</linearGradient>
<linearGradient id="paint3_linear_773_990" x1="37.0964" y1="108.076" x2="70.4921" y2="165.919" gradientUnits="userSpaceOnUse">
<stop stop-color="#1480FF"/>
<stop offset="1" stop-color="#1328DE"/>
</linearGradient>
<linearGradient id="paint4_linear_773_990" x1="172.895" y1="29.2444" x2="206.291" y2="87.0875" gradientUnits="userSpaceOnUse">
<stop stop-color="#1480FF"/>
<stop offset="1" stop-color="#1328DE"/>
</linearGradient>
<linearGradient id="paint5_linear_773_990" x1="98.3883" y1="56.3937" x2="145.711" y2="138.359" gradientUnits="userSpaceOnUse">
<stop stop-color="#1480FF"/>
<stop offset="1" stop-color="#1328DE"/>
</linearGradient>
</defs>
</svg>
