<svg width="122" height="75" viewBox="0 0 122 75" fill="none" xmlns="http://www.w3.org/2000/svg">
<path d="M77.0488 34.963L77.0492 34.9638C76.6532 35.193 76.0271 35.2136 75.2103 34.7336L75.2094 34.7331C74.3851 34.2511 73.6086 33.3979 73.0357 32.3898C72.4633 31.3826 72.1213 30.2686 72.1172 29.2952C72.1174 28.3139 72.4504 27.759 72.8431 27.5207L72.8432 27.5209L72.8549 27.5133L114.209 0.814017L114.209 0.814119L114.218 0.807952C114.849 0.380638 115.839 0.337592 117.084 1.07149L117.085 1.07209C118.277 1.77024 119.386 2.99171 120.198 4.42115C121.01 5.85021 121.498 7.43977 121.498 8.84433C121.498 10.3238 120.972 11.1859 120.287 11.536L120.287 11.5358L120.276 11.5417L77.0488 34.963Z" fill="#080E24" stroke="url(#paint0_linear_789_1053)"/>
<path d="M74.6857 27.7616L74.6857 27.7616L74.6873 27.7625C75.5115 28.2445 76.288 29.0977 76.8609 30.1058C77.4334 31.113 77.7753 32.2271 77.7794 33.2005C77.7792 34.1838 77.4453 34.7386 77.0528 34.971C76.6646 35.2009 76.0383 35.2216 75.2109 34.7337L75.2094 34.7329C74.3851 34.2508 73.6086 33.3976 73.0357 32.3896C72.4633 31.3824 72.1213 30.2683 72.1172 29.2949C72.1174 28.3116 72.4513 27.7568 72.8439 27.5243C73.232 27.2945 73.8583 27.2737 74.6857 27.7616Z" fill="#080E24" stroke="url(#paint1_linear_789_1053)"/>
<path d="M66.9765 38.0641C66.5145 37.7933 66.0684 37.308 65.7353 36.7214C65.4028 36.1357 65.2091 35.4949 65.2051 34.9432C65.2054 34.3977 65.3894 34.1412 65.5499 34.0427L73.7609 29.1637C73.9143 29.075 74.2132 29.0347 74.6795 29.3055C75.1414 29.5763 75.5875 30.0617 75.9206 30.6483C76.2532 31.234 76.4469 31.8747 76.4509 32.4264C76.4505 32.972 76.2666 33.2284 76.1061 33.327L67.8951 38.2059C67.7416 38.2946 67.4428 38.3349 66.9765 38.0641Z" fill="#080E24" stroke="url(#paint2_linear_789_1053)"/>
<path d="M66.9765 38.0641C66.5145 37.7933 66.0684 37.308 65.7353 36.7214C65.4028 36.1357 65.2091 35.4949 65.2051 34.9432C65.2054 34.3977 65.3894 34.1412 65.5499 34.0427L73.7609 29.1637C73.9143 29.075 74.2132 29.0347 74.6795 29.3055C75.1414 29.5763 75.5875 30.0617 75.9206 30.6483C76.2532 31.234 76.4469 31.8747 76.4509 32.4264C76.4505 32.972 76.2666 33.2284 76.1061 33.327L67.8951 38.2059C67.7416 38.2946 67.4428 38.3349 66.9765 38.0641Z" fill="#080E24" stroke="url(#paint3_linear_789_1053)"/>
<path d="M75.4424 41.9153C75.5977 42.4529 75.7358 42.9904 75.8307 43.5367C75.8653 43.6865 75.8912 43.8363 75.9084 43.9773C75.9602 44.365 76.0033 44.7615 76.0206 45.158L75.4424 41.9153ZM75.4424 41.9153C75.4208 41.8405 75.3971 41.7656 75.3734 41.6907C75.3496 41.6158 75.3259 41.5409 75.3043 41.466L75.4424 41.9153ZM68.6162 32.6279C69.7639 33.5267 70.7823 34.4783 71.6539 35.4564C72.3874 36.2583 73.0347 37.0954 73.5783 37.9501C73.6905 38.1263 73.794 38.2937 73.8976 38.4612L68.6162 32.6279ZM68.6162 32.6279C67.477 31.7291 66.1998 30.8567 64.7931 30.0372L68.6162 32.6279ZM75.5211 45.1798L75.5218 45.196L75.5235 45.2121C75.5373 45.339 75.5379 45.4785 75.5379 45.6515V45.6521V45.6526V45.6532V45.6538V45.6543V45.6549V45.6555V45.6561V45.6566V45.6572V45.6578V45.6584V45.6589V45.6595V45.6601V45.6607V45.6613V45.6618V45.6624V45.663V45.6636V45.6642V45.6648V45.6654V45.6659V45.6665V45.6671V45.6677V45.6683V45.6689V45.6695V45.6701V45.6707V45.6713V45.6719V45.6725V45.6731V45.6737V45.6743V45.6749V45.6755V45.6761V45.6767V45.6773V45.6779V45.6785V45.6791V45.6797V45.6803V45.6809V45.6815V45.6821V45.6827V45.6833V45.684V45.6846V45.6852V45.6858V45.6864V45.687V45.6876V45.6883V45.6889V45.6895V45.6901V45.6907V45.6914V45.692V45.6926V45.6932V45.6939V45.6945V45.6951V45.6957V45.6964V45.697V45.6976V45.6983V45.6989V45.6995V45.7002V45.7008V45.7014V45.7021V45.7027V45.7034V45.704V45.7046V45.7053V45.7059V45.7066V45.7072V45.7078V45.7085V45.7091V45.7098V45.7104V45.7111V45.7117V45.7124V45.713V45.7137V45.7143V45.715V45.7156V45.7163V45.717V45.7176V45.7183V45.7189V45.7196V45.7202V45.7209V45.7216V45.7222V45.7229V45.7236V45.7242V45.7249V45.7256V45.7262V45.7269V45.7276V45.7282V45.7289V45.7296V45.7303V45.7309V45.7316V45.7323V45.733V45.7336V45.7343V45.735V45.7357V45.7364V45.737V45.7377V45.7384V45.7391V45.7398V45.7405V45.7411V45.7418V45.7425V45.7432V45.7439V45.7446V45.7453V45.746V45.7467V45.7474V45.7481V45.7488V45.7495V45.7502V45.7509V45.7516V45.7523V45.753V45.7537V45.7544V45.7551V45.7558V45.7565V45.7572V45.7579V45.7586V45.7593V45.76V45.7607V45.7614V45.7622V45.7629V45.7636V45.7643V45.765V45.7657V45.7664V45.7672V45.7679V45.7686V45.7693V45.7701V45.7708V45.7715V45.7722V45.773V45.7737V45.7744V45.7751V45.7759V45.7766V45.7773V45.7781V45.7788V45.7795V45.7803V45.781V45.7817V45.7825V45.7832V45.784V45.7847V45.7854V45.7862V45.7869V45.7877V45.7884V45.7892V45.7899V45.7906V45.7914V45.7921V45.7929V45.7936V45.7944V45.7951V45.7959V45.7967V45.7974V45.7982V45.7989V45.7997V45.8004V45.8012V45.802V45.8027V45.8035V45.8042V45.805V45.8058V45.8065V45.8073V45.8081V45.8088V45.8096V45.8104V45.8112V45.8119V45.8127V45.8135V45.8143V45.815V45.8158V45.8166V45.8174V45.8181V45.8189V45.8197V45.8205V45.8213V45.8221V45.8228V45.8236V45.8244V45.8252V45.826V45.8268V45.8276V45.8284V45.8292V45.83V45.8307V45.8315V45.8323V45.8331V45.8339V45.8347V45.8355V45.8363V45.8371V45.8379V45.8387V45.8395V45.8403V45.8412V45.842V45.8428V45.8436V45.8444V45.8452V45.846V45.8468V45.8476V45.8484V45.8493V45.8501V45.8509V45.8517V45.8525V45.8528L75.5267 45.8642L75.5293 46.0718C75.5379 46.7673 75.5332 48.0664 75.5289 49.2538C75.5248 50.3748 75.5211 51.3962 75.5293 51.716C75.6191 57.2461 72.0896 62.9004 64.6862 67.2585L64.6859 67.2587C57.3589 71.5778 47.724 73.7519 38.0621 73.7519C28.4002 73.7519 18.7653 71.5778 11.4383 67.2587C4.0577 62.8988 0.483511 57.267 0.50006 51.7506V51.7491C0.50006 50.9609 0.500086 46.6944 0.517236 45.7576L0.517319 45.7576V45.7484C0.517319 45.5131 0.525555 45.2689 0.542072 45.0243L0.543209 45.0075V44.9906C0.543209 44.9546 0.545955 44.9136 0.550528 44.8506L0.550987 44.8442C0.554587 44.7947 0.559328 44.7295 0.560293 44.6622C0.652788 43.6237 0.868577 42.5773 1.21562 41.5564L1.21566 41.5564L1.21754 41.5506C1.26778 41.3967 1.31557 41.259 1.36991 41.1243L1.37625 41.1085L1.38151 41.0924C1.43402 40.9316 1.49745 40.7833 1.57261 40.6077C1.58409 40.5808 1.59584 40.5534 1.60786 40.5251L1.61282 40.5135L1.61718 40.5016C1.66004 40.3849 1.72018 40.2533 1.78674 40.1174L1.78684 40.1174L1.79126 40.1079C1.94193 39.7831 2.10108 39.4666 2.27738 39.1408C2.43572 38.8515 2.60347 38.5688 2.78318 38.2717C2.91154 38.062 3.04091 37.8561 3.17527 37.6705L3.18233 37.6608L3.18891 37.6507C3.28574 37.5024 3.39162 37.3526 3.49839 37.2101L3.49841 37.2101L3.50116 37.2063C4.10611 36.3827 4.80533 35.5738 5.59123 34.7885C5.89505 34.4869 6.21596 34.1851 6.54537 33.8919C7.62987 32.9316 8.85136 32.0047 10.2274 31.1287L10.2274 31.1287L10.2307 31.1266C10.5793 30.9009 10.9274 30.6842 11.2923 30.4676C18.5756 26.171 28.1885 24.0078 37.8507 24.0078C47.5128 24.0078 57.1703 26.171 64.5413 30.4692L64.5415 30.4693C65.9286 31.2774 67.1864 32.1366 68.3065 33.0204L68.3079 33.0215C69.4341 33.9034 70.4303 34.8349 71.2806 35.7891L71.285 35.7939C72.0006 36.5762 72.6297 37.3904 73.1565 38.2185L73.1566 38.2186C73.2657 38.3901 73.3667 38.5533 73.4695 38.7194C73.5693 38.8895 73.6602 39.0499 73.7509 39.2182L73.7553 39.2264L73.76 39.2344C73.8547 39.3956 73.9348 39.5507 74.0182 39.7209L74.1994 40.0909L74.6484 39.871L74.1994 40.091C74.2646 40.2241 74.3215 40.3486 74.3787 40.4821L74.3815 40.4885C74.5462 40.8585 74.695 41.2377 74.8278 41.618C74.8504 41.6956 74.8746 41.7719 74.8967 41.8417C74.9208 41.9177 74.9425 41.9863 74.9619 42.0538L74.9621 42.0542C75.1149 42.5831 75.2476 43.1012 75.3381 43.6223L75.3405 43.6357L75.3435 43.649C75.374 43.7814 75.3969 43.914 75.4121 44.038L75.4128 44.0435C75.4636 44.4238 75.5047 44.8041 75.5211 45.1798ZM12.9066 33.3868L12.8497 33.4204L12.8409 33.4293C7.09194 36.8357 3.77185 41.132 3.77185 45.7484C3.77185 50.3801 7.17432 54.813 13.0708 58.2864C19.6972 62.201 28.5749 64.3387 38.0578 64.3387C47.541 64.3387 56.4188 62.2009 63.0537 58.2863L63.0538 58.2862C68.9075 54.8301 72.2574 50.4412 72.2575 45.863L72.2574 45.861C72.2391 41.2468 68.8361 36.8412 62.9135 33.3944C56.236 29.4983 47.3072 27.3784 37.8334 27.3784C28.3597 27.3784 19.4989 29.4982 12.9066 33.3868Z" fill="#080E24" stroke="url(#paint4_linear_789_1053)"/>
<path d="M75.4424 41.9153C75.5977 42.4529 75.7358 42.9904 75.8307 43.5367C75.8653 43.6865 75.8912 43.8363 75.9084 43.9773C75.9602 44.365 76.0033 44.7615 76.0206 45.158L75.4424 41.9153ZM75.4424 41.9153C75.4208 41.8405 75.3971 41.7656 75.3734 41.6907C75.3496 41.6158 75.3259 41.5409 75.3043 41.466L75.4424 41.9153ZM68.6162 32.6279C69.7639 33.5267 70.7823 34.4783 71.6539 35.4564C72.3874 36.2583 73.0347 37.0954 73.5783 37.9501C73.6905 38.1263 73.794 38.2937 73.8976 38.4612L68.6162 32.6279ZM68.6162 32.6279C67.477 31.7291 66.1998 30.8567 64.7931 30.0372L68.6162 32.6279ZM75.5211 45.1798L75.5218 45.196L75.5235 45.2121C75.5373 45.339 75.5379 45.4785 75.5379 45.6515V45.6521V45.6526V45.6532V45.6538V45.6543V45.6549V45.6555V45.6561V45.6566V45.6572V45.6578V45.6584V45.6589V45.6595V45.6601V45.6607V45.6613V45.6618V45.6624V45.663V45.6636V45.6642V45.6648V45.6654V45.6659V45.6665V45.6671V45.6677V45.6683V45.6689V45.6695V45.6701V45.6707V45.6713V45.6719V45.6725V45.6731V45.6737V45.6743V45.6749V45.6755V45.6761V45.6767V45.6773V45.6779V45.6785V45.6791V45.6797V45.6803V45.6809V45.6815V45.6821V45.6827V45.6833V45.684V45.6846V45.6852V45.6858V45.6864V45.687V45.6876V45.6883V45.6889V45.6895V45.6901V45.6907V45.6914V45.692V45.6926V45.6932V45.6939V45.6945V45.6951V45.6957V45.6964V45.697V45.6976V45.6983V45.6989V45.6995V45.7002V45.7008V45.7014V45.7021V45.7027V45.7034V45.704V45.7046V45.7053V45.7059V45.7066V45.7072V45.7078V45.7085V45.7091V45.7098V45.7104V45.7111V45.7117V45.7124V45.713V45.7137V45.7143V45.715V45.7156V45.7163V45.717V45.7176V45.7183V45.7189V45.7196V45.7202V45.7209V45.7216V45.7222V45.7229V45.7236V45.7242V45.7249V45.7256V45.7262V45.7269V45.7276V45.7282V45.7289V45.7296V45.7303V45.7309V45.7316V45.7323V45.733V45.7336V45.7343V45.735V45.7357V45.7364V45.737V45.7377V45.7384V45.7391V45.7398V45.7405V45.7411V45.7418V45.7425V45.7432V45.7439V45.7446V45.7453V45.746V45.7467V45.7474V45.7481V45.7488V45.7495V45.7502V45.7509V45.7516V45.7523V45.753V45.7537V45.7544V45.7551V45.7558V45.7565V45.7572V45.7579V45.7586V45.7593V45.76V45.7607V45.7614V45.7622V45.7629V45.7636V45.7643V45.765V45.7657V45.7664V45.7672V45.7679V45.7686V45.7693V45.7701V45.7708V45.7715V45.7722V45.773V45.7737V45.7744V45.7751V45.7759V45.7766V45.7773V45.7781V45.7788V45.7795V45.7803V45.781V45.7817V45.7825V45.7832V45.784V45.7847V45.7854V45.7862V45.7869V45.7877V45.7884V45.7892V45.7899V45.7906V45.7914V45.7921V45.7929V45.7936V45.7944V45.7951V45.7959V45.7967V45.7974V45.7982V45.7989V45.7997V45.8004V45.8012V45.802V45.8027V45.8035V45.8042V45.805V45.8058V45.8065V45.8073V45.8081V45.8088V45.8096V45.8104V45.8112V45.8119V45.8127V45.8135V45.8143V45.815V45.8158V45.8166V45.8174V45.8181V45.8189V45.8197V45.8205V45.8213V45.8221V45.8228V45.8236V45.8244V45.8252V45.826V45.8268V45.8276V45.8284V45.8292V45.83V45.8307V45.8315V45.8323V45.8331V45.8339V45.8347V45.8355V45.8363V45.8371V45.8379V45.8387V45.8395V45.8403V45.8412V45.842V45.8428V45.8436V45.8444V45.8452V45.846V45.8468V45.8476V45.8484V45.8493V45.8501V45.8509V45.8517V45.8525V45.8528L75.5267 45.8642L75.5293 46.0718C75.5379 46.7673 75.5332 48.0664 75.5289 49.2538C75.5248 50.3748 75.5211 51.3962 75.5293 51.716C75.6191 57.2461 72.0896 62.9004 64.6862 67.2585L64.6859 67.2587C57.3589 71.5778 47.724 73.7519 38.0621 73.7519C28.4002 73.7519 18.7653 71.5778 11.4383 67.2587C4.0577 62.8988 0.483511 57.267 0.50006 51.7506V51.7491C0.50006 50.9609 0.500086 46.6944 0.517236 45.7576L0.517319 45.7576V45.7484C0.517319 45.5131 0.525555 45.2689 0.542072 45.0243L0.543209 45.0075V44.9906C0.543209 44.9546 0.545955 44.9136 0.550528 44.8506L0.550987 44.8442C0.554587 44.7947 0.559328 44.7295 0.560293 44.6622C0.652788 43.6237 0.868577 42.5773 1.21562 41.5564L1.21566 41.5564L1.21754 41.5506C1.26778 41.3967 1.31557 41.259 1.36991 41.1243L1.37625 41.1085L1.38151 41.0924C1.43402 40.9316 1.49745 40.7833 1.57261 40.6077C1.58409 40.5808 1.59584 40.5534 1.60786 40.5251L1.61282 40.5135L1.61718 40.5016C1.66004 40.3849 1.72018 40.2533 1.78674 40.1174L1.78684 40.1174L1.79126 40.1079C1.94193 39.7831 2.10108 39.4666 2.27738 39.1408C2.43572 38.8515 2.60347 38.5688 2.78318 38.2717C2.91154 38.062 3.04091 37.8561 3.17527 37.6705L3.18233 37.6608L3.18891 37.6507C3.28574 37.5024 3.39162 37.3526 3.49839 37.2101L3.49841 37.2101L3.50116 37.2063C4.10611 36.3827 4.80533 35.5738 5.59123 34.7885C5.89505 34.4869 6.21596 34.1851 6.54537 33.8919C7.62987 32.9316 8.85136 32.0047 10.2274 31.1287L10.2274 31.1287L10.2307 31.1266C10.5793 30.9009 10.9274 30.6842 11.2923 30.4676C18.5756 26.171 28.1885 24.0078 37.8507 24.0078C47.5128 24.0078 57.1703 26.171 64.5413 30.4692L64.5415 30.4693C65.9286 31.2774 67.1864 32.1366 68.3065 33.0204L68.3079 33.0215C69.4341 33.9034 70.4303 34.8349 71.2806 35.7891L71.285 35.7939C72.0006 36.5762 72.6297 37.3904 73.1565 38.2185L73.1566 38.2186C73.2657 38.3901 73.3667 38.5533 73.4695 38.7194C73.5693 38.8895 73.6602 39.0499 73.7509 39.2182L73.7553 39.2264L73.76 39.2344C73.8547 39.3956 73.9348 39.5507 74.0182 39.7209L74.1994 40.0909L74.6484 39.871L74.1994 40.091C74.2646 40.2241 74.3215 40.3486 74.3787 40.4821L74.3815 40.4885C74.5462 40.8585 74.695 41.2377 74.8278 41.618C74.8504 41.6956 74.8746 41.7719 74.8967 41.8417C74.9208 41.9177 74.9425 41.9863 74.9619 42.0538L74.9621 42.0542C75.1149 42.5831 75.2476 43.1012 75.3381 43.6223L75.3405 43.6357L75.3435 43.649C75.374 43.7814 75.3969 43.914 75.4121 44.038L75.4128 44.0435C75.4636 44.4238 75.5047 44.8041 75.5211 45.1798ZM12.9066 33.3868L12.8497 33.4204L12.8409 33.4293C7.09194 36.8357 3.77185 41.132 3.77185 45.7484C3.77185 50.3801 7.17432 54.813 13.0708 58.2864C19.6972 62.201 28.5749 64.3387 38.0578 64.3387C47.541 64.3387 56.4188 62.2009 63.0537 58.2863L63.0538 58.2862C68.9075 54.8301 72.2574 50.4412 72.2575 45.863L72.2574 45.861C72.2391 41.2468 68.8361 36.8412 62.9135 33.3944C56.236 29.4983 47.3072 27.3784 37.8334 27.3784C28.3597 27.3784 19.4989 29.4982 12.9066 33.3868Z" fill="#080E24" stroke="url(#paint5_linear_789_1053)"/>
<path d="M11.1827 61.6358C3.72653 57.2476 -0.00157509 51.4936 0.0156847 45.7484L11.1827 61.6358ZM11.1827 61.6358C26.0261 70.3858 50.0948 70.3858 64.9382 61.6358H11.1827ZM62.9117 33.4031C68.8343 36.8499 72.2375 41.2556 72.2558 45.8698L72.2558 45.8718C72.2558 50.45 68.9059 54.8389 63.0522 58.295L63.0502 58.2924C56.4165 62.2032 47.543 64.3387 38.0648 64.3387C28.5819 64.3387 19.7042 62.2011 13.0778 58.2864C7.18132 54.813 3.77884 50.3801 3.77884 45.7484C3.77884 41.1167 7.12092 36.8073 12.905 33.3956C19.4973 29.5071 28.358 27.3872 37.8318 27.3872C47.3055 27.3872 56.2341 29.507 62.9117 33.4031ZM62.9117 33.4031C62.9118 33.4031 62.9118 33.4032 62.9119 33.4032L62.6599 33.8351L62.9114 33.4029C62.9115 33.403 62.9116 33.403 62.9117 33.4031ZM75.5194 45.1798L75.5201 45.196L75.5219 45.2121C75.5241 45.2326 75.526 45.2534 75.5276 45.2746V45.6515V45.6521V45.6526V45.6532V45.6538V45.6543V45.6549V45.6555V45.6561V45.6566V45.6572V45.6578V45.6584V45.6589V45.6595V45.6601V45.6607V45.6613V45.6618V45.6624V45.663V45.6636V45.6642V45.6648V45.6654V45.6659V45.6665V45.6671V45.6677V45.6683V45.6689V45.6695V45.6701V45.6707V45.6713V45.6719V45.6725V45.6731V45.6737V45.6743V45.6749V45.6755V45.6761V45.6767V45.6773V45.6779V45.6785V45.6791V45.6797V45.6803V45.6809V45.6815V45.6821V45.6827V45.6833V45.684V45.6846V45.6852V45.6858V45.6864V45.687V45.6876V45.6883V45.6889V45.6895V45.6901V45.6907V45.6914V45.692V45.6926V45.6932V45.6939V45.6945V45.6951V45.6958V45.6964V45.697V45.6976V45.6983V45.6989V45.6995V45.7002V45.7008V45.7014V45.7021V45.7027V45.7034V45.704V45.7046V45.7053V45.7059V45.7066V45.7072V45.7078V45.7085V45.7091V45.7098V45.7104V45.7111V45.7117V45.7124V45.713V45.7137V45.7143V45.715V45.7156V45.7163V45.717V45.7176V45.7183V45.7189V45.7196V45.7202V45.7209V45.7216V45.7222V45.7229V45.7236V45.7242V45.7249V45.7256V45.7262V45.7269V45.7276V45.7282V45.7289V45.7296V45.7303V45.7309V45.7316V45.7323V45.733V45.7336V45.7343V45.735V45.7357V45.7364V45.737V45.7377V45.7384V45.7391V45.7398V45.7405V45.7411V45.7418V45.7425V45.7432V45.7439V45.7446V45.7453V45.746V45.7467V45.7474V45.7481V45.7488V45.7495V45.7502V45.7509V45.7516V45.7523V45.753V45.7537V45.7544V45.7551V45.7558V45.7565V45.7572V45.7579V45.7586V45.7593V45.76V45.7607V45.7614V45.7622V45.7629V45.7636V45.7643V45.765V45.7657V45.7665V45.7672V45.7679V45.7686V45.7693V45.7701V45.7708V45.7715V45.7722V45.773V45.7737V45.7744V45.7751V45.7759V45.7766V45.7773V45.7781V45.7788V45.7795V45.7803V45.781V45.7817V45.7825V45.7832V45.784V45.7847V45.7854V45.7862V45.7869V45.7877V45.7884V45.7892V45.7899V45.7906V45.7914V45.7921V45.7929V45.7936V45.7944V45.7951V45.7959V45.7967V45.7974V45.7982V45.7989V45.7997V45.8004V45.8012V45.802V45.8027V45.8035V45.8043V45.805V45.8058V45.8065V45.8073V45.8081V45.8089V45.8096V45.8104V45.8112V45.8119V45.8127V45.8135V45.8143V45.815V45.8158V45.8166V45.8174V45.8181V45.8189V45.8197V45.8205V45.8213V45.8221V45.8228V45.8236V45.8244V45.8252V45.826V45.8268V45.8276V45.8284V45.8292V45.83V45.8307V45.8315V45.8323V45.8331V45.8339V45.8347V45.8355V45.8363V45.8371V45.8379V45.8387V45.8395V45.8403V45.8412V45.842V45.8428V45.8436V45.8444V45.8452V45.846V45.8468V45.8476V45.8484V45.8493V45.8501V45.8509V45.8517V45.8525V45.8534V45.8542V45.855V45.8558V45.8566V45.8575V45.8583V45.8591V45.8599V45.8608V45.8616V45.8624V45.8633V45.8641V45.8649V45.8658V45.8666V45.8674V45.8683V45.8691V45.8699V45.8708V45.8716V45.8725V45.8733V45.8741V45.875V45.8758V45.8767V45.8775V45.8784V45.8792V45.8801V45.8809V45.8818V45.8826V45.8835V45.8843V45.8852V45.886V45.8869V45.8878V45.8886V45.8895V45.8903V45.8912V45.8921V45.8929V45.8938V45.8947V45.8955V45.8964V45.8973V45.8981V45.899V45.8999V45.9007V45.9016V45.9025V45.9034V45.9042V45.9051V45.906V45.9069V45.9078V45.9086V45.9095V45.9104V45.9113V45.9122V45.9131V45.9139V45.9148V45.9157V45.9166V45.9175V45.9184V45.9193V45.9202V45.9211V45.922V45.9229V45.9238V45.9247V45.9255V45.9264V45.9273V45.9283V45.9292V45.9301V45.931V45.9319V45.9328V45.9337V45.9346V45.9355V45.9364V45.9373V45.9382V45.9391V45.9401V45.941V45.9419V45.9428V45.9437V45.9446V45.9456V45.9465V45.9474V45.9483V45.9492V45.9502V45.9511V45.952V45.953V45.9539V45.9548V45.9557V45.9567V45.9576V45.9585V45.9595V45.9604V45.9613V45.9623V45.9632V45.9642V45.9651V45.966V45.967V45.9679V45.9689V45.9698V45.9708V45.9717V45.9727V45.9736V45.9746V45.9755V45.9765V45.9774V45.9784V45.9793V45.9803V45.9812V45.9822V45.9831V45.9841V45.9851V45.986V45.987V45.988V45.9889V45.9899V45.9908V45.9918V45.9928V45.9938V45.9947V45.9957V45.9967V45.9976V45.9986V45.9996V46.0006V46.0015V46.0025V46.0035V46.0045V46.0055V46.0064V46.0074V46.0084V46.0094V46.0104V46.0114V46.0124V46.0133V46.0143V46.0153V46.0163V46.0173V46.0183V46.0193V46.0203V46.0213V46.0223V46.0233V46.0243V46.0253V46.0263V46.0273V46.0283V46.0293V46.0303V46.0313V46.0323V46.0333V46.0343V46.0354V46.0364V46.0374V46.0384V46.0394V46.0404V46.0414V46.0425V46.0435V46.0445V46.0455V46.0465V46.0476V46.0486V46.0496V46.0506V46.0517V46.0527V46.0537V46.0538C75.4601 51.4582 71.9097 56.9508 64.6845 61.205L64.6843 61.2051C57.3573 65.5242 47.7224 67.6983 38.0605 67.6983C28.3986 67.6983 18.7636 65.5242 11.4367 61.2051L11.4363 61.2049C4.07294 56.8713 0.499138 51.2571 0.515685 45.7499V45.7484C0.515685 45.5131 0.52392 45.2689 0.540438 45.0243L0.541574 45.0075V44.9906C0.541574 44.9547 0.54432 44.9136 0.548894 44.8506L0.549353 44.8442C0.552952 44.7947 0.557693 44.7295 0.558658 44.6622C0.651154 43.6237 0.866942 42.5773 1.21399 41.5564L1.21402 41.5564L1.21591 41.5506C1.26615 41.3967 1.31394 41.259 1.36828 41.1243L1.37461 41.1085L1.37987 41.0924C1.43238 40.9316 1.49582 40.7833 1.57099 40.6076C1.58246 40.5808 1.59421 40.5534 1.60623 40.5251L1.61118 40.5135L1.61555 40.5016C1.65841 40.3849 1.71854 40.2533 1.78511 40.1174L1.7852 40.1174L1.78962 40.1079C1.9403 39.7831 2.09945 39.4666 2.27575 39.1408C2.43407 38.8516 2.6018 38.5688 2.78148 38.2718C2.90986 38.062 3.03925 37.8562 3.17363 37.6705L3.18069 37.6608L3.18728 37.6507C3.28411 37.5024 3.38998 37.3526 3.49675 37.2101L3.49677 37.2101L3.49952 37.2063C4.10446 36.3828 4.80365 35.5738 5.58952 34.7886C5.8934 34.487 6.21437 34.1851 6.54384 33.8918C7.62831 32.9316 8.84977 32.0047 10.2258 31.1287L10.2258 31.1287L10.2291 31.1266C10.5776 30.9009 10.9257 30.6842 11.2906 30.4676C18.574 26.171 28.1868 24.0078 37.849 24.0078C47.5112 24.0078 57.1687 26.171 64.5396 30.4692L64.5398 30.4693C65.927 31.2774 67.1847 32.1366 68.3048 33.0204C69.4322 33.9119 70.4208 34.8355 71.2806 35.7909L71.2833 35.7939C71.999 36.5762 72.6281 37.3904 73.1548 38.2185L73.1549 38.2186C73.2641 38.3901 73.3651 38.5533 73.4679 38.7195C73.5677 38.8895 73.6586 39.05 73.7493 39.2182L73.7537 39.2264L73.7584 39.2344C73.8531 39.3956 73.9332 39.5507 74.0165 39.7208L74.1978 40.0909C74.263 40.224 74.3199 40.3486 74.3771 40.4821L74.3799 40.4885C74.5446 40.8585 74.6934 41.2377 74.8262 41.618C74.8484 41.6942 74.8721 41.7692 74.8939 41.8379L74.8951 41.8417C74.9192 41.9177 74.9409 41.9863 74.9603 42.0538L74.9604 42.0542C75.1133 42.5831 75.246 43.1012 75.3365 43.6223L75.3388 43.6357L75.3419 43.649C75.3724 43.7814 75.3953 43.914 75.4105 44.038L75.4112 44.0435C75.462 44.4238 75.5031 44.8041 75.5194 45.1798Z" fill="#080E24" stroke="url(#paint6_linear_789_1053)"/>
<path d="M11.1827 61.6358C3.72653 57.2476 -0.00157509 51.4936 0.0156847 45.7484L11.1827 61.6358ZM11.1827 61.6358C26.0261 70.3858 50.0948 70.3858 64.9382 61.6358H11.1827ZM62.9117 33.4031C68.8343 36.8499 72.2375 41.2556 72.2558 45.8698L72.2558 45.8718C72.2558 50.45 68.9059 54.8389 63.0522 58.295L63.0502 58.2924C56.4165 62.2032 47.543 64.3387 38.0648 64.3387C28.5819 64.3387 19.7042 62.2011 13.0778 58.2864C7.18132 54.813 3.77884 50.3801 3.77884 45.7484C3.77884 41.1167 7.12092 36.8073 12.905 33.3956C19.4973 29.5071 28.358 27.3872 37.8318 27.3872C47.3055 27.3872 56.2341 29.507 62.9117 33.4031ZM62.9117 33.4031C62.9118 33.4031 62.9118 33.4032 62.9119 33.4032L62.6599 33.8351L62.9114 33.4029C62.9115 33.403 62.9116 33.403 62.9117 33.4031ZM75.5194 45.1798L75.5201 45.196L75.5219 45.2121C75.5241 45.2326 75.526 45.2534 75.5276 45.2746V45.6515V45.6521V45.6526V45.6532V45.6538V45.6543V45.6549V45.6555V45.6561V45.6566V45.6572V45.6578V45.6584V45.6589V45.6595V45.6601V45.6607V45.6613V45.6618V45.6624V45.663V45.6636V45.6642V45.6648V45.6654V45.6659V45.6665V45.6671V45.6677V45.6683V45.6689V45.6695V45.6701V45.6707V45.6713V45.6719V45.6725V45.6731V45.6737V45.6743V45.6749V45.6755V45.6761V45.6767V45.6773V45.6779V45.6785V45.6791V45.6797V45.6803V45.6809V45.6815V45.6821V45.6827V45.6833V45.684V45.6846V45.6852V45.6858V45.6864V45.687V45.6876V45.6883V45.6889V45.6895V45.6901V45.6907V45.6914V45.692V45.6926V45.6932V45.6939V45.6945V45.6951V45.6958V45.6964V45.697V45.6976V45.6983V45.6989V45.6995V45.7002V45.7008V45.7014V45.7021V45.7027V45.7034V45.704V45.7046V45.7053V45.7059V45.7066V45.7072V45.7078V45.7085V45.7091V45.7098V45.7104V45.7111V45.7117V45.7124V45.713V45.7137V45.7143V45.715V45.7156V45.7163V45.717V45.7176V45.7183V45.7189V45.7196V45.7202V45.7209V45.7216V45.7222V45.7229V45.7236V45.7242V45.7249V45.7256V45.7262V45.7269V45.7276V45.7282V45.7289V45.7296V45.7303V45.7309V45.7316V45.7323V45.733V45.7336V45.7343V45.735V45.7357V45.7364V45.737V45.7377V45.7384V45.7391V45.7398V45.7405V45.7411V45.7418V45.7425V45.7432V45.7439V45.7446V45.7453V45.746V45.7467V45.7474V45.7481V45.7488V45.7495V45.7502V45.7509V45.7516V45.7523V45.753V45.7537V45.7544V45.7551V45.7558V45.7565V45.7572V45.7579V45.7586V45.7593V45.76V45.7607V45.7614V45.7622V45.7629V45.7636V45.7643V45.765V45.7657V45.7665V45.7672V45.7679V45.7686V45.7693V45.7701V45.7708V45.7715V45.7722V45.773V45.7737V45.7744V45.7751V45.7759V45.7766V45.7773V45.7781V45.7788V45.7795V45.7803V45.781V45.7817V45.7825V45.7832V45.784V45.7847V45.7854V45.7862V45.7869V45.7877V45.7884V45.7892V45.7899V45.7906V45.7914V45.7921V45.7929V45.7936V45.7944V45.7951V45.7959V45.7967V45.7974V45.7982V45.7989V45.7997V45.8004V45.8012V45.802V45.8027V45.8035V45.8043V45.805V45.8058V45.8065V45.8073V45.8081V45.8089V45.8096V45.8104V45.8112V45.8119V45.8127V45.8135V45.8143V45.815V45.8158V45.8166V45.8174V45.8181V45.8189V45.8197V45.8205V45.8213V45.8221V45.8228V45.8236V45.8244V45.8252V45.826V45.8268V45.8276V45.8284V45.8292V45.83V45.8307V45.8315V45.8323V45.8331V45.8339V45.8347V45.8355V45.8363V45.8371V45.8379V45.8387V45.8395V45.8403V45.8412V45.842V45.8428V45.8436V45.8444V45.8452V45.846V45.8468V45.8476V45.8484V45.8493V45.8501V45.8509V45.8517V45.8525V45.8534V45.8542V45.855V45.8558V45.8566V45.8575V45.8583V45.8591V45.8599V45.8608V45.8616V45.8624V45.8633V45.8641V45.8649V45.8658V45.8666V45.8674V45.8683V45.8691V45.8699V45.8708V45.8716V45.8725V45.8733V45.8741V45.875V45.8758V45.8767V45.8775V45.8784V45.8792V45.8801V45.8809V45.8818V45.8826V45.8835V45.8843V45.8852V45.886V45.8869V45.8878V45.8886V45.8895V45.8903V45.8912V45.8921V45.8929V45.8938V45.8947V45.8955V45.8964V45.8973V45.8981V45.899V45.8999V45.9007V45.9016V45.9025V45.9034V45.9042V45.9051V45.906V45.9069V45.9078V45.9086V45.9095V45.9104V45.9113V45.9122V45.9131V45.9139V45.9148V45.9157V45.9166V45.9175V45.9184V45.9193V45.9202V45.9211V45.922V45.9229V45.9238V45.9247V45.9255V45.9264V45.9273V45.9283V45.9292V45.9301V45.931V45.9319V45.9328V45.9337V45.9346V45.9355V45.9364V45.9373V45.9382V45.9391V45.9401V45.941V45.9419V45.9428V45.9437V45.9446V45.9456V45.9465V45.9474V45.9483V45.9492V45.9502V45.9511V45.952V45.953V45.9539V45.9548V45.9557V45.9567V45.9576V45.9585V45.9595V45.9604V45.9613V45.9623V45.9632V45.9642V45.9651V45.966V45.967V45.9679V45.9689V45.9698V45.9708V45.9717V45.9727V45.9736V45.9746V45.9755V45.9765V45.9774V45.9784V45.9793V45.9803V45.9812V45.9822V45.9831V45.9841V45.9851V45.986V45.987V45.988V45.9889V45.9899V45.9908V45.9918V45.9928V45.9938V45.9947V45.9957V45.9967V45.9976V45.9986V45.9996V46.0006V46.0015V46.0025V46.0035V46.0045V46.0055V46.0064V46.0074V46.0084V46.0094V46.0104V46.0114V46.0124V46.0133V46.0143V46.0153V46.0163V46.0173V46.0183V46.0193V46.0203V46.0213V46.0223V46.0233V46.0243V46.0253V46.0263V46.0273V46.0283V46.0293V46.0303V46.0313V46.0323V46.0333V46.0343V46.0354V46.0364V46.0374V46.0384V46.0394V46.0404V46.0414V46.0425V46.0435V46.0445V46.0455V46.0465V46.0476V46.0486V46.0496V46.0506V46.0517V46.0527V46.0537V46.0538C75.4601 51.4582 71.9097 56.9508 64.6845 61.205L64.6843 61.2051C57.3573 65.5242 47.7224 67.6983 38.0605 67.6983C28.3986 67.6983 18.7636 65.5242 11.4367 61.2051L11.4363 61.2049C4.07294 56.8713 0.499138 51.2571 0.515685 45.7499V45.7484C0.515685 45.5131 0.52392 45.2689 0.540438 45.0243L0.541574 45.0075V44.9906C0.541574 44.9547 0.54432 44.9136 0.548894 44.8506L0.549353 44.8442C0.552952 44.7947 0.557693 44.7295 0.558658 44.6622C0.651154 43.6237 0.866942 42.5773 1.21399 41.5564L1.21402 41.5564L1.21591 41.5506C1.26615 41.3967 1.31394 41.259 1.36828 41.1243L1.37461 41.1085L1.37987 41.0924C1.43238 40.9316 1.49582 40.7833 1.57099 40.6076C1.58246 40.5808 1.59421 40.5534 1.60623 40.5251L1.61118 40.5135L1.61555 40.5016C1.65841 40.3849 1.71854 40.2533 1.78511 40.1174L1.7852 40.1174L1.78962 40.1079C1.9403 39.7831 2.09945 39.4666 2.27575 39.1408C2.43407 38.8516 2.6018 38.5688 2.78148 38.2718C2.90986 38.062 3.03925 37.8562 3.17363 37.6705L3.18069 37.6608L3.18728 37.6507C3.28411 37.5024 3.38998 37.3526 3.49675 37.2101L3.49677 37.2101L3.49952 37.2063C4.10446 36.3828 4.80365 35.5738 5.58952 34.7886C5.8934 34.487 6.21437 34.1851 6.54384 33.8918C7.62831 32.9316 8.84977 32.0047 10.2258 31.1287L10.2258 31.1287L10.2291 31.1266C10.5776 30.9009 10.9257 30.6842 11.2906 30.4676C18.574 26.171 28.1868 24.0078 37.849 24.0078C47.5112 24.0078 57.1687 26.171 64.5396 30.4692L64.5398 30.4693C65.927 31.2774 67.1847 32.1366 68.3048 33.0204C69.4322 33.9119 70.4208 34.8355 71.2806 35.7909L71.2833 35.7939C71.999 36.5762 72.6281 37.3904 73.1548 38.2185L73.1549 38.2186C73.2641 38.3901 73.3651 38.5533 73.4679 38.7195C73.5677 38.8895 73.6586 39.05 73.7493 39.2182L73.7537 39.2264L73.7584 39.2344C73.8531 39.3956 73.9332 39.5507 74.0165 39.7208L74.1978 40.0909C74.263 40.224 74.3199 40.3486 74.3771 40.4821L74.3799 40.4885C74.5446 40.8585 74.6934 41.2377 74.8262 41.618C74.8484 41.6942 74.8721 41.7692 74.8939 41.8379L74.8951 41.8417C74.9192 41.9177 74.9409 41.9863 74.9603 42.0538L74.9604 42.0542C75.1133 42.5831 75.246 43.1012 75.3365 43.6223L75.3388 43.6357L75.3419 43.649C75.3724 43.7814 75.3953 43.914 75.4105 44.038L75.4112 44.0435C75.462 44.4238 75.5031 44.8041 75.5194 45.1798Z" fill="#080E24" stroke="url(#paint7_linear_789_1053)"/>
<path d="M62.757 32.8168L62.7574 32.8171C68.6272 36.4809 71.7281 40.9948 71.7447 45.4844C71.7447 45.5243 71.7445 45.5641 71.744 45.6039C70.3166 42.3343 67.41 39.2809 63.287 36.7121C56.5154 32.4747 47.4764 30.1681 37.8483 30.1681C28.2202 30.1681 19.2501 32.4747 12.565 36.7039C8.56339 39.2252 5.73034 42.2271 4.32857 45.4436C4.32827 45.4119 4.32812 45.3802 4.32812 45.3484C4.32812 40.896 7.36978 36.4306 13.0992 32.8059L12.8319 32.3834L13.0992 32.8059C19.5916 28.6985 28.3839 26.4248 37.8483 26.4248C47.3127 26.4248 56.1761 28.6986 62.757 32.8168Z" fill="#080E24" stroke="url(#paint8_linear_789_1053)"/>
<path d="M62.757 32.8168L62.7574 32.8171C68.6272 36.4809 71.7281 40.9948 71.7447 45.4844C71.7447 45.5243 71.7445 45.5641 71.744 45.6039C70.3166 42.3343 67.41 39.2809 63.287 36.7121C56.5154 32.4747 47.4764 30.1681 37.8483 30.1681C28.2202 30.1681 19.2501 32.4747 12.565 36.7039C8.56339 39.2252 5.73034 42.2271 4.32857 45.4436C4.32827 45.4119 4.32812 45.3802 4.32812 45.3484C4.32812 40.896 7.36978 36.4306 13.0992 32.8059L12.8319 32.3834L13.0992 32.8059C19.5916 28.6985 28.3839 26.4248 37.8483 26.4248C47.3127 26.4248 56.1761 28.6986 62.757 32.8168Z" fill="#080E24" stroke="url(#paint9_linear_789_1053)"/>
<defs>
<linearGradient id="paint0_linear_789_1053" x1="96.8078" y1="0" x2="96.8078" y2="35.6209" gradientUnits="userSpaceOnUse">
<stop stop-color="#1480FF"/>
<stop offset="1" stop-color="#4F7ECC"/>
</linearGradient>
<linearGradient id="paint1_linear_789_1053" x1="74.9483" y1="26.8672" x2="74.9483" y2="35.6282" gradientUnits="userSpaceOnUse">
<stop stop-color="#1480FF"/>
<stop offset="1" stop-color="#4F7ECC"/>
</linearGradient>
<linearGradient id="paint2_linear_789_1053" x1="70.828" y1="28.5967" x2="70.828" y2="38.773" gradientUnits="userSpaceOnUse">
<stop stop-color="#1480FF"/>
<stop offset="1" stop-color="#4F7ECC"/>
</linearGradient>
<linearGradient id="paint3_linear_789_1053" x1="70.828" y1="28.5967" x2="70.828" y2="38.773" gradientUnits="userSpaceOnUse">
<stop stop-color="#1480FF"/>
<stop offset="1" stop-color="#4F7ECC"/>
</linearGradient>
<linearGradient id="paint4_linear_789_1053" x1="38.0189" y1="23.5078" x2="38.0189" y2="74.2519" gradientUnits="userSpaceOnUse">
<stop stop-color="#1480FF"/>
<stop offset="1" stop-color="#4F7ECC"/>
</linearGradient>
<linearGradient id="paint5_linear_789_1053" x1="38.0189" y1="23.5078" x2="38.0189" y2="74.2519" gradientUnits="userSpaceOnUse">
<stop stop-color="#1480FF"/>
<stop offset="1" stop-color="#4F7ECC"/>
</linearGradient>
<linearGradient id="paint6_linear_789_1053" x1="38.0259" y1="23.5078" x2="38.0259" y2="68.1983" gradientUnits="userSpaceOnUse">
<stop stop-color="#1480FF"/>
<stop offset="1" stop-color="#4F7ECC"/>
</linearGradient>
<linearGradient id="paint7_linear_789_1053" x1="38.0259" y1="23.5078" x2="38.0259" y2="68.1983" gradientUnits="userSpaceOnUse">
<stop stop-color="#1480FF"/>
<stop offset="1" stop-color="#4F7ECC"/>
</linearGradient>
<linearGradient id="paint8_linear_789_1053" x1="38.0364" y1="25.9248" x2="38.0364" y2="47.8686" gradientUnits="userSpaceOnUse">
<stop stop-color="#1480FF"/>
<stop offset="1" stop-color="#4F7ECC"/>
</linearGradient>
<linearGradient id="paint9_linear_789_1053" x1="38.0364" y1="25.9248" x2="38.0364" y2="47.8686" gradientUnits="userSpaceOnUse">
<stop stop-color="#1480FF"/>
<stop offset="1" stop-color="#4F7ECC"/>
</linearGradient>
</defs>
</svg>
